G04 DipTrace 2.3.1.0*
%INBottom.gbr*%
%MOIN*%
%ADD13C,0.0138*%
%ADD14C,0.1181*%
%ADD15C,0.0984*%
%ADD16C,0.0591*%
%ADD17C,0.1969*%
%ADD18C,0.2756*%
%ADD19C,0.1575*%
%ADD20C,0.0787*%
%ADD21C,0.2362*%
%ADD22C,0.2953*%
%ADD23C,0.315*%
%ADD24C,0.1063*%
%ADD25C,0.025*%
%ADD27R,0.063X0.063*%
%ADD28C,0.063*%
%ADD29O,0.0787X0.1575*%
%ADD30O,0.2756X0.1181*%
%ADD31R,0.0591X0.0591*%
%ADD32C,0.0591*%
%ADD33C,0.0551*%
%ADD34C,0.065*%
%ADD35C,0.06*%
%ADD36C,0.06*%
%ADD37R,0.0748X0.0748*%
%ADD38C,0.0748*%
%ADD40R,0.1266X0.1266*%
%ADD41C,0.07*%
%FSLAX44Y44*%
G04*
G70*
G90*
G75*
G01*
%LNBottom*%
%LPD*%
X53054Y40428D2*
D13*
Y38678D1*
X56804Y42053D2*
X55679Y40928D1*
X52554D1*
X47304D1*
X46554Y41678D1*
X48304Y39928D1*
Y38928D1*
X47929Y5304D2*
X48429Y4803D1*
X50304D1*
X50804Y5303D1*
X53054Y40428D2*
X52554Y40928D1*
X56804Y42053D2*
X59429D1*
X59554Y42178D1*
X62054D1*
X63300Y40932D1*
X64979D1*
X65666Y41620D1*
Y42057D1*
X65916Y42307D1*
X67666D1*
X68554Y41419D1*
Y5695D1*
X67916Y5057D1*
X63916D2*
X57166D1*
X56666Y5557D1*
X51058D1*
X50804Y5303D1*
X48304Y38928D2*
X47679Y38303D1*
X37929D1*
X35304Y35678D1*
X30304D1*
X28927Y34301D1*
Y13364D2*
X27599Y12037D1*
Y10804D1*
X27600Y12116D2*
X27599Y12037D1*
X61804Y39678D2*
Y40678D1*
Y38678D1*
Y41678D1*
X45554D2*
Y40678D1*
X47304Y38928D1*
X42554D2*
X43804D1*
X45554Y40678D1*
X47929Y8304D2*
X50804D1*
Y8303D1*
X59804Y10054D2*
X61287D1*
Y10053D1*
X62054D1*
X8701Y7075D2*
X6054Y9721D1*
Y12678D1*
X6129Y12753D1*
X7947Y14571D1*
X8701D1*
X6129Y12753D2*
X6054Y12828D1*
Y20178D1*
X7943Y22067D1*
X8701D1*
Y29564D2*
X6054Y26917D1*
Y20178D1*
X8701Y37060D2*
X6054Y34413D1*
Y26917D1*
X8701Y14571D2*
X9093Y14178D1*
X12819Y41178D2*
X14054D1*
X18081Y32447D2*
X21416Y29111D1*
X24304Y26224D1*
Y21428D1*
X24693Y21817D1*
Y22067D1*
X34804Y40578D2*
X33311Y42072D1*
X29947D1*
X29554Y41678D1*
Y40578D1*
X17554Y38678D2*
X20948Y42072D1*
X29947D1*
X34804Y40578D2*
X36904Y42678D1*
X45054D1*
X45554Y42178D1*
Y41678D1*
X18081Y32447D2*
X18054Y32473D1*
Y32928D1*
X17554Y33428D1*
X13054D1*
X9189Y29564D1*
X8701D1*
X18081Y17447D2*
X18312Y17678D1*
X21258D1*
X18081Y17447D2*
X18054Y17473D1*
Y18928D1*
X16304Y20678D1*
X13304D1*
X11304Y18678D1*
Y17928D1*
Y17803D1*
X8072Y14571D1*
X8701D1*
X12492Y14678D2*
Y16741D1*
X11304Y17928D1*
X14054Y41178D2*
X11804D1*
X11054Y41928D1*
X7554D1*
X6304Y40678D1*
Y39457D1*
X8701Y37060D1*
X14054Y41178D2*
X15054D1*
X17554Y38678D1*
X37554Y8279D2*
D14*
Y9428D1*
X36804Y10178D1*
X33663D1*
X32804Y9320D1*
D13*
Y8279D1*
X40041Y6307D2*
X40554Y6820D1*
Y7053D1*
X40804Y7303D1*
X41394D1*
X42054D1*
X43054Y6304D1*
X45304D1*
Y6303D1*
X46054Y7053D1*
Y7178D1*
X47179Y8304D1*
X47929D1*
X53629Y29428D2*
Y26928D1*
Y24503D1*
X53554Y24428D1*
Y21928D2*
Y24428D1*
Y21928D2*
Y20811D1*
Y19178D1*
X59304Y31678D2*
X59054D1*
X58554Y31178D1*
Y28678D1*
X59804Y27428D1*
X60812D1*
X61804D1*
X62304Y27928D1*
Y28678D1*
X58831Y26447D2*
X59831D1*
X62062Y28678D2*
X62304D1*
X12492Y14678D2*
D15*
X11847D1*
X11285Y14117D1*
Y11072D1*
X12804Y9553D1*
Y7803D1*
X13679Y6928D1*
X14579D1*
X16179Y8529D1*
X64166Y38932D2*
D13*
Y37932D1*
X61804Y41678D2*
X62679Y40803D1*
Y40419D1*
X64166Y38932D1*
X45554Y42178D2*
X46054Y42678D1*
X55054D1*
X55143Y42589D1*
X55268D1*
X55804Y42053D1*
X59831Y26447D2*
X60366Y25912D1*
X62696D1*
X63054Y25553D1*
X64429D1*
X65331Y24652D1*
Y23205D1*
X64831Y22705D1*
Y21697D1*
X53554Y20811D2*
X54423Y21680D1*
X64831D1*
Y21697D1*
X53554Y19178D2*
X54804D1*
X58804Y15178D1*
X60416D1*
Y11807D2*
X60581D1*
Y10760D1*
X61287Y10053D1*
X64103Y41745D2*
X64916D1*
Y40307D2*
Y39744D1*
X64135Y38963D1*
X64166Y38932D1*
X55268Y42589D2*
X63259D1*
X64103Y41745D1*
Y40307D2*
X64166D1*
Y38932D1*
X59831Y26447D2*
X60812Y27428D1*
X37554Y8279D2*
Y6553D1*
X39304Y4803D1*
X41179D1*
X41679Y5303D1*
Y7928D2*
X41394Y7643D1*
Y7303D1*
X44054Y10053D2*
Y10303D1*
X44554Y10803D1*
X45304D1*
X45916Y10191D1*
Y8166D1*
X45554Y7803D1*
X44804D1*
X43304Y6304D1*
X43054D1*
X20804Y8529D2*
Y9098D1*
D15*
X23095Y6807D1*
X31333D1*
X32804Y8279D1*
X8701Y22067D2*
D13*
X9568D1*
X10929Y23428D1*
X16520D1*
Y23520D1*
X17054Y24053D1*
X21679D1*
X24304Y21429D1*
Y21428D1*
X16179Y8529D2*
Y8553D1*
D15*
X17804Y6928D1*
X19286D1*
X20911Y8553D1*
Y9098D1*
D13*
X20804D1*
X24304Y36428D2*
X23175Y37557D1*
X22541D1*
Y29182D2*
Y27884D1*
X24304Y26224D1*
X22541Y37557D2*
X22416Y37682D1*
X21416D1*
Y29682D2*
Y29111D1*
X50804Y8303D2*
X51170D1*
X52916Y6557D1*
X56291D1*
X56791Y7057D1*
X58041D1*
X59416Y5682D1*
X66170D1*
X66916Y6428D1*
Y9116D1*
X66229Y9803D1*
X62054Y10053D2*
X62554Y10553D1*
Y12928D1*
X66229D2*
Y9803D1*
X64916Y40307D2*
X65416D1*
X66166Y41057D1*
X66666D1*
X64916Y40307D2*
D3*
X30804Y14678D2*
Y13678D1*
Y34678D2*
Y33678D1*
Y14678D2*
Y15321D1*
X31412Y15929D1*
Y20680D2*
X28100D1*
X27724Y20305D1*
X25428D1*
X24304Y21428D1*
X34163Y11991D2*
X32600D1*
X30850Y10241D1*
X27287D1*
X26787Y10741D1*
Y12162D1*
X28801Y14176D1*
X30302D1*
X30804Y14678D1*
X53804Y34678D2*
Y34604D1*
X54304Y34104D1*
Y33167D1*
X58540Y28931D1*
Y28678D1*
X58554D1*
X30804Y33678D2*
X30722D1*
X30287Y33244D1*
X26412D1*
X24724Y34931D1*
Y36008D1*
X24304Y36428D1*
X17581Y18447D2*
D16*
X18081Y17947D1*
Y17447D1*
X18581Y18447D2*
X18081Y17947D1*
X17581Y18447D2*
X18581D1*
X23804Y22428D2*
X24304Y21928D1*
Y21428D1*
X24804Y22428D2*
X24304Y21928D1*
X23804Y22428D2*
X24804D1*
X17581Y31447D2*
X18081Y31947D1*
Y32447D1*
X18581Y31447D2*
X18081Y31947D1*
X18581Y31447D2*
X17581D1*
X23804Y35428D2*
X24304Y35928D1*
Y36428D1*
X24804Y35428D2*
X24304Y35928D1*
X23804Y35428D2*
X24804D1*
X42554Y39928D2*
X41973D1*
D14*
X43723Y41678D1*
D16*
X44554D1*
X26304Y36428D2*
D14*
Y37053D1*
D17*
X27429Y38178D1*
D18*
X31554D1*
D17*
Y40578D1*
X26304Y36428D2*
D14*
Y37178D1*
X27304Y38178D1*
D18*
X35429D1*
D17*
X36804Y39553D1*
Y40578D1*
X26304Y36428D2*
D16*
X28179Y38303D1*
X35804D1*
D17*
X38304Y40803D1*
X42554D1*
D16*
Y39928D1*
X26304Y36428D2*
D13*
Y36553D1*
X27541Y37791D1*
Y39182D1*
D19*
X26289Y40435D1*
D14*
X25266D1*
D13*
D3*
X25804Y35428D2*
D16*
X26023Y35647D1*
X26304Y35928D1*
Y36428D1*
X26804Y35428D2*
X26304Y35928D1*
X26023Y35647D2*
X26242Y35428D1*
X26804D1*
X61831Y23455D2*
D13*
X61804D1*
Y22553D1*
X61304Y22053D1*
X55429D1*
X54304Y23178D1*
X49554D2*
X49479Y23104D1*
Y21928D1*
X41929D1*
X42004Y29428D2*
X49554D1*
X64831Y23455D2*
X64528D1*
X62429Y25553D1*
X58929D1*
X57429Y27053D1*
Y28303D1*
X56054Y29678D1*
Y30428D1*
X49554D2*
Y29428D1*
X41929Y26928D2*
X49554D1*
X63831Y23455D2*
X62107Y25178D1*
X58554D1*
X56554Y27178D1*
Y27678D1*
X56054Y28178D1*
X49554D2*
Y26928D1*
X42004Y24428D2*
X49479D1*
X49429Y24378D1*
Y25678D1*
X54304D2*
X57304Y22678D1*
X60929D1*
X61331Y23080D1*
Y23830D1*
X61679Y24178D1*
X62179D1*
X62831Y23527D1*
Y23455D1*
X41929Y19178D2*
X49479D1*
X65831Y26447D2*
X66479Y25799D1*
Y22353D1*
X65322Y21197D1*
X58181D1*
X57413Y20428D1*
X54304D1*
X49429Y20553D2*
X48054Y19178D1*
X49479D1*
X63166Y37932D2*
Y32566D1*
X65054Y30678D1*
Y26670D1*
X64831Y26447D1*
X61831D2*
X62812Y27428D1*
X65804D2*
Y30678D1*
X63666Y32816D1*
Y38432D1*
X63166Y38932D1*
X58054Y40428D2*
Y38678D1*
X53554Y5053D2*
X56054D1*
X25266Y39254D2*
D20*
Y39057D1*
D14*
X19933D1*
X19554Y38678D1*
X8701Y40808D2*
D13*
Y40282D1*
X12054Y36928D1*
X20179D1*
X26679Y30428D1*
X36929D1*
X37929Y29428D1*
X23304Y15678D2*
X24179Y16553D1*
X24679D1*
X24929Y16803D1*
Y18053D1*
X24179Y18803D1*
X21554D1*
Y18678D1*
X21258D1*
X20304Y11678D2*
Y15803D1*
X21054Y16553D1*
X22429D1*
X23304Y15678D1*
X21758Y18178D2*
X22470Y17466D1*
X24017D1*
X8701Y18319D2*
X12310Y21928D1*
X17054D1*
X19554Y19428D1*
X35354D1*
X37854Y21928D1*
X8701Y10823D2*
X8679D1*
Y11760D1*
X10410Y13491D1*
Y14492D1*
X11660Y15741D1*
X21554Y15678D2*
Y15928D1*
X22804Y14678D1*
X23804D1*
X25054Y15928D1*
X28304D1*
X30054Y17678D1*
X36304D1*
X37804Y19178D1*
X37854D1*
X8701Y10823D2*
D19*
X11179Y8344D1*
Y6803D1*
X12679Y5303D1*
X32679D1*
X35554Y8178D1*
D13*
Y8278D1*
X60304Y31678D2*
Y31928D1*
X60804Y32428D1*
X62554D1*
X64554Y30428D1*
Y27170D1*
X63831Y26447D1*
X30804Y8278D2*
X30492Y7966D1*
D20*
X25561D1*
X16081Y17447D2*
D21*
Y15777D1*
D22*
X17429Y14428D1*
D23*
Y11678D1*
D13*
X16304Y11178D1*
D15*
X14179Y9053D1*
Y8528D1*
X18804D2*
Y9053D1*
X16679Y11178D1*
X16304D1*
X16081Y17447D2*
D13*
X16054D1*
Y13678D1*
X18054Y11678D1*
X19304D1*
X24379Y7966D2*
D15*
X21667Y10678D1*
X18429D1*
X17429Y11678D1*
X23304Y11604D2*
D13*
X22379Y10678D1*
D15*
X21667D1*
X14054Y38178D2*
D13*
X12410D1*
X12304Y18428D2*
X13286Y17447D1*
X16081D1*
X12492Y11678D2*
X14179Y9991D1*
Y8528D1*
X24379Y7966D2*
X26342Y9929D1*
X31350D1*
X32725Y11304D1*
X37288D1*
X38804Y9788D1*
Y6544D1*
X40041Y5307D1*
X40663Y5928D1*
X41929D1*
X42554Y5304D1*
X43054D1*
X45304Y5303D2*
X43804D1*
X43054D1*
Y5304D1*
X53554Y10053D2*
X56054D1*
X57929D1*
X58304Y9678D1*
Y8178D1*
X59429Y7054D1*
X59804D1*
X62054D1*
Y7053D1*
X59831Y18697D2*
Y16697D1*
Y18697D2*
X59804D1*
X61304Y28678D2*
Y29178D1*
X61804Y29678D1*
X62554D1*
X63554Y28678D1*
Y27170D1*
X62831Y26447D1*
Y26402D1*
X63304Y25928D1*
X65054D1*
X65804Y25178D1*
Y23455D1*
X65831D1*
X63554Y28678D2*
X63804Y28928D1*
Y29928D1*
X67554D2*
Y30678D1*
X67982Y31107D1*
X68054Y31178D1*
Y15428D1*
X67993Y15367D1*
X67493D1*
X65956Y13830D1*
X65041Y12916D1*
Y11307D1*
X58666D2*
X57166D1*
X56054Y10195D1*
Y10053D1*
X67993Y15367D2*
X68054D1*
Y6195D1*
X66291Y4432D1*
X47291D1*
X46420Y5303D1*
X45304D1*
X59831Y18697D2*
X60562Y19428D1*
X64054D1*
X64286Y19197D1*
X65143D1*
X65956Y18384D1*
Y13830D1*
X43804Y5303D2*
X44166Y4941D1*
Y9182D2*
X45038Y10053D1*
X45054D1*
X19554Y10678D2*
X19304Y10928D1*
D24*
Y11678D1*
X67982Y31107D2*
D13*
X68041D1*
Y38182D1*
X67166Y39057D1*
X66666D1*
X62054Y7053D2*
X65479D1*
X66229Y7803D1*
X16081Y17447D2*
D20*
D3*
X16581Y18447D2*
D16*
Y17947D1*
D20*
X16081Y17447D1*
X15581Y18447D2*
D16*
X16581D1*
X50804Y34678D2*
D13*
X51054D1*
X51929Y35553D1*
X59054D1*
X60179Y36678D1*
Y39303D1*
X60554Y39678D1*
X60804D1*
X47804Y33678D2*
X48304Y34178D1*
X50054D1*
X50304Y34428D1*
Y34928D1*
X51304Y35928D1*
X58429D1*
X59304Y36803D1*
Y39928D1*
X60054Y40678D1*
X60804D1*
X40041Y7307D2*
X39304Y8044D1*
Y10678D1*
X37554Y12428D1*
X35054D1*
X33804Y13678D1*
X40041Y8307D2*
Y10441D1*
X37554Y12928D1*
X35804D1*
X35304Y13428D1*
Y13928D1*
X35054Y14178D1*
X34304D1*
X33804Y14678D1*
X44804Y34678D2*
X45429Y35303D1*
X49679D1*
X50679Y36303D1*
X57679D1*
X58804Y37428D1*
Y40428D1*
X60054Y41678D1*
X60804D1*
X53554Y7053D2*
X56054D1*
X42804Y13678D2*
X44054Y12428D1*
X45554D1*
X48675Y9307D1*
X50916D1*
X53170Y7053D1*
X53554D1*
Y9053D2*
X56054D1*
X43804Y14678D2*
X45054Y15928D1*
X46304D1*
X47304Y14928D1*
Y13053D1*
X48179Y12178D1*
X49670D1*
X52795Y9053D1*
X53554D1*
Y8053D2*
X56054D1*
X53554D2*
X52795D1*
X51041Y9807D1*
X48675D1*
X45679Y12803D1*
X44679D1*
X43804Y13678D1*
X47929Y6304D2*
X50804D1*
Y6303D1*
X44804Y14678D2*
X45433Y15307D1*
X45916D1*
X46304Y14919D1*
Y13419D1*
X48216Y11507D1*
X49341D1*
X49916Y10932D1*
X49791D1*
Y5553D2*
X50054D1*
X50804Y6303D1*
X47929Y7304D2*
X50804D1*
Y7303D1*
X44804Y13678D2*
X45300Y13182D1*
X45916D1*
X48166Y10932D1*
X48916D1*
Y5553D2*
X48554D1*
X48304Y5803D1*
X47304D1*
X47054Y6053D1*
Y7053D1*
X47304Y7304D1*
X47929D1*
X57054Y40428D2*
X56554Y39928D1*
Y37678D1*
X55929Y37053D1*
X50429D1*
X49429Y36053D1*
X39179D1*
X38304Y35178D1*
Y34428D1*
X38804Y33928D1*
Y33678D1*
X57054Y38678D2*
Y37178D1*
X56554Y36678D1*
X50554D1*
X49554Y35678D1*
X39554D1*
X38804Y34928D1*
Y34678D1*
X37804Y33678D2*
X39179Y32303D1*
X48429D1*
X57304D2*
X60804Y35803D1*
Y38678D1*
X56054Y40428D2*
Y38678D1*
X37804Y34678D2*
Y35178D1*
X39054Y36428D1*
X49429D1*
X50429Y37428D1*
X54804D1*
X56054Y38678D1*
X54054Y40428D2*
Y38678D1*
X36804Y33678D2*
X36304Y34178D1*
Y35178D1*
X38304Y37178D1*
X49179D1*
X50179Y38178D1*
X53554D1*
X54054Y38678D1*
X55054Y40428D2*
Y38678D1*
X54179Y37803D1*
X50304D1*
X49304Y36803D1*
X38429D1*
X36804Y35178D1*
Y34678D1*
X60831Y23455D2*
Y23652D1*
X59804Y24678D1*
X58304D1*
X55304Y27678D1*
Y31178D1*
X52804Y33678D1*
X59831Y23455D2*
Y23431D1*
X59804Y23404D1*
Y23678D1*
X59304Y24178D1*
X58054D1*
X54804Y27428D1*
Y30928D1*
X52304Y33428D1*
Y34178D1*
X52804Y34678D1*
X51804Y33678D2*
Y33178D1*
X54304Y30678D1*
Y27178D1*
X58028Y23455D1*
X58831D1*
X61304Y31678D2*
Y30678D1*
X60304Y29678D1*
Y28678D1*
Y29678D2*
Y30679D1*
X59804Y31178D1*
Y32178D1*
X59554Y32428D1*
X58804D1*
X57804Y31428D1*
X57054D1*
X56054Y32428D1*
Y34428D1*
X55304Y35178D1*
X52304D1*
X51804Y34678D1*
X28600Y12116D2*
X29963D1*
X30088Y11991D1*
X31804Y14678D2*
X31663D1*
X31600Y14742D1*
X31912D1*
X31304Y14133D1*
Y13321D1*
X30031Y12048D1*
X30088Y11991D1*
X43054Y7304D2*
X43666Y7916D1*
Y8432D1*
X42916Y9182D1*
X41541D1*
X41166Y9557D1*
Y10316D1*
X38304Y13178D1*
Y14178D1*
X37804Y14678D1*
X43054Y8304D2*
X42920D1*
X42541Y8682D1*
X41416D1*
X40541Y9557D1*
Y10441D1*
X37804Y13178D1*
Y13678D1*
X43054Y10053D2*
X43041Y10066D1*
Y9932D1*
X42666Y9557D1*
X41791D1*
X41541Y9807D1*
Y10441D1*
X39304Y12678D1*
Y14178D1*
X38804Y14678D1*
X39804D2*
X40304Y14178D1*
Y13294D1*
X41041Y12557D1*
Y6553D2*
X41804D1*
X42554Y5803D1*
X46054D1*
X46554Y6303D1*
Y7053D1*
X47304Y7803D1*
X51054D1*
X52804Y6053D1*
X53554D1*
X42054Y10053D2*
Y10553D1*
X39804Y12803D1*
Y13678D1*
X45304Y7303D2*
X45538D1*
X46416Y8182D1*
Y11066D1*
X45429Y12053D1*
X43554D1*
X42304Y13303D1*
Y13928D1*
X41554Y14678D1*
X41804D1*
X45304Y8303D2*
X44170D1*
X43554Y8919D1*
Y11178D1*
X41804Y12928D1*
Y13678D1*
X56054Y6053D2*
X57045D1*
X57416Y5682D1*
X58291D1*
Y13557D2*
X57425D1*
X53804Y17178D1*
X44804D1*
X42804Y15178D1*
Y14678D1*
X54804Y42053D2*
X54179Y41428D1*
X50605D1*
X49980Y42053D1*
X49804D1*
X49554Y41803D1*
Y39428D2*
Y38928D1*
X48554Y37928D1*
X38097D1*
X35304Y35135D1*
Y34178D1*
X35804Y33678D1*
X53804Y42053D2*
X50992D1*
Y39678D2*
Y39553D1*
X50492Y39053D1*
X50286D1*
X48786Y37553D1*
X38223D1*
X35804Y35135D1*
Y34678D1*
X47804Y14678D2*
X48304Y14178D1*
Y13428D1*
X48554Y13178D1*
X51054D1*
X52175Y12057D1*
X58791D1*
X59229Y11620D1*
Y7870D1*
X59541Y7557D1*
X63433D1*
X63808Y7932D1*
X65357D1*
X66229Y8803D1*
Y6803D2*
Y6434D1*
X65977Y6182D1*
X59541D1*
X57291Y8432D1*
Y9057D1*
X56791Y9557D1*
X53041D1*
X49920Y12678D1*
X48554D1*
X47804Y13428D1*
Y13678D1*
X66666Y40057D2*
X66291D1*
X65728Y39494D1*
Y37932D1*
X66916Y36744D1*
Y31540D1*
X66304Y30928D1*
Y28428D1*
X67054Y27678D1*
Y21678D1*
X65572Y20197D1*
X60322D1*
X58554Y18428D1*
Y16572D1*
X50947D2*
X49804Y15428D1*
Y14678D1*
Y13678D2*
X50304Y14178D1*
Y15178D1*
X51054Y15928D1*
X53804D1*
X66554D2*
X67554Y16928D1*
Y28928D1*
X66804Y29678D1*
Y30428D1*
X67416Y31040D1*
Y37494D1*
X66853Y38057D1*
X66666D1*
X14054Y40178D2*
X15054Y39178D1*
Y38178D1*
X15929Y37303D1*
X20304D1*
X25679Y31928D1*
X36804D1*
X38554Y30178D1*
Y17928D1*
X37804Y17178D1*
X30554D1*
X26304Y12928D1*
X24554D1*
X23804Y13678D1*
X22304D1*
X21554Y14428D1*
X14554D2*
X13804Y13678D1*
X12492D1*
X59804Y9054D2*
X62054D1*
Y9053D1*
X62429D1*
X63206Y9830D1*
Y16072D1*
X63831Y16697D1*
X64831Y17697D1*
X52804Y14678D2*
Y14928D1*
X52679Y14803D1*
X53304Y14178D1*
Y13428D1*
X53800Y12932D1*
X60041D1*
X61558D1*
X63206Y14580D1*
Y16072D1*
X38554Y30178D2*
X47679D1*
X48554Y31053D1*
X51804D2*
Y18928D1*
X53008Y17724D1*
X55249D1*
X60041Y12932D1*
X59804Y8054D2*
X62054D1*
Y8053D1*
X63831Y18697D2*
X64831D1*
X65554Y17973D1*
Y14178D1*
X64304Y12928D1*
Y12210D1*
Y9678D1*
X62679Y8053D1*
X62054D1*
X14054Y39178D2*
X13304Y39928D1*
Y40450D1*
X13532Y40678D1*
X14554D1*
X16304Y38928D1*
Y37928D1*
X16536Y37697D1*
X20411D1*
X25429Y32678D1*
X38054D1*
X39054Y31678D1*
X49554D1*
X52429D2*
X52804Y31303D1*
Y18928D1*
X53554Y18178D1*
X55295D1*
X59295Y14178D1*
X61554D1*
X62304Y14928D1*
Y17428D1*
X63572Y18697D1*
X63831D1*
X52804Y13678D2*
Y13428D1*
X53675Y12557D1*
X61175D1*
X61804Y11928D1*
X63804D2*
X64022D1*
X64304Y12210D1*
X12492Y12678D2*
X13973D1*
X14598Y13303D1*
X21554D2*
X22429Y12428D1*
X22804D1*
X23054Y12178D1*
X26304D1*
X30804Y16678D1*
X38849D1*
X39849Y17678D1*
X49804D1*
X51179Y19053D1*
Y31553D1*
X51554Y31928D1*
X52179D1*
X52429Y31678D1*
X28092Y17466D2*
X29092D1*
X30054Y18428D1*
X35679D1*
X37679Y20428D1*
X41929D2*
X46679D1*
X47429Y21178D1*
X49929D1*
X50804Y22053D1*
Y33678D1*
X8701Y25815D2*
D14*
X11691D1*
X14804Y28928D1*
Y29303D1*
Y31170D1*
X16081Y32447D1*
X14804Y29303D2*
D13*
X18179D1*
X21554Y25928D1*
Y21803D2*
Y21428D1*
X23054Y19928D1*
X32304D1*
X36804Y24428D1*
X37929D1*
X16081Y32447D2*
D3*
X15581Y31447D2*
D16*
X16081Y31947D1*
Y32447D1*
X16581Y31447D2*
X16081Y31947D1*
X16581Y31447D2*
X15581D1*
X8701Y33312D2*
D18*
X9312D1*
X11179Y35178D1*
X19179D1*
X26804Y27553D1*
Y21929D1*
D14*
X26304Y21428D1*
D13*
X31804Y26928D1*
X37854D1*
X25804Y22428D2*
D16*
X26304Y21928D1*
Y21428D1*
X26804Y22428D2*
X26304Y21928D1*
X25804Y22428D2*
X26804D1*
X45804Y13678D2*
D13*
X45304Y14178D1*
X42554D1*
X42304Y14428D1*
Y14928D1*
X41304Y15928D1*
X33304D1*
X32304Y14928D1*
Y13428D1*
X32287Y13412D1*
Y12616D1*
X30475Y10804D1*
X28599D1*
D41*
X67916Y5057D3*
X63916D3*
X28927Y34301D3*
Y13364D3*
X60416Y15178D3*
Y11807D3*
X64916Y41745D3*
Y40307D3*
X64103Y41745D3*
Y40307D3*
X41679Y5303D3*
Y7928D3*
X22541Y37557D3*
Y29182D3*
X21416Y37682D3*
Y29682D3*
X62554Y12928D3*
X66229D3*
X64916Y40307D3*
D3*
X31412Y15929D3*
Y20680D3*
X54304Y23178D3*
X49554D3*
X56054Y30428D3*
X49554D3*
X56054Y28178D3*
X49554D3*
X49429Y25678D3*
X54304D3*
Y20428D3*
X49429Y20553D3*
X62812Y27428D3*
X65804D3*
X11660Y15741D3*
X21554Y15678D3*
X12410Y38178D3*
X12304Y18428D3*
X63804Y29928D3*
X67554D3*
X65041Y11307D3*
X58666D3*
X44166Y4941D3*
Y9182D3*
X49791Y10932D3*
Y5553D3*
X48916Y10932D3*
Y5553D3*
X48429Y32303D3*
X57304D3*
X41041Y12557D3*
Y6553D3*
X58291Y5682D3*
Y13557D3*
X49554Y41803D3*
Y39428D3*
X50992Y42053D3*
Y39678D3*
X58554Y16572D3*
X50947D3*
X53804Y15928D3*
X66554D3*
X21554Y14428D3*
X14554D3*
X48554Y31053D3*
X51804D3*
X49554Y31678D3*
X52429D3*
X61804Y11928D3*
X63804D3*
X14598Y13303D3*
X21554D3*
X52429Y31678D3*
X37679Y20428D3*
X41929D3*
X21554Y25928D3*
Y21803D3*
X4347Y42674D2*
D25*
X16611D1*
X17997D2*
X43588D1*
X43857D2*
X50525D1*
X51458D2*
X53443D1*
X54165D2*
X54443D1*
X55165D2*
X56072D1*
X57536D2*
X65584D1*
X68001D2*
X68881D1*
X4347Y42425D2*
X16342D1*
X18267D2*
X43029D1*
X45364D2*
X46287D1*
X46821D2*
X49092D1*
X55431D2*
X56072D1*
X62509D2*
X65330D1*
X68251D2*
X68881D1*
X4347Y42176D2*
X16189D1*
X18419D2*
X38033D1*
X45364D2*
X45924D1*
X47185D2*
X48865D1*
X55525D2*
X56072D1*
X62759D2*
X65178D1*
X68501D2*
X68881D1*
X4347Y41927D2*
X16107D1*
X18501D2*
X31174D1*
X31935D2*
X36424D1*
X37185D2*
X37455D1*
X45364D2*
X45787D1*
X47321D2*
X48779D1*
X55525D2*
X55975D1*
X63009D2*
X65162D1*
X68747D2*
X68883D1*
X4347Y41679D2*
X7396D1*
X10005D2*
X16080D1*
X18528D2*
X30674D1*
X32435D2*
X35924D1*
X45364D2*
X45744D1*
X47364D2*
X48779D1*
X55427D2*
X55728D1*
X61536D2*
X61850D1*
X63255D2*
X65021D1*
X66169D2*
X67592D1*
X4347Y41430D2*
X7103D1*
X10298D2*
X16107D1*
X18501D2*
X25135D1*
X26982D2*
X30424D1*
X32685D2*
X35674D1*
X45364D2*
X45783D1*
X47505D2*
X48865D1*
X55161D2*
X55478D1*
X57536D2*
X59103D1*
X61536D2*
X62100D1*
X63505D2*
X64775D1*
X66130D2*
X67842D1*
X4347Y41181D2*
X6959D1*
X10443D2*
X16189D1*
X18419D2*
X24576D1*
X27263D2*
X30271D1*
X32837D2*
X35521D1*
X45364D2*
X45924D1*
X56634D2*
X58853D1*
X61536D2*
X62350D1*
X65931D2*
X68049D1*
X4347Y40933D2*
X6896D1*
X10505D2*
X13084D1*
X15001D2*
X16342D1*
X18267D2*
X24373D1*
X27509D2*
X30182D1*
X32927D2*
X35432D1*
X45364D2*
X46287D1*
X61536D2*
X62596D1*
X65681D2*
X68049D1*
X4347Y40684D2*
X6896D1*
X10505D2*
X12861D1*
X15251D2*
X16611D1*
X17997D2*
X24271D1*
X27759D2*
X30139D1*
X32970D2*
X35389D1*
X44169D2*
X46846D1*
X61536D2*
X62846D1*
X65435D2*
X66318D1*
X67013D2*
X68049D1*
X4347Y40435D2*
X6959D1*
X10443D2*
X12799D1*
X15501D2*
X24240D1*
X28009D2*
X30135D1*
X32974D2*
X35385D1*
X43923D2*
X47096D1*
X48501D2*
X50893D1*
X51090D2*
X52322D1*
X61536D2*
X65971D1*
X67286D2*
X68049D1*
X4347Y40187D2*
X7103D1*
X10298D2*
X12799D1*
X15747D2*
X24271D1*
X28255D2*
X30135D1*
X32974D2*
X35385D1*
X43829D2*
X47342D1*
X48732D2*
X49471D1*
X49637D2*
X50400D1*
X51583D2*
X52322D1*
X61536D2*
X65717D1*
X67384D2*
X68049D1*
X4347Y39938D2*
X7393D1*
X10009D2*
X12799D1*
X15997D2*
X19432D1*
X43673D2*
X47592D1*
X48810D2*
X48963D1*
X50142D2*
X50249D1*
X51732D2*
X52322D1*
X61536D2*
X65471D1*
X67388D2*
X68049D1*
X4347Y39689D2*
X8592D1*
X9997D2*
X12865D1*
X16247D2*
X19014D1*
X43419D2*
X47799D1*
X51778D2*
X52549D1*
X57060D2*
X57549D1*
X61536D2*
X65268D1*
X67294D2*
X68049D1*
X4347Y39441D2*
X8838D1*
X10243D2*
X13088D1*
X16493D2*
X18814D1*
X43306D2*
X47553D1*
X51739D2*
X52549D1*
X57060D2*
X57549D1*
X61536D2*
X62436D1*
X63896D2*
X65225D1*
X67478D2*
X68049D1*
X4347Y39192D2*
X9088D1*
X10493D2*
X13322D1*
X16728D2*
X18670D1*
X38689D2*
X41271D1*
X42677D2*
X47553D1*
X51603D2*
X52322D1*
X61536D2*
X62436D1*
X63896D2*
X65225D1*
X67736D2*
X68049D1*
X4347Y38943D2*
X9338D1*
X10743D2*
X13365D1*
X16810D2*
X18564D1*
X38443D2*
X41771D1*
X42173D2*
X47553D1*
X51212D2*
X52322D1*
X61536D2*
X62436D1*
X63896D2*
X65225D1*
X4347Y38695D2*
X9584D1*
X10989D2*
X11826D1*
X12993D2*
X13322D1*
X15560D2*
X15799D1*
X16810D2*
X18529D1*
X50833D2*
X52322D1*
X61536D2*
X62436D1*
X64091D2*
X65225D1*
X4347Y38446D2*
X9834D1*
X11239D2*
X11674D1*
X15560D2*
X15799D1*
X16810D2*
X18557D1*
X61536D2*
X62436D1*
X64169D2*
X65225D1*
X4347Y38197D2*
X10084D1*
X11489D2*
X11625D1*
X16810D2*
X18650D1*
X61536D2*
X62436D1*
X64169D2*
X65225D1*
X4347Y37948D2*
X10330D1*
X20861D2*
X25209D1*
X57560D2*
X58299D1*
X61310D2*
X62436D1*
X64169D2*
X65225D1*
X4347Y37700D2*
X10580D1*
X21111D2*
X25045D1*
X57560D2*
X58299D1*
X61310D2*
X62436D1*
X64169D2*
X65283D1*
X4347Y37451D2*
X10830D1*
X12657D2*
X15080D1*
X21361D2*
X24943D1*
X57560D2*
X58123D1*
X61310D2*
X62436D1*
X64169D2*
X65506D1*
X4347Y37202D2*
X11076D1*
X21607D2*
X24893D1*
X57560D2*
X57877D1*
X61310D2*
X62662D1*
X64169D2*
X65756D1*
X4347Y36954D2*
X10939D1*
X21857D2*
X24889D1*
X57501D2*
X57627D1*
X61310D2*
X62662D1*
X64169D2*
X66002D1*
X4347Y36705D2*
X10221D1*
X22107D2*
X24928D1*
X61310D2*
X62662D1*
X64169D2*
X66252D1*
X4347Y36456D2*
X9904D1*
X22353D2*
X25018D1*
X61310D2*
X62662D1*
X64169D2*
X66412D1*
X4347Y36208D2*
X9654D1*
X22603D2*
X25170D1*
X27454D2*
X35131D1*
X61310D2*
X62662D1*
X64169D2*
X66412D1*
X4347Y35959D2*
X9404D1*
X22853D2*
X25072D1*
X27536D2*
X29881D1*
X60161D2*
X60259D1*
X61310D2*
X62662D1*
X64169D2*
X66412D1*
X4347Y35710D2*
X9158D1*
X23099D2*
X25072D1*
X27536D2*
X29635D1*
X59915D2*
X60010D1*
X61298D2*
X62662D1*
X64169D2*
X66412D1*
X4347Y35462D2*
X8908D1*
X23349D2*
X25072D1*
X27536D2*
X29385D1*
X59665D2*
X59760D1*
X61165D2*
X62662D1*
X64169D2*
X66412D1*
X4347Y35213D2*
X8658D1*
X23599D2*
X25072D1*
X27536D2*
X29135D1*
X59415D2*
X59510D1*
X60915D2*
X62662D1*
X64169D2*
X66412D1*
X4347Y34964D2*
X7990D1*
X23845D2*
X25072D1*
X27536D2*
X28529D1*
X30294D2*
X31135D1*
X56220D2*
X59264D1*
X60669D2*
X62662D1*
X64169D2*
X66412D1*
X4347Y34716D2*
X7568D1*
X24095D2*
X28264D1*
X30044D2*
X31076D1*
X56462D2*
X59014D1*
X60419D2*
X62662D1*
X64169D2*
X66412D1*
X4347Y34467D2*
X7311D1*
X24345D2*
X28158D1*
X29794D2*
X31107D1*
X53501D2*
X54072D1*
X56556D2*
X58764D1*
X60169D2*
X62662D1*
X64169D2*
X66412D1*
X4347Y34218D2*
X7135D1*
X24591D2*
X28146D1*
X29708D2*
X31244D1*
X56560D2*
X58518D1*
X59923D2*
X62662D1*
X64169D2*
X66412D1*
X4347Y33969D2*
X7014D1*
X24841D2*
X28217D1*
X29638D2*
X31135D1*
X55474D2*
X55552D1*
X56560D2*
X58268D1*
X59673D2*
X62662D1*
X64169D2*
X66412D1*
X4347Y33721D2*
X6936D1*
X25091D2*
X28408D1*
X29443D2*
X31076D1*
X56560D2*
X58018D1*
X59423D2*
X62662D1*
X64169D2*
X66412D1*
X4347Y33472D2*
X6896D1*
X25337D2*
X31103D1*
X56560D2*
X57771D1*
X59177D2*
X62662D1*
X64169D2*
X65189D1*
X4347Y33223D2*
X6889D1*
X11778D2*
X15014D1*
X17150D2*
X18580D1*
X25587D2*
X31240D1*
X55368D2*
X55549D1*
X56560D2*
X57521D1*
X58927D2*
X62662D1*
X64169D2*
X64885D1*
X4347Y32975D2*
X6920D1*
X11528D2*
X15014D1*
X17150D2*
X18830D1*
X39212D2*
X39725D1*
X39882D2*
X40725D1*
X40882D2*
X41725D1*
X41882D2*
X42725D1*
X42882D2*
X43725D1*
X43882D2*
X44725D1*
X44882D2*
X45725D1*
X45882D2*
X46725D1*
X46882D2*
X47725D1*
X47882D2*
X48044D1*
X48884D2*
X49725D1*
X49882D2*
X50299D1*
X54212D2*
X54725D1*
X54882D2*
X55549D1*
X56560D2*
X56920D1*
X58677D2*
X62662D1*
X64212D2*
X64713D1*
X4347Y32726D2*
X6986D1*
X11282D2*
X14920D1*
X17150D2*
X19076D1*
X49087D2*
X50299D1*
X51310D2*
X51553D1*
X54458D2*
X55549D1*
X56560D2*
X56649D1*
X59958D2*
X60400D1*
X64458D2*
X64619D1*
X4347Y32477D2*
X7096D1*
X11032D2*
X14670D1*
X17150D2*
X19326D1*
X49193D2*
X50299D1*
X51310D2*
X51803D1*
X54708D2*
X55549D1*
X4347Y32229D2*
X7252D1*
X10782D2*
X14424D1*
X17150D2*
X19576D1*
X50103D2*
X50299D1*
X54958D2*
X55592D1*
X4347Y31980D2*
X7482D1*
X10532D2*
X14174D1*
X17310D2*
X19822D1*
X37454D2*
X38049D1*
X55204D2*
X55799D1*
X4347Y31731D2*
X7838D1*
X10173D2*
X13951D1*
X17310D2*
X20072D1*
X37704D2*
X38299D1*
X55454D2*
X56049D1*
X58810D2*
X59299D1*
X4347Y31483D2*
X13826D1*
X17310D2*
X20322D1*
X37954D2*
X38549D1*
X55700D2*
X56299D1*
X58560D2*
X59299D1*
X4347Y31234D2*
X13779D1*
X17310D2*
X20568D1*
X26575D2*
X36795D1*
X38200D2*
X38850D1*
X50196D2*
X50299D1*
X55806D2*
X56545D1*
X58314D2*
X59299D1*
X4347Y30985D2*
X13779D1*
X17310D2*
X20818D1*
X26825D2*
X37045D1*
X38450D2*
X47771D1*
X50099D2*
X50299D1*
X56599D2*
X56846D1*
X58013D2*
X59342D1*
X63036D2*
X63295D1*
X4347Y30737D2*
X13779D1*
X15829D2*
X21068D1*
X38700D2*
X47533D1*
X53310D2*
X53545D1*
X56775D2*
X59545D1*
X61810D2*
X63545D1*
X4347Y30488D2*
X13779D1*
X15829D2*
X21314D1*
X53310D2*
X53791D1*
X56837D2*
X59791D1*
X61771D2*
X63264D1*
X4347Y30239D2*
X13779D1*
X15829D2*
X21564D1*
X48443D2*
X48791D1*
X53310D2*
X53799D1*
X56818D2*
X59799D1*
X61568D2*
X63084D1*
X4347Y29990D2*
X13779D1*
X15829D2*
X21814D1*
X48193D2*
X48908D1*
X50200D2*
X50299D1*
X53310D2*
X53799D1*
X56700D2*
X59799D1*
X61318D2*
X61415D1*
X4347Y29742D2*
X13779D1*
X18400D2*
X22061D1*
X27169D2*
X36912D1*
X53310D2*
X53799D1*
X56693D2*
X59799D1*
X61071D2*
X61165D1*
X4347Y29493D2*
X13779D1*
X18693D2*
X22311D1*
X27419D2*
X37162D1*
X39060D2*
X41248D1*
X53310D2*
X53799D1*
X56943D2*
X59799D1*
X60821D2*
X60920D1*
X4347Y29244D2*
X13678D1*
X18943D2*
X22561D1*
X27669D2*
X37193D1*
X39060D2*
X41268D1*
X53310D2*
X53799D1*
X57193D2*
X58857D1*
X4347Y28996D2*
X13432D1*
X19189D2*
X22807D1*
X27915D2*
X37311D1*
X39060D2*
X41385D1*
X50173D2*
X50299D1*
X53310D2*
X53799D1*
X57439D2*
X58650D1*
X61958D2*
X62533D1*
X4347Y28747D2*
X13182D1*
X15814D2*
X18033D1*
X19439D2*
X23057D1*
X28161D2*
X37627D1*
X39060D2*
X41701D1*
X42306D2*
X49025D1*
X50083D2*
X50299D1*
X53310D2*
X53799D1*
X57689D2*
X58576D1*
X62032D2*
X62783D1*
X66810D2*
X67033D1*
X4347Y28498D2*
X12932D1*
X15732D2*
X18283D1*
X19689D2*
X23307D1*
X28349D2*
X38049D1*
X39060D2*
X48838D1*
X53310D2*
X53799D1*
X57892D2*
X58596D1*
X62013D2*
X63033D1*
X66939D2*
X67049D1*
X4347Y28250D2*
X12686D1*
X15564D2*
X18529D1*
X19935D2*
X23553D1*
X28478D2*
X38049D1*
X39060D2*
X48771D1*
X53310D2*
X53799D1*
X57935D2*
X58717D1*
X61888D2*
X63049D1*
X4347Y28001D2*
X12436D1*
X15318D2*
X18779D1*
X20185D2*
X23803D1*
X28560D2*
X38049D1*
X39060D2*
X48791D1*
X53310D2*
X53799D1*
X57935D2*
X59080D1*
X59528D2*
X60080D1*
X60528D2*
X61080D1*
X61528D2*
X62287D1*
X4347Y27752D2*
X12186D1*
X15068D2*
X19029D1*
X20435D2*
X24053D1*
X28607D2*
X38049D1*
X39060D2*
X48900D1*
X50208D2*
X50299D1*
X53310D2*
X53799D1*
X57935D2*
X62100D1*
X4347Y27504D2*
X11939D1*
X14821D2*
X19275D1*
X20681D2*
X24299D1*
X28618D2*
X37373D1*
X39060D2*
X41447D1*
X42411D2*
X49049D1*
X50060D2*
X50299D1*
X53310D2*
X53799D1*
X57935D2*
X62029D1*
X4347Y27255D2*
X11689D1*
X14571D2*
X19525D1*
X20931D2*
X24549D1*
X28618D2*
X31428D1*
X39060D2*
X41244D1*
X53310D2*
X53799D1*
X57935D2*
X61936D1*
X4347Y27006D2*
X11439D1*
X14321D2*
X19771D1*
X21181D2*
X24799D1*
X28618D2*
X31178D1*
X39060D2*
X41174D1*
X53310D2*
X53830D1*
X58181D2*
X60377D1*
X61286D2*
X61373D1*
X4347Y26758D2*
X7549D1*
X14075D2*
X20021D1*
X21427D2*
X24990D1*
X28618D2*
X30932D1*
X39060D2*
X41189D1*
X53310D2*
X54021D1*
X58427D2*
X60174D1*
X4347Y26509D2*
X7166D1*
X13825D2*
X20271D1*
X22071D2*
X24990D1*
X28618D2*
X30682D1*
X39060D2*
X41299D1*
X50185D2*
X50299D1*
X53310D2*
X54271D1*
X58677D2*
X60103D1*
X4347Y26260D2*
X6990D1*
X13575D2*
X20518D1*
X22263D2*
X24990D1*
X28618D2*
X30432D1*
X31837D2*
X37521D1*
X39060D2*
X41596D1*
X42259D2*
X48916D1*
X49943D2*
X50299D1*
X53310D2*
X53791D1*
X58927D2*
X60127D1*
X4347Y26011D2*
X6908D1*
X13329D2*
X20768D1*
X22333D2*
X24990D1*
X28618D2*
X30186D1*
X31591D2*
X38049D1*
X39060D2*
X48721D1*
X50138D2*
X50299D1*
X53310D2*
X53596D1*
X4347Y25763D2*
X6889D1*
X13079D2*
X20787D1*
X22321D2*
X24990D1*
X28618D2*
X29936D1*
X31341D2*
X38049D1*
X39060D2*
X48646D1*
X50208D2*
X50299D1*
X53310D2*
X53521D1*
X4347Y25514D2*
X6936D1*
X12829D2*
X20893D1*
X22216D2*
X24990D1*
X28618D2*
X29686D1*
X31091D2*
X38049D1*
X39060D2*
X48662D1*
X50196D2*
X50299D1*
X53310D2*
X53537D1*
X55173D2*
X55267D1*
X4347Y25265D2*
X7053D1*
X12583D2*
X21158D1*
X21950D2*
X24990D1*
X28618D2*
X29439D1*
X30845D2*
X38049D1*
X39060D2*
X48764D1*
X50091D2*
X50299D1*
X53310D2*
X53639D1*
X55419D2*
X55516D1*
X63419D2*
X65014D1*
X4347Y25017D2*
X7283D1*
X12321D2*
X24990D1*
X28618D2*
X29189D1*
X30595D2*
X37463D1*
X39060D2*
X41537D1*
X42470D2*
X48924D1*
X49946D2*
X50299D1*
X53310D2*
X53904D1*
X55669D2*
X55761D1*
X63669D2*
X65264D1*
X4347Y24768D2*
X24990D1*
X28618D2*
X28939D1*
X30345D2*
X36439D1*
X39060D2*
X41326D1*
X50157D2*
X50299D1*
X53310D2*
X54510D1*
X55919D2*
X56011D1*
X63919D2*
X65299D1*
X4347Y24519D2*
X24990D1*
X30099D2*
X36193D1*
X39060D2*
X41248D1*
X53310D2*
X54760D1*
X56165D2*
X56260D1*
X60665D2*
X61318D1*
X64165D2*
X65299D1*
X4347Y24271D2*
X24990D1*
X29849D2*
X35943D1*
X39060D2*
X41260D1*
X50224D2*
X50302D1*
X53310D2*
X55010D1*
X56415D2*
X56510D1*
X60915D2*
X61068D1*
X64415D2*
X65299D1*
X4347Y24022D2*
X24990D1*
X29599D2*
X35693D1*
X39060D2*
X41365D1*
X50118D2*
X50299D1*
X53310D2*
X55256D1*
X56665D2*
X56760D1*
X4347Y23773D2*
X24990D1*
X29353D2*
X35447D1*
X36853D2*
X37572D1*
X39060D2*
X41646D1*
X42364D2*
X49057D1*
X50052D2*
X50299D1*
X53310D2*
X53807D1*
X54802D2*
X55506D1*
X56911D2*
X57009D1*
X4347Y23525D2*
X24990D1*
X29103D2*
X35197D1*
X36603D2*
X38049D1*
X39060D2*
X48853D1*
X53310D2*
X53603D1*
X55005D2*
X55756D1*
X57161D2*
X57253D1*
X4347Y23276D2*
X24990D1*
X28853D2*
X34947D1*
X36353D2*
X38049D1*
X39060D2*
X48775D1*
X53310D2*
X53525D1*
X55083D2*
X56002D1*
X57411D2*
X57503D1*
X4347Y23027D2*
X24990D1*
X28618D2*
X34701D1*
X36107D2*
X38049D1*
X39060D2*
X48783D1*
X53310D2*
X53533D1*
X55157D2*
X56252D1*
X4347Y22779D2*
X24990D1*
X28618D2*
X34451D1*
X35857D2*
X38049D1*
X39060D2*
X48881D1*
X53310D2*
X53631D1*
X55407D2*
X56502D1*
X62310D2*
X62603D1*
X63060D2*
X63603D1*
X64060D2*
X64603D1*
X65060D2*
X65603D1*
X4347Y22530D2*
X21303D1*
X21806D2*
X24990D1*
X28618D2*
X34201D1*
X35607D2*
X37408D1*
X39060D2*
X41482D1*
X42376D2*
X48975D1*
X49986D2*
X50299D1*
X53310D2*
X53881D1*
X62310D2*
X65951D1*
X4347Y22281D2*
X11959D1*
X17403D2*
X20936D1*
X22169D2*
X24990D1*
X28618D2*
X33955D1*
X35361D2*
X37186D1*
X39060D2*
X41260D1*
X50150D2*
X50299D1*
X53310D2*
X54498D1*
X62224D2*
X65705D1*
X4347Y22032D2*
X11713D1*
X17653D2*
X20803D1*
X22306D2*
X24990D1*
X28618D2*
X33705D1*
X35111D2*
X37100D1*
X39060D2*
X41178D1*
X53310D2*
X54748D1*
X61986D2*
X65455D1*
X4347Y21784D2*
X11463D1*
X17903D2*
X20768D1*
X22341D2*
X24998D1*
X28611D2*
X33455D1*
X34861D2*
X37006D1*
X39060D2*
X41182D1*
X53310D2*
X54994D1*
X61736D2*
X65205D1*
X4347Y21535D2*
X11213D1*
X18150D2*
X20818D1*
X22290D2*
X25033D1*
X28575D2*
X33209D1*
X34614D2*
X36760D1*
X39060D2*
X41283D1*
X53310D2*
X57818D1*
X4347Y21286D2*
X10967D1*
X12372D2*
X16994D1*
X18400D2*
X20971D1*
X22400D2*
X25111D1*
X28497D2*
X32959D1*
X34364D2*
X36510D1*
X39060D2*
X41545D1*
X42314D2*
X46834D1*
X53310D2*
X57568D1*
X4347Y21038D2*
X10717D1*
X12122D2*
X17240D1*
X18650D2*
X21240D1*
X22650D2*
X25228D1*
X28380D2*
X32709D1*
X34114D2*
X36260D1*
X39060D2*
X41447D1*
X42407D2*
X46584D1*
X50489D2*
X50674D1*
X53310D2*
X53822D1*
X54782D2*
X57318D1*
X4347Y20789D2*
X10467D1*
X11872D2*
X17490D1*
X18896D2*
X21490D1*
X22896D2*
X25236D1*
X28208D2*
X32463D1*
X33868D2*
X36014D1*
X39060D2*
X41236D1*
X50236D2*
X50674D1*
X53310D2*
X53611D1*
X66868D2*
X67049D1*
X4347Y20540D2*
X10221D1*
X11626D2*
X17740D1*
X19146D2*
X21740D1*
X23146D2*
X25236D1*
X27958D2*
X32213D1*
X33618D2*
X35764D1*
X39060D2*
X41150D1*
X47493D2*
X48643D1*
X50216D2*
X50674D1*
X53310D2*
X53525D1*
X58228D2*
X59963D1*
X66618D2*
X67049D1*
X4347Y20292D2*
X9971D1*
X11376D2*
X17986D1*
X19396D2*
X21986D1*
X33368D2*
X35514D1*
X39060D2*
X41154D1*
X47243D2*
X48463D1*
X50169D2*
X50674D1*
X53310D2*
X53529D1*
X57978D2*
X59713D1*
X66368D2*
X67049D1*
X4347Y20043D2*
X9721D1*
X11126D2*
X18236D1*
X19642D2*
X22236D1*
X33122D2*
X35268D1*
X39060D2*
X41248D1*
X46989D2*
X48217D1*
X50017D2*
X50674D1*
X53310D2*
X53623D1*
X57724D2*
X59467D1*
X66122D2*
X67049D1*
X4347Y19794D2*
X9475D1*
X10880D2*
X18486D1*
X39060D2*
X41486D1*
X42372D2*
X47967D1*
X49907D2*
X50674D1*
X53310D2*
X53861D1*
X54747D2*
X59217D1*
X65857D2*
X67049D1*
X4347Y19546D2*
X9225D1*
X10630D2*
X18732D1*
X39060D2*
X41268D1*
X50142D2*
X50674D1*
X53310D2*
X58967D1*
X65544D2*
X67049D1*
X4347Y19297D2*
X7674D1*
X10380D2*
X18982D1*
X39060D2*
X41178D1*
X50232D2*
X50674D1*
X53310D2*
X58721D1*
X65747D2*
X67049D1*
X4347Y19048D2*
X7201D1*
X10200D2*
X11838D1*
X12771D2*
X14850D1*
X17310D2*
X19236D1*
X39060D2*
X41182D1*
X50228D2*
X50471D1*
X53388D2*
X58471D1*
X65993D2*
X67049D1*
X4347Y18800D2*
X7010D1*
X10392D2*
X11615D1*
X12993D2*
X14850D1*
X17310D2*
X20557D1*
X24888D2*
X29725D1*
X39060D2*
X41275D1*
X50134D2*
X50220D1*
X53638D2*
X58221D1*
X60638D2*
X62971D1*
X66243D2*
X67049D1*
X4347Y18551D2*
X6916D1*
X10486D2*
X11529D1*
X13079D2*
X14850D1*
X17310D2*
X20561D1*
X25134D2*
X29475D1*
X39060D2*
X41521D1*
X42337D2*
X49072D1*
X49888D2*
X49972D1*
X51380D2*
X51476D1*
X55622D2*
X58064D1*
X60552D2*
X62725D1*
X66431D2*
X67049D1*
X4347Y18302D2*
X6889D1*
X10513D2*
X11529D1*
X13134D2*
X14713D1*
X17446D2*
X20658D1*
X22458D2*
X23978D1*
X25364D2*
X29225D1*
X37630D2*
X38049D1*
X39060D2*
X49725D1*
X51130D2*
X51728D1*
X55872D2*
X58049D1*
X59130D2*
X59212D1*
X60446D2*
X62475D1*
X66458D2*
X67049D1*
X4347Y18053D2*
X6924D1*
X10478D2*
X11619D1*
X13380D2*
X14584D1*
X17575D2*
X20951D1*
X22587D2*
X23549D1*
X25435D2*
X27623D1*
X28560D2*
X28975D1*
X37384D2*
X37975D1*
X39060D2*
X39525D1*
X50884D2*
X51975D1*
X56122D2*
X58049D1*
X59060D2*
X59326D1*
X60333D2*
X62225D1*
X66458D2*
X67049D1*
X4347Y17805D2*
X7029D1*
X10372D2*
X11846D1*
X17657D2*
X21158D1*
X25435D2*
X27416D1*
X37134D2*
X37728D1*
X39044D2*
X39271D1*
X50634D2*
X52225D1*
X56372D2*
X58049D1*
X59060D2*
X59326D1*
X60333D2*
X61978D1*
X63384D2*
X64107D1*
X66458D2*
X67049D1*
X4347Y17556D2*
X7240D1*
X10161D2*
X12475D1*
X17693D2*
X21443D1*
X25435D2*
X27338D1*
X38884D2*
X39024D1*
X56618D2*
X58049D1*
X59060D2*
X59326D1*
X60333D2*
X61818D1*
X63134D2*
X63986D1*
X66458D2*
X67049D1*
X4347Y17307D2*
X12721D1*
X17696D2*
X21928D1*
X25435D2*
X27350D1*
X38638D2*
X38774D1*
X56868D2*
X58049D1*
X59060D2*
X59326D1*
X60333D2*
X61799D1*
X62888D2*
X63443D1*
X66458D2*
X67049D1*
X4347Y17059D2*
X12978D1*
X17696D2*
X22193D1*
X25435D2*
X27455D1*
X39931D2*
X43982D1*
X54626D2*
X55213D1*
X57118D2*
X57943D1*
X60466D2*
X61799D1*
X62810D2*
X63193D1*
X66458D2*
X66982D1*
X4347Y16810D2*
X14463D1*
X17739D2*
X20607D1*
X22876D2*
X23658D1*
X25435D2*
X27732D1*
X39685D2*
X43732D1*
X54876D2*
X55459D1*
X57364D2*
X57807D1*
X60556D2*
X61799D1*
X62810D2*
X63103D1*
X66458D2*
X66732D1*
X4347Y16561D2*
X14338D1*
X17989D2*
X20357D1*
X23122D2*
X23482D1*
X25368D2*
X28232D1*
X39435D2*
X43482D1*
X44892D2*
X50162D1*
X51732D2*
X53357D1*
X55122D2*
X55709D1*
X57614D2*
X57771D1*
X60552D2*
X61799D1*
X62810D2*
X62994D1*
X4347Y16313D2*
X11135D1*
X12189D2*
X14248D1*
X18239D2*
X20111D1*
X41614D2*
X43236D1*
X44642D2*
X44742D1*
X46614D2*
X49986D1*
X55372D2*
X55959D1*
X60454D2*
X61799D1*
X4347Y16064D2*
X10947D1*
X12372D2*
X14189D1*
X18579D2*
X19877D1*
X30892D2*
X32736D1*
X41872D2*
X42986D1*
X44392D2*
X44486D1*
X46872D2*
X49736D1*
X55622D2*
X56205D1*
X59146D2*
X59482D1*
X60177D2*
X61799D1*
X67392D2*
X67549D1*
X4347Y15815D2*
X10877D1*
X12443D2*
X14170D1*
X18876D2*
X19799D1*
X30646D2*
X32486D1*
X42118D2*
X42736D1*
X44146D2*
X44237D1*
X47118D2*
X49486D1*
X55868D2*
X56455D1*
X58361D2*
X58447D1*
X58655D2*
X61799D1*
X63708D2*
X65049D1*
X4347Y15567D2*
X10783D1*
X12427D2*
X14182D1*
X19079D2*
X19799D1*
X30396D2*
X32240D1*
X42368D2*
X42486D1*
X43896D2*
X43987D1*
X47368D2*
X49318D1*
X54497D2*
X54713D1*
X56118D2*
X56705D1*
X58611D2*
X61799D1*
X63708D2*
X65049D1*
X4347Y15318D2*
X10533D1*
X12318D2*
X14225D1*
X19228D2*
X19799D1*
X26380D2*
X27990D1*
X30146D2*
X31482D1*
X33396D2*
X33481D1*
X34126D2*
X34482D1*
X35126D2*
X35482D1*
X36126D2*
X36482D1*
X37126D2*
X37482D1*
X38126D2*
X38482D1*
X39126D2*
X39482D1*
X40126D2*
X40482D1*
X41126D2*
X41211D1*
X48126D2*
X48482D1*
X49126D2*
X49299D1*
X51146D2*
X51482D1*
X52126D2*
X52482D1*
X53126D2*
X53326D1*
X56368D2*
X56951D1*
X58857D2*
X61799D1*
X63708D2*
X65049D1*
X4347Y15069D2*
X10283D1*
X12040D2*
X14119D1*
X19333D2*
X19799D1*
X20810D2*
X21072D1*
X26591D2*
X27740D1*
X29900D2*
X31193D1*
X56614D2*
X57201D1*
X59107D2*
X61740D1*
X63708D2*
X65049D1*
X4347Y14821D2*
X10037D1*
X11443D2*
X13877D1*
X19400D2*
X19799D1*
X26712D2*
X27494D1*
X29650D2*
X31088D1*
X56864D2*
X57451D1*
X59357D2*
X61494D1*
X63708D2*
X65049D1*
X4347Y14572D2*
X9912D1*
X11193D2*
X13783D1*
X19435D2*
X19799D1*
X26767D2*
X27244D1*
X29400D2*
X31041D1*
X55536D2*
X55709D1*
X57114D2*
X57697D1*
X63708D2*
X65049D1*
X67400D2*
X67549D1*
X4347Y14323D2*
X9904D1*
X10946D2*
X12178D1*
X12802D2*
X13744D1*
X19439D2*
X19799D1*
X22361D2*
X22455D1*
X24150D2*
X24334D1*
X26771D2*
X26994D1*
X29153D2*
X30838D1*
X55536D2*
X55955D1*
X57361D2*
X57947D1*
X63708D2*
X64994D1*
X67153D2*
X67549D1*
X4347Y14074D2*
X9904D1*
X10915D2*
X11881D1*
X19439D2*
X19799D1*
X24099D2*
X24385D1*
X29224D2*
X30799D1*
X55536D2*
X56205D1*
X57611D2*
X57712D1*
X63708D2*
X64748D1*
X66903D2*
X67549D1*
X4347Y13826D2*
X9904D1*
X10915D2*
X11775D1*
X15177D2*
X15338D1*
X19439D2*
X19799D1*
X20810D2*
X20975D1*
X24361D2*
X24491D1*
X29556D2*
X30799D1*
X55521D2*
X56455D1*
X63708D2*
X64498D1*
X66653D2*
X67549D1*
X4347Y13577D2*
X9791D1*
X10915D2*
X11768D1*
X15333D2*
X15420D1*
X19439D2*
X19799D1*
X24607D2*
X24688D1*
X29681D2*
X30799D1*
X55528D2*
X56701D1*
X60099D2*
X61498D1*
X63708D2*
X64248D1*
X66407D2*
X67549D1*
X4347Y13328D2*
X9545D1*
X10888D2*
X11853D1*
X19439D2*
X19799D1*
X29712D2*
X30607D1*
X63708D2*
X64002D1*
X66157D2*
X67549D1*
X4347Y13080D2*
X9295D1*
X10700D2*
X11885D1*
X19439D2*
X19799D1*
X22482D2*
X23701D1*
X29657D2*
X30361D1*
X33204D2*
X33404D1*
X52204D2*
X52404D1*
X62407D2*
X62701D1*
X63708D2*
X63826D1*
X65907D2*
X67549D1*
X4347Y12831D2*
X9045D1*
X10454D2*
X11779D1*
X15220D2*
X15420D1*
X19439D2*
X19799D1*
X20810D2*
X20932D1*
X23091D2*
X23947D1*
X29493D2*
X30111D1*
X31517D2*
X31783D1*
X32790D2*
X33947D1*
X52103D2*
X52697D1*
X62161D2*
X62701D1*
X63708D2*
X63799D1*
X65661D2*
X67549D1*
X4347Y12582D2*
X8799D1*
X10204D2*
X11768D1*
X14864D2*
X15420D1*
X19595D2*
X19799D1*
X20810D2*
X21287D1*
X31267D2*
X31549D1*
X32790D2*
X34197D1*
X50720D2*
X50947D1*
X52353D2*
X52947D1*
X62216D2*
X62701D1*
X65544D2*
X67549D1*
X4347Y12334D2*
X8549D1*
X9954D2*
X11760D1*
X14329D2*
X15420D1*
X20810D2*
X21822D1*
X31021D2*
X31303D1*
X32700D2*
X34447D1*
X50966D2*
X51197D1*
X62474D2*
X62701D1*
X65544D2*
X67549D1*
X4347Y12085D2*
X8303D1*
X9708D2*
X11760D1*
X13224D2*
X15420D1*
X20907D2*
X22068D1*
X30841D2*
X31053D1*
X32458D2*
X34693D1*
X41661D2*
X41943D1*
X51216D2*
X51443D1*
X62571D2*
X62701D1*
X65544D2*
X67549D1*
X4347Y11836D2*
X8037D1*
X9458D2*
X11760D1*
X13224D2*
X15420D1*
X21017D2*
X22580D1*
X26665D2*
X26928D1*
X32212D2*
X37443D1*
X41474D2*
X42193D1*
X51466D2*
X51693D1*
X59681D2*
X61025D1*
X62583D2*
X62701D1*
X65611D2*
X67549D1*
X4347Y11588D2*
X7244D1*
X10157D2*
X11760D1*
X13286D2*
X15412D1*
X21028D2*
X22545D1*
X24064D2*
X27096D1*
X29329D2*
X29447D1*
X31962D2*
X32307D1*
X41724D2*
X42443D1*
X51712D2*
X52053D1*
X59732D2*
X61100D1*
X62509D2*
X62701D1*
X65775D2*
X67549D1*
X4347Y11339D2*
X7029D1*
X10372D2*
X11760D1*
X13532D2*
X15162D1*
X24017D2*
X26869D1*
X29083D2*
X29725D1*
X31712D2*
X32057D1*
X41970D2*
X42689D1*
X44032D2*
X45439D1*
X51962D2*
X56494D1*
X59732D2*
X61299D1*
X62310D2*
X62701D1*
X65825D2*
X67549D1*
X4347Y11090D2*
X6924D1*
X10478D2*
X11760D1*
X13782D2*
X14916D1*
X23857D2*
X26869D1*
X31466D2*
X31811D1*
X42220D2*
X42939D1*
X44060D2*
X45689D1*
X52212D2*
X56248D1*
X59732D2*
X62701D1*
X63708D2*
X63799D1*
X65794D2*
X67549D1*
X4347Y10842D2*
X6889D1*
X10513D2*
X12627D1*
X14032D2*
X14666D1*
X23290D2*
X26869D1*
X31216D2*
X31561D1*
X42462D2*
X43049D1*
X44060D2*
X45912D1*
X52458D2*
X55998D1*
X59732D2*
X62701D1*
X63708D2*
X63799D1*
X65669D2*
X67549D1*
X4347Y10593D2*
X6916D1*
X10650D2*
X12873D1*
X14278D2*
X14419D1*
X23302D2*
X26869D1*
X30966D2*
X31311D1*
X32716D2*
X37295D1*
X44060D2*
X44322D1*
X45786D2*
X45913D1*
X52708D2*
X52822D1*
X54286D2*
X55322D1*
X57153D2*
X58381D1*
X59732D2*
X62701D1*
X63708D2*
X63799D1*
X65329D2*
X67549D1*
X4347Y10344D2*
X7010D1*
X10900D2*
X13123D1*
X23302D2*
X26076D1*
X32470D2*
X37545D1*
X44060D2*
X44322D1*
X45786D2*
X45913D1*
X50298D2*
X50803D1*
X58341D2*
X58725D1*
X59732D2*
X62701D1*
X63708D2*
X63799D1*
X64810D2*
X67549D1*
X4347Y10095D2*
X7201D1*
X11146D2*
X13373D1*
X23552D2*
X25807D1*
X32220D2*
X37795D1*
X44060D2*
X44322D1*
X45786D2*
X45913D1*
X46919D2*
X47186D1*
X58591D2*
X58725D1*
X59732D2*
X62701D1*
X63708D2*
X63799D1*
X64810D2*
X67549D1*
X4347Y9847D2*
X7666D1*
X11396D2*
X13619D1*
X16275D2*
X16639D1*
X23802D2*
X25557D1*
X31970D2*
X38041D1*
X45786D2*
X45913D1*
X46919D2*
X47432D1*
X59732D2*
X62521D1*
X64810D2*
X67549D1*
X4347Y9598D2*
X8205D1*
X11646D2*
X13436D1*
X16025D2*
X16959D1*
X19548D2*
X21447D1*
X24048D2*
X25307D1*
X31724D2*
X38291D1*
X45786D2*
X45913D1*
X46919D2*
X47682D1*
X60278D2*
X61580D1*
X64802D2*
X67549D1*
X4347Y9349D2*
X8455D1*
X11892D2*
X13303D1*
X15778D2*
X17205D1*
X19681D2*
X21693D1*
X24298D2*
X25061D1*
X26466D2*
X30346D1*
X31263D2*
X35096D1*
X36013D2*
X38299D1*
X45786D2*
X45913D1*
X46919D2*
X47932D1*
X57696D2*
X57799D1*
X64677D2*
X65756D1*
X66700D2*
X67549D1*
X4347Y9101D2*
X8705D1*
X12134D2*
X13252D1*
X15528D2*
X17455D1*
X19732D2*
X21943D1*
X24548D2*
X24811D1*
X26216D2*
X30100D1*
X31509D2*
X34764D1*
X36345D2*
X38299D1*
X44946D2*
X45912D1*
X46919D2*
X48178D1*
X64431D2*
X65564D1*
X66892D2*
X67549D1*
X4347Y8852D2*
X8951D1*
X12290D2*
X13252D1*
X15278D2*
X17705D1*
X19732D2*
X22193D1*
X25970D2*
X29994D1*
X31614D2*
X34510D1*
X36571D2*
X38299D1*
X45775D2*
X45913D1*
X46919D2*
X48498D1*
X64181D2*
X65498D1*
X66958D2*
X67549D1*
X4347Y8603D2*
X9201D1*
X12372D2*
X13252D1*
X15107D2*
X17877D1*
X19732D2*
X22439D1*
X31634D2*
X34260D1*
X36700D2*
X38299D1*
X40708D2*
X40790D1*
X46919D2*
X50916D1*
X56622D2*
X56786D1*
X63931D2*
X65326D1*
X66931D2*
X67549D1*
X4347Y8355D2*
X9451D1*
X12403D2*
X13268D1*
X15091D2*
X17893D1*
X19716D2*
X22689D1*
X31634D2*
X34010D1*
X36763D2*
X38299D1*
X40771D2*
X41041D1*
X46919D2*
X51166D1*
X56716D2*
X56795D1*
X66798D2*
X67549D1*
X4347Y8106D2*
X9697D1*
X12403D2*
X13350D1*
X15009D2*
X17975D1*
X19634D2*
X22939D1*
X31634D2*
X33764D1*
X36775D2*
X38299D1*
X40743D2*
X42350D1*
X56782D2*
X56913D1*
X66892D2*
X67549D1*
X4347Y7857D2*
X9947D1*
X12403D2*
X13400D1*
X14958D2*
X18025D1*
X19583D2*
X23186D1*
X31634D2*
X33514D1*
X36732D2*
X38299D1*
X40611D2*
X42482D1*
X56759D2*
X57162D1*
X66958D2*
X67549D1*
X4347Y7609D2*
X9955D1*
X12403D2*
X13545D1*
X14814D2*
X18170D1*
X19439D2*
X23436D1*
X31583D2*
X33264D1*
X36634D2*
X38299D1*
X40704D2*
X42393D1*
X44060D2*
X44643D1*
X56626D2*
X57412D1*
X66931D2*
X67549D1*
X4347Y7360D2*
X9955D1*
X12403D2*
X13939D1*
X14419D2*
X18564D1*
X19044D2*
X23686D1*
X31439D2*
X33018D1*
X36454D2*
X38299D1*
X40771D2*
X42326D1*
X43814D2*
X44576D1*
X56716D2*
X57662D1*
X66802D2*
X67549D1*
X4347Y7111D2*
X9955D1*
X12591D2*
X24064D1*
X24693D2*
X30561D1*
X31048D2*
X32768D1*
X36204D2*
X38299D1*
X41583D2*
X42350D1*
X43759D2*
X44600D1*
X56782D2*
X57908D1*
X66888D2*
X67549D1*
X4347Y6863D2*
X9955D1*
X12841D2*
X32518D1*
X35958D2*
X38299D1*
X39310D2*
X39467D1*
X42196D2*
X42478D1*
X43630D2*
X44728D1*
X45880D2*
X46049D1*
X56759D2*
X58158D1*
X66958D2*
X67549D1*
X4347Y6614D2*
X9971D1*
X13087D2*
X32271D1*
X35708D2*
X38299D1*
X39439D2*
X39885D1*
X42446D2*
X42881D1*
X43228D2*
X45131D1*
X45478D2*
X46049D1*
X51462D2*
X51541D1*
X56630D2*
X58408D1*
X66935D2*
X67549D1*
X4347Y6365D2*
X10041D1*
X35458D2*
X38334D1*
X39685D2*
X40279D1*
X42696D2*
X45912D1*
X51532D2*
X51791D1*
X54212D2*
X55396D1*
X57435D2*
X57932D1*
X66806D2*
X67521D1*
X4347Y6116D2*
X10174D1*
X35212D2*
X38529D1*
X39935D2*
X40146D1*
X51509D2*
X52037D1*
X54282D2*
X55326D1*
X66614D2*
X67271D1*
X4347Y5868D2*
X10396D1*
X34962D2*
X38779D1*
X59052D2*
X59153D1*
X66364D2*
X67025D1*
X4347Y5619D2*
X10643D1*
X34712D2*
X39025D1*
X59075D2*
X63381D1*
X64454D2*
X66775D1*
X4347Y5370D2*
X10893D1*
X34466D2*
X39275D1*
X40806D2*
X41783D1*
X64634D2*
X66525D1*
X4347Y5122D2*
X11143D1*
X34216D2*
X39311D1*
X40771D2*
X42033D1*
X64700D2*
X66279D1*
X68700D2*
X68881D1*
X4347Y4873D2*
X11389D1*
X33966D2*
X39311D1*
X40771D2*
X42318D1*
X68681D2*
X68881D1*
X4347Y4624D2*
X11639D1*
X33720D2*
X39311D1*
X40771D2*
X42322D1*
X46036D2*
X46396D1*
X67185D2*
X67264D1*
X68568D2*
X68881D1*
X4347Y4376D2*
X11896D1*
X33462D2*
X43635D1*
X44700D2*
X46646D1*
X66939D2*
X67553D1*
X68278D2*
X68881D1*
X47704Y39654D2*
X47825D1*
Y39729D1*
X46653Y40902D1*
X46537Y40894D1*
X46412Y40907D1*
X46292Y40939D1*
X46178Y40990D1*
X46073Y41058D1*
X45981Y41143D1*
X45903Y41240D1*
X45842Y41349D1*
X45799Y41466D1*
X45775Y41589D1*
X45770Y41714D1*
X45786Y41837D1*
X45821Y41957D1*
X45874Y42070D1*
X45945Y42173D1*
X46031Y42263D1*
X46131Y42339D1*
X46241Y42398D1*
X46359Y42438D1*
X46482Y42460D1*
X46607Y42461D1*
X46730Y42443D1*
X46849Y42405D1*
X46961Y42349D1*
X47062Y42276D1*
X47151Y42188D1*
X47224Y42087D1*
X47280Y41976D1*
X47318Y41857D1*
X47339Y41678D1*
X47335Y41576D1*
X47504Y41407D1*
X48902Y41408D1*
X48839Y41544D1*
X48806Y41665D1*
X48794Y41789D1*
X48802Y41914D1*
X48830Y42035D1*
X48877Y42151D1*
X48943Y42257D1*
X49026Y42350D1*
X49122Y42430D1*
X49231Y42492D1*
X49348Y42535D1*
X49470Y42559D1*
X49595Y42563D1*
X49767Y42531D1*
X49980Y42533D1*
X50097Y42519D1*
X50206Y42477D1*
X50315Y42401D1*
X50381Y42507D1*
X50463Y42600D1*
X50560Y42680D1*
X50668Y42742D1*
X50785Y42785D1*
X50908Y42809D1*
X51032Y42813D1*
X51156Y42796D1*
X51275Y42759D1*
X51387Y42703D1*
X51488Y42630D1*
X51582Y42531D1*
X53285Y42533D1*
X53383Y42620D1*
X53489Y42685D1*
X53606Y42731D1*
X53728Y42755D1*
X53853Y42758D1*
X53976Y42738D1*
X54094Y42697D1*
X54203Y42636D1*
X54302Y42554D1*
X54383Y42620D1*
X54489Y42685D1*
X54606Y42731D1*
X54728Y42755D1*
X54853Y42758D1*
X54976Y42738D1*
X55094Y42697D1*
X55203Y42636D1*
X55299Y42557D1*
X55380Y42462D1*
X55443Y42354D1*
X55486Y42236D1*
X55510Y42053D1*
X55499Y41929D1*
X55466Y41809D1*
X55413Y41696D1*
X55340Y41594D1*
X55251Y41507D1*
X55148Y41437D1*
X55080Y41407D1*
X55480Y41408D1*
X56100Y42027D1*
X56098Y42759D1*
X57510D1*
Y42537D1*
X57929Y42533D1*
X59230D1*
X59308Y42590D1*
X59415Y42637D1*
X59554Y42658D1*
X62054D1*
X62178Y42642D1*
X62293Y42594D1*
X62393Y42517D1*
X63501Y41410D1*
X64781Y41412D1*
X65189Y41821D1*
X65187Y42057D1*
X65203Y42181D1*
X65251Y42296D1*
X65327Y42396D1*
X65577Y42646D1*
X65676Y42722D1*
X65791Y42770D1*
X65916Y42787D1*
X67666D1*
X67790Y42770D1*
X67905Y42723D1*
X68005Y42646D1*
X68892Y41759D1*
X68906Y41822D1*
Y42922D1*
X4322D1*
Y4322D1*
X11990D1*
X11832Y4456D1*
X10248Y6049D1*
X10175Y6150D1*
X10112Y6258D1*
X10061Y6372D1*
X10023Y6491D1*
X9996Y6613D1*
X9981Y6803D1*
X9978Y7851D1*
X8009Y9820D1*
X7913Y9825D1*
X7737Y9837D1*
X7616Y9867D1*
X7499Y9911D1*
X7389Y9970D1*
X7286Y10042D1*
X7194Y10126D1*
X7113Y10221D1*
X7044Y10326D1*
X6989Y10438D1*
X6948Y10556D1*
X6923Y10678D1*
X6912Y10802D1*
X6918Y10927D1*
X6939Y11050D1*
X6974Y11170D1*
X7025Y11284D1*
X7089Y11391D1*
X7167Y11490D1*
X7256Y11577D1*
X7355Y11653D1*
X7462Y11716D1*
X7577Y11766D1*
X7697Y11800D1*
X7821Y11820D1*
X8042Y11824D1*
X8224Y11920D1*
X8261Y11995D1*
X8340Y12099D1*
X9928Y13688D1*
X9931Y14492D1*
X9947Y14615D1*
X9994Y14730D1*
X10071Y14831D1*
X10903Y15662D1*
X10907Y15851D1*
X10936Y15973D1*
X10983Y16089D1*
X11049Y16195D1*
X11131Y16288D1*
X11228Y16367D1*
X11336Y16430D1*
X11453Y16473D1*
X11576Y16497D1*
X11701Y16501D1*
X11824Y16484D1*
X11944Y16447D1*
X12055Y16391D1*
X12156Y16318D1*
X12244Y16229D1*
X12316Y16127D1*
X12370Y16014D1*
X12405Y15894D1*
X12421Y15741D1*
X12410Y15617D1*
X12380Y15496D1*
X12330Y15381D1*
X12262Y15277D1*
X12178Y15184D1*
X12080Y15107D1*
X11970Y15047D1*
X11853Y15006D1*
X11730Y14984D1*
X11585Y14986D1*
X10891Y14295D1*
X10890Y13491D1*
X10873Y13368D1*
X10826Y13253D1*
X10749Y13152D1*
X9421Y11824D1*
X9488Y11820D1*
X9645Y11811D1*
X9767Y11784D1*
X9884Y11742D1*
X9996Y11686D1*
X10099Y11616D1*
X10193Y11533D1*
X10276Y11440D1*
X10347Y11337D1*
X10404Y11226D1*
X10448Y11109D1*
X10476Y10987D1*
X10489Y10823D1*
X10484Y10733D1*
X12026Y9191D1*
X12110Y9099D1*
X12183Y8998D1*
X12246Y8889D1*
X12297Y8775D1*
X12336Y8657D1*
X12362Y8534D1*
X12377Y8344D1*
X12380Y7297D1*
X13179Y6501D1*
X32186Y6504D1*
X34707Y9026D1*
X34800Y9109D1*
X34965Y9220D1*
X35054Y9302D1*
X35157Y9372D1*
X35270Y9425D1*
X35390Y9460D1*
X35514Y9475D1*
X35639Y9472D1*
X35762Y9449D1*
X35879Y9408D1*
X35989Y9349D1*
X36089Y9273D1*
X36135Y9225D1*
X36303Y9113D1*
X36396Y9030D1*
X36481Y8938D1*
X36555Y8837D1*
X36618Y8730D1*
X36669Y8616D1*
X36709Y8497D1*
X36736Y8375D1*
X36750Y8251D1*
X36751Y8126D1*
X36739Y8002D1*
X36714Y7879D1*
X36677Y7760D1*
X36627Y7645D1*
X36566Y7537D1*
X36493Y7435D1*
X36313Y7243D1*
X33526Y4456D1*
X33389Y4339D1*
X33447Y4322D1*
X43724D1*
X43659Y4374D1*
X43573Y4465D1*
X43489Y4600D1*
X42348Y4598D1*
Y4867D1*
X42215Y4964D1*
X41732Y5448D1*
X40863Y5449D1*
X40745Y5333D1*
X40747Y4601D1*
X39335D1*
Y5332D1*
X38465Y6205D1*
X38389Y6304D1*
X38341Y6419D1*
X38325Y6544D1*
Y9587D1*
X37087Y10827D1*
X35913Y10824D1*
X32925D1*
X31689Y9590D1*
X31590Y9514D1*
X31475Y9466D1*
X31350Y9449D1*
X31012D1*
X31130Y9408D1*
X31239Y9349D1*
X31339Y9273D1*
X31425Y9183D1*
X31497Y9081D1*
X31552Y8969D1*
X31589Y8849D1*
X31609Y8672D1*
X31605Y7885D1*
X31599Y7760D1*
X31570Y7639D1*
X31523Y7523D1*
X31458Y7416D1*
X31378Y7321D1*
X31283Y7239D1*
X31178Y7172D1*
X31063Y7123D1*
X30942Y7092D1*
X30818Y7081D1*
X30693Y7088D1*
X30571Y7115D1*
X30451Y7162D1*
X25561D1*
X25436Y7172D1*
X25315Y7201D1*
X25199Y7248D1*
X25092Y7312D1*
X25041Y7355D1*
X24957Y7273D1*
X24856Y7200D1*
X24746Y7141D1*
X24628Y7099D1*
X24506Y7072D1*
X24381Y7064D1*
X24257Y7072D1*
X24134Y7097D1*
X24017Y7140D1*
X23906Y7197D1*
X23741Y7328D1*
X21292Y9776D1*
X19359D1*
X19524Y9598D1*
X19593Y9493D1*
X19646Y9380D1*
X19683Y9261D1*
X19703Y9139D1*
X19707Y8528D1*
X19698Y8404D1*
X19672Y8282D1*
X19606Y8119D1*
X19599Y8010D1*
X19570Y7889D1*
X19523Y7773D1*
X19458Y7666D1*
X19378Y7571D1*
X19283Y7489D1*
X19178Y7422D1*
X19063Y7373D1*
X18942Y7342D1*
X18817Y7331D1*
X18693Y7338D1*
X18571Y7365D1*
X18455Y7410D1*
X18347Y7473D1*
X18250Y7552D1*
X18166Y7645D1*
X18098Y7749D1*
X18047Y7863D1*
X18014Y7984D1*
X18001Y8120D1*
X17963Y8200D1*
X17926Y8319D1*
X17901Y8528D1*
Y8680D1*
X16776Y9804D1*
X16576Y9885D1*
X16388Y9989D1*
X15082Y8678D1*
X15073Y8404D1*
X15047Y8282D1*
X14981Y8119D1*
X14974Y8010D1*
X14945Y7889D1*
X14898Y7773D1*
X14833Y7666D1*
X14753Y7571D1*
X14658Y7489D1*
X14553Y7422D1*
X14438Y7373D1*
X14317Y7342D1*
X14192Y7331D1*
X14068Y7338D1*
X13946Y7365D1*
X13830Y7410D1*
X13722Y7473D1*
X13625Y7552D1*
X13541Y7645D1*
X13473Y7749D1*
X13422Y7863D1*
X13389Y7984D1*
X13376Y8120D1*
X13338Y8200D1*
X13301Y8319D1*
X13276Y8528D1*
Y9053D1*
X13285Y9178D1*
X13311Y9300D1*
X13353Y9418D1*
X13411Y9528D1*
X13483Y9628D1*
X13671Y9822D1*
X12517Y10975D1*
X11786Y10973D1*
Y12384D1*
X11852D1*
X11819Y12464D1*
X11792Y12586D1*
X11786Y12711D1*
X11803Y12835D1*
X11841Y12953D1*
X11900Y13064D1*
X11992Y13175D1*
X11867Y13349D1*
X11819Y13464D1*
X11792Y13586D1*
X11786Y13711D1*
X11803Y13835D1*
X11841Y13953D1*
X11900Y14064D1*
X11977Y14162D1*
X12070Y14245D1*
X12177Y14310D1*
X12293Y14356D1*
X12415Y14380D1*
X12540Y14383D1*
X12664Y14363D1*
X12781Y14322D1*
X12890Y14261D1*
X13009Y14155D1*
X13605Y14158D1*
X13799Y14352D1*
X13794Y14414D1*
X13802Y14539D1*
X13830Y14660D1*
X13877Y14776D1*
X13943Y14882D1*
X14026Y14975D1*
X14122Y15055D1*
X14231Y15117D1*
X14300Y15143D1*
X14227Y15422D1*
X14197Y15670D1*
X14199Y15920D1*
X14235Y16167D1*
X14302Y16407D1*
X14401Y16637D1*
X14489Y16789D1*
Y16968D1*
X13286Y16967D1*
X13162Y16984D1*
X13047Y17031D1*
X12947Y17108D1*
X12380Y17674D1*
X12249Y17670D1*
X12126Y17689D1*
X12007Y17728D1*
X11896Y17786D1*
X11797Y17862D1*
X11711Y17952D1*
X11641Y18056D1*
X11589Y18169D1*
X11556Y18290D1*
X11544Y18414D1*
X11552Y18539D1*
X11580Y18660D1*
X11627Y18776D1*
X11693Y18882D1*
X11776Y18975D1*
X11872Y19055D1*
X11981Y19117D1*
X12098Y19160D1*
X12220Y19184D1*
X12345Y19188D1*
X12469Y19171D1*
X12588Y19134D1*
X12700Y19078D1*
X12800Y19005D1*
X12888Y18916D1*
X12960Y18814D1*
X13014Y18701D1*
X13049Y18581D1*
X13065Y18428D1*
X13059Y18355D1*
X13486Y17925D1*
X14563Y17926D1*
X14662Y18169D1*
X14793Y18382D1*
X14875Y18491D1*
Y19153D1*
X16287Y19149D1*
X16375Y19153D1*
X17287D1*
X17291Y18481D1*
X17437Y18279D1*
X17551Y18057D1*
X17628Y17819D1*
X17667Y17573D1*
X17672Y17072D1*
Y16857D1*
X18329Y16197D1*
X18500Y16100D1*
X18702Y15952D1*
X18883Y15780D1*
X19041Y15587D1*
X19174Y15376D1*
X19279Y15149D1*
X19355Y14911D1*
X19400Y14665D1*
X19415Y14428D1*
Y12612D1*
X19571Y12582D1*
X19688Y12539D1*
X19827Y12460D1*
X19825Y14928D1*
Y15803D1*
X19841Y15927D1*
X19888Y16042D1*
X19965Y16142D1*
X20715Y16892D1*
X20814Y16968D1*
X20929Y17016D1*
X21054Y17033D1*
X22261D1*
X22131Y17127D1*
X21764Y17494D1*
X21588Y17514D1*
X21470Y17556D1*
X21362Y17618D1*
X21267Y17699D1*
X21188Y17796D1*
X21128Y17905D1*
X21088Y18014D1*
X20970Y18056D1*
X20862Y18118D1*
X20767Y18199D1*
X20688Y18296D1*
X20628Y18405D1*
X20589Y18524D1*
X20572Y18648D1*
X20578Y18772D1*
X20606Y18894D1*
X20630Y18948D1*
X19554Y18949D1*
X19431Y18965D1*
X19315Y19013D1*
X19215Y19089D1*
X16853Y21451D1*
X14554Y21449D1*
X12511D1*
X10138Y19079D1*
X10276Y18936D1*
X10347Y18834D1*
X10404Y18723D1*
X10448Y18605D1*
X10476Y18484D1*
X10489Y18319D1*
X10482Y18194D1*
X10458Y18072D1*
X10420Y17953D1*
X10367Y17840D1*
X10300Y17734D1*
X10221Y17637D1*
X10131Y17551D1*
X10030Y17477D1*
X9921Y17416D1*
X9805Y17369D1*
X9685Y17337D1*
X9487Y17320D1*
X7913Y17318D1*
X7861Y17319D1*
X7737Y17334D1*
X7616Y17363D1*
X7499Y17408D1*
X7389Y17466D1*
X7286Y17538D1*
X7194Y17623D1*
X7113Y17718D1*
X7044Y17822D1*
X6989Y17934D1*
X6948Y18052D1*
X6923Y18174D1*
X6912Y18299D1*
X6918Y18424D1*
X6939Y18547D1*
X6974Y18666D1*
X7025Y18781D1*
X7089Y18888D1*
X7167Y18986D1*
X7256Y19074D1*
X7355Y19150D1*
X7462Y19213D1*
X7577Y19262D1*
X7697Y19297D1*
X7821Y19316D1*
X8163Y19320D1*
X9027D1*
X11013Y21310D1*
X11971Y22267D1*
X12070Y22343D1*
X12185Y22391D1*
X12310Y22408D1*
X17054D1*
X17178Y22392D1*
X17293Y22344D1*
X17393Y22267D1*
X19755Y19906D1*
X22054Y19908D1*
X22394D1*
X21218Y21086D1*
X21146Y21161D1*
X21047Y21237D1*
X20961Y21327D1*
X20891Y21431D1*
X20839Y21544D1*
X20806Y21665D1*
X20794Y21789D1*
X20802Y21914D1*
X20830Y22035D1*
X20877Y22151D1*
X20943Y22257D1*
X21026Y22350D1*
X21122Y22430D1*
X21231Y22492D1*
X21348Y22535D1*
X21470Y22559D1*
X21595Y22563D1*
X21719Y22546D1*
X21838Y22509D1*
X21950Y22453D1*
X22050Y22380D1*
X22138Y22291D1*
X22210Y22189D1*
X22264Y22076D1*
X22299Y21956D1*
X22315Y21803D1*
X22304Y21679D1*
X22274Y21558D1*
X22222Y21440D1*
X23255Y20406D1*
X25261Y20408D1*
X25260Y21029D1*
X25168Y21206D1*
X25083Y21441D1*
X25032Y21685D1*
X25016Y21929D1*
Y26815D1*
X23506Y28322D1*
X18438Y33390D1*
X17121D1*
X17124Y32991D1*
X17125Y32153D1*
X17287D1*
Y30741D1*
X15875Y30745D1*
X15806Y30741D1*
X15805Y29784D1*
X18179Y29783D1*
X18303Y29767D1*
X18418Y29719D1*
X18518Y29642D1*
X21476Y26684D1*
X21595Y26688D1*
X21719Y26671D1*
X21838Y26634D1*
X21950Y26578D1*
X22050Y26505D1*
X22138Y26416D1*
X22210Y26314D1*
X22264Y26201D1*
X22299Y26081D1*
X22315Y25928D1*
X22304Y25804D1*
X22274Y25683D1*
X22224Y25568D1*
X22156Y25464D1*
X22072Y25371D1*
X21974Y25294D1*
X21865Y25234D1*
X21747Y25193D1*
X21624Y25171D1*
X21499Y25170D1*
X21376Y25189D1*
X21257Y25228D1*
X21146Y25286D1*
X21047Y25362D1*
X20961Y25452D1*
X20891Y25556D1*
X20839Y25669D1*
X20806Y25790D1*
X20794Y25914D1*
X20799Y26004D1*
X17981Y28824D1*
X15800D1*
X15774Y28681D1*
X15736Y28562D1*
X15683Y28449D1*
X15616Y28343D1*
X15512Y28221D1*
X12399Y25107D1*
X12305Y25025D1*
X12202Y24954D1*
X12091Y24898D1*
X11973Y24855D1*
X11852Y24827D1*
X11691Y24814D1*
X7913Y24818D1*
X7737Y24830D1*
X7616Y24860D1*
X7499Y24904D1*
X7389Y24963D1*
X7286Y25035D1*
X7194Y25119D1*
X7113Y25214D1*
X7044Y25318D1*
X6989Y25430D1*
X6948Y25548D1*
X6923Y25671D1*
X6912Y25795D1*
X6918Y25920D1*
X6939Y26043D1*
X6974Y26163D1*
X7025Y26277D1*
X7089Y26384D1*
X7167Y26482D1*
X7256Y26570D1*
X7355Y26646D1*
X7462Y26709D1*
X7577Y26758D1*
X7697Y26793D1*
X7821Y26812D1*
X8163Y26817D1*
X9488Y26813D1*
X9576Y26817D1*
X11275D1*
X13803Y29343D1*
Y31170D1*
X13811Y31295D1*
X13834Y31418D1*
X13872Y31537D1*
X13925Y31650D1*
X13992Y31755D1*
X14096Y31878D1*
X15038Y32820D1*
X15037Y33391D1*
X11917Y33390D1*
X10577Y32047D1*
X10389Y31883D1*
X10179Y31747D1*
X9953Y31642D1*
X9714Y31569D1*
X9467Y31530D1*
X9062Y31523D1*
X8576Y31528D1*
X8329Y31562D1*
X8088Y31631D1*
X7860Y31733D1*
X7649Y31865D1*
X7457Y32026D1*
X7290Y32212D1*
X7151Y32419D1*
X7042Y32644D1*
X6965Y32882D1*
X6922Y33128D1*
X6913Y33377D1*
X6940Y33626D1*
X7001Y33868D1*
X7095Y34099D1*
X7220Y34315D1*
X7375Y34512D1*
X7555Y34685D1*
X7757Y34831D1*
X7978Y34948D1*
X8213Y35033D1*
X8458Y35084D1*
X8563Y35094D1*
X9639Y36167D1*
X10006Y36528D1*
X10205Y36679D1*
X10424Y36800D1*
X10657Y36889D1*
X10901Y36945D1*
X11153Y36967D1*
X11339D1*
X8497Y39807D1*
X7913Y39811D1*
X7737Y39823D1*
X7616Y39852D1*
X7499Y39897D1*
X7389Y39956D1*
X7286Y40027D1*
X7194Y40112D1*
X7113Y40207D1*
X7044Y40311D1*
X6989Y40423D1*
X6948Y40541D1*
X6923Y40663D1*
X6912Y40788D1*
X6918Y40913D1*
X6939Y41036D1*
X6974Y41156D1*
X7025Y41270D1*
X7089Y41377D1*
X7167Y41475D1*
X7256Y41563D1*
X7355Y41639D1*
X7462Y41702D1*
X7577Y41751D1*
X7697Y41786D1*
X7821Y41805D1*
X8163Y41809D1*
X9488Y41805D1*
X9645Y41797D1*
X9767Y41770D1*
X9884Y41728D1*
X9996Y41671D1*
X10099Y41601D1*
X10193Y41519D1*
X10276Y41426D1*
X10347Y41323D1*
X10404Y41212D1*
X10448Y41094D1*
X10476Y40973D1*
X10489Y40808D1*
X10482Y40683D1*
X10458Y40561D1*
X10420Y40442D1*
X10367Y40329D1*
X10300Y40223D1*
X10221Y40126D1*
X10131Y40040D1*
X10030Y39966D1*
X9921Y39905D1*
X9801Y39857D1*
X11672Y37989D1*
X11650Y38164D1*
X11658Y38289D1*
X11686Y38410D1*
X11734Y38526D1*
X11800Y38632D1*
X11882Y38725D1*
X11979Y38805D1*
X12087Y38867D1*
X12204Y38910D1*
X12326Y38934D1*
X12451Y38938D1*
X12575Y38921D1*
X12694Y38884D1*
X12806Y38828D1*
X12907Y38755D1*
X13001Y38656D1*
X13352Y38658D1*
X13348Y38884D1*
X13415D1*
X13382Y38964D1*
X13354Y39086D1*
X13349Y39207D1*
X12965Y39589D1*
X12889Y39688D1*
X12841Y39803D1*
X12825Y39928D1*
Y40450D1*
X12841Y40574D1*
X12888Y40689D1*
X12965Y40790D1*
X13193Y41017D1*
X13292Y41093D1*
X13407Y41141D1*
X13532Y41158D1*
X14554D1*
X14678Y41142D1*
X14793Y41094D1*
X14893Y41017D1*
X16643Y39267D1*
X16719Y39169D1*
X16767Y39054D1*
X16784Y38928D1*
X16786Y38176D1*
X18688D1*
X18617Y38327D1*
X18580Y38447D1*
X18559Y38570D1*
X18553Y38695D1*
X18563Y38819D1*
X18588Y38941D1*
X18628Y39060D1*
X18683Y39172D1*
X18789Y39321D1*
X18824Y39410D1*
X18885Y39519D1*
X18962Y39617D1*
X19054Y39702D1*
X19157Y39772D1*
X19304Y39834D1*
X19422Y39918D1*
X19533Y39975D1*
X19650Y40018D1*
X19772Y40045D1*
X19933Y40058D1*
X24335D1*
X24285Y40239D1*
X24268Y40362D1*
X24266Y40487D1*
X24281Y40611D1*
X24310Y40733D1*
X24355Y40849D1*
X24414Y40960D1*
X24486Y41062D1*
X24570Y41154D1*
X24665Y41235D1*
X24769Y41304D1*
X24881Y41359D1*
X24999Y41400D1*
X25122Y41425D1*
X25391Y41436D1*
X25630D1*
X25851Y41550D1*
X25970Y41590D1*
X26092Y41617D1*
X26216Y41631D1*
X26341Y41632D1*
X26465Y41620D1*
X26588Y41595D1*
X26707Y41557D1*
X26822Y41508D1*
X26930Y41446D1*
X27032Y41374D1*
X27224Y41194D1*
X28443Y39968D1*
X30160Y39967D1*
X30165Y40703D1*
X30209Y40949D1*
X30297Y41183D1*
X30425Y41397D1*
X30589Y41585D1*
X30784Y41741D1*
X31004Y41860D1*
X31241Y41938D1*
X31488Y41972D1*
X31738Y41961D1*
X31981Y41906D1*
X32211Y41809D1*
X32420Y41672D1*
X32601Y41500D1*
X32749Y41299D1*
X32858Y41074D1*
X32925Y40834D1*
X32949Y40578D1*
Y39965D1*
X35246Y39967D1*
X35407Y40129D1*
X35409Y40578D1*
X35432Y40827D1*
X35498Y41068D1*
X35606Y41293D1*
X35753Y41495D1*
X35933Y41668D1*
X36141Y41806D1*
X36370Y41904D1*
X36614Y41960D1*
X36863Y41972D1*
X37111Y41939D1*
X37348Y41863D1*
X37382Y41850D1*
X37584Y41998D1*
X37808Y42107D1*
X38049Y42175D1*
X38304Y42198D1*
X42679Y42193D1*
X42807Y42175D1*
X43015Y42386D1*
X43108Y42469D1*
X43212Y42539D1*
X43323Y42596D1*
X43440Y42639D1*
X43562Y42667D1*
X43686Y42679D1*
X43811Y42676D1*
X43935Y42657D1*
X44055Y42623D1*
X44170Y42574D1*
X44343Y42462D1*
X45339Y42463D1*
Y40894D1*
X44350D1*
X43903Y40443D1*
X43838Y40259D1*
X43721Y40039D1*
X43566Y39843D1*
X43379Y39678D1*
X43278Y39611D1*
X43280Y39203D1*
X42659D1*
X42587Y39138D1*
X42484Y39068D1*
X42372Y39011D1*
X42255Y38968D1*
X42133Y38940D1*
X42009Y38928D1*
X41884Y38931D1*
X41761Y38950D1*
X41640Y38984D1*
X41525Y39033D1*
X41417Y39095D1*
X41318Y39171D1*
X41229Y39259D1*
X41121Y39406D1*
X38878Y39409D1*
X38255Y38781D1*
X44054Y38783D1*
X47480D1*
X47580Y38883D1*
X47579Y39654D1*
X47704D1*
X18496Y41554D2*
X18476Y41430D1*
X18444Y41310D1*
X18399Y41193D1*
X18343Y41081D1*
X18275Y40976D1*
X18197Y40879D1*
X18108Y40791D1*
X18012Y40712D1*
X17907Y40643D1*
X17796Y40586D1*
X17679Y40541D1*
X17559Y40508D1*
X17436Y40488D1*
X17311Y40480D1*
X17186Y40486D1*
X17063Y40505D1*
X16942Y40537D1*
X16825Y40581D1*
X16713Y40636D1*
X16608Y40704D1*
X16510Y40782D1*
X16421Y40869D1*
X16341Y40965D1*
X16272Y41070D1*
X16215Y41180D1*
X16169Y41297D1*
X16135Y41417D1*
X16114Y41540D1*
X16106Y41665D1*
X16111Y41790D1*
X16129Y41913D1*
X16160Y42034D1*
X16204Y42152D1*
X16259Y42264D1*
X16325Y42369D1*
X16403Y42468D1*
X16490Y42557D1*
X16586Y42637D1*
X16689Y42707D1*
X16800Y42765D1*
X16916Y42812D1*
X17036Y42846D1*
X17159Y42868D1*
X17284Y42876D1*
X17409Y42872D1*
X17532Y42855D1*
X17654Y42824D1*
X17771Y42782D1*
X17883Y42727D1*
X17989Y42661D1*
X18088Y42584D1*
X18178Y42498D1*
X18259Y42402D1*
X18329Y42299D1*
X18388Y42189D1*
X18435Y42073D1*
X18470Y41953D1*
X18492Y41830D1*
X18502Y41678D1*
X18496Y41554D1*
X64613Y32551D2*
X64660Y32784D1*
X64704Y32902D1*
X64759Y33014D1*
X64825Y33119D1*
X64903Y33218D1*
X64990Y33307D1*
X65086Y33387D1*
X65189Y33457D1*
X65300Y33515D1*
X65416Y33562D1*
X65536Y33596D1*
X65659Y33618D1*
X65784Y33626D1*
X65909Y33622D1*
X66032Y33605D1*
X66154Y33574D1*
X66271Y33532D1*
X66440Y33442D1*
X66437Y34540D1*
Y36544D1*
X65389Y37592D1*
X65313Y37691D1*
X65266Y37806D1*
X65249Y37932D1*
Y39494D1*
X65265Y39618D1*
X65313Y39733D1*
X65389Y39833D1*
X65952Y40396D1*
X66050Y40471D1*
X66152Y40540D1*
X66245Y40623D1*
X66351Y40689D1*
X66467Y40734D1*
X66590Y40759D1*
X66715Y40761D1*
X66838Y40741D1*
X66956Y40700D1*
X67065Y40639D1*
X67161Y40560D1*
X67242Y40465D1*
X67305Y40357D1*
X67348Y40240D1*
X67372Y40057D1*
X67361Y39933D1*
X67328Y39812D1*
X67275Y39699D1*
X67202Y39598D1*
X67160Y39557D1*
X67285Y39521D1*
X67401Y39475D1*
X67505Y39396D1*
X68077Y38824D1*
X68075Y41222D1*
X67467Y41829D1*
X66147Y41828D1*
X66146Y41620D1*
X66130Y41496D1*
X66082Y41381D1*
X66005Y41281D1*
X65318Y40593D1*
X65219Y40517D1*
X65104Y40469D1*
X64979Y40453D1*
X63300D1*
X63177Y40469D1*
X63062Y40516D1*
X62961Y40593D1*
X61854Y41701D1*
X61511Y41699D1*
X61506Y40973D1*
X61510Y40884D1*
X61506Y39973D1*
X61510Y39884D1*
X61506Y38973D1*
X61510Y38884D1*
Y37973D1*
X61287D1*
X61284Y37553D1*
Y35803D1*
X61267Y35680D1*
X61220Y35565D1*
X61143Y35464D1*
X58058Y32379D1*
X58084Y32386D1*
X58465Y32767D1*
X58564Y32843D1*
X58679Y32891D1*
X58804Y32908D1*
X59554D1*
X59678Y32892D1*
X59793Y32844D1*
X59893Y32767D1*
X60142Y32518D1*
X60230Y32532D1*
X60465Y32767D1*
X60564Y32843D1*
X60679Y32891D1*
X60804Y32908D1*
X62554D1*
X62677Y32891D1*
X62687Y32941D1*
Y37226D1*
X62460D1*
X62464Y38638D1*
X62460Y38726D1*
Y39638D1*
X63872D1*
Y38907D1*
X64005Y38771D1*
X64081Y38672D1*
X64129Y38557D1*
X64146Y38432D1*
Y33014D1*
X64610Y32550D1*
X26746Y14304D2*
X26726Y14180D1*
X26653Y13954D1*
X28144Y15447D1*
X26183Y15449D1*
X26338Y15334D1*
X26428Y15248D1*
X26509Y15152D1*
X26579Y15049D1*
X26638Y14939D1*
X26685Y14823D1*
X26720Y14703D1*
X26742Y14580D1*
X26752Y14428D1*
X26746Y14304D1*
X24927Y13410D2*
X24760Y13532D1*
X24671Y13619D1*
X24591Y13715D1*
X24522Y13820D1*
X24465Y13930D1*
X24419Y14047D1*
X24385Y14167D1*
X24364Y14290D1*
X24356Y14415D1*
X24364Y14559D1*
X24143Y14339D1*
X24044Y14263D1*
X23929Y14216D1*
X23804Y14199D1*
X22804D1*
X22681Y14215D1*
X22565Y14263D1*
X22465Y14339D1*
X22313Y14491D1*
X22309Y14355D1*
X22504Y14157D1*
X23804Y14158D1*
X23928Y14142D1*
X24043Y14094D1*
X24143Y14017D1*
X24754Y13407D1*
X24925Y13408D1*
X30007Y8774D2*
X30031Y8893D1*
X30074Y9010D1*
X30135Y9119D1*
X30212Y9217D1*
X30304Y9302D1*
X30407Y9372D1*
X30520Y9425D1*
X30607Y9450D1*
X26541Y9449D1*
X25860Y8769D1*
X30010Y8771D1*
X65072Y15991D2*
X64125D1*
Y16049D1*
X63946Y15996D1*
X63802Y15988D1*
X63686Y15874D1*
X63685Y12677D1*
X63825Y12687D1*
Y12928D1*
X63841Y13052D1*
X63888Y13167D1*
X63965Y13267D1*
X65073Y14375D1*
X65075Y15995D1*
X64128Y17671D2*
X64126Y17729D1*
X64142Y17853D1*
X64181Y17972D1*
X64239Y18082D1*
X64309Y18171D1*
X64181Y18078D1*
X64067Y18027D1*
X63946Y17996D1*
X63822Y17986D1*
X63698Y17999D1*
X63581Y18032D1*
X63028Y17474D1*
X62782Y17228D1*
X62784Y16300D1*
X62867Y16411D1*
X63124Y16668D1*
X63134Y16838D1*
X63170Y16958D1*
X63226Y17070D1*
X63300Y17170D1*
X63391Y17255D1*
X63496Y17323D1*
X63611Y17372D1*
X63732Y17400D1*
X63861Y17406D1*
X64124Y17668D1*
X65526Y19572D2*
X65508Y19508D1*
X66295Y18723D1*
X66371Y18624D1*
X66419Y18509D1*
X66435Y18384D1*
Y16677D1*
X66595Y16688D1*
X66630Y16683D1*
X67074Y17127D1*
X67075Y21018D1*
X65911Y19858D1*
X65813Y19782D1*
X65697Y19734D1*
X65537Y19717D1*
X65526Y19572D1*
X13197Y12201D2*
Y11654D1*
X14347Y10501D1*
X15444Y11595D1*
Y13745D1*
X15186Y14003D1*
X15085Y13886D1*
X15182Y13791D1*
X15253Y13689D1*
X15308Y13576D1*
X15343Y13456D1*
X15358Y13303D1*
X15348Y13179D1*
X15317Y13058D1*
X15268Y12943D1*
X15200Y12839D1*
X15116Y12746D1*
X15017Y12669D1*
X14908Y12609D1*
X14790Y12568D1*
X14667Y12546D1*
X14523Y12548D1*
X14312Y12339D1*
X14213Y12263D1*
X14098Y12216D1*
X13973Y12199D1*
X13195D1*
X14760Y37794D2*
Y37473D1*
X13348D1*
Y37695D1*
X13003Y37699D1*
X12928Y37621D1*
X12830Y37544D1*
X12721Y37484D1*
X12603Y37443D1*
X12480Y37421D1*
X12355Y37420D1*
X12213Y37445D1*
X12252Y37408D1*
X15144D1*
X14762Y37792D1*
X20784Y12194D2*
X20880Y12086D1*
X20943Y11979D1*
X20986Y11861D1*
X21010Y11678D1*
X21001Y11581D1*
X22379D1*
X22568Y11559D1*
X22572Y11668D1*
X22593Y11791D1*
X22641Y11919D1*
X22607Y11947D1*
X22429Y11949D1*
X22306Y11965D1*
X22190Y12013D1*
X22090Y12089D1*
X21634Y12545D1*
X21499D1*
X21376Y12564D1*
X21257Y12603D1*
X21146Y12661D1*
X21047Y12737D1*
X20961Y12827D1*
X20891Y12931D1*
X20839Y13044D1*
X20806Y13165D1*
X20794Y13289D1*
X20802Y13414D1*
X20830Y13535D1*
X20877Y13651D1*
X20943Y13757D1*
X21041Y13863D1*
X20961Y13952D1*
X20891Y14056D1*
X20839Y14169D1*
X20806Y14290D1*
X20794Y14414D1*
X20802Y14539D1*
X20830Y14660D1*
X20877Y14776D1*
X20943Y14882D1*
X21026Y14975D1*
X21119Y15052D1*
X21047Y15112D1*
X20961Y15202D1*
X20891Y15306D1*
X20839Y15419D1*
X20806Y15540D1*
X20798Y15621D1*
X20784Y15553D1*
Y12198D1*
X22427Y18320D2*
X22444Y18174D1*
X22669Y17946D1*
X23459Y17945D1*
X23582Y18059D1*
X23688Y18124D1*
X23804Y18170D1*
X23926Y18196D1*
X24051Y18200D1*
X24109Y18193D1*
X23980Y18325D1*
X22425Y18324D1*
X38072Y23708D2*
X37959Y23694D1*
X37835Y23699D1*
X37713Y23726D1*
X37597Y23772D1*
X37491Y23838D1*
X37375Y23948D1*
X37003Y23949D1*
X32964Y19910D1*
X35054Y19908D1*
X35160D1*
X35899Y20651D1*
X37123Y21875D1*
X37122Y21993D1*
X37143Y22116D1*
X37185Y22234D1*
X37246Y22342D1*
X37325Y22439D1*
X37419Y22521D1*
X37526Y22586D1*
X37642Y22632D1*
X37764Y22658D1*
X37889Y22663D1*
X38013Y22647D1*
X38076Y22627D1*
X38075Y23706D1*
X37373Y24906D2*
X37494Y25021D1*
X37601Y25086D1*
X37717Y25132D1*
X37839Y25158D1*
X37964Y25163D1*
X38076Y25148D1*
X38075Y26229D1*
X38008Y26209D1*
X37884Y26194D1*
X37760Y26199D1*
X37638Y26226D1*
X37522Y26272D1*
X37416Y26338D1*
X37300Y26448D1*
X31999Y26449D1*
X31259Y25706D1*
X28594Y23040D1*
X28588Y21804D1*
X28553Y21556D1*
X28485Y21316D1*
X28383Y21088D1*
X28250Y20876D1*
X28090Y20685D1*
X27904Y20518D1*
X27746Y20410D1*
X32105Y20408D1*
X36465Y24767D1*
X36564Y24843D1*
X36679Y24891D1*
X36804Y24908D1*
X37371D1*
X42557Y23946D2*
X42489Y23876D1*
X42389Y23802D1*
X42277Y23746D1*
X42158Y23709D1*
X42034Y23694D1*
X41909Y23699D1*
X41787Y23726D1*
X41672Y23772D1*
X41565Y23838D1*
X41472Y23921D1*
X41394Y24018D1*
X41333Y24127D1*
X41292Y24245D1*
X41271Y24368D1*
Y24493D1*
X41293Y24616D1*
X41335Y24734D1*
X41396Y24842D1*
X41475Y24939D1*
X41569Y25021D1*
X41675Y25086D1*
X41792Y25132D1*
X41914Y25158D1*
X42038Y25163D1*
X42162Y25147D1*
X42281Y25109D1*
X42393Y25053D1*
X42493Y24978D1*
X42560Y24907D1*
X48922Y24908D1*
X48950Y25003D1*
Y25085D1*
X48836Y25202D1*
X48766Y25306D1*
X48714Y25419D1*
X48681Y25540D1*
X48669Y25664D1*
X48677Y25789D1*
X48705Y25910D1*
X48752Y26026D1*
X48818Y26132D1*
X48901Y26225D1*
X48997Y26305D1*
X49089Y26357D1*
X49000Y26448D1*
X42488Y26449D1*
X42415Y26376D1*
X42314Y26302D1*
X42203Y26246D1*
X42083Y26209D1*
X41959Y26194D1*
X41835Y26199D1*
X41713Y26226D1*
X41597Y26272D1*
X41491Y26338D1*
X41397Y26421D1*
X41319Y26518D1*
X41258Y26627D1*
X41217Y26745D1*
X41196Y26868D1*
X41197Y26993D1*
X41218Y27116D1*
X41260Y27234D1*
X41321Y27342D1*
X41400Y27439D1*
X41494Y27521D1*
X41601Y27586D1*
X41717Y27632D1*
X41839Y27658D1*
X41964Y27663D1*
X42087Y27647D1*
X42207Y27609D1*
X42318Y27553D1*
X42418Y27478D1*
X42485Y27407D1*
X48996Y27408D1*
X49075Y27483D1*
Y27589D1*
X48961Y27702D1*
X48891Y27806D1*
X48839Y27919D1*
X48806Y28040D1*
X48794Y28164D1*
X48802Y28289D1*
X48830Y28410D1*
X48877Y28526D1*
X48943Y28632D1*
X49026Y28725D1*
X49146Y28818D1*
X49022Y28921D1*
X49000Y28948D1*
X42558Y28949D1*
X42489Y28876D1*
X42389Y28802D1*
X42277Y28746D1*
X42158Y28709D1*
X42034Y28694D1*
X41909Y28699D1*
X41787Y28726D1*
X41672Y28772D1*
X41565Y28838D1*
X41472Y28921D1*
X41394Y29018D1*
X41333Y29127D1*
X41292Y29245D1*
X41271Y29368D1*
Y29493D1*
X41293Y29616D1*
X41323Y29701D1*
X39035Y29699D1*
X39034Y17928D1*
X39017Y17805D1*
X38970Y17690D1*
X38893Y17589D1*
X38460Y17156D1*
X38652Y17158D1*
X39510Y18017D1*
X39609Y18093D1*
X39724Y18141D1*
X39849Y18158D1*
X49603D1*
X50700Y19252D1*
Y21268D1*
X50268Y20839D1*
X50170Y20764D1*
X50190Y20553D1*
X50179Y20429D1*
X50149Y20308D1*
X50099Y20193D1*
X50031Y20089D1*
X49947Y19996D1*
X49849Y19919D1*
X49750Y19865D1*
X49868Y19803D1*
X49968Y19728D1*
X50054Y19637D1*
X50123Y19534D1*
X50174Y19420D1*
X50205Y19299D1*
X50215Y19178D1*
X50204Y19054D1*
X50173Y18933D1*
X50121Y18819D1*
X50051Y18716D1*
X49965Y18626D1*
X49864Y18552D1*
X49753Y18496D1*
X49633Y18459D1*
X49509Y18444D1*
X49385Y18449D1*
X49263Y18476D1*
X49147Y18522D1*
X49041Y18588D1*
X48925Y18698D1*
X42483Y18699D1*
X42415Y18626D1*
X42314Y18552D1*
X42203Y18496D1*
X42083Y18459D1*
X41959Y18444D1*
X41835Y18449D1*
X41713Y18476D1*
X41597Y18522D1*
X41491Y18588D1*
X41397Y18671D1*
X41319Y18768D1*
X41258Y18877D1*
X41217Y18995D1*
X41196Y19118D1*
X41197Y19243D1*
X41218Y19366D1*
X41260Y19484D1*
X41321Y19592D1*
X41400Y19689D1*
X41517Y19786D1*
X41422Y19862D1*
X41336Y19952D1*
X41266Y20056D1*
X41214Y20169D1*
X41181Y20290D1*
X41169Y20414D1*
X41177Y20539D1*
X41205Y20660D1*
X41252Y20776D1*
X41318Y20882D1*
X41401Y20975D1*
X41497Y21055D1*
X41606Y21117D1*
X41723Y21160D1*
X41845Y21184D1*
X41970Y21188D1*
X42094Y21171D1*
X42213Y21134D1*
X42325Y21078D1*
X42425Y21005D1*
X42520Y20906D1*
X46054Y20908D1*
X46480D1*
X47022Y21450D1*
X42483Y21449D1*
X42415Y21376D1*
X42314Y21302D1*
X42203Y21246D1*
X42083Y21209D1*
X41959Y21194D1*
X41835Y21199D1*
X41713Y21226D1*
X41597Y21272D1*
X41491Y21338D1*
X41397Y21421D1*
X41319Y21518D1*
X41258Y21627D1*
X41217Y21745D1*
X41196Y21868D1*
X41197Y21993D1*
X41218Y22116D1*
X41260Y22234D1*
X41321Y22342D1*
X41400Y22439D1*
X41494Y22521D1*
X41601Y22586D1*
X41717Y22632D1*
X41839Y22658D1*
X41964Y22663D1*
X42087Y22647D1*
X42207Y22609D1*
X42318Y22553D1*
X42418Y22478D1*
X42485Y22407D1*
X48925Y22408D1*
X49000Y22483D1*
Y22659D1*
X48891Y22806D1*
X48839Y22919D1*
X48806Y23040D1*
X48794Y23164D1*
X48802Y23289D1*
X48830Y23410D1*
X48877Y23526D1*
X48943Y23632D1*
X49026Y23725D1*
X49107Y23792D1*
X48947Y23921D1*
X48925Y23948D1*
X42561Y23949D1*
X50204Y24304D2*
X50173Y24183D1*
X50121Y24069D1*
X50051Y23966D1*
X49924Y23846D1*
X50050Y23755D1*
X50138Y23666D1*
X50210Y23564D1*
X50264Y23451D1*
X50299Y23331D1*
X50315Y23178D1*
X50304Y23054D1*
X50274Y22933D1*
X50224Y22818D1*
X50156Y22714D1*
X50072Y22621D1*
X49957Y22535D1*
X49968Y22478D1*
X50054Y22387D1*
X50123Y22284D1*
X50174Y22170D1*
X50188Y22113D1*
X50327Y22255D1*
X50325Y23178D1*
Y33159D1*
X50251Y33132D1*
X50148Y33062D1*
X50034Y33011D1*
X49912Y32981D1*
X49788Y32973D1*
X49664Y32987D1*
X49544Y33022D1*
X49433Y33078D1*
X49303Y33184D1*
X49251Y33132D1*
X49148Y33062D1*
X49034Y33011D1*
X48912Y32981D1*
X48792Y32973D1*
X48925Y32880D1*
X49013Y32791D1*
X49085Y32689D1*
X49139Y32576D1*
X49174Y32456D1*
X49188Y32344D1*
X49348Y32410D1*
X49470Y32434D1*
X49595Y32438D1*
X49719Y32421D1*
X49838Y32384D1*
X49950Y32328D1*
X50050Y32255D1*
X50138Y32166D1*
X50210Y32064D1*
X50264Y31951D1*
X50299Y31831D1*
X50315Y31678D1*
X50304Y31554D1*
X50274Y31433D1*
X50224Y31318D1*
X50156Y31214D1*
X50072Y31121D1*
X49989Y31056D1*
X50138Y30916D1*
X50210Y30814D1*
X50264Y30701D1*
X50299Y30581D1*
X50315Y30428D1*
X50304Y30304D1*
X50274Y30183D1*
X50224Y30068D1*
X50156Y29964D1*
X50106Y29909D1*
X50198Y29784D1*
X50249Y29670D1*
X50280Y29549D1*
X50290Y29428D1*
X50279Y29304D1*
X50247Y29183D1*
X50196Y29069D1*
X50126Y28966D1*
X50040Y28876D1*
X49961Y28818D1*
X50050Y28755D1*
X50138Y28666D1*
X50210Y28564D1*
X50264Y28451D1*
X50299Y28331D1*
X50315Y28178D1*
X50304Y28054D1*
X50274Y27933D1*
X50224Y27818D1*
X50156Y27714D1*
X50032Y27590D1*
X50034Y27487D1*
X50129Y27387D1*
X50198Y27284D1*
X50249Y27170D1*
X50280Y27049D1*
X50290Y26928D1*
X50279Y26804D1*
X50247Y26683D1*
X50196Y26569D1*
X50126Y26466D1*
X50040Y26376D1*
X49894Y26279D1*
X50013Y26166D1*
X50085Y26064D1*
X50139Y25951D1*
X50174Y25831D1*
X50190Y25678D1*
X50179Y25554D1*
X50149Y25433D1*
X50099Y25318D1*
X50031Y25214D1*
X49907Y25090D1*
X49909Y25026D1*
X50054Y24887D1*
X50123Y24784D1*
X50174Y24670D1*
X50205Y24549D1*
X50215Y24428D1*
X50204Y24304D1*
X37298Y27406D2*
X37419Y27521D1*
X37526Y27586D1*
X37642Y27632D1*
X37764Y27658D1*
X37889Y27663D1*
X38013Y27647D1*
X38076Y27627D1*
X38075Y28706D1*
X37959Y28694D1*
X37835Y28699D1*
X37713Y28726D1*
X37597Y28772D1*
X37491Y28838D1*
X37397Y28921D1*
X37319Y29018D1*
X37258Y29127D1*
X37217Y29245D1*
X37196Y29368D1*
X37197Y29481D1*
X36731Y29948D1*
X26941Y29949D1*
X28069Y28818D1*
X28233Y28630D1*
X28369Y28420D1*
X28474Y28194D1*
X28547Y27955D1*
X28586Y27708D1*
X28593Y27303D1*
Y24393D1*
X31465Y27267D1*
X31564Y27343D1*
X31679Y27391D1*
X31804Y27408D1*
X37300D1*
X23249Y16410D2*
X23358D1*
X23736Y16788D1*
X23578Y16875D1*
X23463Y16986D1*
X22638D1*
X22768Y16892D1*
X23252Y16409D1*
X24029Y11479D2*
X23997Y11358D1*
X23946Y11245D1*
X23876Y11141D1*
X23790Y11051D1*
X23689Y10977D1*
X23578Y10921D1*
X23458Y10885D1*
X23334Y10869D1*
X23260Y10872D1*
X23281Y10721D1*
X23278Y10597D1*
X23258Y10473D1*
X23232Y10387D1*
X24515Y9107D1*
X24678Y8944D1*
X26003Y10268D1*
X26102Y10344D1*
X26217Y10391D1*
X26342Y10408D1*
X26892D1*
X26894Y11510D1*
X27116D1*
X27120Y11597D1*
X27043Y11682D1*
X26975Y11787D1*
X26927Y11902D1*
X26900Y12024D1*
X26897Y12090D1*
X26643Y11839D1*
X26544Y11763D1*
X26429Y11716D1*
X26304Y11699D1*
X24035D1*
X24040Y11604D1*
X24029Y11479D1*
X28644Y16984D2*
X28577Y16913D1*
X28476Y16839D1*
X28365Y16783D1*
X28246Y16747D1*
X28122Y16731D1*
X27997Y16737D1*
X27875Y16763D1*
X27759Y16810D1*
X27653Y16875D1*
X27559Y16958D1*
X27481Y17056D1*
X27421Y17165D1*
X27379Y17282D1*
X27359Y17406D1*
Y17530D1*
X27380Y17653D1*
X27422Y17771D1*
X27484Y17880D1*
X27562Y17977D1*
X27657Y18059D1*
X27763Y18124D1*
X27879Y18170D1*
X28001Y18196D1*
X28126Y18200D1*
X28250Y18184D1*
X28369Y18147D1*
X28480Y18090D1*
X28580Y18015D1*
X28647Y17945D1*
X28892D1*
X29715Y18767D1*
X29814Y18843D1*
X29929Y18891D1*
X30054Y18908D1*
X35480D1*
X35575Y19002D1*
X35484Y18967D1*
X35354Y18949D1*
X24710D1*
X25268Y18392D1*
X25344Y18294D1*
X25392Y18179D1*
X25409Y18053D1*
Y16803D1*
X25392Y16680D1*
X25345Y16565D1*
X25268Y16464D1*
X25210Y16406D1*
X28105Y16408D1*
X28686Y16988D1*
X42340Y19786D2*
X42418Y19728D1*
X42485Y19657D1*
X47855Y19658D1*
X48674Y20476D1*
X48677Y20664D1*
X48679Y20699D1*
X47628D1*
X47018Y20089D1*
X46919Y20013D1*
X46804Y19966D1*
X46679Y19949D1*
X42519D1*
X42447Y19871D1*
X42339Y19789D1*
X38072Y18479D2*
X38008Y18459D1*
X37884Y18444D1*
X37756Y18450D1*
X36964Y17660D1*
X37605Y17658D1*
X38075Y18128D1*
Y18479D1*
X60530Y18572D2*
X60498Y18452D1*
X60445Y18339D1*
X60373Y18237D1*
X60309Y18174D1*
X60310Y17221D1*
X60395Y17129D1*
X60462Y17024D1*
X60509Y16908D1*
X60536Y16786D1*
X60541Y16697D1*
X60530Y16572D1*
X60498Y16452D1*
X60445Y16339D1*
X60373Y16237D1*
X60284Y16149D1*
X60181Y16078D1*
X60067Y16027D1*
X59946Y15996D1*
X59822Y15986D1*
X59698Y15999D1*
X59578Y16033D1*
X59465Y16087D1*
X59364Y16161D1*
X59258Y16280D1*
X59156Y16107D1*
X59072Y16015D1*
X58974Y15937D1*
X58865Y15877D1*
X58747Y15836D1*
X58624Y15814D1*
X58499Y15813D1*
X58376Y15832D1*
X58290Y15861D1*
X59493Y14659D1*
X61354Y14658D1*
X61825Y15128D1*
Y17428D1*
X61841Y17552D1*
X61888Y17667D1*
X61965Y17767D1*
X63145Y18947D1*
X60761Y18949D1*
X60540Y18728D1*
X60530Y18572D1*
X59351Y18175D2*
X59278Y18250D1*
X59194Y18386D1*
X59034Y18231D1*
Y17159D1*
X59138Y17059D1*
X59185Y16992D1*
X59226Y17070D1*
X59300Y17170D1*
X59349Y17215D1*
X59351Y18169D1*
X30813Y11867D2*
X30796Y11803D1*
X31807Y12814D1*
X31808Y12972D1*
X31653Y12990D1*
X30806Y12145D1*
X30823Y11991D1*
X30813Y11867D1*
X29898Y11283D2*
X29755Y11335D1*
X29649Y11401D1*
X29556Y11484D1*
X29478Y11581D1*
X29445Y11639D1*
X29303Y11637D1*
X29305Y11410D1*
X28958D1*
X29095Y11307D1*
X29117Y11280D1*
X29892Y11283D1*
X29670Y12594D2*
X29759Y12649D1*
X29875Y12695D1*
X30025Y12722D1*
X30827Y13522D1*
X30825Y14133D1*
X30841Y14257D1*
X30888Y14372D1*
X30965Y14472D1*
X31100Y14608D1*
X31099Y14711D1*
X31116Y14835D1*
X31154Y14953D1*
X31213Y15064D1*
X31290Y15162D1*
X31383Y15245D1*
X31489Y15310D1*
X31606Y15356D1*
X31728Y15380D1*
X31853Y15383D1*
X31976Y15363D1*
X32039Y15341D1*
X32896Y16198D1*
X31001Y16199D1*
X28931Y14127D1*
X29091Y14106D1*
X29210Y14069D1*
X29322Y14014D1*
X29423Y13940D1*
X29510Y13851D1*
X29582Y13749D1*
X29637Y13637D1*
X29672Y13517D1*
X29687Y13364D1*
X29677Y13239D1*
X29646Y13118D1*
X29597Y13004D1*
X29529Y12899D1*
X29444Y12807D1*
X29309Y12709D1*
X29305Y12600D1*
X29666Y12596D1*
X63010Y31294D2*
Y30972D1*
X61787D1*
X61783Y30678D1*
X61767Y30555D1*
X61720Y30439D1*
X61643Y30339D1*
X60784Y29480D1*
X60783Y29198D1*
X60802Y29179D1*
X60886Y29413D1*
X60965Y29517D1*
X61465Y30017D1*
X61564Y30093D1*
X61679Y30141D1*
X61804Y30158D1*
X62554D1*
X62678Y30142D1*
X62793Y30094D1*
X62893Y30017D1*
X63045Y29866D1*
X63052Y30039D1*
X63080Y30160D1*
X63127Y30276D1*
X63193Y30382D1*
X63276Y30475D1*
X63372Y30555D1*
X63481Y30617D1*
X63640Y30669D1*
X63008Y31296D1*
X59804Y28184D2*
X59751Y28132D1*
X59647Y28062D1*
X59533Y28011D1*
X59412Y27981D1*
X59288Y27973D1*
X59164Y27987D1*
X59044Y28022D1*
X58932Y28078D1*
X58833Y28153D1*
X58747Y28244D1*
X58680Y28349D1*
X58631Y28464D1*
X58604Y28586D1*
X58599Y28711D1*
X58616Y28835D1*
X58654Y28953D1*
X58712Y29064D1*
X58790Y29162D1*
X58883Y29245D1*
X58989Y29310D1*
X59105Y29356D1*
X59228Y29380D1*
X59353Y29383D1*
X59476Y29363D1*
X59594Y29322D1*
X59703Y29261D1*
X59802Y29179D1*
X59824Y29303D1*
Y30479D1*
X59465Y30839D1*
X59389Y30938D1*
X59341Y31053D1*
X59325Y31178D1*
Y31948D1*
X59003Y31949D1*
X58143Y31089D1*
X58044Y31013D1*
X57929Y30966D1*
X57804Y30949D1*
X57054D1*
X56931Y30965D1*
X56815Y31013D1*
X56715Y31089D1*
X55715Y32089D1*
X55639Y32188D1*
X55591Y32303D1*
X55575Y32428D1*
Y34229D1*
X55508Y34297D1*
X55510Y33973D1*
X55444D1*
X55486Y33861D1*
X55510Y33678D1*
X55499Y33554D1*
X55466Y33434D1*
X55413Y33321D1*
X55340Y33219D1*
X55251Y33132D1*
X55148Y33062D1*
X55034Y33011D1*
X54912Y32981D1*
X54788Y32973D1*
X54664Y32987D1*
X54544Y33022D1*
X54433Y33078D1*
X54303Y33184D1*
X54251Y33132D1*
X54116Y33047D1*
X55643Y31517D1*
X55719Y31419D1*
X55767Y31304D1*
X55784Y31135D1*
X55848Y31160D1*
X55970Y31184D1*
X56095Y31188D1*
X56219Y31171D1*
X56338Y31134D1*
X56450Y31078D1*
X56550Y31005D1*
X56638Y30916D1*
X56710Y30814D1*
X56764Y30701D1*
X56799Y30581D1*
X56815Y30428D1*
X56804Y30304D1*
X56774Y30183D1*
X56724Y30068D1*
X56656Y29964D1*
X56551Y29855D1*
X56747Y29664D1*
X57768Y28642D1*
X57844Y28544D1*
X57892Y28429D1*
X57909Y28303D1*
Y27253D1*
X59130Y26031D1*
X60261Y26033D1*
X60206Y26118D1*
X60158Y26233D1*
X60131Y26355D1*
X60126Y26479D1*
X60142Y26603D1*
X60181Y26722D1*
X60239Y26832D1*
X60316Y26930D1*
X60410Y27013D1*
X60516Y27079D1*
X60632Y27124D1*
X60755Y27149D1*
X60879Y27151D1*
X61003Y27131D1*
X61121Y27090D1*
X61229Y27029D1*
X61328Y26947D1*
X61410Y27013D1*
X61516Y27079D1*
X61632Y27124D1*
X61755Y27149D1*
X61860Y27151D1*
X62058Y27352D1*
X62052Y27414D1*
X62060Y27539D1*
X62088Y27660D1*
X62136Y27776D1*
X62201Y27882D1*
X62284Y27975D1*
X62380Y28055D1*
X62489Y28117D1*
X62606Y28160D1*
X62728Y28184D1*
X62853Y28188D1*
X62977Y28171D1*
X63077Y28140D1*
X63075Y28479D1*
X62356Y29198D1*
X62003Y29199D1*
X61886Y29083D1*
X61943Y28979D1*
X61986Y28861D1*
X62010Y28678D1*
X61999Y28554D1*
X61966Y28434D1*
X61913Y28321D1*
X61840Y28219D1*
X61751Y28132D1*
X61647Y28062D1*
X61533Y28011D1*
X61412Y27981D1*
X61288Y27973D1*
X61164Y27987D1*
X61044Y28022D1*
X60932Y28078D1*
X60803Y28184D1*
X60751Y28132D1*
X60647Y28062D1*
X60533Y28011D1*
X60412Y27981D1*
X60288Y27973D1*
X60164Y27987D1*
X60044Y28022D1*
X59932Y28078D1*
X59803Y28184D1*
X54098Y34320D2*
Y34695D1*
X53679Y34699D1*
X53511D1*
X53499Y34554D1*
X53466Y34434D1*
X53413Y34321D1*
X53340Y34219D1*
X53298Y34178D1*
X53383Y34245D1*
X53489Y34310D1*
X53606Y34356D1*
X53728Y34380D1*
X53853Y34383D1*
X53976Y34363D1*
X54097Y34320D1*
X48464Y33062D2*
X48333Y33153D1*
X48303Y33184D1*
X48251Y33132D1*
X48148Y33062D1*
X48034Y33011D1*
X47912Y32981D1*
X47788Y32973D1*
X47664Y32987D1*
X47544Y33022D1*
X47433Y33078D1*
X47303Y33184D1*
X47251Y33132D1*
X47148Y33062D1*
X47034Y33011D1*
X46912Y32981D1*
X46788Y32973D1*
X46664Y32987D1*
X46544Y33022D1*
X46433Y33078D1*
X46303Y33184D1*
X46251Y33132D1*
X46148Y33062D1*
X46034Y33011D1*
X45912Y32981D1*
X45788Y32973D1*
X45664Y32987D1*
X45544Y33022D1*
X45433Y33078D1*
X45303Y33184D1*
X45251Y33132D1*
X45148Y33062D1*
X45034Y33011D1*
X44912Y32981D1*
X44788Y32973D1*
X44664Y32987D1*
X44544Y33022D1*
X44433Y33078D1*
X44303Y33184D1*
X44251Y33132D1*
X44148Y33062D1*
X44034Y33011D1*
X43912Y32981D1*
X43788Y32973D1*
X43664Y32987D1*
X43544Y33022D1*
X43433Y33078D1*
X43303Y33184D1*
X43251Y33132D1*
X43148Y33062D1*
X43034Y33011D1*
X42912Y32981D1*
X42788Y32973D1*
X42664Y32987D1*
X42544Y33022D1*
X42433Y33078D1*
X42303Y33184D1*
X42251Y33132D1*
X42148Y33062D1*
X42034Y33011D1*
X41912Y32981D1*
X41788Y32973D1*
X41664Y32987D1*
X41544Y33022D1*
X41433Y33078D1*
X41303Y33184D1*
X41251Y33132D1*
X41148Y33062D1*
X41034Y33011D1*
X40912Y32981D1*
X40788Y32973D1*
X40664Y32987D1*
X40544Y33022D1*
X40433Y33078D1*
X40303Y33184D1*
X40251Y33132D1*
X40148Y33062D1*
X40034Y33011D1*
X39912Y32981D1*
X39788Y32973D1*
X39664Y32987D1*
X39544Y33022D1*
X39433Y33078D1*
X39303Y33184D1*
X39251Y33132D1*
X39116Y33047D1*
X39378Y32783D1*
X47839D1*
X47901Y32850D1*
X47997Y32930D1*
X48106Y32992D1*
X48223Y33035D1*
X48345Y33059D1*
X48458Y33063D1*
X31309Y34179D2*
X31248Y34244D1*
X31180Y34349D1*
X31132Y34464D1*
X31104Y34586D1*
X31099Y34711D1*
X31116Y34835D1*
X31154Y34953D1*
X31213Y35064D1*
X31290Y35162D1*
X31333Y35201D1*
X30503Y35199D1*
X29685Y34381D1*
X29677Y34176D1*
X29646Y34055D1*
X29597Y33941D1*
X29529Y33836D1*
X29444Y33744D1*
X29346Y33667D1*
X29237Y33606D1*
X29119Y33565D1*
X28996Y33543D1*
X28871Y33542D1*
X28748Y33561D1*
X28629Y33601D1*
X28519Y33659D1*
X28419Y33734D1*
X28333Y33825D1*
X28263Y33928D1*
X28211Y34042D1*
X28179Y34162D1*
X28166Y34286D1*
X28174Y34411D1*
X28202Y34533D1*
X28250Y34648D1*
X28316Y34754D1*
X28398Y34848D1*
X28495Y34927D1*
X28603Y34989D1*
X28720Y35033D1*
X28842Y35057D1*
X29002Y35056D1*
X29965Y36017D1*
X30064Y36093D1*
X30179Y36141D1*
X30304Y36158D1*
X35105D1*
X35338Y36390D1*
X27613D1*
X27358Y36134D1*
X27510D1*
Y34722D1*
X26098Y34726D1*
X26010Y34722D1*
X25098D1*
Y36134D1*
X25258D1*
X25125Y36308D1*
X25011Y36530D1*
X24938Y36769D1*
X24910Y37017D1*
X24925Y37266D1*
X24985Y37508D1*
X25088Y37736D1*
X25229Y37942D1*
X25337Y38059D1*
X24516Y38056D1*
X20731D1*
X25631Y33155D1*
X26554Y33158D1*
X31324D1*
X31248Y33244D1*
X31180Y33349D1*
X31132Y33464D1*
X31104Y33586D1*
X31099Y33711D1*
X31116Y33835D1*
X31154Y33953D1*
X31213Y34064D1*
X31304Y34175D1*
X54337Y15384D2*
X54922D1*
X54548Y15756D1*
X54474Y15568D1*
X54406Y15464D1*
X54335Y15386D1*
X55510Y14794D2*
Y13973D1*
X55444D1*
X55486Y13861D1*
X55510Y13678D1*
X55499Y13554D1*
X55454Y13409D1*
X56890Y13412D1*
X55509Y14795D1*
X53304Y15175D2*
X53426Y15271D1*
X53297Y15362D1*
X53214Y15449D1*
X51253D1*
X51114Y15310D1*
X51203Y15261D1*
X51302Y15179D1*
X51383Y15245D1*
X51489Y15310D1*
X51606Y15356D1*
X51728Y15380D1*
X51853Y15383D1*
X51976Y15363D1*
X52094Y15322D1*
X52203Y15261D1*
X52302Y15179D1*
X52383Y15245D1*
X52489Y15310D1*
X52665Y15387D1*
X52781Y15407D1*
X52898Y15399D1*
X53043Y15343D1*
X53203Y15261D1*
X53302Y15179D1*
X52520Y13034D2*
X52433Y13078D1*
X52303Y13184D1*
X52251Y13132D1*
X52148Y13062D1*
X52034Y13011D1*
X51924Y12984D1*
X52374Y12537D1*
X53015D1*
X52524Y13030D1*
X48304Y15175D2*
X48383Y15245D1*
X48489Y15310D1*
X48606Y15356D1*
X48728Y15380D1*
X48853Y15383D1*
X48976Y15363D1*
X49094Y15322D1*
X49203Y15261D1*
X49302Y15179D1*
X49325Y15303D1*
Y15428D1*
X49341Y15552D1*
X49388Y15667D1*
X49465Y15767D1*
X50192Y16494D1*
X50195Y16682D1*
X50199Y16701D1*
X47804Y16699D1*
X45003D1*
X43676Y15373D1*
X43833Y15382D1*
X44715Y16267D1*
X44814Y16343D1*
X44929Y16391D1*
X45054Y16408D1*
X46304D1*
X46428Y16392D1*
X46543Y16344D1*
X46643Y16267D1*
X47568Y15342D1*
X47728Y15380D1*
X47853Y15383D1*
X47976Y15363D1*
X48094Y15322D1*
X48203Y15261D1*
X48302Y15179D1*
X40304Y15175D2*
X40383Y15245D1*
X40489Y15310D1*
X40606Y15356D1*
X40728Y15380D1*
X40853Y15383D1*
X40976Y15363D1*
X41094Y15322D1*
X41203Y15261D1*
X41302Y15179D1*
X41258Y15296D1*
X41106Y15448D1*
X33503Y15449D1*
X33265Y15211D1*
X33302Y15179D1*
X33383Y15245D1*
X33489Y15310D1*
X33606Y15356D1*
X33728Y15380D1*
X33853Y15383D1*
X33976Y15363D1*
X34094Y15322D1*
X34203Y15261D1*
X34302Y15179D1*
X34383Y15245D1*
X34489Y15310D1*
X34606Y15356D1*
X34728Y15380D1*
X34853Y15383D1*
X34976Y15363D1*
X35094Y15322D1*
X35203Y15261D1*
X35302Y15179D1*
X35383Y15245D1*
X35489Y15310D1*
X35606Y15356D1*
X35728Y15380D1*
X35853Y15383D1*
X35976Y15363D1*
X36094Y15322D1*
X36203Y15261D1*
X36302Y15179D1*
X36383Y15245D1*
X36489Y15310D1*
X36606Y15356D1*
X36728Y15380D1*
X36853Y15383D1*
X36976Y15363D1*
X37094Y15322D1*
X37203Y15261D1*
X37302Y15179D1*
X37383Y15245D1*
X37489Y15310D1*
X37606Y15356D1*
X37728Y15380D1*
X37853Y15383D1*
X37976Y15363D1*
X38094Y15322D1*
X38203Y15261D1*
X38302Y15179D1*
X38383Y15245D1*
X38489Y15310D1*
X38606Y15356D1*
X38728Y15380D1*
X38853Y15383D1*
X38976Y15363D1*
X39094Y15322D1*
X39203Y15261D1*
X39302Y15179D1*
X39383Y15245D1*
X39489Y15310D1*
X39606Y15356D1*
X39728Y15380D1*
X39853Y15383D1*
X39976Y15363D1*
X40094Y15322D1*
X40203Y15261D1*
X40302Y15179D1*
X33831Y12976D2*
X33664Y12987D1*
X33544Y13022D1*
X33433Y13078D1*
X33303Y13184D1*
X33251Y13132D1*
X33148Y13062D1*
X33034Y13011D1*
X32912Y12981D1*
X32769Y12975D1*
X32767Y12616D1*
X32751Y12493D1*
X32703Y12378D1*
X32627Y12277D1*
X30814Y10466D1*
X30842Y10408D1*
X31150D1*
X32386Y11643D1*
X32485Y11719D1*
X32600Y11767D1*
X32725Y11783D1*
X37288D1*
X37412Y11767D1*
X37527Y11720D1*
X37627Y11643D1*
X38823Y10447D1*
X38788Y10516D1*
X37355Y11950D1*
X35054Y11949D1*
X34931Y11965D1*
X34815Y12013D1*
X34715Y12089D1*
X33834Y12971D1*
X63330Y22960D2*
X63277Y22908D1*
X63174Y22838D1*
X63060Y22787D1*
X62939Y22757D1*
X62814Y22749D1*
X62690Y22763D1*
X62571Y22798D1*
X62459Y22855D1*
X62330Y22961D1*
X62284Y22830D1*
Y22553D1*
X62267Y22430D1*
X62220Y22315D1*
X62143Y22214D1*
X61643Y21715D1*
X61681Y21676D1*
X65122D1*
X65997Y22549D1*
X65999Y22771D1*
X65939Y22757D1*
X65814Y22749D1*
X65690Y22763D1*
X65571Y22798D1*
X65459Y22855D1*
X65330Y22961D1*
X65277Y22908D1*
X65174Y22838D1*
X65060Y22787D1*
X64939Y22757D1*
X64814Y22749D1*
X64690Y22763D1*
X64571Y22798D1*
X64459Y22855D1*
X64330Y22961D1*
X64277Y22908D1*
X64174Y22838D1*
X64060Y22787D1*
X63939Y22757D1*
X63814Y22749D1*
X63690Y22763D1*
X63571Y22798D1*
X63459Y22855D1*
X63330Y22961D1*
X64556Y24102D2*
X64632Y24132D1*
X64755Y24156D1*
X64879Y24159D1*
X65003Y24139D1*
X65121Y24098D1*
X65229Y24037D1*
X65323Y23960D1*
X65325Y24982D1*
X64855Y25450D1*
X63305Y25449D1*
X63299Y25362D1*
X64555Y24105D1*
X61537Y9534D2*
X61633Y9620D1*
X61739Y9685D1*
X61856Y9731D1*
X61978Y9755D1*
X62103Y9758D1*
X62226Y9738D1*
X62375Y9680D1*
X62728Y10031D1*
X62726Y13080D1*
Y13420D1*
X61973Y12669D1*
X62088Y12634D1*
X62200Y12578D1*
X62300Y12505D1*
X62388Y12416D1*
X62460Y12314D1*
X62514Y12201D1*
X62549Y12081D1*
X62565Y11928D1*
X62554Y11804D1*
X62524Y11683D1*
X62474Y11568D1*
X62406Y11464D1*
X62322Y11371D1*
X62224Y11294D1*
X62115Y11234D1*
X61997Y11193D1*
X61874Y11171D1*
X61749Y11170D1*
X61626Y11189D1*
X61507Y11228D1*
X61396Y11286D1*
X61297Y11362D1*
X61211Y11452D1*
X61141Y11556D1*
X61089Y11669D1*
X61056Y11790D1*
X61044Y11914D1*
X61049Y12004D1*
X60976Y12078D1*
X59445D1*
X59568Y11959D1*
X59644Y11860D1*
X59692Y11745D1*
X59708Y11620D1*
Y9756D1*
X59853Y9758D1*
X59976Y9738D1*
X60094Y9697D1*
X60203Y9636D1*
X60322Y9530D1*
X61534Y9533D1*
X51510Y5076D2*
Y4912D1*
X52866D1*
X52854Y4961D1*
X52850Y5074D1*
X52166Y5078D1*
X51506D1*
X51499Y6179D2*
X51454Y6034D1*
X52140Y6037D1*
X51335Y6844D1*
X51380Y6711D1*
X51443Y6604D1*
X51486Y6486D1*
X51510Y6303D1*
X51499Y6179D1*
X50287Y6784D2*
X50304Y6800D1*
X50179Y6783D1*
X50284D1*
X50179Y6824D1*
X48449D1*
X48554Y6783D1*
X50179D1*
X55473Y10759D2*
X55938D1*
X56756Y11575D1*
X54666Y11578D1*
X52175D1*
X52052Y11594D1*
X51937Y11641D1*
X51836Y11718D1*
X50856Y12699D1*
X50574D1*
X51320Y11957D1*
X52847Y10429D1*
X52848Y10759D1*
X54260D1*
Y10537D1*
X54679Y10533D1*
X55347D1*
X55348Y10759D1*
X55473D1*
X56748Y8925D2*
X56716Y8809D1*
X56663Y8696D1*
X56590Y8594D1*
X56548Y8553D1*
X56630Y8461D1*
X56693Y8354D1*
X56736Y8236D1*
X56760Y8053D1*
X56749Y7929D1*
X56716Y7809D1*
X56663Y7696D1*
X56590Y7594D1*
X56548Y7553D1*
X56630Y7461D1*
X56693Y7354D1*
X56736Y7236D1*
X56760Y7053D1*
X56749Y6929D1*
X56716Y6809D1*
X56663Y6696D1*
X56590Y6594D1*
X56548Y6553D1*
X56679Y6533D1*
X57045D1*
X57169Y6517D1*
X57284Y6469D1*
X57384Y6392D1*
X57613Y6163D1*
X57701Y6162D1*
X57763Y6229D1*
X57860Y6308D1*
X57968Y6370D1*
X58085Y6414D1*
X58207Y6438D1*
X58332Y6442D1*
X58456Y6425D1*
X58575Y6388D1*
X58687Y6332D1*
X58785Y6261D1*
X56952Y8093D1*
X56876Y8192D1*
X56828Y8307D1*
X56812Y8432D1*
Y8858D1*
X56745Y8925D1*
X55351Y6035D2*
X55349Y6086D1*
X55366Y6210D1*
X55404Y6328D1*
X55463Y6439D1*
X55554Y6550D1*
X55429Y6574D1*
X54074D1*
X54193Y6354D1*
X54236Y6236D1*
X54260Y6053D1*
X54258Y6034D1*
X55351Y6037D1*
X53037Y6534D2*
X53054Y6550D1*
X52984Y6551D1*
X53003Y6532D1*
X52935Y6635D1*
X52831Y6714D1*
X50718Y8827D1*
X48675Y8828D1*
X48552Y8844D1*
X48437Y8891D1*
X48336Y8968D1*
X46897Y10407D1*
X46896Y8182D1*
X46879Y8059D1*
X46965Y8142D1*
X47064Y8218D1*
X47179Y8266D1*
X47304Y8283D1*
X51054D1*
X51178Y8267D1*
X51293Y8219D1*
X51393Y8142D1*
X52984Y6551D1*
X52473Y39384D2*
X52571D1*
X52575Y39721D1*
X52348Y39723D1*
Y40445D1*
X51929Y40449D1*
X48464D1*
X48643Y40267D1*
X48719Y40169D1*
X48767Y40054D1*
X48784Y39928D1*
Y39651D1*
X48830Y39660D1*
X48877Y39776D1*
X48943Y39882D1*
X49026Y39975D1*
X49122Y40055D1*
X49231Y40117D1*
X49348Y40160D1*
X49470Y40184D1*
X49595Y40188D1*
X49719Y40171D1*
X49838Y40134D1*
X49950Y40078D1*
X50050Y40005D1*
X50138Y39916D1*
X50210Y39814D1*
X50235Y39761D1*
X50267Y39910D1*
X50315Y40026D1*
X50381Y40132D1*
X50463Y40225D1*
X50560Y40305D1*
X50668Y40367D1*
X50785Y40410D1*
X50908Y40434D1*
X51032Y40438D1*
X51156Y40421D1*
X51275Y40384D1*
X51387Y40328D1*
X51488Y40255D1*
X51576Y40166D1*
X51647Y40064D1*
X51702Y39951D1*
X51737Y39831D1*
X51752Y39678D1*
X51742Y39554D1*
X51711Y39433D1*
X51662Y39318D1*
X51594Y39214D1*
X51509Y39121D1*
X51411Y39044D1*
X51302Y38984D1*
X51184Y38943D1*
X51034Y38921D1*
X50831Y38715D1*
X50804Y38658D1*
X52347D1*
X52348Y39384D1*
X52473D1*
X57036Y39381D2*
X57103Y39383D1*
X57226Y39363D1*
X57344Y39322D1*
X57453Y39261D1*
X57552Y39179D1*
X57575Y39303D1*
Y39909D1*
X57501Y39882D1*
X57398Y39812D1*
X57284Y39761D1*
X57162Y39731D1*
X57034Y39723D1*
Y39385D1*
X58323Y38028D2*
X58162Y37981D1*
X58038Y37973D1*
X57914Y37987D1*
X57794Y38022D1*
X57683Y38078D1*
X57553Y38184D1*
X57534Y38053D1*
Y37178D1*
X57517Y37055D1*
X57470Y36940D1*
X57393Y36839D1*
X57335Y36781D1*
X57480Y36783D1*
X58326Y37629D1*
X58325Y38026D1*
X56443Y41017D2*
X56552Y40929D1*
X56633Y40995D1*
X56739Y41060D1*
X56856Y41106D1*
X56978Y41130D1*
X57103Y41133D1*
X57226Y41113D1*
X57344Y41072D1*
X57453Y41011D1*
X57552Y40929D1*
X57633Y40995D1*
X57739Y41060D1*
X57856Y41106D1*
X57978Y41130D1*
X58103Y41133D1*
X58226Y41113D1*
X58344Y41072D1*
X58453Y41011D1*
X58549Y40932D1*
X58587Y40887D1*
X59274Y41577D1*
X57929Y41574D1*
X57511D1*
X57510Y41348D1*
X56780D1*
X56444Y41016D1*
X66923Y8679D2*
X66891Y8558D1*
X66837Y8446D1*
X66765Y8344D1*
X66723Y8303D1*
X66804Y8211D1*
X66867Y8103D1*
X66910Y7986D1*
X66934Y7803D1*
X66923Y7679D1*
X66891Y7558D1*
X66837Y7446D1*
X66765Y7344D1*
X66723Y7303D1*
X66804Y7211D1*
X66867Y7103D1*
X66910Y6986D1*
X66934Y6803D1*
X66923Y6679D1*
X66891Y6558D1*
X66837Y6446D1*
X66765Y6344D1*
X66672Y6255D1*
X66647Y6199D1*
X66568Y6095D1*
X66316Y5843D1*
X66217Y5767D1*
X66102Y5719D1*
X65977Y5703D1*
X64317D1*
X64413Y5633D1*
X64500Y5544D1*
X64572Y5442D1*
X64626Y5330D1*
X64661Y5210D1*
X64677Y5057D1*
X64662Y4914D1*
X65916Y4912D1*
X66092D1*
X67574Y6393D1*
X67575Y14769D1*
X65519Y12715D1*
X65521Y11896D1*
X65625Y11794D1*
X65697Y11692D1*
X65751Y11580D1*
X65786Y11460D1*
X65802Y11307D1*
X65792Y11183D1*
X65761Y11062D1*
X65711Y10947D1*
X65643Y10842D1*
X65559Y10750D1*
X65461Y10673D1*
X65352Y10613D1*
X65234Y10571D1*
X65111Y10550D1*
X64986Y10549D1*
X64863Y10568D1*
X64785Y10593D1*
X64784Y9678D1*
X64767Y9555D1*
X64720Y9440D1*
X64643Y9339D1*
X63701Y8398D1*
X63808Y8412D1*
X65155D1*
X65524Y8777D1*
X65540Y8959D1*
X65578Y9078D1*
X65637Y9188D1*
X65714Y9287D1*
X65807Y9370D1*
X65914Y9435D1*
X66030Y9481D1*
X66152Y9505D1*
X66277Y9507D1*
X66400Y9488D1*
X66518Y9447D1*
X66627Y9386D1*
X66724Y9306D1*
X66804Y9211D1*
X66867Y9103D1*
X66910Y8986D1*
X66934Y8803D1*
X66923Y8679D1*
X40289Y6648D2*
X40150Y6610D1*
X40025Y6601D1*
X39901Y6615D1*
X39781Y6651D1*
X39670Y6707D1*
X39570Y6782D1*
X39485Y6873D1*
X39417Y6978D1*
X39369Y7093D1*
X39342Y7215D1*
X39336Y7336D1*
X39284Y7288D1*
Y6745D1*
X40013Y6013D1*
X40144Y6088D1*
X40323Y6267D1*
X40326Y6294D1*
X40294Y6415D1*
X40281Y6539D1*
X40288Y6644D1*
X40521Y8823D2*
X40617Y8715D1*
X40680Y8607D1*
X40723Y8490D1*
X40747Y8307D1*
X40736Y8183D1*
X40703Y8062D1*
X40650Y7949D1*
X40577Y7848D1*
X40539Y7807D1*
X40617Y7715D1*
X40680Y7607D1*
X40723Y7490D1*
X40747Y7307D1*
X40742Y7249D1*
X40835Y7285D1*
X40957Y7309D1*
X41082Y7313D1*
X41206Y7296D1*
X41325Y7259D1*
X41437Y7203D1*
X41538Y7130D1*
X41632Y7031D1*
X41804Y7033D1*
X41928Y7017D1*
X42043Y6969D1*
X42143Y6892D1*
X42754Y6282D1*
X45855Y6283D1*
X46077Y6504D1*
X46075Y7053D1*
X46091Y7176D1*
X45963Y7050D1*
X46075Y7049D1*
X46090Y7172D1*
X45961Y7048D1*
X45913Y6946D1*
X45840Y6844D1*
X45751Y6757D1*
X45648Y6687D1*
X45534Y6636D1*
X45412Y6606D1*
X45288Y6598D1*
X45164Y6612D1*
X45044Y6647D1*
X44933Y6703D1*
X44833Y6778D1*
X44748Y6869D1*
X44680Y6974D1*
X44632Y7089D1*
X44604Y7211D1*
X44599Y7336D1*
X44616Y7460D1*
X44654Y7578D1*
X44713Y7689D1*
X44804Y7800D1*
X44679Y7824D1*
X44171D1*
X44131Y7797D1*
X44084Y7681D1*
X44005Y7577D1*
X43760Y7331D1*
X43749Y7179D1*
X43716Y7059D1*
X43663Y6946D1*
X43590Y6844D1*
X43501Y6757D1*
X43397Y6687D1*
X43283Y6636D1*
X43162Y6606D1*
X43038Y6598D1*
X42914Y6612D1*
X42794Y6647D1*
X42682Y6703D1*
X42583Y6778D1*
X42497Y6869D1*
X42430Y6974D1*
X42381Y7089D1*
X42354Y7211D1*
X42349Y7336D1*
X42366Y7460D1*
X42404Y7579D1*
X42462Y7689D1*
X42554Y7800D1*
X42430Y7974D1*
X42381Y8089D1*
X42360Y8185D1*
X42291Y8203D1*
X41416D1*
X41293Y8219D1*
X41178Y8266D1*
X41077Y8343D1*
X40522Y8898D1*
X46010Y4826D2*
Y4598D1*
X44842D1*
X44768Y4476D1*
X44684Y4384D1*
X44608Y4324D1*
X46724Y4322D1*
X46220Y4825D1*
X46010Y4824D1*
X44845Y8836D2*
X44883Y8870D1*
X44989Y8935D1*
X45106Y8981D1*
X45228Y9005D1*
X45353Y9008D1*
X45476Y8988D1*
X45594Y8947D1*
X45703Y8886D1*
X45799Y8807D1*
X45880Y8711D1*
X45937Y8614D1*
Y10866D1*
X45229Y11575D1*
X43839Y11574D1*
X43967Y11423D1*
X44016Y11308D1*
X44034Y11178D1*
Y9932D1*
X44207Y9942D1*
X44242Y9937D1*
X44349Y10043D1*
X44348Y10759D1*
X45760D1*
Y9348D1*
X45006D1*
X44921Y9259D1*
X44927Y9182D1*
X44917Y9058D1*
X44886Y8937D1*
X44844Y8840D1*
X42554Y10550D2*
X42633Y10620D1*
X42739Y10685D1*
X42856Y10731D1*
X42978Y10755D1*
X43075Y10757D1*
Y10978D1*
X41754Y12301D1*
X41711Y12197D1*
X41643Y12092D1*
X41559Y12000D1*
X41461Y11923D1*
X41396Y11887D1*
X42393Y10892D1*
X42469Y10794D1*
X42516Y10679D1*
X42552Y10554D1*
X68805Y5267D2*
X68675Y5138D1*
X68667Y4933D1*
X68636Y4812D1*
X68586Y4697D1*
X68518Y4592D1*
X68434Y4500D1*
X68336Y4423D1*
X68227Y4363D1*
X68113Y4323D1*
X68906Y4322D1*
Y5373D1*
X68805Y5267D1*
X59037Y5537D2*
X63326D1*
X63388Y5604D1*
X63522Y5705D1*
X61102Y5703D1*
X59541D1*
X59418Y5719D1*
X59303Y5766D1*
X59202Y5843D1*
X58875Y6169D1*
X58947Y6067D1*
X59001Y5955D1*
X59036Y5835D1*
X59052Y5682D1*
X59037Y5539D1*
X67727Y4321D2*
X67619Y4357D1*
X67509Y4415D1*
X67409Y4490D1*
X67323Y4581D1*
X67242Y4709D1*
X66860Y4323D1*
X67724Y4322D1*
X57886Y21574D2*
X55429D1*
X55306Y21590D1*
X55190Y21638D1*
X55090Y21714D1*
X54380Y22424D1*
X54249Y22420D1*
X54126Y22439D1*
X54007Y22478D1*
X53896Y22536D1*
X53797Y22612D1*
X53711Y22702D1*
X53641Y22806D1*
X53589Y22919D1*
X53556Y23040D1*
X53544Y23164D1*
X53552Y23289D1*
X53580Y23410D1*
X53627Y23526D1*
X53693Y23632D1*
X53776Y23725D1*
X53872Y23805D1*
X53981Y23867D1*
X54098Y23910D1*
X54220Y23934D1*
X54345Y23938D1*
X54469Y23921D1*
X54588Y23884D1*
X54700Y23828D1*
X54800Y23755D1*
X54888Y23666D1*
X54960Y23564D1*
X55014Y23451D1*
X55049Y23331D1*
X55065Y23178D1*
X55059Y23105D1*
X55629Y22531D1*
X56769Y22533D1*
X54382Y24922D1*
X54249Y24920D1*
X54126Y24939D1*
X54007Y24978D1*
X53896Y25036D1*
X53797Y25112D1*
X53711Y25202D1*
X53641Y25306D1*
X53589Y25419D1*
X53556Y25540D1*
X53544Y25664D1*
X53552Y25789D1*
X53580Y25910D1*
X53627Y26026D1*
X53693Y26132D1*
X53776Y26225D1*
X53872Y26305D1*
X53981Y26367D1*
X54098Y26410D1*
X54220Y26434D1*
X54372D1*
X53965Y26839D1*
X53889Y26938D1*
X53841Y27053D1*
X53825Y27178D1*
Y30479D1*
X53283Y31022D1*
X53284Y19128D1*
X53754Y18657D1*
X55295Y18658D1*
X55419Y18642D1*
X55534Y18594D1*
X55634Y18517D1*
X57839Y16313D1*
X57806Y16433D1*
X57794Y16557D1*
X57802Y16682D1*
X57830Y16803D1*
X57877Y16919D1*
X57943Y17025D1*
X58026Y17119D1*
X58077Y17161D1*
X58075Y18428D1*
X58091Y18552D1*
X58138Y18667D1*
X58215Y18767D1*
X59983Y20536D1*
X60082Y20612D1*
X60197Y20660D1*
X60322Y20676D1*
X64123D1*
X64072Y20717D1*
X58381D1*
X57752Y20089D1*
X57653Y20013D1*
X57538Y19966D1*
X57413Y19949D1*
X54893D1*
X54822Y19871D1*
X54724Y19794D1*
X54615Y19734D1*
X54497Y19693D1*
X54374Y19671D1*
X54249Y19670D1*
X54126Y19689D1*
X54007Y19728D1*
X53896Y19786D1*
X53797Y19862D1*
X53711Y19952D1*
X53641Y20056D1*
X53589Y20169D1*
X53556Y20290D1*
X53544Y20414D1*
X53552Y20539D1*
X53580Y20660D1*
X53627Y20776D1*
X53693Y20882D1*
X53776Y20975D1*
X53872Y21055D1*
X53981Y21117D1*
X54098Y21160D1*
X54220Y21184D1*
X54345Y21188D1*
X54469Y21171D1*
X54588Y21134D1*
X54700Y21078D1*
X54800Y21005D1*
X54895Y20906D1*
X57214Y20908D1*
X57842Y21535D1*
X48086Y29908D2*
X49000D1*
X48891Y30056D1*
X48839Y30169D1*
X48802Y30332D1*
X48624Y30296D1*
X48480Y30298D1*
X48085Y29906D1*
X61908Y24699D2*
X60462D1*
X60992Y24169D1*
X61340Y24517D1*
X61439Y24593D1*
X61554Y24641D1*
X61679Y24658D1*
X61949D1*
X55060Y25600D2*
X57502Y23159D1*
X57644Y23158D1*
X55062Y25742D1*
X55059Y25605D1*
X26338Y31448D2*
X26879Y30906D1*
X32054Y30908D1*
X36929D1*
X37053Y30892D1*
X37168Y30844D1*
X37268Y30767D1*
X37873Y30163D1*
X37862Y30193D1*
X36605Y31450D1*
X26339Y31449D1*
X57074Y10533D2*
X57929D1*
X58053Y10517D1*
X58168Y10469D1*
X58268Y10392D1*
X58643Y10017D1*
X58718Y9919D1*
X58749Y9870D1*
Y10553D1*
X58611Y10549D1*
X58488Y10568D1*
X58369Y10607D1*
X58259Y10665D1*
X58159Y10740D1*
X58076Y10828D1*
X57366D1*
X57072Y10534D1*
X57730Y9574D2*
X57449D1*
X57630Y9396D1*
X57706Y9297D1*
X57754Y9182D1*
X57771Y9057D1*
Y8631D1*
X57826Y8575D1*
X57825Y9479D1*
X57730Y9574D1*
X67575Y15846D2*
Y16268D1*
X67310Y16007D1*
X67315Y15928D1*
X67305Y15808D1*
X67363Y15829D1*
X67493Y15847D1*
X67495Y15846D1*
X58929Y35074D2*
X56089D1*
X56393Y34767D1*
X56469Y34669D1*
X56517Y34554D1*
X56534Y34428D1*
Y32628D1*
X56589Y32571D1*
X56693Y32757D1*
X56776Y32850D1*
X56872Y32930D1*
X56981Y32992D1*
X57098Y33035D1*
X57220Y33059D1*
X57380Y33058D1*
X60327Y36004D1*
X60325Y36143D1*
X59393Y35214D1*
X59294Y35138D1*
X59179Y35091D1*
X59054Y35074D1*
X58929D1*
X50884Y10286D2*
X50503Y10667D1*
X50461Y10572D1*
X50393Y10467D1*
X50309Y10375D1*
X50187Y10285D1*
X50883Y10287D1*
X51896Y32408D2*
X51465Y32839D1*
X51389Y32938D1*
X51342Y33053D1*
X51284D1*
Y32323D1*
X51424Y32390D1*
X51554Y32408D1*
X51894D1*
X57625Y14037D2*
X57703D1*
X57763Y14104D1*
X57860Y14183D1*
X57968Y14245D1*
X58030Y14269D1*
X57316Y14980D1*
X55048Y17247D1*
X54417Y17245D1*
X57626Y14034D1*
X53605Y16699D2*
X51699D1*
X51708Y16572D1*
X51687Y16406D1*
X53214Y16408D1*
X53276Y16475D1*
X53372Y16555D1*
X53481Y16617D1*
X53640Y16669D1*
X50464Y17658D2*
X52394D1*
X51430Y18626D1*
X50460Y17656D1*
X42553Y15606D2*
X44147Y17200D1*
X40050Y17199D1*
X39257Y16409D1*
X41304Y16408D1*
X41428Y16392D1*
X41543Y16344D1*
X41643Y16267D1*
X42430Y15480D1*
X42553Y15606D1*
X66784Y29018D2*
Y28628D1*
X67077Y28334D1*
X67075Y28729D1*
X66781Y29023D1*
X15534Y39018D2*
Y38378D1*
X15827Y38084D1*
X15825Y38729D1*
X15531Y39023D1*
X37212Y32198D2*
X38753Y30657D1*
X47480Y30658D1*
X47796Y30973D1*
X47802Y31164D1*
X47804Y31199D1*
X39054D1*
X38931Y31215D1*
X38815Y31263D1*
X38715Y31339D1*
X37856Y32198D1*
X37214Y32199D1*
X24146Y12658D2*
X23605Y13200D1*
X22339Y13199D1*
X22625Y12911D1*
X22804Y12908D1*
X22928Y12892D1*
X23043Y12844D1*
X23143Y12767D1*
X23251Y12660D1*
X24144Y12658D1*
X63685Y11177D2*
Y9831D1*
X63754Y9807D1*
X63823Y9876D1*
X63825Y11167D1*
X63683Y11180D1*
X60241Y13412D2*
X61358D1*
X61658Y13710D1*
X61554Y13699D1*
X59949D1*
X60242Y13409D1*
X63797Y15985D2*
X63686Y15874D1*
X63685Y14581D1*
X52284Y30464D2*
Y19128D1*
X52323Y19088D1*
X52325Y23053D1*
X52322Y30496D1*
X52282Y30465D1*
D27*
X48304Y38928D3*
D28*
X47304D3*
X42554D3*
D27*
Y39928D3*
D29*
X35554Y8278D3*
X37554Y8279D3*
D30*
X8701Y25815D3*
Y22067D3*
Y33312D3*
Y29564D3*
Y40808D3*
Y37060D3*
Y18319D3*
Y14571D3*
Y10823D3*
Y7075D3*
D29*
X30804Y8278D3*
X32804Y8279D3*
X18804Y8528D3*
X20804Y8529D3*
X14179Y8528D3*
X16179Y8529D3*
X19554Y38678D3*
X17554D3*
X36804Y40578D3*
X34804D3*
X31554D3*
X29554D3*
D31*
X64831Y16697D3*
D32*
Y17697D3*
Y18697D3*
Y19697D3*
Y20697D3*
Y21697D3*
D31*
X12492Y11678D3*
D32*
Y12678D3*
Y13678D3*
Y14678D3*
D31*
X14054Y38178D3*
D32*
Y39178D3*
Y40178D3*
Y41178D3*
D16*
X24379Y7966D3*
X25561D3*
X25266Y39254D3*
Y40435D3*
D31*
X19304Y11678D3*
D32*
X20304D3*
D33*
X21258Y18678D3*
X21758Y18178D3*
G36*
X21612Y17678D2*
X21258Y17324D1*
X20904Y17678D1*
X21258Y18033D1*
X21612Y17678D1*
G37*
D34*
X37929Y24428D3*
X42004D3*
X53554D3*
X49479D3*
X41929Y26928D3*
X37854D3*
X49554D3*
X53629D3*
X37929Y29428D3*
X42004D3*
X53629D3*
X49554D3*
X41929Y21928D3*
X37854D3*
X49479D3*
X53554D3*
X23304Y15678D3*
Y11604D3*
X24017Y17466D3*
X28092D3*
X41929Y19178D3*
X37854D3*
X49479D3*
X53554D3*
D35*
X59831Y18697D3*
D36*
X63831D3*
D35*
X59831Y16697D3*
D36*
X63831D3*
D34*
X34163Y11991D3*
X30088D3*
D31*
X28600Y12116D3*
D32*
X27600D3*
D31*
X62304Y31678D3*
D32*
X61304D3*
X60304D3*
X59304D3*
Y28678D3*
X60304D3*
X61304D3*
X62304D3*
D31*
X63166Y38932D3*
D32*
X64166D3*
D31*
X54804Y34678D3*
D32*
Y33678D3*
X53804Y34678D3*
Y33678D3*
X52804Y34678D3*
Y33678D3*
X51804Y34678D3*
Y33678D3*
X50804Y34678D3*
Y33678D3*
X49804Y34678D3*
Y33678D3*
X48804Y34678D3*
Y33678D3*
X47804Y34678D3*
Y33678D3*
X46804Y34678D3*
Y33678D3*
X45804Y34678D3*
Y33678D3*
X44804Y34678D3*
Y33678D3*
X43804Y34678D3*
Y33678D3*
X42804Y34678D3*
Y33678D3*
X41804Y34678D3*
Y33678D3*
X40804Y34678D3*
Y33678D3*
X39804Y34678D3*
Y33678D3*
X38804Y34678D3*
Y33678D3*
X37804Y34678D3*
Y33678D3*
X36804Y34678D3*
Y33678D3*
X35804Y34678D3*
Y33678D3*
X34804Y34678D3*
Y33678D3*
X33804Y34678D3*
Y33678D3*
X32804Y34678D3*
Y33678D3*
X31804Y34678D3*
Y33678D3*
X30804Y34678D3*
Y33678D3*
D31*
X54804Y14678D3*
D32*
Y13678D3*
X53804Y14678D3*
Y13678D3*
X52804Y14678D3*
Y13678D3*
X51804Y14678D3*
Y13678D3*
X50804Y14678D3*
Y13678D3*
X49804Y14678D3*
Y13678D3*
X48804Y14678D3*
Y13678D3*
X47804Y14678D3*
Y13678D3*
X46804Y14678D3*
Y13678D3*
X45804Y14678D3*
Y13678D3*
X44804Y14678D3*
Y13678D3*
X43804Y14678D3*
Y13678D3*
X42804Y14678D3*
Y13678D3*
X41804Y14678D3*
Y13678D3*
X40804Y14678D3*
Y13678D3*
X39804Y14678D3*
Y13678D3*
X38804Y14678D3*
Y13678D3*
X37804Y14678D3*
Y13678D3*
X36804Y14678D3*
Y13678D3*
X35804Y14678D3*
Y13678D3*
X34804Y14678D3*
Y13678D3*
X33804Y14678D3*
Y13678D3*
X32804Y14678D3*
Y13678D3*
X31804Y14678D3*
Y13678D3*
X30804Y14678D3*
Y13678D3*
D31*
X65831Y26447D3*
D32*
X64831D3*
X63831D3*
X62831D3*
X61831D3*
X60831D3*
X59831D3*
X58831D3*
Y23455D3*
X59831D3*
X60831D3*
X61831D3*
X62831D3*
X63831D3*
X64831D3*
X65831D3*
D31*
X63166Y37932D3*
D32*
X64166D3*
D31*
X62054Y7053D3*
D32*
Y8053D3*
Y9053D3*
Y10053D3*
D31*
X59804Y7054D3*
D32*
Y8054D3*
Y9054D3*
Y10054D3*
D31*
X47929Y5304D3*
D32*
Y6304D3*
Y7304D3*
Y8304D3*
D31*
X50804Y5303D3*
D32*
Y6303D3*
Y7303D3*
Y8303D3*
D31*
X56054Y10053D3*
D32*
Y9053D3*
Y8053D3*
Y7053D3*
Y6053D3*
Y5053D3*
D31*
X53554Y10053D3*
D32*
Y9053D3*
Y8053D3*
Y7053D3*
Y6053D3*
Y5053D3*
D31*
X53054Y38678D3*
D32*
X54054D3*
X55054D3*
X56054D3*
X57054D3*
X58054D3*
D31*
X53054Y40428D3*
D32*
X54054D3*
X55054D3*
X56054D3*
X57054D3*
X58054D3*
D31*
X60804Y39678D3*
D32*
X61804D3*
D31*
X60804Y40678D3*
D32*
X61804D3*
D31*
X60804Y41678D3*
D32*
X61804D3*
D31*
X60804Y38678D3*
D32*
X61804D3*
D31*
X66666Y41057D3*
D32*
Y40057D3*
Y39057D3*
Y38057D3*
D31*
X66229Y9803D3*
D32*
Y8803D3*
Y7803D3*
Y6803D3*
D37*
X44554Y41678D3*
D38*
X45554D3*
X46554D3*
D31*
X40041Y5307D3*
D32*
Y6307D3*
Y7307D3*
Y8307D3*
D31*
X45304Y5303D3*
D32*
Y6303D3*
Y7303D3*
Y8303D3*
D31*
X43054Y5304D3*
D32*
Y6304D3*
Y7304D3*
Y8304D3*
D31*
X45054Y10053D3*
D32*
X44054D3*
X43054D3*
X42054D3*
D31*
X56804Y42053D3*
D32*
X55804D3*
X54804D3*
X53804D3*
D31*
X27599Y10804D3*
D32*
X28599D3*
D40*
X26304Y36428D3*
Y21428D3*
X24304D3*
Y36428D3*
D31*
X26804Y22428D3*
X25804D3*
X24804D3*
X23804D3*
X26804Y35428D3*
X25804D3*
X24804D3*
X23804D3*
D40*
X16081Y17447D3*
Y32447D3*
X18081D3*
Y17447D3*
D31*
X15581Y31447D3*
X16581D3*
X17581D3*
X18581D3*
X15581Y18447D3*
X16581D3*
X17581D3*
X18581D3*
M02*
