G04 DipTrace 2.3.0.3*
%INBottomMask.gbr*%
%MOIN*%
%ADD27C,0.074*%
%ADD34C,0.1575*%
%ADD42R,0.0669X0.0669*%
%ADD44R,0.1345X0.1345*%
%ADD46C,0.0819*%
%ADD48C,0.1063*%
%FSLAX44Y44*%
G04*
G70*
G90*
G75*
G01*
%LNBotMask*%
%LPD*%
D48*
X13187Y8530D3*
X11219D3*
X19469D3*
X17500D3*
X25687D3*
X23719D3*
X11187Y47937D3*
X13156D3*
X17437D3*
X19406D3*
X23656D3*
X25624D3*
G36*
X26776Y24134D2*
X26757Y24021D1*
X26698Y23919D1*
X26607Y23843D1*
X26496Y23802D1*
X26378D1*
X26267Y23842D1*
X26177Y23918D1*
X26118Y24020D1*
X26098Y24133D1*
Y24740D1*
X26117Y24853D1*
X26176Y24955D1*
X26267Y25031D1*
X26378Y25072D1*
X26496D1*
X26607Y25032D1*
X26697Y24956D1*
X26756Y24854D1*
X26776Y24741D1*
Y24134D1*
G37*
G36*
X25776D2*
X25757Y24021D1*
X25698Y23919D1*
X25607Y23843D1*
X25496Y23802D1*
X25378D1*
X25267Y23842D1*
X25177Y23918D1*
X25118Y24020D1*
X25098Y24133D1*
Y24740D1*
X25117Y24853D1*
X25176Y24955D1*
X25267Y25031D1*
X25378Y25072D1*
X25496D1*
X25607Y25032D1*
X25697Y24956D1*
X25756Y24854D1*
X25776Y24741D1*
Y24134D1*
G37*
G36*
X24776D2*
X24757Y24021D1*
X24698Y23919D1*
X24607Y23843D1*
X24496Y23802D1*
X24378D1*
X24267Y23842D1*
X24177Y23918D1*
X24118Y24020D1*
X24098Y24133D1*
Y24740D1*
X24117Y24853D1*
X24176Y24955D1*
X24267Y25031D1*
X24378Y25072D1*
X24496D1*
X24607Y25032D1*
X24697Y24956D1*
X24756Y24854D1*
X24776Y24741D1*
Y24134D1*
G37*
G36*
X23776D2*
X23757Y24021D1*
X23698Y23919D1*
X23607Y23843D1*
X23496Y23802D1*
X23378D1*
X23267Y23842D1*
X23177Y23918D1*
X23118Y24020D1*
X23098Y24133D1*
Y24740D1*
X23117Y24853D1*
X23176Y24955D1*
X23267Y25031D1*
X23378Y25072D1*
X23496D1*
X23607Y25032D1*
X23697Y24956D1*
X23756Y24854D1*
X23776Y24741D1*
Y24134D1*
G37*
G36*
X22776D2*
X22757Y24021D1*
X22698Y23919D1*
X22607Y23843D1*
X22496Y23802D1*
X22378D1*
X22267Y23842D1*
X22177Y23918D1*
X22118Y24020D1*
X22098Y24133D1*
Y24740D1*
X22117Y24853D1*
X22176Y24955D1*
X22267Y25031D1*
X22378Y25072D1*
X22496D1*
X22607Y25032D1*
X22697Y24956D1*
X22756Y24854D1*
X22776Y24741D1*
Y24134D1*
G37*
G36*
X21776D2*
X21757Y24021D1*
X21698Y23919D1*
X21607Y23843D1*
X21496Y23802D1*
X21378D1*
X21267Y23842D1*
X21177Y23918D1*
X21118Y24020D1*
X21098Y24133D1*
Y24740D1*
X21117Y24853D1*
X21176Y24955D1*
X21267Y25031D1*
X21378Y25072D1*
X21496D1*
X21607Y25032D1*
X21697Y24956D1*
X21756Y24854D1*
X21776Y24741D1*
Y24134D1*
G37*
D27*
X34187Y13687D3*
X30187D3*
X39687D3*
X35687D3*
X39687Y21187D3*
X35687D3*
X34187D3*
X30187D3*
D48*
X7562Y19539D3*
Y21508D3*
Y34303D3*
Y36272D3*
D46*
X30907Y18077D3*
X33467D3*
X30907Y16297D3*
X33467D3*
X36407Y18077D3*
X38967D3*
X36407Y16297D3*
X38967D3*
G36*
X11848Y29990D2*
X11867Y30103D1*
X11926Y30205D1*
X12017Y30281D1*
X12128Y30322D1*
X12246D1*
X12357Y30282D1*
X12447Y30206D1*
X12506Y30104D1*
X12526Y29991D1*
Y29384D1*
X12507Y29271D1*
X12448Y29169D1*
X12357Y29093D1*
X12246Y29052D1*
X12128D1*
X12017Y29092D1*
X11927Y29168D1*
X11868Y29270D1*
X11848Y29383D1*
Y29990D1*
G37*
G36*
X12848D2*
X12867Y30103D1*
X12926Y30205D1*
X13017Y30281D1*
X13128Y30322D1*
X13246D1*
X13357Y30282D1*
X13447Y30206D1*
X13506Y30104D1*
X13526Y29991D1*
Y29384D1*
X13507Y29271D1*
X13448Y29169D1*
X13357Y29093D1*
X13246Y29052D1*
X13128D1*
X13017Y29092D1*
X12927Y29168D1*
X12868Y29270D1*
X12848Y29383D1*
Y29990D1*
G37*
G36*
X13848D2*
X13867Y30103D1*
X13926Y30205D1*
X14017Y30281D1*
X14128Y30322D1*
X14246D1*
X14357Y30282D1*
X14447Y30206D1*
X14506Y30104D1*
X14526Y29991D1*
Y29384D1*
X14507Y29271D1*
X14448Y29169D1*
X14357Y29093D1*
X14246Y29052D1*
X14128D1*
X14017Y29092D1*
X13927Y29168D1*
X13868Y29270D1*
X13848Y29383D1*
Y29990D1*
G37*
G36*
X14848D2*
X14867Y30103D1*
X14926Y30205D1*
X15017Y30281D1*
X15128Y30322D1*
X15246D1*
X15357Y30282D1*
X15447Y30206D1*
X15506Y30104D1*
X15526Y29991D1*
Y29384D1*
X15507Y29271D1*
X15448Y29169D1*
X15357Y29093D1*
X15246Y29052D1*
X15128D1*
X15017Y29092D1*
X14927Y29168D1*
X14868Y29270D1*
X14848Y29383D1*
Y29990D1*
G37*
G36*
X15848D2*
X15867Y30103D1*
X15926Y30205D1*
X16017Y30281D1*
X16128Y30322D1*
X16246D1*
X16357Y30282D1*
X16447Y30206D1*
X16506Y30104D1*
X16526Y29991D1*
Y29384D1*
X16507Y29271D1*
X16448Y29169D1*
X16357Y29093D1*
X16246Y29052D1*
X16128D1*
X16017Y29092D1*
X15927Y29168D1*
X15868Y29270D1*
X15848Y29383D1*
Y29990D1*
G37*
G36*
X16848D2*
X16867Y30103D1*
X16926Y30205D1*
X17017Y30281D1*
X17128Y30322D1*
X17246D1*
X17357Y30282D1*
X17447Y30206D1*
X17506Y30104D1*
X17526Y29991D1*
Y29384D1*
X17507Y29271D1*
X17448Y29169D1*
X17357Y29093D1*
X17246Y29052D1*
X17128D1*
X17017Y29092D1*
X16927Y29168D1*
X16868Y29270D1*
X16848Y29383D1*
Y29990D1*
G37*
G36*
X17848D2*
X17867Y30103D1*
X17926Y30205D1*
X18017Y30281D1*
X18128Y30322D1*
X18246D1*
X18357Y30282D1*
X18447Y30206D1*
X18506Y30104D1*
X18526Y29991D1*
Y29384D1*
X18507Y29271D1*
X18448Y29169D1*
X18357Y29093D1*
X18246Y29052D1*
X18128D1*
X18017Y29092D1*
X17927Y29168D1*
X17868Y29270D1*
X17848Y29383D1*
Y29990D1*
G37*
G36*
X18848D2*
X18867Y30103D1*
X18926Y30205D1*
X19017Y30281D1*
X19128Y30322D1*
X19246D1*
X19357Y30282D1*
X19447Y30206D1*
X19506Y30104D1*
X19526Y29991D1*
Y29384D1*
X19507Y29271D1*
X19448Y29169D1*
X19357Y29093D1*
X19246Y29052D1*
X19128D1*
X19017Y29092D1*
X18927Y29168D1*
X18868Y29270D1*
X18848Y29383D1*
Y29990D1*
G37*
G36*
X20848D2*
X20867Y30103D1*
X20926Y30205D1*
X21017Y30281D1*
X21128Y30322D1*
X21246D1*
X21357Y30282D1*
X21447Y30206D1*
X21506Y30104D1*
X21526Y29991D1*
Y29384D1*
X21507Y29271D1*
X21448Y29169D1*
X21357Y29093D1*
X21246Y29052D1*
X21128D1*
X21017Y29092D1*
X20927Y29168D1*
X20868Y29270D1*
X20848Y29383D1*
Y29990D1*
G37*
G36*
X21848D2*
X21867Y30103D1*
X21926Y30205D1*
X22017Y30281D1*
X22128Y30322D1*
X22246D1*
X22357Y30282D1*
X22447Y30206D1*
X22506Y30104D1*
X22526Y29991D1*
Y29384D1*
X22507Y29271D1*
X22448Y29169D1*
X22357Y29093D1*
X22246Y29052D1*
X22128D1*
X22017Y29092D1*
X21927Y29168D1*
X21868Y29270D1*
X21848Y29383D1*
Y29990D1*
G37*
G36*
X22848D2*
X22867Y30103D1*
X22926Y30205D1*
X23017Y30281D1*
X23128Y30322D1*
X23246D1*
X23357Y30282D1*
X23447Y30206D1*
X23506Y30104D1*
X23526Y29991D1*
Y29384D1*
X23507Y29271D1*
X23448Y29169D1*
X23357Y29093D1*
X23246Y29052D1*
X23128D1*
X23017Y29092D1*
X22927Y29168D1*
X22868Y29270D1*
X22848Y29383D1*
Y29990D1*
G37*
G36*
X23848D2*
X23867Y30103D1*
X23926Y30205D1*
X24017Y30281D1*
X24128Y30322D1*
X24246D1*
X24357Y30282D1*
X24447Y30206D1*
X24506Y30104D1*
X24526Y29991D1*
Y29384D1*
X24507Y29271D1*
X24448Y29169D1*
X24357Y29093D1*
X24246Y29052D1*
X24128D1*
X24017Y29092D1*
X23927Y29168D1*
X23868Y29270D1*
X23848Y29383D1*
Y29990D1*
G37*
G36*
X24848D2*
X24867Y30103D1*
X24926Y30205D1*
X25017Y30281D1*
X25128Y30322D1*
X25246D1*
X25357Y30282D1*
X25447Y30206D1*
X25506Y30104D1*
X25526Y29991D1*
Y29384D1*
X25507Y29271D1*
X25448Y29169D1*
X25357Y29093D1*
X25246Y29052D1*
X25128D1*
X25017Y29092D1*
X24927Y29168D1*
X24868Y29270D1*
X24848Y29383D1*
Y29990D1*
G37*
G36*
X25848D2*
X25867Y30103D1*
X25926Y30205D1*
X26017Y30281D1*
X26128Y30322D1*
X26246D1*
X26357Y30282D1*
X26447Y30206D1*
X26506Y30104D1*
X26526Y29991D1*
Y29384D1*
X26507Y29271D1*
X26448Y29169D1*
X26357Y29093D1*
X26246Y29052D1*
X26128D1*
X26017Y29092D1*
X25927Y29168D1*
X25868Y29270D1*
X25848Y29383D1*
Y29990D1*
G37*
G36*
X26848D2*
X26867Y30103D1*
X26926Y30205D1*
X27017Y30281D1*
X27128Y30322D1*
X27246D1*
X27357Y30282D1*
X27447Y30206D1*
X27506Y30104D1*
X27526Y29991D1*
Y29384D1*
X27507Y29271D1*
X27448Y29169D1*
X27357Y29093D1*
X27246Y29052D1*
X27128D1*
X27017Y29092D1*
X26927Y29168D1*
X26868Y29270D1*
X26848Y29383D1*
Y29990D1*
G37*
G36*
X27848D2*
X27867Y30103D1*
X27926Y30205D1*
X28017Y30281D1*
X28128Y30322D1*
X28246D1*
X28357Y30282D1*
X28447Y30206D1*
X28506Y30104D1*
X28526Y29991D1*
Y29384D1*
X28507Y29271D1*
X28448Y29169D1*
X28357Y29093D1*
X28246Y29052D1*
X28128D1*
X28017Y29092D1*
X27927Y29168D1*
X27868Y29270D1*
X27848Y29383D1*
Y29990D1*
G37*
G36*
X41200Y9986D2*
X41299Y9969D1*
X41390Y9917D1*
X41457Y9837D1*
X41492Y9739D1*
Y9635D1*
X41457Y9537D1*
X41390Y9457D1*
X41300Y9405D1*
X41201Y9388D1*
X40674D1*
X40575Y9405D1*
X40484Y9457D1*
X40417Y9537D1*
X40382Y9635D1*
Y9739D1*
X40417Y9837D1*
X40484Y9917D1*
X40574Y9969D1*
X40673Y9986D1*
X41200D1*
G37*
G36*
Y10986D2*
X41299Y10969D1*
X41390Y10917D1*
X41457Y10837D1*
X41492Y10739D1*
Y10635D1*
X41457Y10537D1*
X41390Y10457D1*
X41300Y10405D1*
X41201Y10388D1*
X40674D1*
X40575Y10405D1*
X40484Y10457D1*
X40417Y10537D1*
X40382Y10635D1*
Y10739D1*
X40417Y10837D1*
X40484Y10917D1*
X40574Y10969D1*
X40673Y10986D1*
X41200D1*
G37*
G36*
Y11986D2*
X41299Y11969D1*
X41390Y11917D1*
X41457Y11837D1*
X41492Y11739D1*
Y11635D1*
X41457Y11537D1*
X41390Y11457D1*
X41300Y11405D1*
X41201Y11388D1*
X40674D1*
X40575Y11405D1*
X40484Y11457D1*
X40417Y11537D1*
X40382Y11635D1*
Y11739D1*
X40417Y11837D1*
X40484Y11917D1*
X40574Y11969D1*
X40673Y11986D1*
X41200D1*
G37*
G36*
Y12986D2*
X41299Y12969D1*
X41390Y12917D1*
X41457Y12837D1*
X41492Y12739D1*
Y12635D1*
X41457Y12537D1*
X41390Y12457D1*
X41300Y12405D1*
X41201Y12388D1*
X40674D1*
X40575Y12405D1*
X40484Y12457D1*
X40417Y12537D1*
X40382Y12635D1*
Y12739D1*
X40417Y12837D1*
X40484Y12917D1*
X40574Y12969D1*
X40673Y12986D1*
X41200D1*
G37*
G36*
Y13986D2*
X41299Y13969D1*
X41390Y13917D1*
X41457Y13837D1*
X41492Y13739D1*
Y13635D1*
X41457Y13537D1*
X41390Y13457D1*
X41300Y13405D1*
X41201Y13388D1*
X40674D1*
X40575Y13405D1*
X40484Y13457D1*
X40417Y13537D1*
X40382Y13635D1*
Y13739D1*
X40417Y13837D1*
X40484Y13917D1*
X40574Y13969D1*
X40673Y13986D1*
X41200D1*
G37*
G36*
Y14986D2*
X41299Y14969D1*
X41390Y14917D1*
X41457Y14837D1*
X41492Y14739D1*
Y14635D1*
X41457Y14537D1*
X41390Y14457D1*
X41300Y14405D1*
X41201Y14388D1*
X40674D1*
X40575Y14405D1*
X40484Y14457D1*
X40417Y14537D1*
X40382Y14635D1*
Y14739D1*
X40417Y14837D1*
X40484Y14917D1*
X40574Y14969D1*
X40673Y14986D1*
X41200D1*
G37*
G36*
Y15986D2*
X41299Y15969D1*
X41390Y15917D1*
X41457Y15837D1*
X41492Y15739D1*
Y15635D1*
X41457Y15537D1*
X41390Y15457D1*
X41300Y15405D1*
X41201Y15388D1*
X40674D1*
X40575Y15405D1*
X40484Y15457D1*
X40417Y15537D1*
X40382Y15635D1*
Y15739D1*
X40417Y15837D1*
X40484Y15917D1*
X40574Y15969D1*
X40673Y15986D1*
X41200D1*
G37*
G36*
Y16986D2*
X41299Y16969D1*
X41390Y16917D1*
X41457Y16837D1*
X41492Y16739D1*
Y16635D1*
X41457Y16537D1*
X41390Y16457D1*
X41300Y16405D1*
X41201Y16388D1*
X40674D1*
X40575Y16405D1*
X40484Y16457D1*
X40417Y16537D1*
X40382Y16635D1*
Y16739D1*
X40417Y16837D1*
X40484Y16917D1*
X40574Y16969D1*
X40673Y16986D1*
X41200D1*
G37*
G36*
Y17986D2*
X41299Y17969D1*
X41390Y17917D1*
X41457Y17837D1*
X41492Y17739D1*
Y17635D1*
X41457Y17537D1*
X41390Y17457D1*
X41300Y17405D1*
X41201Y17388D1*
X40674D1*
X40575Y17405D1*
X40484Y17457D1*
X40417Y17537D1*
X40382Y17635D1*
Y17739D1*
X40417Y17837D1*
X40484Y17917D1*
X40574Y17969D1*
X40673Y17986D1*
X41200D1*
G37*
G36*
Y18986D2*
X41299Y18969D1*
X41390Y18917D1*
X41457Y18837D1*
X41492Y18739D1*
Y18635D1*
X41457Y18537D1*
X41390Y18457D1*
X41300Y18405D1*
X41201Y18388D1*
X40674D1*
X40575Y18405D1*
X40484Y18457D1*
X40417Y18537D1*
X40382Y18635D1*
Y18739D1*
X40417Y18837D1*
X40484Y18917D1*
X40574Y18969D1*
X40673Y18986D1*
X41200D1*
G37*
G36*
X44200D2*
X44299Y18969D1*
X44390Y18917D1*
X44457Y18837D1*
X44492Y18739D1*
Y18635D1*
X44457Y18537D1*
X44390Y18457D1*
X44300Y18405D1*
X44201Y18388D1*
X43674D1*
X43575Y18405D1*
X43484Y18457D1*
X43417Y18537D1*
X43382Y18635D1*
Y18739D1*
X43417Y18837D1*
X43484Y18917D1*
X43574Y18969D1*
X43673Y18986D1*
X44200D1*
G37*
G36*
Y17986D2*
X44299Y17969D1*
X44390Y17917D1*
X44457Y17837D1*
X44492Y17739D1*
Y17635D1*
X44457Y17537D1*
X44390Y17457D1*
X44300Y17405D1*
X44201Y17388D1*
X43674D1*
X43575Y17405D1*
X43484Y17457D1*
X43417Y17537D1*
X43382Y17635D1*
Y17739D1*
X43417Y17837D1*
X43484Y17917D1*
X43574Y17969D1*
X43673Y17986D1*
X44200D1*
G37*
G36*
Y16986D2*
X44299Y16969D1*
X44390Y16917D1*
X44457Y16837D1*
X44492Y16739D1*
Y16635D1*
X44457Y16537D1*
X44390Y16457D1*
X44300Y16405D1*
X44201Y16388D1*
X43674D1*
X43575Y16405D1*
X43484Y16457D1*
X43417Y16537D1*
X43382Y16635D1*
Y16739D1*
X43417Y16837D1*
X43484Y16917D1*
X43574Y16969D1*
X43673Y16986D1*
X44200D1*
G37*
G36*
Y15986D2*
X44299Y15969D1*
X44390Y15917D1*
X44457Y15837D1*
X44492Y15739D1*
Y15635D1*
X44457Y15537D1*
X44390Y15457D1*
X44300Y15405D1*
X44201Y15388D1*
X43674D1*
X43575Y15405D1*
X43484Y15457D1*
X43417Y15537D1*
X43382Y15635D1*
Y15739D1*
X43417Y15837D1*
X43484Y15917D1*
X43574Y15969D1*
X43673Y15986D1*
X44200D1*
G37*
G36*
Y14986D2*
X44299Y14969D1*
X44390Y14917D1*
X44457Y14837D1*
X44492Y14739D1*
Y14635D1*
X44457Y14537D1*
X44390Y14457D1*
X44300Y14405D1*
X44201Y14388D1*
X43674D1*
X43575Y14405D1*
X43484Y14457D1*
X43417Y14537D1*
X43382Y14635D1*
Y14739D1*
X43417Y14837D1*
X43484Y14917D1*
X43574Y14969D1*
X43673Y14986D1*
X44200D1*
G37*
G36*
Y13986D2*
X44299Y13969D1*
X44390Y13917D1*
X44457Y13837D1*
X44492Y13739D1*
Y13635D1*
X44457Y13537D1*
X44390Y13457D1*
X44300Y13405D1*
X44201Y13388D1*
X43674D1*
X43575Y13405D1*
X43484Y13457D1*
X43417Y13537D1*
X43382Y13635D1*
Y13739D1*
X43417Y13837D1*
X43484Y13917D1*
X43574Y13969D1*
X43673Y13986D1*
X44200D1*
G37*
G36*
Y12986D2*
X44299Y12969D1*
X44390Y12917D1*
X44457Y12837D1*
X44492Y12739D1*
Y12635D1*
X44457Y12537D1*
X44390Y12457D1*
X44300Y12405D1*
X44201Y12388D1*
X43674D1*
X43575Y12405D1*
X43484Y12457D1*
X43417Y12537D1*
X43382Y12635D1*
Y12739D1*
X43417Y12837D1*
X43484Y12917D1*
X43574Y12969D1*
X43673Y12986D1*
X44200D1*
G37*
G36*
Y11986D2*
X44299Y11969D1*
X44390Y11917D1*
X44457Y11837D1*
X44492Y11739D1*
Y11635D1*
X44457Y11537D1*
X44390Y11457D1*
X44300Y11405D1*
X44201Y11388D1*
X43674D1*
X43575Y11405D1*
X43484Y11457D1*
X43417Y11537D1*
X43382Y11635D1*
Y11739D1*
X43417Y11837D1*
X43484Y11917D1*
X43574Y11969D1*
X43673Y11986D1*
X44200D1*
G37*
G36*
Y10986D2*
X44299Y10969D1*
X44390Y10917D1*
X44457Y10837D1*
X44492Y10739D1*
Y10635D1*
X44457Y10537D1*
X44390Y10457D1*
X44300Y10405D1*
X44201Y10388D1*
X43674D1*
X43575Y10405D1*
X43484Y10457D1*
X43417Y10537D1*
X43382Y10635D1*
Y10739D1*
X43417Y10837D1*
X43484Y10917D1*
X43574Y10969D1*
X43673Y10986D1*
X44200D1*
G37*
G36*
Y9986D2*
X44299Y9969D1*
X44390Y9917D1*
X44457Y9837D1*
X44492Y9739D1*
Y9635D1*
X44457Y9537D1*
X44390Y9457D1*
X44300Y9405D1*
X44201Y9388D1*
X43674D1*
X43575Y9405D1*
X43484Y9457D1*
X43417Y9537D1*
X43382Y9635D1*
Y9739D1*
X43417Y9837D1*
X43484Y9917D1*
X43574Y9969D1*
X43673Y9986D1*
X44200D1*
G37*
G36*
X44990Y26776D2*
X45103Y26757D1*
X45205Y26698D1*
X45281Y26607D1*
X45322Y26496D1*
Y26378D1*
X45282Y26267D1*
X45206Y26177D1*
X45104Y26118D1*
X44991Y26098D1*
X44384D1*
X44271Y26117D1*
X44169Y26176D1*
X44093Y26267D1*
X44052Y26378D1*
Y26496D1*
X44092Y26607D1*
X44168Y26697D1*
X44270Y26756D1*
X44383Y26776D1*
X44990D1*
G37*
G36*
Y25776D2*
X45103Y25757D1*
X45205Y25698D1*
X45281Y25607D1*
X45322Y25496D1*
Y25378D1*
X45282Y25267D1*
X45206Y25177D1*
X45104Y25118D1*
X44991Y25098D1*
X44384D1*
X44271Y25117D1*
X44169Y25176D1*
X44093Y25267D1*
X44052Y25378D1*
Y25496D1*
X44092Y25607D1*
X44168Y25697D1*
X44270Y25756D1*
X44383Y25776D1*
X44990D1*
G37*
G36*
Y24776D2*
X45103Y24757D1*
X45205Y24698D1*
X45281Y24607D1*
X45322Y24496D1*
Y24378D1*
X45282Y24267D1*
X45206Y24177D1*
X45104Y24118D1*
X44991Y24098D1*
X44384D1*
X44271Y24117D1*
X44169Y24176D1*
X44093Y24267D1*
X44052Y24378D1*
Y24496D1*
X44092Y24607D1*
X44168Y24697D1*
X44270Y24756D1*
X44383Y24776D1*
X44990D1*
G37*
G36*
Y23776D2*
X45103Y23757D1*
X45205Y23698D1*
X45281Y23607D1*
X45322Y23496D1*
Y23378D1*
X45282Y23267D1*
X45206Y23177D1*
X45104Y23118D1*
X44991Y23098D1*
X44384D1*
X44271Y23117D1*
X44169Y23176D1*
X44093Y23267D1*
X44052Y23378D1*
Y23496D1*
X44092Y23607D1*
X44168Y23697D1*
X44270Y23756D1*
X44383Y23776D1*
X44990D1*
G37*
G36*
Y22776D2*
X45103Y22757D1*
X45205Y22698D1*
X45281Y22607D1*
X45322Y22496D1*
Y22378D1*
X45282Y22267D1*
X45206Y22177D1*
X45104Y22118D1*
X44991Y22098D1*
X44384D1*
X44271Y22117D1*
X44169Y22176D1*
X44093Y22267D1*
X44052Y22378D1*
Y22496D1*
X44092Y22607D1*
X44168Y22697D1*
X44270Y22756D1*
X44383Y22776D1*
X44990D1*
G37*
G36*
Y21776D2*
X45103Y21757D1*
X45205Y21698D1*
X45281Y21607D1*
X45322Y21496D1*
Y21378D1*
X45282Y21267D1*
X45206Y21177D1*
X45104Y21118D1*
X44991Y21098D1*
X44384D1*
X44271Y21117D1*
X44169Y21176D1*
X44093Y21267D1*
X44052Y21378D1*
Y21496D1*
X44092Y21607D1*
X44168Y21697D1*
X44270Y21756D1*
X44383Y21776D1*
X44990D1*
G37*
G36*
X49674Y9887D2*
X49575Y9905D1*
X49484Y9957D1*
X49417Y10037D1*
X49382Y10134D1*
Y10239D1*
X49417Y10337D1*
X49484Y10416D1*
X49574Y10469D1*
X49673Y10486D1*
X50200D1*
X50299Y10469D1*
X50390Y10417D1*
X50457Y10337D1*
X50492Y10239D1*
Y10135D1*
X50457Y10037D1*
X50390Y9957D1*
X50300Y9905D1*
X50201Y9887D1*
X49674D1*
G37*
G36*
Y10887D2*
X49575Y10905D1*
X49484Y10957D1*
X49417Y11037D1*
X49382Y11134D1*
Y11239D1*
X49417Y11337D1*
X49484Y11416D1*
X49574Y11469D1*
X49673Y11486D1*
X50200D1*
X50299Y11469D1*
X50390Y11417D1*
X50457Y11337D1*
X50492Y11239D1*
Y11135D1*
X50457Y11037D1*
X50390Y10957D1*
X50300Y10905D1*
X50201Y10887D1*
X49674D1*
G37*
G36*
Y11887D2*
X49575Y11905D1*
X49484Y11957D1*
X49417Y12037D1*
X49382Y12134D1*
Y12239D1*
X49417Y12337D1*
X49484Y12416D1*
X49574Y12469D1*
X49673Y12486D1*
X50200D1*
X50299Y12469D1*
X50390Y12417D1*
X50457Y12337D1*
X50492Y12239D1*
Y12135D1*
X50457Y12037D1*
X50390Y11957D1*
X50300Y11905D1*
X50201Y11887D1*
X49674D1*
G37*
G36*
Y12887D2*
X49575Y12905D1*
X49484Y12957D1*
X49417Y13037D1*
X49382Y13134D1*
Y13239D1*
X49417Y13337D1*
X49484Y13416D1*
X49574Y13469D1*
X49673Y13486D1*
X50200D1*
X50299Y13469D1*
X50390Y13417D1*
X50457Y13337D1*
X50492Y13239D1*
Y13135D1*
X50457Y13037D1*
X50390Y12957D1*
X50300Y12905D1*
X50201Y12887D1*
X49674D1*
G37*
G36*
Y13887D2*
X49575Y13905D1*
X49484Y13957D1*
X49417Y14037D1*
X49382Y14134D1*
Y14239D1*
X49417Y14337D1*
X49484Y14416D1*
X49574Y14469D1*
X49673Y14486D1*
X50200D1*
X50299Y14469D1*
X50390Y14417D1*
X50457Y14337D1*
X50492Y14239D1*
Y14135D1*
X50457Y14037D1*
X50390Y13957D1*
X50300Y13905D1*
X50201Y13887D1*
X49674D1*
G37*
G36*
Y14887D2*
X49575Y14905D1*
X49484Y14957D1*
X49417Y15037D1*
X49382Y15134D1*
Y15239D1*
X49417Y15337D1*
X49484Y15416D1*
X49574Y15469D1*
X49673Y15486D1*
X50200D1*
X50299Y15469D1*
X50390Y15417D1*
X50457Y15337D1*
X50492Y15239D1*
Y15135D1*
X50457Y15037D1*
X50390Y14957D1*
X50300Y14905D1*
X50201Y14887D1*
X49674D1*
G37*
G36*
Y15887D2*
X49575Y15905D1*
X49484Y15957D1*
X49417Y16037D1*
X49382Y16134D1*
Y16239D1*
X49417Y16337D1*
X49484Y16416D1*
X49574Y16469D1*
X49673Y16486D1*
X50200D1*
X50299Y16469D1*
X50390Y16417D1*
X50457Y16337D1*
X50492Y16239D1*
Y16135D1*
X50457Y16037D1*
X50390Y15957D1*
X50300Y15905D1*
X50201Y15887D1*
X49674D1*
G37*
G36*
Y16887D2*
X49575Y16905D1*
X49484Y16957D1*
X49417Y17037D1*
X49382Y17134D1*
Y17239D1*
X49417Y17337D1*
X49484Y17416D1*
X49574Y17469D1*
X49673Y17486D1*
X50200D1*
X50299Y17469D1*
X50390Y17417D1*
X50457Y17337D1*
X50492Y17239D1*
Y17135D1*
X50457Y17037D1*
X50390Y16957D1*
X50300Y16905D1*
X50201Y16887D1*
X49674D1*
G37*
G36*
Y17887D2*
X49575Y17905D1*
X49484Y17957D1*
X49417Y18037D1*
X49382Y18134D1*
Y18239D1*
X49417Y18337D1*
X49484Y18416D1*
X49574Y18469D1*
X49673Y18486D1*
X50200D1*
X50299Y18469D1*
X50390Y18417D1*
X50457Y18337D1*
X50492Y18239D1*
Y18135D1*
X50457Y18037D1*
X50390Y17957D1*
X50300Y17905D1*
X50201Y17887D1*
X49674D1*
G37*
G36*
X46674D2*
X46575Y17905D1*
X46484Y17957D1*
X46417Y18037D1*
X46382Y18134D1*
Y18239D1*
X46417Y18337D1*
X46484Y18416D1*
X46574Y18469D1*
X46673Y18486D1*
X47200D1*
X47299Y18469D1*
X47390Y18417D1*
X47457Y18337D1*
X47492Y18239D1*
Y18135D1*
X47457Y18037D1*
X47390Y17957D1*
X47300Y17905D1*
X47201Y17887D1*
X46674D1*
G37*
G36*
Y16887D2*
X46575Y16905D1*
X46484Y16957D1*
X46417Y17037D1*
X46382Y17134D1*
Y17239D1*
X46417Y17337D1*
X46484Y17416D1*
X46574Y17469D1*
X46673Y17486D1*
X47200D1*
X47299Y17469D1*
X47390Y17417D1*
X47457Y17337D1*
X47492Y17239D1*
Y17135D1*
X47457Y17037D1*
X47390Y16957D1*
X47300Y16905D1*
X47201Y16887D1*
X46674D1*
G37*
G36*
Y15887D2*
X46575Y15905D1*
X46484Y15957D1*
X46417Y16037D1*
X46382Y16134D1*
Y16239D1*
X46417Y16337D1*
X46484Y16416D1*
X46574Y16469D1*
X46673Y16486D1*
X47200D1*
X47299Y16469D1*
X47390Y16417D1*
X47457Y16337D1*
X47492Y16239D1*
Y16135D1*
X47457Y16037D1*
X47390Y15957D1*
X47300Y15905D1*
X47201Y15887D1*
X46674D1*
G37*
G36*
Y14887D2*
X46575Y14905D1*
X46484Y14957D1*
X46417Y15037D1*
X46382Y15134D1*
Y15239D1*
X46417Y15337D1*
X46484Y15416D1*
X46574Y15469D1*
X46673Y15486D1*
X47200D1*
X47299Y15469D1*
X47390Y15417D1*
X47457Y15337D1*
X47492Y15239D1*
Y15135D1*
X47457Y15037D1*
X47390Y14957D1*
X47300Y14905D1*
X47201Y14887D1*
X46674D1*
G37*
G36*
Y13887D2*
X46575Y13905D1*
X46484Y13957D1*
X46417Y14037D1*
X46382Y14134D1*
Y14239D1*
X46417Y14337D1*
X46484Y14416D1*
X46574Y14469D1*
X46673Y14486D1*
X47200D1*
X47299Y14469D1*
X47390Y14417D1*
X47457Y14337D1*
X47492Y14239D1*
Y14135D1*
X47457Y14037D1*
X47390Y13957D1*
X47300Y13905D1*
X47201Y13887D1*
X46674D1*
G37*
G36*
Y12887D2*
X46575Y12905D1*
X46484Y12957D1*
X46417Y13037D1*
X46382Y13134D1*
Y13239D1*
X46417Y13337D1*
X46484Y13416D1*
X46574Y13469D1*
X46673Y13486D1*
X47200D1*
X47299Y13469D1*
X47390Y13417D1*
X47457Y13337D1*
X47492Y13239D1*
Y13135D1*
X47457Y13037D1*
X47390Y12957D1*
X47300Y12905D1*
X47201Y12887D1*
X46674D1*
G37*
G36*
Y11887D2*
X46575Y11905D1*
X46484Y11957D1*
X46417Y12037D1*
X46382Y12134D1*
Y12239D1*
X46417Y12337D1*
X46484Y12416D1*
X46574Y12469D1*
X46673Y12486D1*
X47200D1*
X47299Y12469D1*
X47390Y12417D1*
X47457Y12337D1*
X47492Y12239D1*
Y12135D1*
X47457Y12037D1*
X47390Y11957D1*
X47300Y11905D1*
X47201Y11887D1*
X46674D1*
G37*
G36*
Y10887D2*
X46575Y10905D1*
X46484Y10957D1*
X46417Y11037D1*
X46382Y11134D1*
Y11239D1*
X46417Y11337D1*
X46484Y11416D1*
X46574Y11469D1*
X46673Y11486D1*
X47200D1*
X47299Y11469D1*
X47390Y11417D1*
X47457Y11337D1*
X47492Y11239D1*
Y11135D1*
X47457Y11037D1*
X47390Y10957D1*
X47300Y10905D1*
X47201Y10887D1*
X46674D1*
G37*
G36*
Y9887D2*
X46575Y9905D1*
X46484Y9957D1*
X46417Y10037D1*
X46382Y10134D1*
Y10239D1*
X46417Y10337D1*
X46484Y10416D1*
X46574Y10469D1*
X46673Y10486D1*
X47200D1*
X47299Y10469D1*
X47390Y10417D1*
X47457Y10337D1*
X47492Y10239D1*
Y10135D1*
X47457Y10037D1*
X47390Y9957D1*
X47300Y9905D1*
X47201Y9887D1*
X46674D1*
G37*
D48*
X7562Y29382D3*
Y31350D3*
Y24461D3*
Y26429D3*
G36*
X6884Y8348D2*
X6771Y8367D1*
X6669Y8426D1*
X6593Y8517D1*
X6552Y8628D1*
Y8746D1*
X6592Y8857D1*
X6668Y8947D1*
X6770Y9006D1*
X6883Y9026D1*
X7490D1*
X7603Y9007D1*
X7705Y8948D1*
X7781Y8857D1*
X7822Y8746D1*
Y8628D1*
X7782Y8517D1*
X7706Y8427D1*
X7604Y8368D1*
X7491Y8348D1*
X6884D1*
G37*
G36*
Y9348D2*
X6771Y9367D1*
X6669Y9426D1*
X6593Y9517D1*
X6552Y9628D1*
Y9746D1*
X6592Y9857D1*
X6668Y9947D1*
X6770Y10006D1*
X6883Y10026D1*
X7490D1*
X7603Y10007D1*
X7705Y9948D1*
X7781Y9857D1*
X7822Y9746D1*
Y9628D1*
X7782Y9517D1*
X7706Y9427D1*
X7604Y9368D1*
X7491Y9348D1*
X6884D1*
G37*
G36*
Y10348D2*
X6771Y10367D1*
X6669Y10426D1*
X6593Y10517D1*
X6552Y10628D1*
Y10746D1*
X6592Y10857D1*
X6668Y10947D1*
X6770Y11006D1*
X6883Y11026D1*
X7490D1*
X7603Y11007D1*
X7705Y10948D1*
X7781Y10857D1*
X7822Y10746D1*
Y10628D1*
X7782Y10517D1*
X7706Y10427D1*
X7604Y10368D1*
X7491Y10348D1*
X6884D1*
G37*
G36*
Y11348D2*
X6771Y11367D1*
X6669Y11426D1*
X6593Y11517D1*
X6552Y11628D1*
Y11746D1*
X6592Y11857D1*
X6668Y11947D1*
X6770Y12006D1*
X6883Y12026D1*
X7490D1*
X7603Y12007D1*
X7705Y11948D1*
X7781Y11857D1*
X7822Y11746D1*
Y11628D1*
X7782Y11517D1*
X7706Y11427D1*
X7604Y11368D1*
X7491Y11348D1*
X6884D1*
G37*
G36*
X6384Y41098D2*
X6271Y41117D1*
X6169Y41176D1*
X6093Y41267D1*
X6052Y41378D1*
Y41496D1*
X6093Y41607D1*
X6168Y41697D1*
X6271Y41756D1*
X6383Y41776D1*
X6990D1*
X7103Y41757D1*
X7205Y41698D1*
X7281Y41607D1*
X7322Y41496D1*
Y41378D1*
X7282Y41267D1*
X7206Y41177D1*
X7104Y41118D1*
X6991Y41098D1*
X6384D1*
G37*
G36*
Y42098D2*
X6271Y42117D1*
X6169Y42176D1*
X6093Y42267D1*
X6052Y42378D1*
Y42496D1*
X6093Y42607D1*
X6168Y42697D1*
X6271Y42756D1*
X6383Y42776D1*
X6990D1*
X7103Y42757D1*
X7205Y42698D1*
X7281Y42607D1*
X7322Y42496D1*
Y42378D1*
X7282Y42267D1*
X7206Y42177D1*
X7104Y42118D1*
X6991Y42098D1*
X6384D1*
G37*
G36*
Y43098D2*
X6271Y43117D1*
X6169Y43176D1*
X6093Y43267D1*
X6052Y43378D1*
Y43496D1*
X6093Y43607D1*
X6168Y43697D1*
X6271Y43756D1*
X6383Y43776D1*
X6990D1*
X7103Y43757D1*
X7205Y43698D1*
X7281Y43607D1*
X7322Y43496D1*
Y43378D1*
X7282Y43267D1*
X7206Y43177D1*
X7104Y43118D1*
X6991Y43098D1*
X6384D1*
G37*
G36*
Y44098D2*
X6271Y44117D1*
X6169Y44176D1*
X6093Y44267D1*
X6052Y44378D1*
Y44496D1*
X6093Y44607D1*
X6168Y44697D1*
X6271Y44756D1*
X6383Y44776D1*
X6990D1*
X7103Y44757D1*
X7205Y44698D1*
X7281Y44607D1*
X7322Y44496D1*
Y44378D1*
X7282Y44267D1*
X7206Y44177D1*
X7104Y44118D1*
X6991Y44098D1*
X6384D1*
G37*
D46*
X30907Y10577D3*
X33467D3*
X30907Y8797D3*
X33467D3*
X36407Y10577D3*
X38967D3*
X36407Y8797D3*
X38967D3*
G36*
X30967Y12071D2*
X30803Y11907D1*
X30571D1*
X30407Y12071D1*
Y12303D1*
X30571Y12467D1*
X30803D1*
X30967Y12303D1*
Y12071D1*
G37*
G36*
X33967D2*
X33803Y11907D1*
X33571D1*
X33407Y12071D1*
Y12303D1*
X33571Y12467D1*
X33803D1*
X33967Y12303D1*
Y12071D1*
G37*
G36*
X36467D2*
X36303Y11908D1*
X36071D1*
X35907Y12071D1*
Y12303D1*
X36071Y12467D1*
X36303D1*
X36467Y12303D1*
Y12071D1*
G37*
G36*
X39467D2*
X39303Y11908D1*
X39071D1*
X38907Y12071D1*
Y12303D1*
X39071Y12467D1*
X39303D1*
X39467Y12303D1*
Y12071D1*
G37*
G36*
X36467Y19571D2*
X36303Y19407D1*
X36071D1*
X35907Y19571D1*
Y19803D1*
X36071Y19967D1*
X36303D1*
X36467Y19803D1*
Y19571D1*
G37*
G36*
X39467D2*
X39303Y19407D1*
X39071D1*
X38907Y19571D1*
Y19803D1*
X39071Y19967D1*
X39303D1*
X39467Y19803D1*
Y19571D1*
G37*
G36*
X30967D2*
X30803Y19407D1*
X30571D1*
X30407Y19571D1*
Y19803D1*
X30571Y19967D1*
X30803D1*
X30967Y19803D1*
Y19571D1*
G37*
G36*
X33967D2*
X33803Y19407D1*
X33571D1*
X33407Y19571D1*
Y19803D1*
X33571Y19967D1*
X33803D1*
X33967Y19803D1*
Y19571D1*
G37*
G36*
X53053Y10467D2*
X53217Y10303D1*
Y10071D1*
X53053Y9907D1*
X52821D1*
X52657Y10071D1*
Y10303D1*
X52821Y10467D1*
X53053D1*
G37*
G36*
Y13467D2*
X53217Y13303D1*
Y13071D1*
X53053Y12907D1*
X52821D1*
X52657Y13071D1*
Y13303D1*
X52821Y13467D1*
X53053D1*
G37*
G36*
X55553Y10467D2*
X55717Y10303D1*
Y10071D1*
X55553Y9907D1*
X55321D1*
X55157Y10071D1*
Y10303D1*
X55321Y10467D1*
X55553D1*
G37*
G36*
Y13467D2*
X55717Y13303D1*
Y13071D1*
X55553Y12907D1*
X55321D1*
X55157Y13071D1*
Y13303D1*
X55321Y13467D1*
X55553D1*
G37*
G36*
X55098Y15990D2*
X55117Y16103D1*
X55176Y16205D1*
X55267Y16281D1*
X55378Y16322D1*
X55496D1*
X55607Y16282D1*
X55697Y16206D1*
X55756Y16104D1*
X55776Y15991D1*
Y15384D1*
X55757Y15271D1*
X55698Y15169D1*
X55607Y15093D1*
X55496Y15052D1*
X55378D1*
X55267Y15092D1*
X55177Y15168D1*
X55118Y15270D1*
X55098Y15383D1*
Y15990D1*
G37*
G36*
Y17959D2*
X55117Y18072D1*
X55176Y18174D1*
X55267Y18250D1*
X55378Y18290D1*
X55496D1*
X55607Y18250D1*
X55697Y18174D1*
X55756Y18072D1*
X55776Y17959D1*
Y17352D1*
X55757Y17240D1*
X55698Y17137D1*
X55607Y17061D1*
X55496Y17021D1*
X55378D1*
X55267Y17061D1*
X55177Y17137D1*
X55118Y17239D1*
X55098Y17352D1*
Y17959D1*
G37*
G36*
X51161Y16974D2*
X51180Y17087D1*
X51239Y17190D1*
X51330Y17266D1*
X51441Y17306D1*
X51559D1*
X51670Y17266D1*
X51760Y17190D1*
X51819Y17088D1*
X51839Y16975D1*
Y16368D1*
X51820Y16255D1*
X51761Y16153D1*
X51670Y16077D1*
X51559Y16037D1*
X51441Y16036D1*
X51330Y16077D1*
X51240Y16153D1*
X51181Y16255D1*
X51161Y16368D1*
Y16974D1*
G37*
G36*
X55157Y19803D2*
X55321Y19966D1*
X55553D1*
X55717Y19803D1*
Y19571D1*
X55553Y19407D1*
X55321D1*
X55157Y19571D1*
Y19803D1*
G37*
G36*
X52157D2*
X52321Y19966D1*
X52553D1*
X52717Y19803D1*
Y19571D1*
X52553Y19407D1*
X52321D1*
X52157Y19571D1*
Y19803D1*
G37*
D44*
X27187Y13437D3*
X12187D3*
Y15437D3*
X27187D3*
D42*
X13187Y12937D3*
Y13937D3*
Y14937D3*
Y15937D3*
X26187Y12937D3*
Y13937D3*
Y14937D3*
Y15937D3*
G36*
X43843Y29330D2*
X44044Y29531D1*
X44330D1*
X44531Y29330D1*
Y29044D1*
X44330Y28843D1*
X44044D1*
X43843Y29044D1*
Y29330D1*
G37*
G36*
X42843D2*
X43044Y29531D1*
X43330D1*
X43531Y29330D1*
Y29044D1*
X43330Y28843D1*
X43044D1*
X42843Y29044D1*
Y29330D1*
G37*
G36*
X37843D2*
X38044Y29531D1*
X38330D1*
X38531Y29330D1*
Y29044D1*
X38330Y28843D1*
X38044D1*
X37843Y29044D1*
Y29330D1*
G37*
G36*
X36843D2*
X37044Y29531D1*
X37330D1*
X37531Y29330D1*
Y29044D1*
X37330Y28843D1*
X37044D1*
X36843Y29044D1*
Y29330D1*
G37*
G36*
X35843D2*
X36044Y29531D1*
X36330D1*
X36531Y29330D1*
Y29044D1*
X36330Y28843D1*
X36044D1*
X35843Y29044D1*
Y29330D1*
G37*
G36*
X34843D2*
X35044Y29531D1*
X35330D1*
X35531Y29330D1*
Y29044D1*
X35330Y28843D1*
X35044D1*
X34843Y29044D1*
Y29330D1*
G37*
G36*
X33843D2*
X34044Y29531D1*
X34330D1*
X34531Y29330D1*
Y29044D1*
X34330Y28843D1*
X34044D1*
X33843Y29044D1*
Y29330D1*
G37*
G36*
X32843D2*
X33044Y29531D1*
X33330D1*
X33531Y29330D1*
Y29044D1*
X33330Y28843D1*
X33044D1*
X32843Y29044D1*
Y29330D1*
G37*
G36*
X48443Y48330D2*
X48644Y48531D1*
X48930D1*
X49131Y48330D1*
Y48044D1*
X48930Y47843D1*
X48644D1*
X48443Y48044D1*
Y48330D1*
G37*
G36*
X32843D2*
X33044Y48531D1*
X33330D1*
X33531Y48330D1*
Y48044D1*
X33330Y47843D1*
X33044D1*
X32843Y48044D1*
Y48330D1*
G37*
G36*
X33843D2*
X34044Y48531D1*
X34330D1*
X34531Y48330D1*
Y48044D1*
X34330Y47843D1*
X34044D1*
X33843Y48044D1*
Y48330D1*
G37*
G36*
X34843D2*
X35044Y48531D1*
X35330D1*
X35531Y48330D1*
Y48044D1*
X35330Y47843D1*
X35044D1*
X34843Y48044D1*
Y48330D1*
G37*
G36*
X35843D2*
X36044Y48531D1*
X36330D1*
X36531Y48330D1*
Y48044D1*
X36330Y47843D1*
X36044D1*
X35843Y48044D1*
Y48330D1*
G37*
G36*
X36843D2*
X37044Y48531D1*
X37330D1*
X37531Y48330D1*
Y48044D1*
X37330Y47843D1*
X37044D1*
X36843Y48044D1*
Y48330D1*
G37*
G36*
X37843D2*
X38044Y48531D1*
X38330D1*
X38531Y48330D1*
Y48044D1*
X38330Y47843D1*
X38044D1*
X37843Y48044D1*
Y48330D1*
G37*
G36*
X38843D2*
X39044Y48531D1*
X39330D1*
X39531Y48330D1*
Y48044D1*
X39330Y47843D1*
X39044D1*
X38843Y48044D1*
Y48330D1*
G37*
G36*
X39843D2*
X40044Y48531D1*
X40330D1*
X40531Y48330D1*
Y48044D1*
X40330Y47843D1*
X40044D1*
X39843Y48044D1*
Y48330D1*
G37*
G36*
X41443D2*
X41644Y48531D1*
X41930D1*
X42131Y48330D1*
Y48044D1*
X41930Y47843D1*
X41644D1*
X41443Y48044D1*
Y48330D1*
G37*
G36*
X42443D2*
X42644Y48531D1*
X42930D1*
X43131Y48330D1*
Y48044D1*
X42930Y47843D1*
X42644D1*
X42443Y48044D1*
Y48330D1*
G37*
G36*
X43443D2*
X43644Y48531D1*
X43930D1*
X44131Y48330D1*
Y48044D1*
X43930Y47843D1*
X43644D1*
X43443Y48044D1*
Y48330D1*
G37*
G36*
X44443D2*
X44644Y48531D1*
X44930D1*
X45131Y48330D1*
Y48044D1*
X44930Y47843D1*
X44644D1*
X44443Y48044D1*
Y48330D1*
G37*
G36*
X45443D2*
X45644Y48531D1*
X45930D1*
X46131Y48330D1*
Y48044D1*
X45930Y47843D1*
X45644D1*
X45443Y48044D1*
Y48330D1*
G37*
G36*
X46443D2*
X46644Y48531D1*
X46930D1*
X47131Y48330D1*
Y48044D1*
X46930Y47843D1*
X46644D1*
X46443Y48044D1*
Y48330D1*
G37*
G36*
X47443D2*
X47644Y48531D1*
X47930D1*
X48131Y48330D1*
Y48044D1*
X47930Y47843D1*
X47644D1*
X47443Y48044D1*
Y48330D1*
G37*
G36*
X40843Y29330D2*
X41044Y29531D1*
X41330D1*
X41531Y29330D1*
Y29044D1*
X41330Y28843D1*
X41044D1*
X40843Y29044D1*
Y29330D1*
G37*
G36*
X41843D2*
X42044Y29531D1*
X42330D1*
X42531Y29330D1*
Y29044D1*
X42330Y28843D1*
X42044D1*
X41843Y29044D1*
Y29330D1*
G37*
G36*
X44843D2*
X45044Y29531D1*
X45330D1*
X45531Y29330D1*
Y29044D1*
X45330Y28843D1*
X45044D1*
X44843Y29044D1*
Y29330D1*
G37*
G36*
X39843D2*
X40044Y29531D1*
X40330D1*
X40531Y29330D1*
Y29044D1*
X40330Y28843D1*
X40044D1*
X39843Y29044D1*
Y29330D1*
G37*
G36*
X40492Y25805D2*
X40317Y25631D1*
X40070D1*
X39896Y25805D1*
Y26052D1*
X40070Y26227D1*
X40317D1*
X40492Y26052D1*
Y25805D1*
G37*
G36*
Y26805D2*
X40317Y26631D1*
X40070D1*
X39896Y26805D1*
Y27052D1*
X40070Y27227D1*
X40317D1*
X40492Y27052D1*
Y26805D1*
G37*
D44*
X27187Y42437D3*
X12187D3*
Y44437D3*
X27187D3*
D42*
X13187Y41937D3*
Y42937D3*
Y43937D3*
Y44937D3*
X26187Y41937D3*
Y42937D3*
Y43937D3*
Y44937D3*
D34*
X8437Y46187D3*
X56937Y36937D3*
X58437Y5437D3*
X5437Y6437D3*
X56937Y49437D3*
X16687Y18937D3*
M02*
