M48
INCH
T01C0.032
T02C0.0354
T03C0.036
T04C0.0394
T05C0.04
T06C0.044
T07C0.0591
T08C0.0866
T09C0.1575
%
T01
X+040937Y+009687
X+040937Y+010687
X+040937Y+011687
X+040937Y+012687
X+040937Y+013687
X+040937Y+014687
X+040937Y+015687
X+040937Y+016687
X+040937Y+017687
X+040937Y+018687
X+039187Y+019687
X+036187Y+019687
X+033687Y+019687
X+030687Y+019687
X+030687Y+012187
X+033687Y+012187
X+036187Y+012187
X+039187Y+012187
X+043937Y+012687
X+043937Y+013687
X+043937Y+014687
X+043937Y+015687
X+043937Y+016687
X+043937Y+017687
X+043937Y+018687
X+046937Y+018187
X+046937Y+017187
X+046937Y+016187
X+046937Y+015187
X+046937Y+014187
X+046937Y+013187
X+046937Y+012187
X+046937Y+011187
X+046937Y+010187
X+049937Y+010187
X+049937Y+011187
X+049937Y+012187
X+049937Y+013187
X+049937Y+014187
X+049937Y+015187
X+049937Y+016187
X+049937Y+017187
X+049937Y+018187
X+052437Y+019687
X+055437Y+019687
X+055437Y+013187
X+052937Y+013187
X+052937Y+010187
X+055437Y+010187
X+043937Y+009687
X+043937Y+010687
X+043937Y+011687
T02
X+013187Y+012937
X+013187Y+013937
X+013187Y+014937
X+013187Y+015937
X+026187Y+015937
X+026187Y+014937
X+026187Y+013937
X+026187Y+012937
X+026187Y+041937
X+026187Y+042937
X+026187Y+043937
X+026187Y+044937
X+013187Y+044937
X+013187Y+043937
X+013187Y+042937
X+013187Y+041937
T03
X+040194Y+025929
X+040194Y+026929
T04
X+044187Y+029187
X+043187Y+029187
X+042187Y+029187
X+041187Y+029187
X+040187Y+029187
X+038187Y+029187
X+037187Y+029187
X+036187Y+029187
X+035187Y+029187
X+034187Y+029187
X+033187Y+029187
X+045187Y+029187
X+044787Y+048187
X+043787Y+048187
X+042787Y+048187
X+041787Y+048187
X+040187Y+048187
X+039187Y+048187
X+038187Y+048187
X+037187Y+048187
X+036187Y+048187
X+035187Y+048187
X+034187Y+048187
X+033187Y+048187
X+045787Y+048187
X+046787Y+048187
X+047787Y+048187
X+048787Y+048187
T05
X+026437Y+024437
X+025437Y+024437
X+024437Y+024437
X+023437Y+024437
X+022437Y+024437
X+021437Y+024437
X+019187Y+024437
X+019187Y+029687
X+018187Y+029687
X+017187Y+029687
X+016187Y+029687
X+015187Y+029687
X+014187Y+029687
X+013187Y+029687
X+012187Y+029687
X+012187Y+028437
X+009687Y+028437
X+021187Y+029687
X+022187Y+029687
X+023187Y+029687
X+024187Y+029687
X+025187Y+029687
X+026187Y+029687
X+027187Y+029687
X+028187Y+029687
X+028437Y+024187
X+030907Y+018077
X+030907Y+016297
X+033467Y+016297
X+033467Y+018077
X+036407Y+018077
X+036407Y+016297
X+038967Y+016297
X+038967Y+018077
X+044687Y+021437
X+044687Y+022437
X+044687Y+023437
X+044687Y+024437
X+044687Y+025437
X+044687Y+026437
X+048437Y+029687
X+047437Y+032687
X+053687Y+029687
X+055437Y+032687
X+055437Y+017656
X+055437Y+015687
X+051500Y+016671
X+038967Y+010577
X+038967Y+008797
X+036407Y+008797
X+036407Y+010577
X+033467Y+010577
X+033467Y+008797
X+030907Y+008797
X+030907Y+010577
X+028437Y+017187
X+019187Y+017937
X+007187Y+011687
X+007187Y+010687
X+007187Y+009687
X+007187Y+008687
X+006687Y+041437
X+006687Y+042437
X+006687Y+043437
X+006687Y+044437
T06
X+034187Y+013687
X+035687Y+013687
X+039687Y+013687
X+039687Y+021187
X+035687Y+021187
X+034187Y+021187
X+030187Y+021187
X+030187Y+013687
T07
X+013187Y+008530
X+011219Y+008530
X+017500Y+008530
X+019469Y+008530
X+023719Y+008530
X+025687Y+008530
X+007562Y+019539
X+007562Y+021508
X+007562Y+024461
X+007562Y+026429
X+007562Y+029382
X+007562Y+031350
X+007562Y+034303
X+007562Y+036272
X+011187Y+047937
X+013156Y+047937
X+017437Y+047937
X+019406Y+047937
X+023656Y+047937
X+025624Y+047937
T08
X+027187Y+013437
X+027187Y+015437
X+012187Y+015437
X+012187Y+013437
X+012187Y+042437
X+012187Y+044437
X+027187Y+044437
X+027187Y+042437
T09
X+008437Y+046187
X+016687Y+018937
X+005437Y+006437
X+058437Y+005437
X+056937Y+036937
X+056937Y+049437
T00
M30
