M48
INCH
T01C0.0315
T02C0.0354
T03C0.038
T04C0.0394
T05C0.04
T06C0.0433
T07C0.0551
T08C0.0866
T09C0.1575
%
T01
X+021258Y+018678
X+021758Y+018178
X+021258Y+017678
T02
X+048304Y+038928
X+047304Y+038928
X+047804Y+034678
X+048804Y+034678
X+049804Y+034678
X+050804Y+034678
X+051804Y+034678
X+052804Y+034678
X+053804Y+034678
X+054804Y+034678
X+054804Y+033678
X+053804Y+033678
X+052804Y+033678
X+051804Y+033678
X+050804Y+033678
X+049804Y+033678
X+048804Y+033678
X+047804Y+033678
X+046804Y+033678
X+046804Y+034678
X+045804Y+034678
X+044804Y+034678
X+044804Y+033678
X+045804Y+033678
X+043804Y+033678
X+043804Y+034678
X+042804Y+034678
X+042804Y+033678
X+041804Y+033678
X+041804Y+034678
X+040804Y+034678
X+039804Y+034678
X+039804Y+033678
X+040804Y+033678
X+038804Y+033678
X+038804Y+034678
X+037804Y+034678
X+037804Y+033678
X+036804Y+033678
X+036804Y+034678
X+035804Y+034678
X+035804Y+033678
X+034804Y+033678
X+034804Y+034678
X+033804Y+034678
X+033804Y+033678
X+032804Y+033678
X+031804Y+033678
X+031804Y+034678
X+032804Y+034678
X+030804Y+034678
X+030804Y+033678
X+026804Y+035428
X+025804Y+035428
X+024804Y+035428
X+023804Y+035428
X+025266Y+039254
X+025266Y+040435
X+018581Y+031447
X+017581Y+031447
X+016581Y+031447
X+015581Y+031447
X+014054Y+038178
X+014054Y+039178
X+014054Y+040178
X+014054Y+041178
X+023804Y+022428
X+024804Y+022428
X+025804Y+022428
X+026804Y+022428
X+030804Y+014678
X+031804Y+014678
X+032804Y+014678
X+033804Y+014678
X+034804Y+014678
X+035804Y+014678
X+036804Y+014678
X+037804Y+014678
X+038804Y+014678
X+039804Y+014678
X+040804Y+014678
X+041804Y+014678
X+042804Y+014678
X+043804Y+014678
X+044804Y+014678
X+045804Y+014678
X+046804Y+014678
X+047804Y+014678
X+048804Y+014678
X+049804Y+014678
X+050804Y+014678
X+051804Y+014678
X+051804Y+013678
X+050804Y+013678
X+049804Y+013678
X+048804Y+013678
X+047804Y+013678
X+046804Y+013678
X+045804Y+013678
X+044804Y+013678
X+043804Y+013678
X+042804Y+013678
X+041804Y+013678
X+040804Y+013678
X+039804Y+013678
X+038804Y+013678
X+037804Y+013678
X+036804Y+013678
X+035804Y+013678
X+034804Y+013678
X+033804Y+013678
X+032804Y+013678
X+031804Y+013678
X+030804Y+013678
X+028600Y+012116
X+027600Y+012116
X+027599Y+010804
X+028599Y+010804
X+025561Y+007966
X+024379Y+007966
X+020304Y+011678
X+019304Y+011678
X+018581Y+018447
X+017581Y+018447
X+016581Y+018447
X+015581Y+018447
X+012492Y+014678
X+012492Y+013678
X+012492Y+012678
X+012492Y+011678
X+040041Y+008307
X+040041Y+007307
X+040041Y+006307
X+040041Y+005307
X+043054Y+005304
X+043054Y+006304
X+043054Y+007304
X+043054Y+008304
X+043054Y+010053
X+044054Y+010053
X+045054Y+010053
X+045304Y+008303
X+045304Y+007303
X+045304Y+006303
X+045304Y+005303
X+047929Y+005304
X+047929Y+006304
X+047929Y+007304
X+047929Y+008304
X+050804Y+008303
X+050804Y+007303
X+050804Y+006303
X+050804Y+005303
X+053554Y+005053
X+053554Y+006053
X+053554Y+007053
X+053554Y+008053
X+053554Y+009053
X+053554Y+010053
X+056054Y+010053
X+056054Y+009053
X+056054Y+008053
X+056054Y+007053
X+056054Y+006053
X+056054Y+005053
X+059804Y+007054
X+059804Y+008054
X+059804Y+009054
X+059804Y+010054
X+062054Y+010053
X+062054Y+009053
X+062054Y+008053
X+062054Y+007053
X+066229Y+006803
X+066229Y+007803
X+066229Y+008803
X+066229Y+009803
X+064831Y+016697
X+064831Y+017697
X+064831Y+018697
X+064831Y+019697
X+064831Y+020697
X+064831Y+021697
X+064831Y+023455
X+065831Y+023455
X+063831Y+023455
X+062831Y+023455
X+061831Y+023455
X+060831Y+023455
X+059831Y+023455
X+058831Y+023455
X+058831Y+026447
X+059831Y+026447
X+060831Y+026447
X+061831Y+026447
X+062831Y+026447
X+063831Y+026447
X+064831Y+026447
X+065831Y+026447
X+062304Y+028678
X+061304Y+028678
X+060304Y+028678
X+059304Y+028678
X+059304Y+031678
X+060304Y+031678
X+061304Y+031678
X+062304Y+031678
X+063166Y+037932
X+063166Y+038932
X+064166Y+038932
X+064166Y+037932
X+061804Y+038678
X+060804Y+038678
X+060804Y+039678
X+061804Y+039678
X+061804Y+040678
X+061804Y+041678
X+060804Y+041678
X+060804Y+040678
X+058054Y+040428
X+057054Y+040428
X+056054Y+040428
X+055054Y+040428
X+054054Y+040428
X+053054Y+040428
X+053054Y+038678
X+054054Y+038678
X+055054Y+038678
X+056054Y+038678
X+057054Y+038678
X+058054Y+038678
X+056804Y+042053
X+055804Y+042053
X+054804Y+042053
X+053804Y+042053
X+066666Y+041057
X+066666Y+040057
X+066666Y+039057
X+066666Y+038057
X+054804Y+014678
X+054804Y+013678
X+053804Y+013678
X+052804Y+013678
X+052804Y+014678
X+053804Y+014678
X+042054Y+010053
T03
X+059831Y+018697
X+059831Y+016697
X+063831Y+016697
X+063831Y+018697
T04
X+042554Y+038928
X+042554Y+039928
X+042004Y+029428
X+041929Y+026928
X+042004Y+024428
X+041929Y+021928
X+041929Y+019178
X+037854Y+019178
X+037854Y+021928
X+037929Y+024428
X+037854Y+026928
X+037929Y+029428
X+049554Y+029428
X+049554Y+026928
X+049479Y+024428
X+049479Y+021928
X+049479Y+019178
X+053554Y+019178
X+053554Y+021928
X+053554Y+024428
X+053629Y+026928
X+053629Y+029428
X+034163Y+011991
X+030088Y+011991
X+028092Y+017466
X+024017Y+017466
X+023304Y+015678
X+023304Y+011604
T05
X+067916Y+005057
X+063916Y+005057
X+058291Y+005682
X+058666Y+011307
X+060416Y+011807
X+061804Y+011928
X+062554Y+012928
X+063804Y+011928
X+065041Y+011307
X+066229Y+012928
X+066554Y+015928
X+060416Y+015178
X+058554Y+016572
X+058291Y+013557
X+053804Y+015928
X+050947Y+016572
X+049429Y+020553
X+049554Y+023178
X+049429Y+025678
X+049554Y+028178
X+049554Y+030428
X+048554Y+031053
X+049554Y+031678
X+048429Y+032303
X+051804Y+031053
X+052429Y+031678
X+056054Y+030428
X+056054Y+028178
X+054304Y+025678
X+054304Y+023178
X+054304Y+020428
X+049791Y+010932
X+048916Y+010932
X+044166Y+009182
X+041679Y+007928
X+041041Y+006553
X+041679Y+005303
X+044166Y+004941
X+048916Y+005553
X+049791Y+005553
X+041041Y+012557
X+041929Y+020428
X+037679Y+020428
X+031412Y+020680
X+031412Y+015929
X+028927Y+013364
X+021554Y+013303
X+021554Y+014428
X+021554Y+015678
X+021554Y+021803
X+021554Y+025928
X+022541Y+029182
X+021416Y+029682
X+022541Y+037557
X+021416Y+037682
X+028927Y+034301
X+012410Y+038178
X+012304Y+018428
X+011660Y+015741
X+014554Y+014428
X+014598Y+013303
X+049554Y+039428
X+050992Y+039678
X+050992Y+042053
X+049554Y+041803
X+057304Y+032303
X+063804Y+029928
X+062812Y+027428
X+065804Y+027428
X+067554Y+029928
X+064916Y+040307
X+064103Y+040307
X+064103Y+041745
X+064916Y+041745
T06
X+044554Y+041678
X+045554Y+041678
X+046554Y+041678
T07
X+035554Y+008278
X+037554Y+008279
X+032804Y+008279
X+030804Y+008278
X+020804Y+008529
X+018804Y+008528
X+016179Y+008529
X+014179Y+008528
X+008701Y+007075
X+008701Y+010823
X+008701Y+014571
X+008701Y+018319
X+008701Y+022067
X+008701Y+025815
X+008701Y+029564
X+008701Y+033312
X+008701Y+037060
X+008701Y+040808
X+017554Y+038678
X+019554Y+038678
X+029554Y+040578
X+031554Y+040578
X+034804Y+040578
X+036804Y+040578
T08
X+026304Y+036428
X+024304Y+036428
X+018081Y+032447
X+016081Y+032447
X+024304Y+021428
X+026304Y+021428
X+018081Y+017447
X+016081Y+017447
T09
X+017304Y+041678
X+025554Y+014428
X+065804Y+032428
T00
M30
