G04 DipTrace 2.3.0.3*
%INTopAssy.gbr*%
%MOIN*%
%ADD20C,0.0*%
%ADD22C,0.0079*%
%ADD24C,0.006*%
%ADD25C,0.03*%
%ADD28C,0.024*%
%FSLAX44Y44*%
G04*
G70*
G90*
G75*
G01*
%LNTopAssy*%
%LPD*%
G36*
X22337Y24337D2*
X22537D1*
Y24537D1*
X22337D1*
Y24337D1*
G37*
G36*
X23337D2*
X23537D1*
Y24537D1*
X23337D1*
Y24337D1*
G37*
G36*
X24337D2*
X24537D1*
Y24537D1*
X24337D1*
Y24337D1*
G37*
G36*
X25337D2*
X25537D1*
Y24537D1*
X25337D1*
Y24337D1*
G37*
G36*
X26337D2*
X26537D1*
Y24537D1*
X26337D1*
Y24337D1*
G37*
G36*
X21337D2*
X21537D1*
Y24537D1*
X21337D1*
Y24337D1*
G37*
X34187Y13687D2*
D25*
X33787D1*
X30187D2*
X30587D1*
X39687D2*
X39287D1*
X35687D2*
X36087D1*
X39687Y21187D2*
X39287D1*
X35687D2*
X36087D1*
X34187D2*
X33787D1*
X30187D2*
X30587D1*
X33387Y17587D2*
D22*
Y18187D1*
X33187Y18387D1*
Y15987D2*
X33387Y16187D1*
Y16787D1*
X31187Y18387D2*
X30987Y18187D1*
Y17587D1*
X31187Y15987D2*
X30987Y16187D1*
Y16787D1*
X33187Y15987D2*
X33037D1*
X31187D2*
X31337D1*
X31187Y18387D2*
X31337D1*
X33187D2*
X33037D1*
X31187Y17687D2*
Y17387D1*
Y16987D2*
Y16687D1*
Y17387D2*
X31337Y17037D1*
X38887Y17587D2*
Y18187D1*
X38687Y18387D1*
Y15987D2*
X38887Y16187D1*
Y16787D1*
X36687Y18387D2*
X36487Y18187D1*
Y17587D1*
X36687Y15987D2*
X36487Y16187D1*
Y16787D1*
X38687Y15987D2*
X38537D1*
X36687D2*
X36837D1*
X36687Y18387D2*
X36837D1*
X38687D2*
X38537D1*
X36687Y17687D2*
Y17387D1*
Y16987D2*
Y16687D1*
Y17387D2*
X36837Y17037D1*
G36*
X18287Y29787D2*
X18087D1*
Y29587D1*
X18287D1*
Y29787D1*
G37*
G36*
X17287D2*
X17087D1*
Y29587D1*
X17287D1*
Y29787D1*
G37*
G36*
X16287D2*
X16087D1*
Y29587D1*
X16287D1*
Y29787D1*
G37*
G36*
X15287D2*
X15087D1*
Y29587D1*
X15287D1*
Y29787D1*
G37*
G36*
X14287D2*
X14087D1*
Y29587D1*
X14287D1*
Y29787D1*
G37*
G36*
X13287D2*
X13087D1*
Y29587D1*
X13287D1*
Y29787D1*
G37*
G36*
X12287D2*
X12087D1*
Y29587D1*
X12287D1*
Y29787D1*
G37*
G36*
X19287D2*
X19087D1*
Y29587D1*
X19287D1*
Y29787D1*
G37*
G36*
X27287D2*
X27087D1*
Y29587D1*
X27287D1*
Y29787D1*
G37*
G36*
X26287D2*
X26087D1*
Y29587D1*
X26287D1*
Y29787D1*
G37*
G36*
X25287D2*
X25087D1*
Y29587D1*
X25287D1*
Y29787D1*
G37*
G36*
X24287D2*
X24087D1*
Y29587D1*
X24287D1*
Y29787D1*
G37*
G36*
X23287D2*
X23087D1*
Y29587D1*
X23287D1*
Y29787D1*
G37*
G36*
X22287D2*
X22087D1*
Y29587D1*
X22287D1*
Y29787D1*
G37*
G36*
X21287D2*
X21087D1*
Y29587D1*
X21287D1*
Y29787D1*
G37*
G36*
X28287D2*
X28087D1*
Y29587D1*
X28287D1*
Y29787D1*
G37*
G36*
X7087Y10787D2*
X7287D1*
Y10587D1*
X7087D1*
Y10787D1*
G37*
G36*
Y9787D2*
X7287D1*
Y9587D1*
X7087D1*
Y9787D1*
G37*
G36*
Y8787D2*
X7287D1*
Y8587D1*
X7087D1*
Y8787D1*
G37*
G36*
Y11787D2*
X7287D1*
Y11587D1*
X7087D1*
Y11787D1*
G37*
G36*
X6587Y43537D2*
X6787D1*
Y43337D1*
X6587D1*
Y43537D1*
G37*
G36*
Y42537D2*
X6787D1*
Y42337D1*
X6587D1*
Y42537D1*
G37*
G36*
Y41537D2*
X6787D1*
Y41337D1*
X6587D1*
Y41537D1*
G37*
G36*
Y44537D2*
X6787D1*
Y44337D1*
X6587D1*
Y44537D1*
G37*
X33387Y10087D2*
D22*
Y10687D1*
X33187Y10887D1*
Y8487D2*
X33387Y8687D1*
Y9287D1*
X31187Y10887D2*
X30987Y10687D1*
Y10087D1*
X31187Y8487D2*
X30987Y8687D1*
Y9287D1*
X33187Y8487D2*
X33037D1*
X31187D2*
X31337D1*
X31187Y10887D2*
X31337D1*
X33187D2*
X33037D1*
X31187Y10187D2*
Y9887D1*
Y9487D2*
Y9187D1*
Y9887D2*
X31337Y9537D1*
X38887Y10087D2*
Y10687D1*
X38687Y10887D1*
Y8487D2*
X38887Y8687D1*
Y9287D1*
X36687Y10887D2*
X36487Y10687D1*
Y10087D1*
X36687Y8487D2*
X36487Y8687D1*
Y9287D1*
X38687Y8487D2*
X38537D1*
X36687D2*
X36837D1*
X36687Y10887D2*
X36837D1*
X38687D2*
X38537D1*
X36687Y10187D2*
Y9887D1*
Y9487D2*
Y9187D1*
Y9887D2*
X36837Y9537D1*
G36*
X30937Y12307D2*
X30837D1*
Y12067D1*
X30937D1*
Y12307D1*
G37*
G36*
X33537D2*
X33437D1*
Y12067D1*
X33537D1*
Y12307D1*
G37*
X30687Y12187D2*
D28*
X30837D1*
X30937Y11837D2*
D24*
Y12537D1*
X33437Y11837D2*
Y12537D1*
X33537Y12187D2*
D28*
X33687D1*
G36*
X36437Y12307D2*
X36337D1*
Y12067D1*
X36437D1*
Y12307D1*
G37*
G36*
X39037D2*
X38937D1*
Y12067D1*
X39037D1*
Y12307D1*
G37*
X36187Y12187D2*
D28*
X36337D1*
X36437Y11837D2*
D24*
Y12537D1*
X38937Y11837D2*
Y12537D1*
X39037Y12187D2*
D28*
X39187D1*
G36*
X36437Y19807D2*
X36337D1*
Y19567D1*
X36437D1*
Y19807D1*
G37*
G36*
X39037D2*
X38937D1*
Y19567D1*
X39037D1*
Y19807D1*
G37*
X36187Y19687D2*
D28*
X36337D1*
X36437Y19337D2*
D24*
Y20037D1*
X38937Y19337D2*
Y20037D1*
X39037Y19687D2*
D28*
X39187D1*
G36*
X30937Y19807D2*
X30837D1*
Y19567D1*
X30937D1*
Y19807D1*
G37*
G36*
X33537D2*
X33437D1*
Y19567D1*
X33537D1*
Y19807D1*
G37*
X30687Y19687D2*
D28*
X30837D1*
X30937Y19337D2*
D24*
Y20037D1*
X33437Y19337D2*
Y20037D1*
X33537Y19687D2*
D28*
X33687D1*
G36*
X52817Y10437D2*
X53057D1*
Y10337D1*
X52817D1*
Y10437D1*
G37*
G36*
Y13037D2*
X53057D1*
Y12937D1*
X52817D1*
Y13037D1*
G37*
X52937Y10187D2*
D28*
Y10337D1*
X53287Y10437D2*
D24*
X52587D1*
X53287Y12937D2*
X52587D1*
X52937Y13037D2*
D28*
Y13187D1*
G36*
X55317Y10437D2*
X55557D1*
Y10337D1*
X55317D1*
Y10437D1*
G37*
G36*
Y13037D2*
X55557D1*
Y12937D1*
X55317D1*
Y13037D1*
G37*
X55437Y10187D2*
D28*
Y10337D1*
X55787Y10437D2*
D24*
X55087D1*
X55787Y12937D2*
X55087D1*
X55437Y13037D2*
D28*
Y13187D1*
G36*
X55187Y19567D2*
X55287D1*
Y19807D1*
X55187D1*
Y19567D1*
G37*
G36*
X52587D2*
X52687D1*
Y19807D1*
X52587D1*
Y19567D1*
G37*
X55437Y19687D2*
D28*
X55287D1*
X55187Y20037D2*
D24*
Y19337D1*
X52687Y20037D2*
Y19337D1*
X52587Y19687D2*
D28*
X52437D1*
X54587Y40687D2*
D20*
Y45688D1*
X60787D2*
Y40687D1*
X58887Y29686D2*
X53387D1*
Y33186D1*
X58887D1*
Y29686D1*
G36*
X40314Y27048D2*
X40074D1*
Y26809D1*
X40314D1*
Y27048D1*
G37*
G36*
Y26048D2*
X40074D1*
Y25809D1*
X40314D1*
Y26048D1*
G37*
X54588Y45688D2*
D20*
X60787D1*
Y40686D2*
X54588D1*
M02*
