G04 DipTrace 2.3.1.0*
%INTopSilk.gbr*%
%MOIN*%
%ADD10C,0.0098*%
%ADD12C,0.003*%
%ADD39C,0.005*%
%ADD47C,0.0433*%
%ADD76C,0.0062*%
%ADD77C,0.0154*%
%ADD78C,0.0077*%
%ADD79C,0.0046*%
%FSLAX44Y44*%
G04*
G70*
G90*
G75*
G01*
%LNTopSilk*%
%LPD*%
X67512Y5057D2*
D10*
X64321D1*
X28927Y33896D2*
Y13768D1*
X60416Y14774D2*
Y12212D1*
X64916Y41340D2*
Y40711D1*
X64103Y41340D2*
Y40711D1*
X41679Y5708D2*
Y7524D1*
X22541Y37152D2*
Y29587D1*
X21416Y37277D2*
Y30087D1*
X62959Y12928D2*
X65824D1*
X31412Y16334D2*
Y20275D1*
X53899Y23178D2*
X49959D1*
X55649Y30428D2*
X49959D1*
X55649Y28178D2*
X49959D1*
X49834Y25678D2*
X53899D1*
X54304Y20833D2*
Y20149D1*
X53899Y20553D2*
X49834D1*
X63217Y27428D2*
X65399D1*
X11946Y15455D2*
X11437Y15965D1*
X12127Y15678D2*
X21149D1*
X12006Y38178D2*
X12709D1*
X12304Y37774D2*
Y18833D1*
X64209Y29928D2*
X67149D1*
X64637Y11307D2*
X59071D1*
X44166Y5346D2*
Y8777D1*
X49791Y10527D2*
Y5958D1*
X48916Y10527D2*
Y5958D1*
X48834Y32303D2*
X56899D1*
X41041Y12152D2*
Y6958D1*
X58291Y6087D2*
Y13152D1*
X49554Y41399D2*
Y39833D1*
X50992Y41649D2*
Y40083D1*
X58149Y16572D2*
X51352D1*
X54209Y15928D2*
X66149D1*
X21149Y14428D2*
X14959D1*
X48959Y31053D2*
X51399D1*
X49959Y31678D2*
X52024D1*
X62209Y11928D2*
X63399D1*
X15002Y13303D2*
X21149D1*
X38084Y20428D2*
X41524D1*
X21554Y25524D2*
Y22208D1*
X49103Y39047D2*
Y38810D1*
X49221Y38928D2*
X48985D1*
X46804D2*
G02X46804Y38928I1000J0D01*
G01*
X41954Y40128D2*
Y38729D1*
X43154Y40128D2*
Y38729D1*
X41954D2*
G03X43154Y38729I600J-1D01*
G01*
Y40128D2*
G03X41954Y40128I-600J1D01*
G01*
X34554Y9950D2*
X38554D1*
Y6603D1*
X34554D1*
Y9950D1*
Y9979D2*
G02X36554Y9979I1000J-750D01*
G01*
G02X38554Y9979I1000J-750D01*
G01*
X10630Y27689D2*
X4331D1*
Y20193D1*
X10630D1*
Y27689D1*
X9192D2*
Y20189D1*
X6630Y27689D2*
Y20173D1*
X5630Y27689D2*
Y20173D1*
X7630Y25814D2*
G02X7630Y25814I750J0D01*
G01*
X7567Y22064D2*
G02X7567Y22064I750J0D01*
G01*
X5255Y26690D2*
X4568D1*
Y25065D1*
X5255D1*
Y26690D1*
Y22627D2*
X4568D1*
Y21002D1*
X5255D1*
Y22627D1*
X10630Y35186D2*
X4331D1*
Y27689D1*
X10630D1*
Y35186D1*
X9192D2*
Y27686D1*
X6630Y35186D2*
Y27669D1*
X5630Y35186D2*
Y27669D1*
X7630Y33311D2*
G02X7630Y33311I750J0D01*
G01*
X7567Y29561D2*
G02X7567Y29561I750J0D01*
G01*
X5255Y34186D2*
X4568D1*
Y32561D1*
X5255D1*
Y34186D1*
Y30123D2*
X4568D1*
Y28498D1*
X5255D1*
Y30123D1*
X10630Y42682D2*
X4331D1*
Y35186D1*
X10630D1*
Y42682D1*
X9192D2*
Y35182D1*
X6630Y42682D2*
Y35165D1*
X5630Y42682D2*
Y35165D1*
X7630Y40807D2*
G02X7630Y40807I750J0D01*
G01*
X7567Y37057D2*
G02X7567Y37057I750J0D01*
G01*
X5255Y41682D2*
X4568D1*
Y40057D1*
X5255D1*
Y41682D1*
Y37620D2*
X4568D1*
Y35995D1*
X5255D1*
Y37620D1*
X10630Y20193D2*
X4331D1*
Y12697D1*
X10630D1*
Y20193D1*
X9192D2*
Y12693D1*
X6630Y20193D2*
Y12676D1*
X5630Y20193D2*
Y12676D1*
X7630Y18318D2*
G02X7630Y18318I750J0D01*
G01*
X7567Y14568D2*
G02X7567Y14568I750J0D01*
G01*
X5255Y19193D2*
X4568D1*
Y17568D1*
X5255D1*
Y19193D1*
Y15131D2*
X4568D1*
Y13505D1*
X5255D1*
Y15131D1*
X10630Y12697D2*
X4331D1*
Y5200D1*
X10630D1*
Y12697D1*
X9192D2*
Y5197D1*
X6630Y12697D2*
Y5180D1*
X5630Y12697D2*
Y5180D1*
X7630Y10822D2*
G02X7630Y10822I750J0D01*
G01*
X7567Y7072D2*
G02X7567Y7072I750J0D01*
G01*
X5255Y11697D2*
X4568D1*
Y10072D1*
X5255D1*
Y11697D1*
Y7634D2*
X4568D1*
Y6009D1*
X5255D1*
Y7634D1*
X29804Y9950D2*
X33804D1*
Y6603D1*
X29804D1*
Y9950D1*
Y9979D2*
G02X31804Y9979I1000J-750D01*
G01*
G02X33804Y9979I1000J-750D01*
G01*
X17804Y10200D2*
X21804D1*
Y6853D1*
X17804D1*
Y10200D1*
Y10229D2*
G02X19804Y10229I1000J-750D01*
G01*
G02X21804Y10229I1000J-750D01*
G01*
X13179Y10200D2*
X17179D1*
Y6853D1*
X13179D1*
Y10200D1*
Y10229D2*
G02X15179Y10229I1000J-750D01*
G01*
G02X17179Y10229I1000J-750D01*
G01*
X20554Y37007D2*
X16554D1*
Y40353D1*
X20554D1*
Y37007D1*
Y36978D2*
G02X18554Y36978I-1000J750D01*
G01*
G02X16554Y36978I-1000J750D01*
G01*
X37804Y38907D2*
X33804D1*
Y42253D1*
X37804D1*
Y38907D1*
Y38878D2*
G02X35804Y38878I-1000J750D01*
G01*
G02X33804Y38878I-1000J750D01*
G01*
X32554Y38907D2*
X28554D1*
Y42253D1*
X32554D1*
Y38907D1*
Y38878D2*
G02X30554Y38878I-1000J750D01*
G01*
G02X28554Y38878I-1000J750D01*
G01*
X65331Y16197D2*
Y22197D1*
X64331Y16197D2*
Y22197D1*
X65331Y16197D2*
X64331D1*
X65331Y22197D2*
X64331D1*
X12992Y15178D2*
X11992D1*
X12992Y11178D2*
Y15178D1*
X11992Y11178D2*
Y15178D1*
X12992Y11178D2*
X11992D1*
X14554Y41678D2*
X13554D1*
X14554Y37678D2*
Y41678D1*
X13554Y37678D2*
Y41678D1*
X14554Y37678D2*
X13554D1*
X26742Y11116D2*
X23198D1*
Y4817D1*
X26742D1*
Y11116D1*
X22117Y41616D2*
X28416D1*
Y38073D1*
X22117D1*
Y41616D1*
X20804Y11178D2*
Y12178D1*
X18804Y11178D2*
X20804D1*
X18804D2*
Y12178D1*
X20804D1*
X20489Y17331D2*
X20292Y17134D1*
Y17527D2*
X20095Y17331D1*
X20292Y17134D1*
X20119Y18179D2*
G02X20119Y18179I1140J0D01*
G01*
X38630Y24980D2*
X41304D1*
X38630Y23877D2*
X41304D1*
X38630D2*
Y24980D1*
X41304Y23877D2*
Y24980D1*
X52854Y23877D2*
X50180D1*
X52854Y24980D2*
X50180D1*
X52854D2*
Y23877D1*
X50180Y24980D2*
Y23877D1*
X41229Y26377D2*
X38555D1*
X41229Y27480D2*
X38555D1*
X41229D2*
Y26377D1*
X38555Y27480D2*
Y26377D1*
X50255Y27480D2*
X52929D1*
X50255Y26377D2*
X52929D1*
X50255D2*
Y27480D1*
X52929Y26377D2*
Y27480D1*
X38630Y29980D2*
X41304D1*
X38630Y28877D2*
X41304D1*
X38630D2*
Y29980D1*
X41304Y28877D2*
Y29980D1*
X52929Y28877D2*
X50255D1*
X52929Y29980D2*
X50255D1*
X52929D2*
Y28877D1*
X50255Y29980D2*
Y28877D1*
X41229Y21377D2*
X38555D1*
X41229Y22480D2*
X38555D1*
X41229D2*
Y21377D1*
X38555Y22480D2*
Y21377D1*
X50180Y22480D2*
X52854D1*
X50180Y21377D2*
X52854D1*
X50180D2*
Y22480D1*
X52854Y21377D2*
Y22480D1*
X23855Y14978D2*
Y12304D1*
X22753Y14978D2*
Y12304D1*
Y14978D2*
X23855D1*
X22753Y12304D2*
X23855D1*
X24717Y18017D2*
X27391D1*
X24717Y16915D2*
X27391D1*
X24717D2*
Y18017D1*
X27391Y16915D2*
Y18017D1*
X41229Y18627D2*
X38555D1*
X41229Y19730D2*
X38555D1*
X41229D2*
Y18627D1*
X38555Y19730D2*
Y18627D1*
X50180Y19730D2*
X52854D1*
X50180Y18627D2*
X52854D1*
X50180D2*
Y19730D1*
X52854Y18627D2*
Y19730D1*
X62829Y18197D2*
X60833D1*
Y19197D2*
Y18197D1*
X62829Y19197D2*
X60833D1*
X62829D2*
Y18197D1*
Y16197D2*
X60833D1*
Y17197D2*
Y16197D1*
X62829Y17197D2*
X60833D1*
X62829D2*
Y16197D1*
X33462Y11440D2*
X30788D1*
X33462Y12542D2*
X30788D1*
X33462D2*
Y11440D1*
X30788Y12542D2*
Y11440D1*
X27100Y12616D2*
Y11616D1*
X29100Y12616D2*
X27100D1*
X29100D2*
Y11616D1*
X27100D1*
X62772Y29155D2*
X58835D1*
Y31202D2*
Y29155D1*
X62772Y31202D2*
X58835D1*
X62772D2*
Y30415D1*
Y29155D2*
Y29942D1*
Y30415D2*
G03X62772Y29942I0J-236D01*
G01*
X64666Y38432D2*
Y39432D1*
X62666Y38432D2*
X64666D1*
X62666D2*
Y39432D1*
X64666D1*
X55304Y35178D2*
X30304D1*
X55304Y33178D2*
X30304D1*
X55304Y35178D2*
Y33178D1*
X30304Y35178D2*
Y33178D1*
X55304Y15178D2*
X30304D1*
X55304Y13178D2*
X30304D1*
X55304Y15178D2*
Y13178D1*
X30304Y15178D2*
Y13178D1*
X66346Y23927D2*
X58315D1*
Y25974D2*
Y23927D1*
X66346Y25974D2*
X58315D1*
X66346D2*
Y25187D1*
Y23927D2*
Y24715D1*
Y25187D2*
G03X66346Y24715I0J-236D01*
G01*
X64666Y37432D2*
Y38432D1*
X62666Y37432D2*
X64666D1*
X62666D2*
Y38432D1*
X64666D1*
X62554Y10553D2*
X61554D1*
X62554Y6553D2*
Y10553D1*
X61554Y6553D2*
Y10553D1*
X62554Y6553D2*
X61554D1*
X60304Y10554D2*
X59304D1*
X60304Y6554D2*
Y10554D1*
X59304Y6554D2*
Y10554D1*
X60304Y6554D2*
X59304D1*
X48429Y8804D2*
X47429D1*
X48429Y4804D2*
Y8804D1*
X47429Y4804D2*
Y8804D1*
X48429Y4804D2*
X47429D1*
X51304Y8803D2*
X50304D1*
X51304Y4803D2*
Y8803D1*
X50304Y4803D2*
Y8803D1*
X51304Y4803D2*
X50304D1*
X55554Y10553D2*
Y4553D1*
X56554Y10553D2*
Y4553D1*
X55554Y10553D2*
X56554D1*
X55554Y4553D2*
X56554D1*
X53054Y10553D2*
Y4553D1*
X54054Y10553D2*
Y4553D1*
X53054Y10553D2*
X54054D1*
X53054Y4553D2*
X54054D1*
X52554Y38178D2*
X58554D1*
X52554Y39178D2*
X58554D1*
X52554Y38178D2*
Y39178D1*
X58554Y38178D2*
Y39178D1*
X52554Y39928D2*
X58554D1*
X52554Y40928D2*
X58554D1*
X52554Y39928D2*
Y40928D1*
X58554Y39928D2*
Y40928D1*
X62304Y39178D2*
Y40178D1*
X60304Y39178D2*
X62304D1*
X60304D2*
Y40178D1*
X62304D1*
Y41178D1*
X60304Y40178D2*
X62304D1*
X60304D2*
Y41178D1*
X62304D1*
Y42178D1*
X60304Y41178D2*
X62304D1*
X60304D2*
Y42178D1*
X62304D1*
Y38178D2*
Y39178D1*
X60304Y38178D2*
X62304D1*
X60304D2*
Y39178D1*
X62304D1*
X66166Y37557D2*
X67166D1*
X66166Y41557D2*
Y37557D1*
X67166Y41557D2*
Y37557D1*
X66166Y41557D2*
X67166D1*
X65729Y6303D2*
X66729D1*
X65729Y10303D2*
Y6303D1*
X66729Y10303D2*
Y6303D1*
X65729Y10303D2*
X66729D1*
X43586Y42741D2*
X47523D1*
Y40970D1*
X43586D1*
Y42741D1*
Y42387D2*
X47523D1*
X40541Y8807D2*
X39541D1*
X40541Y4807D2*
Y8807D1*
X39541Y4807D2*
Y8807D1*
X40541Y4807D2*
X39541D1*
X45804Y8803D2*
X44804D1*
X45804Y4803D2*
Y8803D1*
X44804Y4803D2*
Y8803D1*
X45804Y4803D2*
X44804D1*
X43554Y8804D2*
X42554D1*
X43554Y4804D2*
Y8804D1*
X42554Y4804D2*
Y8804D1*
X43554Y4804D2*
X42554D1*
X41554Y10553D2*
Y9553D1*
X45554Y10553D2*
X41554D1*
X45554Y9553D2*
X41554D1*
X45554Y10553D2*
Y9553D1*
X53304Y42553D2*
Y41553D1*
X57304Y42553D2*
X53304D1*
X57304Y41553D2*
X53304D1*
X57304Y42553D2*
Y41553D1*
X29099Y10304D2*
Y11304D1*
X27099Y10304D2*
X29099D1*
X27099D2*
Y11304D1*
X29099D1*
X23004Y20528D2*
D39*
X27604D1*
Y37328D1*
X23004D1*
Y20528D1*
X19381Y33347D2*
X14781D1*
Y16547D1*
X19381D1*
Y33347D1*
X47853Y40452D2*
D76*
X47892Y40471D1*
X47949Y40528D1*
Y40127D1*
X48188Y40528D2*
X48130Y40509D1*
X48092Y40452D1*
X48073Y40356D1*
Y40299D1*
X48092Y40203D1*
X48130Y40146D1*
X48188Y40127D1*
X48226D1*
X48283Y40146D1*
X48321Y40203D1*
X48341Y40299D1*
Y40356D1*
X48321Y40452D1*
X48283Y40509D1*
X48226Y40528D1*
X48188D1*
X48321Y40452D2*
X48092Y40203D1*
X48464Y40395D2*
Y40203D1*
X48483Y40146D1*
X48522Y40127D1*
X48579D1*
X48617Y40146D1*
X48675Y40203D1*
Y40395D2*
Y40127D1*
X49047Y40529D2*
X48798D1*
Y40127D1*
Y40337D2*
X48951D1*
X36340Y5055D2*
X36512D1*
X36569Y5074D1*
X36589Y5094D1*
X36608Y5132D1*
Y5189D1*
X36589Y5227D1*
X36569Y5247D1*
X36512Y5266D1*
X36340D1*
Y4864D1*
X37018Y5170D2*
X36999Y5208D1*
X36961Y5247D1*
X36923Y5266D1*
X36846D1*
X36808Y5247D1*
X36770Y5208D1*
X36750Y5170D1*
X36731Y5113D1*
Y5017D1*
X36750Y4960D1*
X36770Y4921D1*
X36808Y4883D1*
X36846Y4864D1*
X36923D1*
X36961Y4883D1*
X36999Y4921D1*
X37018Y4960D1*
X11197Y23421D2*
Y23593D1*
X11177Y23651D1*
X11158Y23670D1*
X11120Y23689D1*
X11082D1*
X11044Y23670D1*
X11024Y23651D1*
X11005Y23593D1*
Y23421D1*
X11407D1*
X11197Y23555D2*
X11407Y23689D1*
X11005Y24061D2*
Y23813D1*
X11407D1*
Y24061D1*
X11197Y23813D2*
Y23966D1*
X11101Y24472D2*
X11063Y24453D1*
X11024Y24414D1*
X11005Y24376D1*
Y24300D1*
X11024Y24261D1*
X11063Y24223D1*
X11101Y24204D1*
X11158Y24185D1*
X11254D1*
X11311Y24204D1*
X11350Y24223D1*
X11388Y24261D1*
X11407Y24300D1*
Y24376D1*
X11388Y24414D1*
X11350Y24453D1*
X11311Y24472D1*
X11254D1*
Y24376D1*
X11082Y24595D2*
X11063Y24634D1*
X11006Y24691D1*
X11407D1*
X11072Y30831D2*
Y31003D1*
X11052Y31061D1*
X11033Y31080D1*
X10995Y31099D1*
X10957D1*
X10919Y31080D1*
X10899Y31061D1*
X10880Y31003D1*
Y30831D1*
X11282D1*
X11072Y30965D2*
X11282Y31099D1*
X10880Y31471D2*
Y31223D1*
X11282D1*
Y31471D1*
X11072Y31223D2*
Y31376D1*
X10976Y31882D2*
X10938Y31863D1*
X10899Y31824D1*
X10880Y31786D1*
Y31710D1*
X10899Y31671D1*
X10938Y31633D1*
X10976Y31614D1*
X11033Y31595D1*
X11129D1*
X11186Y31614D1*
X11225Y31633D1*
X11263Y31671D1*
X11282Y31710D1*
Y31786D1*
X11263Y31824D1*
X11225Y31863D1*
X11186Y31882D1*
X11129D1*
Y31786D1*
X10976Y32025D2*
X10957D1*
X10919Y32044D1*
X10900Y32063D1*
X10881Y32101D1*
Y32178D1*
X10900Y32216D1*
X10919Y32235D1*
X10957Y32254D1*
X10995D1*
X11034Y32235D1*
X11091Y32197D1*
X11282Y32005D1*
Y32273D1*
Y38568D2*
X10880D1*
X11282Y38415D1*
X10880Y38262D1*
X11282D1*
X11014Y38787D2*
X11033Y38749D1*
X11072Y38710D1*
X11129Y38691D1*
X11167D1*
X11225Y38710D1*
X11263Y38749D1*
X11282Y38787D1*
Y38844D1*
X11263Y38883D1*
X11225Y38921D1*
X11167Y38940D1*
X11129D1*
X11072Y38921D1*
X11033Y38883D1*
X11014Y38844D1*
Y38787D1*
X10880Y39121D2*
X11206D1*
X11263Y39140D1*
X11282Y39179D1*
Y39217D1*
X11014Y39064D2*
Y39198D1*
Y39436D2*
X11033Y39398D1*
X11072Y39359D1*
X11129Y39340D1*
X11167D1*
X11225Y39359D1*
X11263Y39398D1*
X11282Y39436D1*
Y39493D1*
X11263Y39532D1*
X11225Y39570D1*
X11167Y39589D1*
X11129D1*
X11072Y39570D1*
X11033Y39532D1*
X11014Y39493D1*
Y39436D1*
Y39713D2*
X11282D1*
X11129D2*
X11072Y39732D1*
X11033Y39770D1*
X11014Y39809D1*
Y39866D1*
X10957Y39990D2*
X10938Y40028D1*
X10881Y40086D1*
X11282D1*
Y15993D2*
X10880D1*
X11282Y15840D1*
X10880Y15687D1*
X11282D1*
X11014Y16212D2*
X11033Y16174D1*
X11072Y16135D1*
X11129Y16116D1*
X11167D1*
X11225Y16135D1*
X11263Y16174D1*
X11282Y16212D1*
Y16269D1*
X11263Y16308D1*
X11225Y16346D1*
X11167Y16365D1*
X11129D1*
X11072Y16346D1*
X11033Y16308D1*
X11014Y16269D1*
Y16212D1*
X10880Y16546D2*
X11206D1*
X11263Y16565D1*
X11282Y16604D1*
Y16642D1*
X11014Y16489D2*
Y16623D1*
Y16861D2*
X11033Y16823D1*
X11072Y16784D1*
X11129Y16765D1*
X11167D1*
X11225Y16784D1*
X11263Y16823D1*
X11282Y16861D1*
Y16918D1*
X11263Y16957D1*
X11225Y16995D1*
X11167Y17014D1*
X11129D1*
X11072Y16995D1*
X11033Y16957D1*
X11014Y16918D1*
Y16861D1*
Y17138D2*
X11282D1*
X11129D2*
X11072Y17157D1*
X11033Y17195D1*
X11014Y17234D1*
Y17291D1*
X10976Y17434D2*
X10957D1*
X10919Y17453D1*
X10900Y17472D1*
X10881Y17511D1*
Y17587D1*
X10900Y17625D1*
X10919Y17644D1*
X10957Y17664D1*
X10995D1*
X11034Y17644D1*
X11091Y17606D1*
X11282Y17415D1*
Y17683D1*
X11341Y8474D2*
Y8647D1*
X11322Y8704D1*
X11302Y8723D1*
X11264Y8742D1*
X11207D1*
X11169Y8723D1*
X11149Y8704D1*
X11130Y8647D1*
Y8474D1*
X11532D1*
X11226Y9153D2*
X11188Y9134D1*
X11149Y9095D1*
X11130Y9057D1*
Y8981D1*
X11149Y8942D1*
X11188Y8904D1*
X11226Y8885D1*
X11283Y8866D1*
X11379D1*
X11436Y8885D1*
X11475Y8904D1*
X11513Y8942D1*
X11532Y8981D1*
Y9057D1*
X11513Y9095D1*
X11475Y9134D1*
X11436Y9153D1*
X31408Y5170D2*
X31389Y5208D1*
X31351Y5247D1*
X31313Y5266D1*
X31236D1*
X31198Y5247D1*
X31160Y5208D1*
X31140Y5170D1*
X31121Y5113D1*
Y5017D1*
X31140Y4960D1*
X31160Y4921D1*
X31198Y4883D1*
X31236Y4864D1*
X31313D1*
X31351Y4883D1*
X31389Y4921D1*
X31408Y4960D1*
X31838Y4864D2*
X31685Y5266D1*
X31532Y4864D1*
X31589Y4998D2*
X31781D1*
X32268Y4864D2*
Y5266D1*
X32115Y4864D1*
X31962Y5266D1*
Y4864D1*
X32391Y5189D2*
X32430Y5208D1*
X32487Y5265D1*
Y4864D1*
X18197Y36156D2*
X18178Y36194D1*
X18140Y36233D1*
X18102Y36252D1*
X18025D1*
X17987Y36233D1*
X17949Y36194D1*
X17929Y36156D1*
X17910Y36099D1*
Y36003D1*
X17929Y35946D1*
X17949Y35907D1*
X17987Y35869D1*
X18025Y35850D1*
X18102D1*
X18140Y35869D1*
X18178Y35907D1*
X18197Y35946D1*
X18627Y35850D2*
X18474Y36252D1*
X18321Y35850D1*
X18378Y35984D2*
X18570D1*
X19057Y35850D2*
Y36252D1*
X18904Y35850D1*
X18751Y36252D1*
Y35850D1*
X19200Y36156D2*
Y36175D1*
X19219Y36213D1*
X19238Y36232D1*
X19276Y36251D1*
X19353D1*
X19391Y36232D1*
X19410Y36213D1*
X19429Y36175D1*
Y36137D1*
X19410Y36098D1*
X19372Y36041D1*
X19180Y35850D1*
X19448D1*
X63606Y19519D2*
X64008D1*
X63702Y19662D2*
X63683D1*
X63644Y19681D1*
X63625Y19700D1*
X63606Y19739D1*
Y19815D1*
X63625Y19853D1*
X63644Y19872D1*
X63683Y19892D1*
X63721D1*
X63759Y19872D1*
X63816Y19834D1*
X64008Y19643D1*
Y19911D1*
X63701Y20321D2*
X63663Y20302D1*
X63625Y20264D1*
X63606Y20226D1*
Y20149D1*
X63625Y20111D1*
X63663Y20073D1*
X63701Y20053D1*
X63759Y20034D1*
X63855D1*
X63912Y20053D1*
X63950Y20073D1*
X63988Y20111D1*
X64008Y20149D1*
Y20226D1*
X63988Y20264D1*
X63950Y20302D1*
X63912Y20321D1*
X63702Y20464D2*
X63683D1*
X63644Y20483D1*
X63625Y20502D1*
X63606Y20541D1*
Y20617D1*
X63625Y20655D1*
X63644Y20674D1*
X63683Y20694D1*
X63721D1*
X63759Y20674D1*
X63816Y20636D1*
X64008Y20445D1*
Y20713D1*
X64074Y20836D2*
Y21200D1*
X63606Y21323D2*
X63893D1*
X63950Y21342D1*
X63988Y21381D1*
X64008Y21438D1*
Y21476D1*
X63988Y21534D1*
X63950Y21572D1*
X63893Y21591D1*
X63606D1*
X63663Y21983D2*
X63625Y21945D1*
X63606Y21887D1*
Y21811D1*
X63625Y21753D1*
X63663Y21715D1*
X63701D1*
X63740Y21734D1*
X63759Y21753D1*
X63778Y21791D1*
X63816Y21906D1*
X63835Y21945D1*
X63855Y21964D1*
X63893Y21983D1*
X63950D1*
X63988Y21945D1*
X64008Y21887D1*
Y21811D1*
X63988Y21753D1*
X63950Y21715D1*
X63606Y22106D2*
X64008D1*
Y22279D1*
X63988Y22336D1*
X63969Y22355D1*
X63931Y22374D1*
X63874D1*
X63835Y22355D1*
X63816Y22336D1*
X63797Y22279D1*
X63778Y22336D1*
X63759Y22355D1*
X63721Y22374D1*
X63682D1*
X63644Y22355D1*
X63625Y22336D1*
X63606Y22279D1*
Y22106D1*
X63797D2*
Y22279D1*
X11668Y11430D2*
X11267D1*
X11668Y11277D1*
X11267Y11124D1*
X11668D1*
X11267Y11553D2*
X11668D1*
Y11687D1*
X11649Y11745D1*
X11611Y11783D1*
X11573Y11802D1*
X11515Y11821D1*
X11420D1*
X11362Y11802D1*
X11324Y11783D1*
X11286Y11745D1*
X11267Y11687D1*
Y11553D1*
Y12060D2*
X11286Y12002D1*
X11343Y11964D1*
X11439Y11945D1*
X11496D1*
X11592Y11964D1*
X11649Y12002D1*
X11668Y12060D1*
Y12098D1*
X11649Y12155D1*
X11592Y12193D1*
X11496Y12213D1*
X11439D1*
X11343Y12193D1*
X11286Y12155D1*
X11267Y12098D1*
Y12060D1*
X11343Y12193D2*
X11592Y11964D1*
X11267Y12375D2*
Y12585D1*
X11420Y12470D1*
Y12528D1*
X11439Y12566D1*
X11458Y12585D1*
X11515Y12604D1*
X11554D1*
X11611Y12585D1*
X11649Y12547D1*
X11668Y12489D1*
Y12432D1*
X11649Y12375D1*
X11630Y12356D1*
X11592Y12336D1*
X11735Y12728D2*
Y13091D1*
X11362Y13234D2*
X11343D1*
X11305Y13253D1*
X11286Y13272D1*
X11267Y13311D1*
Y13387D1*
X11286Y13425D1*
X11305Y13444D1*
X11343Y13464D1*
X11382D1*
X11420Y13444D1*
X11477Y13406D1*
X11668Y13215D1*
Y13483D1*
X13231Y39016D2*
X12829D1*
X13231Y38863D1*
X12829Y38710D1*
X13231D1*
X12829Y39140D2*
X13231D1*
Y39274D1*
X13212Y39331D1*
X13174Y39369D1*
X13135Y39388D1*
X13078Y39407D1*
X12982D1*
X12925Y39388D1*
X12887Y39369D1*
X12848Y39331D1*
X12829Y39274D1*
Y39140D1*
X12830Y39646D2*
X12849Y39588D1*
X12906Y39550D1*
X13002Y39531D1*
X13059D1*
X13154Y39550D1*
X13212Y39588D1*
X13231Y39646D1*
Y39684D1*
X13212Y39741D1*
X13154Y39779D1*
X13059Y39799D1*
X13002D1*
X12906Y39779D1*
X12849Y39741D1*
X12830Y39684D1*
Y39646D1*
X12906Y39779D2*
X13154Y39550D1*
X12830Y39961D2*
Y40171D1*
X12982Y40056D1*
Y40114D1*
X13002Y40152D1*
X13021Y40171D1*
X13078Y40190D1*
X13116D1*
X13174Y40171D1*
X13212Y40133D1*
X13231Y40075D1*
Y40018D1*
X13212Y39961D1*
X13193Y39942D1*
X13154Y39922D1*
X13297Y40314D2*
Y40677D1*
X12906Y40801D2*
X12887Y40839D1*
X12830Y40897D1*
X13231D1*
X19107Y12779D2*
Y12377D1*
X19279D1*
X19337Y12396D1*
X19356Y12415D1*
X19375Y12453D1*
Y12511D1*
X19356Y12549D1*
X19337Y12568D1*
X19279Y12587D1*
X19337Y12607D1*
X19356Y12626D1*
X19375Y12664D1*
Y12702D1*
X19356Y12740D1*
X19337Y12760D1*
X19279Y12779D1*
X19107D1*
Y12587D2*
X19279D1*
X19498Y12645D2*
Y12453D1*
X19517Y12396D1*
X19556Y12377D1*
X19613D1*
X19651Y12396D1*
X19709Y12453D1*
Y12645D2*
Y12377D1*
X19832Y12645D2*
X20043D1*
X19832Y12377D1*
X20043D1*
X20166Y12645D2*
X20377D1*
X20166Y12377D1*
X20377D1*
X19938Y19808D2*
Y19827D1*
X19957Y19866D1*
X19976Y19885D1*
X20015Y19904D1*
X20091D1*
X20129Y19885D1*
X20148Y19866D1*
X20168Y19827D1*
Y19789D1*
X20148Y19751D1*
X20110Y19694D1*
X19919Y19502D1*
X20187D1*
X20578Y19904D2*
Y19502D1*
X20310Y19904D1*
Y19502D1*
X20721Y19808D2*
Y19827D1*
X20740Y19866D1*
X20759Y19885D1*
X20798Y19904D1*
X20874D1*
X20912Y19885D1*
X20931Y19866D1*
X20951Y19827D1*
Y19789D1*
X20931Y19751D1*
X20893Y19694D1*
X20702Y19502D1*
X20970D1*
X21113Y19808D2*
Y19827D1*
X21132Y19866D1*
X21151Y19885D1*
X21189Y19904D1*
X21266D1*
X21304Y19885D1*
X21323Y19866D1*
X21342Y19827D1*
Y19789D1*
X21323Y19751D1*
X21285Y19694D1*
X21093Y19502D1*
X21361D1*
X21504Y19808D2*
Y19827D1*
X21523Y19866D1*
X21542Y19885D1*
X21581Y19904D1*
X21657D1*
X21695Y19885D1*
X21714Y19866D1*
X21734Y19827D1*
Y19789D1*
X21714Y19751D1*
X21676Y19694D1*
X21485Y19502D1*
X21753D1*
X21896Y19808D2*
Y19827D1*
X21915Y19866D1*
X21934Y19885D1*
X21972Y19904D1*
X22049D1*
X22087Y19885D1*
X22106Y19866D1*
X22125Y19827D1*
Y19789D1*
X22106Y19751D1*
X22068Y19694D1*
X21876Y19502D1*
X22144D1*
X22574D2*
X22421Y19904D1*
X22268Y19502D1*
X22325Y19636D2*
X22517D1*
X39427Y24577D2*
X39466Y24596D1*
X39523Y24653D1*
Y24252D1*
X39666Y24290D2*
X39647Y24271D1*
X39666Y24252D1*
X39685Y24271D1*
X39666Y24290D1*
X39828Y24558D2*
Y24577D1*
X39847Y24615D1*
X39866Y24634D1*
X39904Y24653D1*
X39981D1*
X40019Y24634D1*
X40038Y24615D1*
X40057Y24577D1*
Y24539D1*
X40038Y24500D1*
X40000Y24443D1*
X39809Y24252D1*
X40076D1*
X40506D2*
Y24653D1*
X40353Y24252D1*
X40200Y24653D1*
Y24252D1*
X50872Y24653D2*
X51082D1*
X50968Y24500D1*
X51025D1*
X51063Y24481D1*
X51082Y24462D1*
X51102Y24405D1*
Y24367D1*
X51082Y24309D1*
X51044Y24271D1*
X50987Y24252D1*
X50929D1*
X50872Y24271D1*
X50853Y24290D1*
X50834Y24328D1*
X51474Y24520D2*
X51455Y24462D1*
X51417Y24424D1*
X51359Y24405D1*
X51340D1*
X51283Y24424D1*
X51245Y24462D1*
X51225Y24520D1*
Y24539D1*
X51245Y24596D1*
X51283Y24634D1*
X51340Y24653D1*
X51359D1*
X51417Y24634D1*
X51455Y24596D1*
X51474Y24520D1*
Y24424D1*
X51455Y24328D1*
X51417Y24271D1*
X51359Y24252D1*
X51321D1*
X51264Y24271D1*
X51245Y24309D1*
X51713Y24653D2*
X51655Y24634D1*
X51617Y24577D1*
X51598Y24481D1*
Y24424D1*
X51617Y24328D1*
X51655Y24271D1*
X51713Y24252D1*
X51751D1*
X51808Y24271D1*
X51846Y24328D1*
X51866Y24424D1*
Y24481D1*
X51846Y24577D1*
X51808Y24634D1*
X51751Y24653D1*
X51713D1*
X51846Y24577D2*
X51617Y24328D1*
X51989Y24653D2*
Y24252D1*
X52181Y24520D2*
X51989Y24328D1*
X52066Y24405D2*
X52200Y24252D1*
X39352Y27077D2*
X39391Y27096D1*
X39448Y27153D1*
Y26752D1*
X39591Y26790D2*
X39572Y26771D1*
X39591Y26752D1*
X39610Y26771D1*
X39591Y26790D1*
X39753Y27058D2*
Y27077D1*
X39772Y27115D1*
X39791Y27134D1*
X39830Y27153D1*
X39906D1*
X39944Y27134D1*
X39963Y27115D1*
X39983Y27077D1*
Y27039D1*
X39963Y27000D1*
X39925Y26943D1*
X39734Y26752D1*
X40002D1*
X40431D2*
Y27153D1*
X40278Y26752D1*
X40125Y27153D1*
Y26752D1*
X50947Y27153D2*
X51157D1*
X51043Y27000D1*
X51100D1*
X51138Y26981D1*
X51157Y26962D1*
X51177Y26905D1*
Y26867D1*
X51157Y26809D1*
X51119Y26771D1*
X51062Y26752D1*
X51004D1*
X50947Y26771D1*
X50928Y26790D1*
X50909Y26828D1*
X51549Y27020D2*
X51530Y26962D1*
X51492Y26924D1*
X51434Y26905D1*
X51415D1*
X51358Y26924D1*
X51320Y26962D1*
X51300Y27020D1*
Y27039D1*
X51320Y27096D1*
X51358Y27134D1*
X51415Y27153D1*
X51434D1*
X51492Y27134D1*
X51530Y27096D1*
X51549Y27020D1*
Y26924D1*
X51530Y26828D1*
X51492Y26771D1*
X51434Y26752D1*
X51396D1*
X51339Y26771D1*
X51320Y26809D1*
X51787Y27153D2*
X51730Y27134D1*
X51692Y27077D1*
X51673Y26981D1*
Y26924D1*
X51692Y26828D1*
X51730Y26771D1*
X51787Y26752D1*
X51825D1*
X51883Y26771D1*
X51921Y26828D1*
X51940Y26924D1*
Y26981D1*
X51921Y27077D1*
X51883Y27134D1*
X51825Y27153D1*
X51787D1*
X51921Y27077D2*
X51692Y26828D1*
X52064Y27153D2*
Y26752D1*
X52255Y27020D2*
X52064Y26828D1*
X52140Y26905D2*
X52274Y26752D1*
X39427Y29577D2*
X39466Y29596D1*
X39523Y29653D1*
Y29252D1*
X39666Y29290D2*
X39647Y29271D1*
X39666Y29252D1*
X39685Y29271D1*
X39666Y29290D1*
X39828Y29558D2*
Y29577D1*
X39847Y29615D1*
X39866Y29634D1*
X39904Y29653D1*
X39981D1*
X40019Y29634D1*
X40038Y29615D1*
X40057Y29577D1*
Y29539D1*
X40038Y29500D1*
X40000Y29443D1*
X39809Y29252D1*
X40076D1*
X40506D2*
Y29653D1*
X40353Y29252D1*
X40200Y29653D1*
Y29252D1*
X50947Y29653D2*
X51157D1*
X51043Y29500D1*
X51100D1*
X51138Y29481D1*
X51157Y29462D1*
X51177Y29405D1*
Y29367D1*
X51157Y29309D1*
X51119Y29271D1*
X51062Y29252D1*
X51004D1*
X50947Y29271D1*
X50928Y29290D1*
X50909Y29328D1*
X51549Y29520D2*
X51530Y29462D1*
X51492Y29424D1*
X51434Y29405D1*
X51415D1*
X51358Y29424D1*
X51320Y29462D1*
X51300Y29520D1*
Y29539D1*
X51320Y29596D1*
X51358Y29634D1*
X51415Y29653D1*
X51434D1*
X51492Y29634D1*
X51530Y29596D1*
X51549Y29520D1*
Y29424D1*
X51530Y29328D1*
X51492Y29271D1*
X51434Y29252D1*
X51396D1*
X51339Y29271D1*
X51320Y29309D1*
X51787Y29653D2*
X51730Y29634D1*
X51692Y29577D1*
X51673Y29481D1*
Y29424D1*
X51692Y29328D1*
X51730Y29271D1*
X51787Y29252D1*
X51825D1*
X51883Y29271D1*
X51921Y29328D1*
X51940Y29424D1*
Y29481D1*
X51921Y29577D1*
X51883Y29634D1*
X51825Y29653D1*
X51787D1*
X51921Y29577D2*
X51692Y29328D1*
X52064Y29653D2*
Y29252D1*
X52255Y29520D2*
X52064Y29328D1*
X52140Y29405D2*
X52274Y29252D1*
X39352Y22077D2*
X39391Y22096D1*
X39448Y22153D1*
Y21752D1*
X39591Y21790D2*
X39572Y21771D1*
X39591Y21752D1*
X39610Y21771D1*
X39591Y21790D1*
X39753Y22058D2*
Y22077D1*
X39772Y22115D1*
X39791Y22134D1*
X39830Y22153D1*
X39906D1*
X39944Y22134D1*
X39963Y22115D1*
X39983Y22077D1*
Y22039D1*
X39963Y22000D1*
X39925Y21943D1*
X39734Y21752D1*
X40002D1*
X40431D2*
Y22153D1*
X40278Y21752D1*
X40125Y22153D1*
Y21752D1*
X50872Y22153D2*
X51082D1*
X50968Y22000D1*
X51025D1*
X51063Y21981D1*
X51082Y21962D1*
X51102Y21905D1*
Y21867D1*
X51082Y21809D1*
X51044Y21771D1*
X50987Y21752D1*
X50929D1*
X50872Y21771D1*
X50853Y21790D1*
X50834Y21828D1*
X51474Y22020D2*
X51455Y21962D1*
X51417Y21924D1*
X51359Y21905D1*
X51340D1*
X51283Y21924D1*
X51245Y21962D1*
X51225Y22020D1*
Y22039D1*
X51245Y22096D1*
X51283Y22134D1*
X51340Y22153D1*
X51359D1*
X51417Y22134D1*
X51455Y22096D1*
X51474Y22020D1*
Y21924D1*
X51455Y21828D1*
X51417Y21771D1*
X51359Y21752D1*
X51321D1*
X51264Y21771D1*
X51245Y21809D1*
X51713Y22153D2*
X51655Y22134D1*
X51617Y22077D1*
X51598Y21981D1*
Y21924D1*
X51617Y21828D1*
X51655Y21771D1*
X51713Y21752D1*
X51751D1*
X51808Y21771D1*
X51846Y21828D1*
X51866Y21924D1*
Y21981D1*
X51846Y22077D1*
X51808Y22134D1*
X51751Y22153D1*
X51713D1*
X51846Y22077D2*
X51617Y21828D1*
X51989Y22153D2*
Y21752D1*
X52181Y22020D2*
X51989Y21828D1*
X52066Y21905D2*
X52200Y21752D1*
X23156Y13230D2*
X23137Y13269D1*
X23080Y13326D1*
X23481D1*
X23080Y13565D2*
X23099Y13507D1*
X23156Y13469D1*
X23252Y13450D1*
X23309D1*
X23404Y13469D1*
X23462Y13507D1*
X23481Y13565D1*
Y13603D1*
X23462Y13660D1*
X23404Y13698D1*
X23309Y13718D1*
X23252D1*
X23156Y13698D1*
X23099Y13660D1*
X23080Y13603D1*
Y13565D1*
X23156Y13698D2*
X23404Y13469D1*
X23079Y13841D2*
X23481D1*
X23213Y14033D2*
X23404Y13841D1*
X23328Y13918D2*
X23481Y14052D1*
X25496Y17595D2*
Y17614D1*
X25515Y17652D1*
X25534Y17671D1*
X25572Y17690D1*
X25649D1*
X25687Y17671D1*
X25706Y17652D1*
X25725Y17614D1*
Y17576D1*
X25706Y17537D1*
X25668Y17480D1*
X25476Y17289D1*
X25744D1*
X25887Y17327D2*
X25868Y17308D1*
X25887Y17289D1*
X25906Y17308D1*
X25887Y17327D1*
X26049Y17595D2*
Y17614D1*
X26068Y17652D1*
X26087Y17671D1*
X26126Y17690D1*
X26202D1*
X26240Y17671D1*
X26259Y17652D1*
X26279Y17614D1*
Y17576D1*
X26259Y17537D1*
X26221Y17480D1*
X26030Y17289D1*
X26298D1*
X26421Y17691D2*
Y17289D1*
X26613Y17557D2*
X26421Y17365D1*
X26498Y17442D2*
X26632Y17289D1*
X39352Y19327D2*
X39391Y19346D1*
X39448Y19403D1*
Y19002D1*
X39591Y19040D2*
X39572Y19021D1*
X39591Y19002D1*
X39610Y19021D1*
X39591Y19040D1*
X39753Y19308D2*
Y19327D1*
X39772Y19365D1*
X39791Y19384D1*
X39830Y19403D1*
X39906D1*
X39944Y19384D1*
X39963Y19365D1*
X39983Y19327D1*
Y19289D1*
X39963Y19250D1*
X39925Y19193D1*
X39734Y19002D1*
X40002D1*
X40431D2*
Y19403D1*
X40278Y19002D1*
X40125Y19403D1*
Y19002D1*
X50872Y19403D2*
X51082D1*
X50968Y19250D1*
X51025D1*
X51063Y19231D1*
X51082Y19212D1*
X51102Y19155D1*
Y19117D1*
X51082Y19059D1*
X51044Y19021D1*
X50987Y19002D1*
X50929D1*
X50872Y19021D1*
X50853Y19040D1*
X50834Y19078D1*
X51474Y19270D2*
X51455Y19212D1*
X51417Y19174D1*
X51359Y19155D1*
X51340D1*
X51283Y19174D1*
X51245Y19212D1*
X51225Y19270D1*
Y19289D1*
X51245Y19346D1*
X51283Y19384D1*
X51340Y19403D1*
X51359D1*
X51417Y19384D1*
X51455Y19346D1*
X51474Y19270D1*
Y19174D1*
X51455Y19078D1*
X51417Y19021D1*
X51359Y19002D1*
X51321D1*
X51264Y19021D1*
X51245Y19059D1*
X51713Y19403D2*
X51655Y19384D1*
X51617Y19327D1*
X51598Y19231D1*
Y19174D1*
X51617Y19078D1*
X51655Y19021D1*
X51713Y19002D1*
X51751D1*
X51808Y19021D1*
X51846Y19078D1*
X51866Y19174D1*
Y19231D1*
X51846Y19327D1*
X51808Y19384D1*
X51751Y19403D1*
X51713D1*
X51846Y19327D2*
X51617Y19078D1*
X51989Y19403D2*
Y19002D1*
X52181Y19270D2*
X51989Y19078D1*
X52066Y19155D2*
X52200Y19002D1*
X61435Y18520D2*
Y18921D1*
X61244Y18654D1*
X61530D1*
X61673Y18558D2*
X61654Y18539D1*
X61673Y18520D1*
X61692Y18539D1*
X61673Y18558D1*
X61892Y18520D2*
X62084Y18921D1*
X61816D1*
X62207Y18922D2*
Y18520D1*
X62399Y18788D2*
X62207Y18596D1*
X62284Y18673D2*
X62418Y18520D1*
X61435Y16520D2*
Y16921D1*
X61244Y16654D1*
X61530D1*
X61673Y16558D2*
X61654Y16539D1*
X61673Y16520D1*
X61692Y16539D1*
X61673Y16558D1*
X61892Y16520D2*
X62084Y16921D1*
X61816D1*
X62207Y16922D2*
Y16520D1*
X62399Y16788D2*
X62207Y16596D1*
X62284Y16673D2*
X62418Y16520D1*
X31910Y12139D2*
X31949Y12159D1*
X32006Y12216D1*
Y11814D1*
X32130Y12216D2*
Y11814D1*
X32321Y12082D2*
X32130Y11891D1*
X32206Y11967D2*
X32340Y11814D1*
X27127Y13159D2*
X27089Y13197D1*
X27032Y13216D1*
X26955D1*
X26898Y13197D1*
X26859Y13159D1*
Y13121D1*
X26879Y13082D1*
X26898Y13063D1*
X26936Y13044D1*
X27051Y13006D1*
X27089Y12987D1*
X27108Y12968D1*
X27127Y12930D1*
Y12872D1*
X27089Y12834D1*
X27032Y12815D1*
X26955D1*
X26898Y12834D1*
X26859Y12872D1*
X27385Y13216D2*
Y12815D1*
X27251Y13216D2*
X27519D1*
X27757D2*
X27719Y13197D1*
X27681Y13159D1*
X27661Y13121D1*
X27642Y13063D1*
Y12968D1*
X27661Y12910D1*
X27681Y12872D1*
X27719Y12834D1*
X27757Y12815D1*
X27834D1*
X27872Y12834D1*
X27910Y12872D1*
X27929Y12910D1*
X27948Y12968D1*
Y13063D1*
X27929Y13121D1*
X27910Y13159D1*
X27872Y13197D1*
X27834Y13216D1*
X27757D1*
X28072Y13006D2*
X28244D1*
X28301Y13025D1*
X28321Y13044D1*
X28340Y13082D1*
Y13140D1*
X28321Y13178D1*
X28301Y13197D1*
X28244Y13216D1*
X28072D1*
Y12815D1*
X59324Y30403D2*
Y30001D1*
X59190Y30403D2*
X59458D1*
X59582D2*
Y30001D1*
X59811D1*
X60222Y30308D2*
X60203Y30346D1*
X60164Y30384D1*
X60126Y30403D1*
X60050D1*
X60011Y30384D1*
X59973Y30346D1*
X59954Y30308D1*
X59935Y30250D1*
Y30154D1*
X59954Y30097D1*
X59973Y30059D1*
X60011Y30021D1*
X60050Y30001D1*
X60126D1*
X60164Y30021D1*
X60203Y30059D1*
X60222Y30097D1*
X60365Y30307D2*
Y30326D1*
X60384Y30365D1*
X60403Y30384D1*
X60441Y30403D1*
X60518D1*
X60556Y30384D1*
X60575Y30365D1*
X60594Y30326D1*
Y30288D1*
X60575Y30250D1*
X60537Y30193D1*
X60345Y30001D1*
X60613D1*
X60813D2*
X61005Y30403D1*
X60737D1*
X61128Y30326D2*
X61167Y30346D1*
X61224Y30403D1*
Y30001D1*
X61348Y30403D2*
Y30001D1*
X61520D1*
X61578Y30021D1*
X61597Y30040D1*
X61616Y30078D1*
Y30135D1*
X61597Y30174D1*
X61578Y30193D1*
X61520Y30212D1*
X61578Y30231D1*
X61597Y30250D1*
X61616Y30288D1*
Y30327D1*
X61597Y30365D1*
X61578Y30384D1*
X61520Y30403D1*
X61348D1*
Y30212D2*
X61520D1*
X62026Y30308D2*
X62007Y30346D1*
X61969Y30384D1*
X61931Y30403D1*
X61854D1*
X61816Y30384D1*
X61778Y30346D1*
X61758Y30308D1*
X61739Y30250D1*
Y30154D1*
X61758Y30097D1*
X61778Y30059D1*
X61816Y30021D1*
X61854Y30001D1*
X61931D1*
X61969Y30021D1*
X62007Y30059D1*
X62026Y30097D1*
X62150Y30193D2*
X62322D1*
X62379Y30212D1*
X62399Y30231D1*
X62418Y30269D1*
Y30327D1*
X62399Y30365D1*
X62379Y30384D1*
X62322Y30403D1*
X62150D1*
Y30001D1*
X64977Y38818D2*
Y39220D1*
X64824Y38818D1*
X64671Y39220D1*
Y38818D1*
X65101Y39086D2*
Y38894D1*
X65120Y38837D1*
X65158Y38818D1*
X65216D1*
X65254Y38837D1*
X65311Y38894D1*
Y39086D2*
Y38818D1*
X65435Y39086D2*
X65645Y38818D1*
Y39086D2*
X65435Y38818D1*
X65998Y39219D2*
X65807D1*
X65788Y39047D1*
X65807Y39066D1*
X65865Y39086D1*
X65922D1*
X65979Y39066D1*
X66018Y39028D1*
X66037Y38971D1*
Y38933D1*
X66018Y38875D1*
X65979Y38837D1*
X65922Y38818D1*
X65865D1*
X65807Y38837D1*
X65788Y38856D1*
X65769Y38894D1*
X60502Y25176D2*
Y24774D1*
X60770Y25176D2*
Y24774D1*
X60502Y24984D2*
X60770D1*
X61181Y25080D2*
X61162Y25118D1*
X61123Y25157D1*
X61085Y25176D1*
X61009D1*
X60970Y25157D1*
X60932Y25118D1*
X60913Y25080D1*
X60894Y25023D1*
Y24927D1*
X60913Y24870D1*
X60932Y24831D1*
X60970Y24793D1*
X61009Y24774D1*
X61085D1*
X61123Y24793D1*
X61162Y24831D1*
X61181Y24870D1*
X61553Y25176D2*
X61304D1*
Y24774D1*
Y24984D2*
X61457D1*
X61868Y24774D2*
Y25175D1*
X61677Y24908D1*
X61964D1*
X62202Y25175D2*
X62145Y25156D1*
X62106Y25099D1*
X62087Y25003D1*
Y24946D1*
X62106Y24850D1*
X62145Y24793D1*
X62202Y24774D1*
X62240D1*
X62298Y24793D1*
X62336Y24850D1*
X62355Y24946D1*
Y25003D1*
X62336Y25099D1*
X62298Y25156D1*
X62240Y25175D1*
X62202D1*
X62336Y25099D2*
X62106Y24850D1*
X62708Y25175D2*
X62517D1*
X62498Y25003D1*
X62517Y25022D1*
X62575Y25042D1*
X62632D1*
X62689Y25022D1*
X62728Y24984D1*
X62747Y24927D1*
Y24889D1*
X62728Y24831D1*
X62689Y24793D1*
X62632Y24774D1*
X62575D1*
X62517Y24793D1*
X62498Y24812D1*
X62479Y24850D1*
X62870Y25099D2*
X62909Y25118D1*
X62966Y25175D1*
Y24774D1*
X63090Y25176D2*
Y24774D1*
X63262D1*
X63320Y24793D1*
X63339Y24812D1*
X63358Y24850D1*
Y24908D1*
X63339Y24946D1*
X63320Y24965D1*
X63262Y24984D1*
X63320Y25004D1*
X63339Y25023D1*
X63358Y25061D1*
Y25099D1*
X63339Y25137D1*
X63320Y25157D1*
X63262Y25176D1*
X63090D1*
Y24984D2*
X63262D1*
X63730Y25176D2*
X63481D1*
Y24774D1*
X63730D1*
X63481Y24984D2*
X63634D1*
X63853Y25176D2*
X64006Y24984D1*
Y24774D1*
X64159Y25176D2*
X64006Y24984D1*
X64987Y37755D2*
Y38157D1*
X64834Y37755D1*
X64681Y38157D1*
Y37755D1*
X65111Y38023D2*
Y37832D1*
X65130Y37775D1*
X65168Y37755D1*
X65225D1*
X65264Y37775D1*
X65321Y37832D1*
Y38023D2*
Y37755D1*
X65445Y38023D2*
X65655Y37755D1*
Y38023D2*
X65445Y37755D1*
X66008Y38100D2*
X65989Y38138D1*
X65931Y38157D1*
X65893D1*
X65836Y38138D1*
X65798Y38080D1*
X65778Y37985D1*
Y37889D1*
X65798Y37813D1*
X65836Y37774D1*
X65893Y37755D1*
X65912D1*
X65970Y37774D1*
X66008Y37813D1*
X66027Y37870D1*
Y37889D1*
X66008Y37947D1*
X65970Y37985D1*
X65912Y38004D1*
X65893D1*
X65836Y37985D1*
X65798Y37947D1*
X65778Y37889D1*
X59678Y6139D2*
Y5737D1*
X59821Y6043D2*
Y6062D1*
X59840Y6101D1*
X59859Y6120D1*
X59898Y6139D1*
X59974D1*
X60012Y6120D1*
X60031Y6101D1*
X60051Y6062D1*
Y6024D1*
X60031Y5986D1*
X59993Y5929D1*
X59802Y5737D1*
X60070D1*
X60480Y6044D2*
X60461Y6082D1*
X60423Y6120D1*
X60385Y6139D1*
X60308D1*
X60270Y6120D1*
X60232Y6082D1*
X60212Y6044D1*
X60193Y5986D1*
Y5890D1*
X60212Y5833D1*
X60232Y5795D1*
X60270Y5757D1*
X60308Y5737D1*
X60385D1*
X60423Y5757D1*
X60461Y5795D1*
X60480Y5833D1*
X60623Y6043D2*
Y6062D1*
X60642Y6101D1*
X60661Y6120D1*
X60700Y6139D1*
X60776D1*
X60814Y6120D1*
X60833Y6101D1*
X60853Y6062D1*
Y6024D1*
X60833Y5986D1*
X60795Y5929D1*
X60604Y5737D1*
X60872D1*
X60995Y5671D2*
X61359D1*
X61712Y6139D2*
X61521D1*
X61502Y5967D1*
X61521Y5986D1*
X61578Y6005D1*
X61635D1*
X61693Y5986D1*
X61731Y5948D1*
X61750Y5890D1*
Y5852D1*
X61731Y5795D1*
X61693Y5756D1*
X61635Y5737D1*
X61578D1*
X61521Y5756D1*
X61502Y5776D1*
X61482Y5814D1*
X61874Y6139D2*
X62027Y5737D1*
X62180Y6139D1*
X47863Y4514D2*
Y4112D1*
X48006Y4418D2*
Y4437D1*
X48025Y4476D1*
X48044Y4495D1*
X48082Y4514D1*
X48159D1*
X48197Y4495D1*
X48216Y4476D1*
X48235Y4437D1*
Y4399D1*
X48216Y4361D1*
X48178Y4304D1*
X47986Y4112D1*
X48254D1*
X48665Y4419D2*
X48646Y4457D1*
X48607Y4495D1*
X48569Y4514D1*
X48493D1*
X48454Y4495D1*
X48416Y4457D1*
X48397Y4419D1*
X48378Y4361D1*
Y4265D1*
X48397Y4208D1*
X48416Y4170D1*
X48454Y4132D1*
X48493Y4112D1*
X48569D1*
X48607Y4132D1*
X48646Y4170D1*
X48665Y4208D1*
X48788Y4437D2*
X48827Y4457D1*
X48884Y4514D1*
Y4112D1*
X49008Y4046D2*
X49371D1*
X49533Y4514D2*
X49743D1*
X49629Y4361D1*
X49686D1*
X49724Y4342D1*
X49743Y4323D1*
X49763Y4265D1*
Y4227D1*
X49743Y4170D1*
X49705Y4131D1*
X49648Y4112D1*
X49590D1*
X49533Y4131D1*
X49514Y4151D1*
X49495Y4189D1*
X49905Y4151D2*
X49886Y4131D1*
X49905Y4112D1*
X49925Y4131D1*
X49905Y4151D1*
X50087Y4514D2*
X50297D1*
X50182Y4361D1*
X50240D1*
X50278Y4342D1*
X50297Y4323D1*
X50316Y4265D1*
Y4227D1*
X50297Y4170D1*
X50259Y4131D1*
X50201Y4112D1*
X50144D1*
X50087Y4131D1*
X50068Y4151D1*
X50048Y4189D1*
X50440Y4514D2*
X50593Y4112D1*
X50745Y4514D1*
X56762Y9721D2*
X56723Y9683D1*
X56704Y9625D1*
Y9549D1*
X56723Y9491D1*
X56762Y9453D1*
X56800D1*
X56838Y9472D1*
X56857Y9491D1*
X56876Y9529D1*
X56915Y9644D1*
X56934Y9683D1*
X56953Y9702D1*
X56991Y9721D1*
X57049D1*
X57087Y9683D1*
X57106Y9625D1*
Y9549D1*
X57087Y9491D1*
X57049Y9453D1*
X56915Y9844D2*
Y10017D1*
X56896Y10074D1*
X56876Y10093D1*
X56838Y10112D1*
X56781D1*
X56743Y10093D1*
X56723Y10074D1*
X56704Y10017D1*
Y9844D1*
X57106D1*
X56704Y10236D2*
X57106D1*
X56705Y10398D2*
Y10608D1*
X56857Y10493D1*
Y10551D1*
X56877Y10589D1*
X56896Y10608D1*
X56953Y10627D1*
X56991D1*
X57049Y10608D1*
X57087Y10570D1*
X57106Y10512D1*
Y10455D1*
X57087Y10398D1*
X57068Y10379D1*
X57029Y10359D1*
X56781Y10751D2*
X56762Y10789D1*
X56705Y10846D1*
X57106D1*
X57172Y10970D2*
Y11333D1*
X56705Y11686D2*
Y11495D1*
X56877Y11476D1*
X56857Y11495D1*
X56838Y11553D1*
Y11610D1*
X56857Y11667D1*
X56896Y11706D1*
X56953Y11725D1*
X56991D1*
X57049Y11706D1*
X57087Y11667D1*
X57106Y11610D1*
Y11553D1*
X57087Y11495D1*
X57068Y11476D1*
X57029Y11457D1*
X56704Y11848D2*
X57106Y12001D1*
X56704Y12154D1*
X54449Y9572D2*
X54411Y9534D1*
X54392Y9477D1*
Y9400D1*
X54411Y9343D1*
X54449Y9304D1*
X54487D1*
X54526Y9324D1*
X54545Y9343D1*
X54564Y9381D1*
X54602Y9496D1*
X54621Y9534D1*
X54641Y9553D1*
X54679Y9572D1*
X54736D1*
X54774Y9534D1*
X54794Y9477D1*
Y9400D1*
X54774Y9343D1*
X54736Y9304D1*
X54602Y9696D2*
Y9868D1*
X54583Y9925D1*
X54564Y9945D1*
X54526Y9964D1*
X54468D1*
X54430Y9945D1*
X54411Y9925D1*
X54392Y9868D1*
Y9696D1*
X54794D1*
X54392Y10087D2*
X54794D1*
X54392Y10249D2*
Y10459D1*
X54545Y10345D1*
Y10402D1*
X54564Y10440D1*
X54583Y10459D1*
X54641Y10479D1*
X54679D1*
X54736Y10459D1*
X54775Y10421D1*
X54794Y10364D1*
Y10306D1*
X54775Y10249D1*
X54755Y10230D1*
X54717Y10211D1*
X54488Y10621D2*
X54469D1*
X54430Y10640D1*
X54411Y10659D1*
X54392Y10698D1*
Y10774D1*
X54411Y10812D1*
X54430Y10831D1*
X54469Y10851D1*
X54507D1*
X54545Y10831D1*
X54602Y10793D1*
X54794Y10602D1*
Y10870D1*
X54860Y10993D2*
Y11357D1*
X54392Y11710D2*
Y11519D1*
X54564Y11500D1*
X54545Y11519D1*
X54526Y11576D1*
Y11633D1*
X54545Y11691D1*
X54583Y11729D1*
X54641Y11748D1*
X54679D1*
X54736Y11729D1*
X54775Y11691D1*
X54794Y11633D1*
Y11576D1*
X54775Y11519D1*
X54755Y11500D1*
X54717Y11480D1*
X54392Y11872D2*
X54794Y12025D1*
X54392Y12178D1*
X51694Y39596D2*
X51656Y39635D1*
X51599Y39654D1*
X51522D1*
X51465Y39635D1*
X51426Y39596D1*
Y39558D1*
X51446Y39520D1*
X51465Y39501D1*
X51503Y39482D1*
X51618Y39443D1*
X51656Y39424D1*
X51675Y39405D1*
X51694Y39367D1*
Y39309D1*
X51656Y39271D1*
X51599Y39252D1*
X51522D1*
X51465Y39271D1*
X51426Y39309D1*
X51818Y39443D2*
X51990D1*
X52047Y39462D1*
X52067Y39482D1*
X52086Y39520D1*
Y39577D1*
X52067Y39615D1*
X52047Y39635D1*
X51990Y39654D1*
X51818D1*
Y39252D1*
X52209Y39654D2*
Y39252D1*
X52352Y39558D2*
Y39577D1*
X52371Y39615D1*
X52390Y39634D1*
X52429Y39653D1*
X52505D1*
X52543Y39634D1*
X52562Y39615D1*
X52582Y39577D1*
Y39539D1*
X52562Y39500D1*
X52524Y39443D1*
X52333Y39252D1*
X52601D1*
X52724Y39577D2*
X52763Y39596D1*
X52820Y39653D1*
Y39252D1*
X52944Y39185D2*
X53307D1*
X53469Y39653D2*
X53679D1*
X53565Y39500D1*
X53622D1*
X53660Y39481D1*
X53679Y39462D1*
X53699Y39405D1*
Y39367D1*
X53679Y39309D1*
X53641Y39271D1*
X53584Y39252D1*
X53526D1*
X53469Y39271D1*
X53450Y39290D1*
X53431Y39328D1*
X53841Y39290D2*
X53822Y39271D1*
X53841Y39252D1*
X53861Y39271D1*
X53841Y39290D1*
X54022Y39653D2*
X54233D1*
X54118Y39500D1*
X54175D1*
X54214Y39481D1*
X54233Y39462D1*
X54252Y39405D1*
Y39367D1*
X54233Y39309D1*
X54194Y39271D1*
X54137Y39252D1*
X54080D1*
X54022Y39271D1*
X54003Y39290D1*
X53984Y39328D1*
X54375Y39654D2*
X54528Y39252D1*
X54681Y39654D1*
X51546Y41346D2*
X51508Y41385D1*
X51450Y41404D1*
X51374D1*
X51316Y41385D1*
X51278Y41346D1*
Y41308D1*
X51297Y41270D1*
X51316Y41251D1*
X51354Y41232D1*
X51469Y41193D1*
X51508Y41174D1*
X51527Y41155D1*
X51546Y41117D1*
Y41059D1*
X51508Y41021D1*
X51450Y41002D1*
X51374D1*
X51316Y41021D1*
X51278Y41059D1*
X51669Y41193D2*
X51842D1*
X51899Y41212D1*
X51918Y41232D1*
X51937Y41270D1*
Y41327D1*
X51918Y41365D1*
X51899Y41385D1*
X51842Y41404D1*
X51669D1*
Y41002D1*
X52061Y41404D2*
Y41002D1*
X52204Y41308D2*
Y41327D1*
X52223Y41365D1*
X52242Y41384D1*
X52280Y41403D1*
X52357D1*
X52395Y41384D1*
X52414Y41365D1*
X52433Y41327D1*
Y41289D1*
X52414Y41250D1*
X52376Y41193D1*
X52184Y41002D1*
X52452D1*
X52595Y41308D2*
Y41327D1*
X52614Y41365D1*
X52633Y41384D1*
X52672Y41403D1*
X52748D1*
X52786Y41384D1*
X52805Y41365D1*
X52825Y41327D1*
Y41289D1*
X52805Y41250D1*
X52767Y41193D1*
X52576Y41002D1*
X52844D1*
X52967Y40935D2*
X53331D1*
X53493Y41403D2*
X53703D1*
X53588Y41250D1*
X53646D1*
X53684Y41231D1*
X53703Y41212D1*
X53722Y41155D1*
Y41117D1*
X53703Y41059D1*
X53665Y41021D1*
X53607Y41002D1*
X53550D1*
X53493Y41021D1*
X53474Y41040D1*
X53454Y41078D1*
X53865Y41040D2*
X53846Y41021D1*
X53865Y41002D1*
X53884Y41021D1*
X53865Y41040D1*
X54046Y41403D2*
X54256D1*
X54141Y41250D1*
X54199D1*
X54237Y41231D1*
X54256Y41212D1*
X54275Y41155D1*
Y41117D1*
X54256Y41059D1*
X54218Y41021D1*
X54161Y41002D1*
X54103D1*
X54046Y41021D1*
X54027Y41040D1*
X54008Y41078D1*
X54399Y41404D2*
X54552Y41002D1*
X54705Y41404D1*
X62562Y39564D2*
X62409Y39966D1*
X62256Y39564D1*
X62313Y39698D2*
X62505D1*
X62686Y39966D2*
Y39564D1*
X62820D1*
X62877Y39583D1*
X62916Y39621D1*
X62935Y39660D1*
X62954Y39717D1*
Y39813D1*
X62935Y39870D1*
X62916Y39908D1*
X62877Y39947D1*
X62820Y39966D1*
X62686D1*
X63364Y39870D2*
X63345Y39908D1*
X63307Y39947D1*
X63269Y39966D1*
X63192D1*
X63154Y39947D1*
X63116Y39908D1*
X63096Y39870D1*
X63077Y39813D1*
Y39717D1*
X63096Y39660D1*
X63116Y39621D1*
X63154Y39583D1*
X63192Y39564D1*
X63269D1*
X63307Y39583D1*
X63345Y39621D1*
X63364Y39660D1*
X63488Y39889D2*
X63526Y39908D1*
X63584Y39965D1*
Y39564D1*
X63707Y39498D2*
X64071D1*
X64194Y39966D2*
Y39564D1*
X64586Y39966D2*
Y39564D1*
X64318Y39966D1*
Y39564D1*
X64729Y39870D2*
Y39889D1*
X64748Y39927D1*
X64767Y39946D1*
X64805Y39965D1*
X64882D1*
X64920Y39946D1*
X64939Y39927D1*
X64958Y39889D1*
Y39851D1*
X64939Y39812D1*
X64901Y39755D1*
X64709Y39564D1*
X64977D1*
X57750Y41002D2*
X57597Y41403D1*
X57444Y41002D1*
X57501Y41136D2*
X57692D1*
X57873Y41403D2*
Y41002D1*
X58007D1*
X58065Y41021D1*
X58103Y41059D1*
X58122Y41098D1*
X58141Y41155D1*
Y41250D1*
X58122Y41308D1*
X58103Y41346D1*
X58065Y41384D1*
X58007Y41403D1*
X57873D1*
X58552Y41308D2*
X58533Y41346D1*
X58494Y41384D1*
X58456Y41403D1*
X58380D1*
X58341Y41384D1*
X58303Y41346D1*
X58284Y41308D1*
X58265Y41250D1*
Y41155D1*
X58284Y41098D1*
X58303Y41059D1*
X58341Y41021D1*
X58380Y41002D1*
X58456D1*
X58494Y41021D1*
X58533Y41059D1*
X58552Y41098D1*
X58695Y41308D2*
Y41327D1*
X58714Y41365D1*
X58733Y41384D1*
X58771Y41403D1*
X58848D1*
X58886Y41384D1*
X58905Y41365D1*
X58924Y41327D1*
Y41289D1*
X58905Y41250D1*
X58867Y41193D1*
X58675Y41002D1*
X58943D1*
X59067Y40935D2*
X59430D1*
X59554Y41403D2*
Y41002D1*
X59945Y41403D2*
Y41002D1*
X59677Y41403D1*
Y41002D1*
X60069Y41327D2*
X60107Y41346D1*
X60165Y41403D1*
Y41002D1*
X60312Y42439D2*
X60159Y42841D1*
X60006Y42439D1*
X60064Y42573D2*
X60255D1*
X60436Y42841D2*
Y42439D1*
X60570D1*
X60627Y42459D1*
X60666Y42497D1*
X60685Y42535D1*
X60704Y42592D1*
Y42688D1*
X60685Y42745D1*
X60666Y42784D1*
X60627Y42822D1*
X60570Y42841D1*
X60436D1*
X61114Y42745D2*
X61095Y42784D1*
X61057Y42822D1*
X61019Y42841D1*
X60942D1*
X60904Y42822D1*
X60866Y42784D1*
X60846Y42745D1*
X60827Y42688D1*
Y42592D1*
X60846Y42535D1*
X60866Y42497D1*
X60904Y42459D1*
X60942Y42439D1*
X61019D1*
X61057Y42459D1*
X61095Y42497D1*
X61114Y42535D1*
X61276Y42841D2*
X61486D1*
X61372Y42688D1*
X61429D1*
X61467Y42669D1*
X61486Y42650D1*
X61506Y42592D1*
Y42554D1*
X61486Y42497D1*
X61448Y42458D1*
X61391Y42439D1*
X61333D1*
X61276Y42458D1*
X61257Y42478D1*
X61238Y42516D1*
X61629Y42373D2*
X61993D1*
X62116Y42841D2*
Y42439D1*
X62508Y42841D2*
Y42439D1*
X62240Y42841D1*
Y42439D1*
X62631Y42764D2*
X62670Y42784D1*
X62727Y42841D1*
Y42439D1*
X59967Y37627D2*
X59814Y38029D1*
X59661Y37627D1*
X59718Y37761D2*
X59910D1*
X60091Y38029D2*
Y37627D1*
X60225D1*
X60282Y37646D1*
X60320Y37684D1*
X60339Y37723D1*
X60358Y37780D1*
Y37876D1*
X60339Y37933D1*
X60320Y37971D1*
X60282Y38009D1*
X60225Y38029D1*
X60091D1*
X60769Y37933D2*
X60750Y37971D1*
X60711Y38009D1*
X60673Y38029D1*
X60597D1*
X60558Y38009D1*
X60520Y37971D1*
X60501Y37933D1*
X60482Y37876D1*
Y37780D1*
X60501Y37723D1*
X60520Y37684D1*
X60558Y37646D1*
X60597Y37627D1*
X60673D1*
X60711Y37646D1*
X60750Y37684D1*
X60769Y37723D1*
X61084Y37627D2*
Y38028D1*
X60892Y37761D1*
X61179D1*
X61303Y37560D2*
X61666D1*
X61790Y38029D2*
Y37627D1*
X62181Y38029D2*
Y37627D1*
X61913Y38029D1*
Y37627D1*
X62343Y38028D2*
X62553D1*
X62439Y37875D1*
X62496D1*
X62534Y37856D1*
X62553Y37837D1*
X62573Y37780D1*
Y37742D1*
X62553Y37684D1*
X62515Y37646D1*
X62458Y37627D1*
X62400D1*
X62343Y37646D1*
X62324Y37665D1*
X62305Y37703D1*
X43806Y40706D2*
Y40304D1*
X44036D1*
X44465D2*
Y40706D1*
X44312Y40304D1*
X44159Y40706D1*
Y40304D1*
X44608Y40610D2*
Y40629D1*
X44627Y40667D1*
X44646Y40686D1*
X44685Y40705D1*
X44761D1*
X44799Y40686D1*
X44818Y40667D1*
X44838Y40629D1*
Y40591D1*
X44818Y40552D1*
X44780Y40495D1*
X44589Y40304D1*
X44857D1*
X45229Y40572D2*
X45210Y40514D1*
X45172Y40476D1*
X45114Y40457D1*
X45095D1*
X45038Y40476D1*
X45000Y40514D1*
X44980Y40572D1*
Y40591D1*
X45000Y40648D1*
X45038Y40686D1*
X45095Y40705D1*
X45114D1*
X45172Y40686D1*
X45210Y40648D1*
X45229Y40572D1*
Y40476D1*
X45210Y40380D1*
X45172Y40323D1*
X45114Y40304D1*
X45076D1*
X45019Y40323D1*
X45000Y40361D1*
X45391Y40705D2*
X45601D1*
X45487Y40552D1*
X45544D1*
X45582Y40533D1*
X45601Y40514D1*
X45621Y40457D1*
Y40419D1*
X45601Y40361D1*
X45563Y40323D1*
X45506Y40304D1*
X45448D1*
X45391Y40323D1*
X45372Y40342D1*
X45353Y40380D1*
X45821Y40304D2*
X46012Y40705D1*
X45744D1*
X46136Y40504D2*
X46357D1*
X46519Y40705D2*
X46729D1*
X46614Y40552D1*
X46672D1*
X46710Y40533D1*
X46729Y40514D1*
X46748Y40457D1*
Y40419D1*
X46729Y40361D1*
X46691Y40323D1*
X46633Y40304D1*
X46576D1*
X46519Y40323D1*
X46500Y40342D1*
X46480Y40380D1*
X46891Y40342D2*
X46872Y40323D1*
X46891Y40304D1*
X46910Y40323D1*
X46891Y40342D1*
X47072Y40705D2*
X47282D1*
X47168Y40552D1*
X47225D1*
X47263Y40533D1*
X47282Y40514D1*
X47302Y40457D1*
Y40419D1*
X47282Y40361D1*
X47244Y40323D1*
X47187Y40304D1*
X47129D1*
X47072Y40323D1*
X47053Y40342D1*
X47034Y40380D1*
X38816Y5107D2*
X39103D1*
X39161Y5126D1*
X39199Y5165D1*
X39218Y5222D1*
Y5260D1*
X39199Y5318D1*
X39161Y5356D1*
X39103Y5375D1*
X38816D1*
X38874Y5767D2*
X38835Y5729D1*
X38816Y5671D1*
Y5595D1*
X38835Y5537D1*
X38874Y5499D1*
X38912D1*
X38950Y5518D1*
X38969Y5537D1*
X38988Y5575D1*
X39027Y5690D1*
X39046Y5729D1*
X39065Y5748D1*
X39103Y5767D1*
X39161D1*
X39199Y5729D1*
X39218Y5671D1*
Y5595D1*
X39199Y5537D1*
X39161Y5499D1*
X39218Y6197D2*
X38816Y6043D1*
X39218Y5890D1*
X39084Y5948D2*
Y6139D1*
X39008Y6320D2*
Y6492D1*
X38988Y6550D1*
X38969Y6569D1*
X38931Y6588D1*
X38893D1*
X38855Y6569D1*
X38835Y6550D1*
X38816Y6492D1*
Y6320D1*
X39218D1*
X39008Y6454D2*
X39218Y6588D1*
X38816Y6846D2*
X39218D1*
X38816Y6712D2*
Y6980D1*
X38893Y7103D2*
X38874Y7142D1*
X38817Y7199D1*
X39218D1*
X39285Y7323D2*
Y7686D1*
X38817Y8039D2*
Y7848D1*
X38989Y7829D1*
X38970Y7848D1*
X38950Y7905D1*
Y7962D1*
X38970Y8020D1*
X39008Y8058D1*
X39065Y8077D1*
X39103D1*
X39161Y8058D1*
X39199Y8020D1*
X39218Y7962D1*
Y7905D1*
X39199Y7848D1*
X39180Y7829D1*
X39142Y7809D1*
X38816Y8201D2*
X39218Y8354D1*
X38816Y8507D1*
X44329Y5018D2*
X44616D1*
X44674Y5037D1*
X44712Y5075D1*
X44731Y5133D1*
Y5171D1*
X44712Y5228D1*
X44674Y5267D1*
X44616Y5286D1*
X44329D1*
X44387Y5677D2*
X44348Y5639D1*
X44329Y5582D1*
Y5505D1*
X44348Y5448D1*
X44387Y5409D1*
X44425D1*
X44463Y5429D1*
X44482Y5448D1*
X44501Y5486D1*
X44540Y5601D1*
X44559Y5639D1*
X44578Y5658D1*
X44616Y5677D1*
X44674D1*
X44712Y5639D1*
X44731Y5582D1*
Y5505D1*
X44712Y5448D1*
X44674Y5409D1*
X44731Y6107D2*
X44329Y5954D1*
X44731Y5801D1*
X44597Y5858D2*
Y6049D1*
X44521Y6230D2*
Y6402D1*
X44501Y6460D1*
X44482Y6479D1*
X44444Y6498D1*
X44406D1*
X44368Y6479D1*
X44348Y6460D1*
X44329Y6402D1*
Y6230D1*
X44731D1*
X44521Y6364D2*
X44731Y6498D1*
X44329Y6756D2*
X44731D1*
X44329Y6622D2*
Y6890D1*
X44425Y7033D2*
X44406D1*
X44368Y7052D1*
X44349Y7071D1*
X44330Y7109D1*
Y7186D1*
X44349Y7224D1*
X44368Y7243D1*
X44406Y7262D1*
X44444D1*
X44482Y7243D1*
X44540Y7205D1*
X44731Y7013D1*
Y7281D1*
X44797Y7405D2*
Y7768D1*
X44330Y8121D2*
Y7930D1*
X44502Y7911D1*
X44482Y7930D1*
X44463Y7988D1*
Y8045D1*
X44482Y8102D1*
X44521Y8141D1*
X44578Y8160D1*
X44616D1*
X44674Y8141D1*
X44712Y8102D1*
X44731Y8045D1*
Y7988D1*
X44712Y7930D1*
X44693Y7911D1*
X44654Y7892D1*
X44329Y8283D2*
X44731Y8436D1*
X44329Y8589D1*
X41954Y5329D2*
X42241D1*
X42298Y5348D1*
X42336Y5386D1*
X42356Y5444D1*
Y5482D1*
X42336Y5539D1*
X42298Y5578D1*
X42241Y5597D1*
X41954D1*
X42356Y6027D2*
X41954Y5873D1*
X42356Y5720D1*
X42222Y5778D2*
Y5969D1*
X42145Y6150D2*
Y6322D1*
X42126Y6380D1*
X42107Y6399D1*
X42069Y6418D1*
X42030D1*
X41992Y6399D1*
X41973Y6380D1*
X41954Y6322D1*
Y6150D1*
X42356D1*
X42145Y6284D2*
X42356Y6418D1*
X41954Y6676D2*
X42356D1*
X41954Y6542D2*
Y6810D1*
X42356Y7125D2*
X41954D1*
X42222Y6933D1*
Y7220D1*
X42422Y7344D2*
Y7707D1*
X41954Y8060D2*
Y7869D1*
X42126Y7850D1*
X42107Y7869D1*
X42088Y7927D1*
Y7984D1*
X42107Y8041D1*
X42145Y8080D1*
X42203Y8099D1*
X42241D1*
X42298Y8080D1*
X42337Y8041D1*
X42356Y7984D1*
Y7927D1*
X42337Y7869D1*
X42317Y7850D1*
X42279Y7831D1*
X41954Y8222D2*
X42356Y8375D1*
X41954Y8528D1*
X42089Y11278D2*
Y10992D1*
X42108Y10934D1*
X42147Y10896D1*
X42204Y10877D1*
X42242D1*
X42300Y10896D1*
X42338Y10934D1*
X42357Y10992D1*
Y11278D1*
X42787Y10877D2*
X42633Y11278D1*
X42480Y10877D1*
X42538Y11011D2*
X42729D1*
X42910Y11087D2*
X43082D1*
X43140Y11106D1*
X43159Y11126D1*
X43178Y11164D1*
Y11202D1*
X43159Y11240D1*
X43140Y11259D1*
X43082Y11278D1*
X42910D1*
Y10877D1*
X43044Y11087D2*
X43178Y10877D1*
X43436Y11278D2*
Y10877D1*
X43302Y11278D2*
X43570D1*
X43923D2*
X43732D1*
X43713Y11106D1*
X43732Y11125D1*
X43789Y11145D1*
X43846D1*
X43904Y11125D1*
X43942Y11087D1*
X43961Y11030D1*
Y10992D1*
X43942Y10934D1*
X43904Y10896D1*
X43846Y10877D1*
X43789D1*
X43732Y10896D1*
X43713Y10915D1*
X43693Y10953D1*
X44085Y10810D2*
X44448D1*
X44801Y11278D2*
X44610D1*
X44591Y11106D1*
X44610Y11125D1*
X44668Y11145D1*
X44725D1*
X44782Y11125D1*
X44821Y11087D1*
X44840Y11030D1*
Y10992D1*
X44821Y10934D1*
X44782Y10896D1*
X44725Y10877D1*
X44668D1*
X44610Y10896D1*
X44591Y10915D1*
X44572Y10953D1*
X44963Y11278D2*
X45116Y10877D1*
X45269Y11278D1*
X49554Y43091D2*
Y42804D1*
X49573Y42747D1*
X49611Y42709D1*
X49669Y42689D1*
X49707D1*
X49764Y42709D1*
X49803Y42747D1*
X49822Y42804D1*
Y43091D1*
X50213Y43034D2*
X50175Y43072D1*
X50118Y43091D1*
X50041D1*
X49984Y43072D1*
X49945Y43034D1*
Y42995D1*
X49965Y42957D1*
X49984Y42938D1*
X50022Y42919D1*
X50137Y42881D1*
X50175Y42862D1*
X50194Y42842D1*
X50213Y42804D1*
Y42747D1*
X50175Y42709D1*
X50118Y42689D1*
X50041D1*
X49984Y42709D1*
X49945Y42747D1*
X50643Y42689D2*
X50490Y43091D1*
X50337Y42689D1*
X50394Y42823D2*
X50586D1*
X50767Y42900D2*
X50939D1*
X50996Y42919D1*
X51015Y42938D1*
X51034Y42976D1*
Y43015D1*
X51015Y43053D1*
X50996Y43072D1*
X50939Y43091D1*
X50767D1*
Y42689D1*
X50901Y42900D2*
X51034Y42689D1*
X51292Y43091D2*
Y42689D1*
X51158Y43091D2*
X51426D1*
X51588D2*
X51798D1*
X51683Y42938D1*
X51741D1*
X51779Y42919D1*
X51798Y42900D1*
X51817Y42842D1*
Y42804D1*
X51798Y42747D1*
X51760Y42708D1*
X51702Y42689D1*
X51645D1*
X51588Y42708D1*
X51569Y42728D1*
X51549Y42766D1*
X51941Y42623D2*
X52304D1*
X52466Y43091D2*
X52676D1*
X52562Y42938D1*
X52619D1*
X52657Y42919D1*
X52676Y42900D1*
X52696Y42842D1*
Y42804D1*
X52676Y42747D1*
X52638Y42708D1*
X52581Y42689D1*
X52523D1*
X52466Y42708D1*
X52447Y42728D1*
X52428Y42766D1*
X52838Y42728D2*
X52819Y42708D1*
X52838Y42689D1*
X52858Y42708D1*
X52838Y42728D1*
X53020Y43091D2*
X53230D1*
X53115Y42938D1*
X53173D1*
X53211Y42919D1*
X53230Y42900D1*
X53249Y42842D1*
Y42804D1*
X53230Y42747D1*
X53192Y42708D1*
X53134Y42689D1*
X53077D1*
X53020Y42708D1*
X53001Y42728D1*
X52981Y42766D1*
X53373Y43091D2*
X53526Y42689D1*
X53679Y43091D1*
X27241Y9971D2*
X27203Y10010D1*
X27145Y10029D1*
X27069D1*
X27011Y10010D1*
X26973Y9971D1*
Y9933D1*
X26992Y9895D1*
X27011Y9876D1*
X27049Y9857D1*
X27164Y9818D1*
X27203Y9799D1*
X27222Y9780D1*
X27241Y9742D1*
Y9684D1*
X27203Y9646D1*
X27145Y9627D1*
X27069D1*
X27011Y9646D1*
X26973Y9684D1*
X27498Y10029D2*
Y9627D1*
X27364Y10029D2*
X27632D1*
X28062Y9627D2*
Y10029D1*
X27909Y9627D1*
X27756Y10029D1*
Y9627D1*
X28185Y9818D2*
X28358D1*
X28415Y9837D1*
X28434Y9857D1*
X28453Y9895D1*
Y9952D1*
X28434Y9990D1*
X28415Y10010D1*
X28358Y10029D1*
X28185D1*
Y9627D1*
X28577Y10029D2*
X28673Y9627D1*
X28768Y10029D1*
X28864Y9627D1*
X28960Y10029D1*
X29083Y9837D2*
X29255D1*
X29313Y9857D1*
X29332Y9876D1*
X29351Y9914D1*
Y9952D1*
X29332Y9990D1*
X29313Y10010D1*
X29255Y10029D1*
X29083D1*
Y9627D1*
X29217Y9837D2*
X29351Y9627D1*
X24646Y20283D2*
X24818D1*
X24875Y20303D1*
X24895Y20322D1*
X24914Y20360D1*
Y20398D1*
X24895Y20436D1*
X24875Y20456D1*
X24818Y20475D1*
X24646D1*
Y20073D1*
X24780Y20283D2*
X24914Y20073D1*
X25286Y20475D2*
X25037D1*
Y20073D1*
X25286D1*
X25037Y20283D2*
X25190D1*
X25696Y20379D2*
X25677Y20417D1*
X25639Y20456D1*
X25601Y20475D1*
X25524D1*
X25486Y20456D1*
X25448Y20417D1*
X25428Y20379D1*
X25409Y20322D1*
Y20226D1*
X25428Y20169D1*
X25448Y20130D1*
X25486Y20092D1*
X25524Y20073D1*
X25601D1*
X25639Y20092D1*
X25677Y20130D1*
X25696Y20169D1*
Y20226D1*
X25601D1*
X25839Y20379D2*
Y20398D1*
X25858Y20436D1*
X25877Y20455D1*
X25915Y20474D1*
X25992D1*
X26030Y20455D1*
X26049Y20436D1*
X26068Y20398D1*
Y20360D1*
X26049Y20321D1*
X26011Y20264D1*
X25820Y20073D1*
X26087D1*
X25079Y25759D2*
X25481D1*
X25079Y26151D2*
X25481D1*
X25079Y25883D1*
X25481D1*
X25079Y26408D2*
X25481D1*
X25079Y26274D2*
Y26542D1*
Y26914D2*
Y26665D1*
X25481D1*
Y26914D1*
X25270Y26665D2*
Y26818D1*
X25174Y27324D2*
X25136Y27305D1*
X25098Y27267D1*
X25079Y27229D1*
Y27152D1*
X25098Y27114D1*
X25136Y27076D1*
X25174Y27057D1*
X25232Y27037D1*
X25328D1*
X25385Y27057D1*
X25423Y27076D1*
X25461Y27114D1*
X25481Y27152D1*
Y27229D1*
X25461Y27267D1*
X25423Y27305D1*
X25385Y27324D1*
X25328D1*
Y27229D1*
X25270Y27448D2*
Y27620D1*
X25251Y27677D1*
X25232Y27697D1*
X25194Y27716D1*
X25155D1*
X25117Y27697D1*
X25098Y27677D1*
X25079Y27620D1*
Y27448D1*
X25481D1*
X25270Y27582D2*
X25481Y27716D1*
Y28146D2*
X25079Y27992D1*
X25481Y27839D1*
X25347Y27897D2*
Y28088D1*
X25079Y28403D2*
X25481D1*
X25079Y28269D2*
Y28537D1*
Y28909D2*
Y28661D1*
X25481D1*
Y28909D1*
X25270Y28661D2*
Y28814D1*
X25079Y29033D2*
X25481D1*
Y29167D1*
X25461Y29224D1*
X25423Y29263D1*
X25385Y29282D1*
X25328Y29301D1*
X25232D1*
X25174Y29282D1*
X25136Y29263D1*
X25098Y29224D1*
X25079Y29167D1*
Y29033D1*
X25547Y29424D2*
Y29788D1*
X25079Y29911D2*
X25481D1*
Y30141D1*
Y30570D2*
X25079D1*
X25481Y30417D1*
X25079Y30264D1*
X25481D1*
X25175Y30713D2*
X25156D1*
X25117Y30732D1*
X25098Y30751D1*
X25079Y30790D1*
Y30866D1*
X25098Y30904D1*
X25117Y30923D1*
X25156Y30943D1*
X25194D1*
X25232Y30923D1*
X25289Y30885D1*
X25481Y30694D1*
Y30962D1*
X25079Y31315D2*
Y31124D1*
X25251Y31105D1*
X25232Y31124D1*
X25213Y31181D1*
Y31238D1*
X25232Y31296D1*
X25270Y31334D1*
X25328Y31353D1*
X25366D1*
X25423Y31334D1*
X25462Y31296D1*
X25481Y31238D1*
Y31181D1*
X25462Y31124D1*
X25442Y31105D1*
X25404Y31085D1*
X25213Y31726D2*
X25270Y31706D1*
X25309Y31668D1*
X25328Y31611D1*
Y31592D1*
X25309Y31534D1*
X25270Y31496D1*
X25213Y31477D1*
X25194D1*
X25136Y31496D1*
X25098Y31534D1*
X25079Y31592D1*
Y31611D1*
X25098Y31668D1*
X25136Y31706D1*
X25213Y31726D1*
X25309D1*
X25404Y31706D1*
X25462Y31668D1*
X25481Y31611D1*
Y31573D1*
X25462Y31515D1*
X25423Y31496D1*
X25136Y32079D2*
X25098Y32060D1*
X25079Y32002D1*
Y31964D1*
X25098Y31907D1*
X25156Y31868D1*
X25251Y31849D1*
X25347D1*
X25423Y31868D1*
X25462Y31907D1*
X25481Y31964D1*
Y31983D1*
X25462Y32040D1*
X25423Y32079D1*
X25366Y32098D1*
X25347D1*
X25289Y32079D1*
X25251Y32040D1*
X25232Y31983D1*
Y31964D1*
X25251Y31907D1*
X25289Y31868D1*
X25347Y31849D1*
X16446Y33741D2*
X16618D1*
X16675Y33761D1*
X16695Y33780D1*
X16714Y33818D1*
Y33856D1*
X16695Y33894D1*
X16675Y33914D1*
X16618Y33933D1*
X16446D1*
Y33531D1*
X16580Y33741D2*
X16714Y33531D1*
X17086Y33933D2*
X16837D1*
Y33531D1*
X17086D1*
X16837Y33741D2*
X16990D1*
X17496Y33837D2*
X17477Y33875D1*
X17439Y33914D1*
X17401Y33933D1*
X17324D1*
X17286Y33914D1*
X17248Y33875D1*
X17228Y33837D1*
X17209Y33780D1*
Y33684D1*
X17228Y33627D1*
X17248Y33588D1*
X17286Y33550D1*
X17324Y33531D1*
X17401D1*
X17439Y33550D1*
X17477Y33588D1*
X17496Y33627D1*
Y33684D1*
X17401D1*
X17620Y33856D2*
X17658Y33875D1*
X17716Y33932D1*
Y33531D1*
X16856Y21778D2*
X17258D1*
X16856Y22169D2*
X17258D1*
X16856Y21901D1*
X17258D1*
X16856Y22427D2*
X17258D1*
X16856Y22293D2*
Y22561D1*
Y22933D2*
Y22684D1*
X17258D1*
Y22933D1*
X17047Y22684D2*
Y22837D1*
X16951Y23343D2*
X16913Y23324D1*
X16875Y23286D1*
X16856Y23247D1*
Y23171D1*
X16875Y23133D1*
X16913Y23094D1*
X16951Y23075D1*
X17009Y23056D1*
X17105D1*
X17162Y23075D1*
X17200Y23094D1*
X17238Y23133D1*
X17258Y23171D1*
Y23247D1*
X17238Y23286D1*
X17200Y23324D1*
X17162Y23343D1*
X17105D1*
Y23247D1*
X17047Y23466D2*
Y23638D1*
X17028Y23696D1*
X17009Y23715D1*
X16971Y23734D1*
X16932D1*
X16894Y23715D1*
X16875Y23696D1*
X16856Y23638D1*
Y23466D1*
X17258D1*
X17047Y23600D2*
X17258Y23734D1*
Y24164D2*
X16856Y24011D1*
X17258Y23858D1*
X17124Y23915D2*
Y24107D1*
X16856Y24422D2*
X17258D1*
X16856Y24288D2*
Y24556D1*
Y24928D2*
Y24679D1*
X17258D1*
Y24928D1*
X17047Y24679D2*
Y24832D1*
X16856Y25051D2*
X17258D1*
Y25185D1*
X17238Y25243D1*
X17200Y25281D1*
X17162Y25300D1*
X17105Y25319D1*
X17009D1*
X16951Y25300D1*
X16913Y25281D1*
X16875Y25243D1*
X16856Y25185D1*
Y25051D1*
X17324Y25443D2*
Y25806D1*
X16856Y25930D2*
X17258D1*
Y26159D1*
Y26589D2*
X16856D1*
X17258Y26436D1*
X16856Y26283D1*
X17258D1*
X16952Y26732D2*
X16933D1*
X16894Y26751D1*
X16875Y26770D1*
X16856Y26808D1*
Y26885D1*
X16875Y26923D1*
X16894Y26942D1*
X16933Y26961D1*
X16971D1*
X17009Y26942D1*
X17066Y26904D1*
X17258Y26712D1*
Y26980D1*
X16856Y27333D2*
Y27142D1*
X17028Y27123D1*
X17009Y27142D1*
X16990Y27200D1*
Y27257D1*
X17009Y27314D1*
X17047Y27353D1*
X17105Y27372D1*
X17143D1*
X17200Y27353D1*
X17239Y27314D1*
X17258Y27257D1*
Y27200D1*
X17239Y27142D1*
X17219Y27123D1*
X17181Y27104D1*
X16990Y27744D2*
X17047Y27725D1*
X17086Y27687D1*
X17105Y27629D1*
Y27610D1*
X17086Y27553D1*
X17047Y27515D1*
X16990Y27495D1*
X16971D1*
X16913Y27515D1*
X16875Y27553D1*
X16856Y27610D1*
Y27629D1*
X16875Y27687D1*
X16913Y27725D1*
X16990Y27744D1*
X17086D1*
X17181Y27725D1*
X17239Y27687D1*
X17258Y27629D1*
Y27591D1*
X17239Y27534D1*
X17200Y27515D1*
X16913Y28097D2*
X16875Y28078D1*
X16856Y28021D1*
Y27983D1*
X16875Y27925D1*
X16933Y27887D1*
X17028Y27868D1*
X17124D1*
X17200Y27887D1*
X17239Y27925D1*
X17258Y27983D1*
Y28002D1*
X17239Y28059D1*
X17200Y28097D1*
X17143Y28116D1*
X17124D1*
X17066Y28097D1*
X17028Y28059D1*
X17009Y28002D1*
Y27983D1*
X17028Y27925D1*
X17066Y27887D1*
X17124Y27868D1*
X32167Y17537D2*
D47*
X34981D1*
X32167Y19412D2*
X34043Y17537D1*
X33371Y18205D2*
X34981Y19412D1*
Y22422D2*
X32167Y21348D1*
X34981Y20277D1*
X34043Y20679D2*
Y22019D1*
X32167Y23286D2*
X34176D1*
X34578Y23419D1*
X34845Y23689D1*
X34981Y24091D1*
Y24357D1*
X34845Y24760D1*
X34578Y25029D1*
X34176Y25162D1*
X32167D1*
Y26027D2*
X34981D1*
X32167Y26891D2*
X34981D1*
Y28498D1*
X45940Y8350D2*
D78*
X46155D1*
X46227Y8375D1*
X46251Y8398D1*
X46275Y8446D1*
Y8494D1*
X46251Y8542D1*
X46227Y8566D1*
X46155Y8590D1*
X45940D1*
Y8087D1*
X46108Y8350D2*
X46275Y8087D1*
X46430Y8422D2*
X46693Y8087D1*
Y8422D2*
X46430Y8087D1*
X46108Y7715D2*
Y7212D1*
X45940Y7715D2*
X46275D1*
X46430Y7547D2*
X46693Y7212D1*
Y7547D2*
X46430Y7212D1*
X46236Y6470D2*
X46213Y6518D1*
X46165Y6566D1*
X46117Y6590D1*
X46021D1*
X45973Y6566D1*
X45926Y6518D1*
X45902Y6470D1*
X45878Y6398D1*
Y6279D1*
X45902Y6207D1*
X45926Y6159D1*
X45973Y6112D1*
X46021Y6087D1*
X46117D1*
X46165Y6112D1*
X46213Y6159D1*
X46236Y6207D1*
Y6279D1*
X46117D1*
X46726Y6590D2*
Y6087D1*
X46391Y6590D1*
Y6087D1*
X46880Y6590D2*
Y6087D1*
X47048D1*
X47119Y6112D1*
X47168Y6159D1*
X47191Y6207D1*
X47215Y6279D1*
Y6398D1*
X47191Y6470D1*
X47168Y6518D1*
X47119Y6566D1*
X47048Y6590D1*
X46880D1*
X45878Y5527D2*
X46069Y5025D1*
X46260Y5527D1*
X46415D2*
Y5025D1*
X46582D1*
X46654Y5049D1*
X46702Y5097D1*
X46726Y5145D1*
X46750Y5216D1*
Y5336D1*
X46726Y5408D1*
X46702Y5455D1*
X46654Y5503D1*
X46582Y5527D1*
X46415D1*
X46904D2*
Y5025D1*
X47071D1*
X47143Y5049D1*
X47191Y5097D1*
X47215Y5145D1*
X47239Y5216D1*
Y5336D1*
X47215Y5408D1*
X47191Y5455D1*
X47143Y5503D1*
X47071Y5527D1*
X46904D1*
X51799Y8470D2*
X51775Y8518D1*
X51727Y8566D1*
X51680Y8590D1*
X51584D1*
X51536Y8566D1*
X51488Y8518D1*
X51464Y8470D1*
X51440Y8398D1*
Y8279D1*
X51464Y8207D1*
X51488Y8159D1*
X51536Y8112D1*
X51584Y8087D1*
X51680D1*
X51727Y8112D1*
X51775Y8159D1*
X51799Y8207D1*
Y8279D1*
X51680D1*
X52288Y8590D2*
Y8087D1*
X51953Y8590D1*
Y8087D1*
X52443Y8590D2*
Y8087D1*
X52610D1*
X52682Y8112D1*
X52730Y8159D1*
X52754Y8207D1*
X52778Y8279D1*
Y8398D1*
X52754Y8470D1*
X52730Y8518D1*
X52682Y8566D1*
X52610Y8590D1*
X52443D1*
X51775Y7455D2*
X51728Y7503D1*
X51656Y7527D1*
X51560D1*
X51488Y7503D1*
X51440Y7455D1*
Y7408D1*
X51465Y7360D1*
X51488Y7336D1*
X51536Y7312D1*
X51680Y7264D1*
X51728Y7240D1*
X51751Y7216D1*
X51775Y7168D1*
Y7097D1*
X51728Y7049D1*
X51656Y7025D1*
X51560D1*
X51488Y7049D1*
X51440Y7097D1*
X51930Y7527D2*
Y7025D1*
X52097D1*
X52169Y7049D1*
X52217Y7097D1*
X52241Y7145D1*
X52264Y7216D1*
Y7336D1*
X52241Y7408D1*
X52217Y7455D1*
X52169Y7503D1*
X52097Y7527D1*
X51930D1*
X52802Y7025D2*
X52610Y7527D1*
X52419Y7025D1*
X52491Y7192D2*
X52730D1*
X51775Y6455D2*
X51728Y6503D1*
X51656Y6527D1*
X51560D1*
X51488Y6503D1*
X51440Y6455D1*
Y6408D1*
X51465Y6360D1*
X51488Y6336D1*
X51536Y6312D1*
X51680Y6264D1*
X51728Y6240D1*
X51751Y6216D1*
X51775Y6168D1*
Y6097D1*
X51728Y6049D1*
X51656Y6025D1*
X51560D1*
X51488Y6049D1*
X51440Y6097D1*
X52288Y6408D2*
X52264Y6455D1*
X52216Y6503D1*
X52169Y6527D1*
X52073D1*
X52025Y6503D1*
X51978Y6455D1*
X51953Y6408D1*
X51930Y6336D1*
Y6216D1*
X51953Y6145D1*
X51978Y6097D1*
X52025Y6049D1*
X52073Y6025D1*
X52169D1*
X52216Y6049D1*
X52264Y6097D1*
X52288Y6145D1*
X52443Y6527D2*
Y6025D1*
X52730D1*
X51378Y5527D2*
X51569Y5025D1*
X51760Y5527D1*
X51915D2*
Y5025D1*
X52082D1*
X52154Y5049D1*
X52202Y5097D1*
X52226Y5145D1*
X52250Y5216D1*
Y5336D1*
X52226Y5408D1*
X52202Y5455D1*
X52154Y5503D1*
X52082Y5527D1*
X51915D1*
X52404D2*
Y5025D1*
X52571D1*
X52643Y5049D1*
X52691Y5097D1*
X52715Y5145D1*
X52739Y5216D1*
Y5336D1*
X52715Y5408D1*
X52691Y5455D1*
X52643Y5503D1*
X52571Y5527D1*
X52404D1*
X63175Y10220D2*
X63151Y10268D1*
X63103Y10316D1*
X63056Y10340D1*
X62960D1*
X62912Y10316D1*
X62865Y10268D1*
X62840Y10220D1*
X62816Y10149D1*
Y10029D1*
X62840Y9957D1*
X62865Y9909D1*
X62912Y9862D1*
X62960Y9837D1*
X63056D1*
X63103Y9862D1*
X63151Y9909D1*
X63175Y9957D1*
Y10029D1*
X63056D1*
X63664Y10340D2*
Y9837D1*
X63330Y10340D1*
Y9837D1*
X63819Y10340D2*
Y9837D1*
X63986D1*
X64058Y9862D1*
X64106Y9909D1*
X64130Y9957D1*
X64154Y10029D1*
Y10149D1*
X64130Y10220D1*
X64106Y10268D1*
X64058Y10316D1*
X63986Y10340D1*
X63819D1*
X63151Y9206D2*
X63104Y9254D1*
X63032Y9277D1*
X62936D1*
X62865Y9254D1*
X62816Y9206D1*
Y9158D1*
X62841Y9110D1*
X62865Y9086D1*
X62912Y9062D1*
X63056Y9014D1*
X63104Y8991D1*
X63128Y8966D1*
X63151Y8919D1*
Y8847D1*
X63104Y8799D1*
X63032Y8775D1*
X62936D1*
X62865Y8799D1*
X62816Y8847D1*
X63306Y9277D2*
Y8775D1*
X63473D1*
X63545Y8799D1*
X63593Y8847D1*
X63617Y8895D1*
X63641Y8966D1*
Y9086D1*
X63617Y9158D1*
X63593Y9206D1*
X63545Y9254D1*
X63473Y9277D1*
X63306D1*
X64178Y8775D2*
X63986Y9277D1*
X63795Y8775D1*
X63867Y8942D2*
X64106D1*
X63151Y8206D2*
X63104Y8254D1*
X63032Y8277D1*
X62936D1*
X62865Y8254D1*
X62816Y8206D1*
Y8158D1*
X62841Y8110D1*
X62865Y8086D1*
X62912Y8062D1*
X63056Y8014D1*
X63104Y7991D1*
X63128Y7966D1*
X63151Y7919D1*
Y7847D1*
X63104Y7799D1*
X63032Y7775D1*
X62936D1*
X62865Y7799D1*
X62816Y7847D1*
X63664Y8158D2*
X63641Y8206D1*
X63593Y8254D1*
X63545Y8277D1*
X63449D1*
X63401Y8254D1*
X63354Y8206D1*
X63330Y8158D1*
X63306Y8086D1*
Y7966D1*
X63330Y7895D1*
X63354Y7847D1*
X63401Y7799D1*
X63449Y7775D1*
X63545D1*
X63593Y7799D1*
X63641Y7847D1*
X63664Y7895D1*
X63819Y8277D2*
Y7775D1*
X64106D1*
X62754Y7277D2*
X62945Y6775D1*
X63136Y7277D1*
X63291D2*
Y6775D1*
X63458D1*
X63530Y6799D1*
X63578Y6847D1*
X63602Y6895D1*
X63626Y6966D1*
Y7086D1*
X63602Y7158D1*
X63578Y7206D1*
X63530Y7254D1*
X63458Y7277D1*
X63291D1*
X63780D2*
Y6775D1*
X63948D1*
X64019Y6799D1*
X64068Y6847D1*
X64091Y6895D1*
X64115Y6966D1*
Y7086D1*
X64091Y7158D1*
X64068Y7206D1*
X64019Y7254D1*
X63948Y7277D1*
X63780D1*
X67363Y9970D2*
X67339Y10018D1*
X67291Y10066D1*
X67244Y10090D1*
X67148D1*
X67100Y10066D1*
X67052Y10018D1*
X67028Y9970D1*
X67004Y9899D1*
Y9779D1*
X67028Y9707D1*
X67052Y9659D1*
X67100Y9612D1*
X67148Y9587D1*
X67244D1*
X67291Y9612D1*
X67339Y9659D1*
X67363Y9707D1*
Y9779D1*
X67244D1*
X67852Y10090D2*
Y9587D1*
X67517Y10090D1*
Y9587D1*
X68007Y10090D2*
Y9587D1*
X68174D1*
X68246Y9612D1*
X68294Y9659D1*
X68318Y9707D1*
X68342Y9779D1*
Y9899D1*
X68318Y9970D1*
X68294Y10018D1*
X68246Y10066D1*
X68174Y10090D1*
X68007D1*
X67004Y8027D2*
X67196Y7525D1*
X67387Y8027D1*
X67541D2*
Y7525D1*
X67709D1*
X67781Y7549D1*
X67829Y7597D1*
X67852Y7645D1*
X67876Y7716D1*
Y7836D1*
X67852Y7908D1*
X67829Y7956D1*
X67781Y8004D1*
X67709Y8027D1*
X67541D1*
X68031D2*
Y7525D1*
X68198D1*
X68270Y7549D1*
X68318Y7597D1*
X68342Y7645D1*
X68366Y7716D1*
Y7836D1*
X68342Y7908D1*
X68318Y7956D1*
X68270Y8004D1*
X68198Y8027D1*
X68031D1*
X67387Y8588D2*
X67196Y9090D1*
X67004Y8588D1*
X67076Y8755D2*
X67316D1*
X67004Y7152D2*
Y6650D1*
X67220D1*
X67292Y6674D1*
X67316Y6698D1*
X67339Y6746D1*
Y6817D1*
X67316Y6866D1*
X67292Y6889D1*
X67220Y6913D1*
X67292Y6937D1*
X67316Y6961D1*
X67339Y7009D1*
Y7057D1*
X67316Y7104D1*
X67292Y7129D1*
X67220Y7152D1*
X67004D1*
Y6913D2*
X67220D1*
X67738Y41224D2*
X67714Y41271D1*
X67666Y41319D1*
X67619Y41343D1*
X67523D1*
X67475Y41319D1*
X67427Y41271D1*
X67403Y41224D1*
X67379Y41152D1*
Y41032D1*
X67403Y40961D1*
X67427Y40913D1*
X67475Y40865D1*
X67523Y40841D1*
X67619D1*
X67666Y40865D1*
X67714Y40913D1*
X67738Y40961D1*
Y41032D1*
X67619D1*
X68227Y41343D2*
Y40841D1*
X67893Y41343D1*
Y40841D1*
X68382Y41343D2*
Y40841D1*
X68549D1*
X68621Y40865D1*
X68669Y40913D1*
X68693Y40961D1*
X68717Y41032D1*
Y41152D1*
X68693Y41224D1*
X68669Y41271D1*
X68621Y41319D1*
X68549Y41343D1*
X68382D1*
X67379Y39281D2*
X67571Y38778D1*
X67762Y39281D1*
X67916D2*
Y38778D1*
X68084D1*
X68156Y38803D1*
X68204Y38850D1*
X68227Y38898D1*
X68251Y38970D1*
Y39090D1*
X68227Y39161D1*
X68204Y39209D1*
X68156Y39257D1*
X68084Y39281D1*
X67916D1*
X68406D2*
Y38778D1*
X68573D1*
X68645Y38803D1*
X68693Y38850D1*
X68717Y38898D1*
X68741Y38970D1*
Y39090D1*
X68717Y39161D1*
X68693Y39209D1*
X68645Y39257D1*
X68573Y39281D1*
X68406D1*
X67762Y39841D2*
X67571Y40343D1*
X67379Y39841D1*
X67451Y40008D2*
X67691D1*
X67379Y38406D2*
Y37903D1*
X67595D1*
X67667Y37928D1*
X67691Y37951D1*
X67714Y37999D1*
Y38071D1*
X67691Y38119D1*
X67667Y38143D1*
X67595Y38166D1*
X67667Y38191D1*
X67691Y38214D1*
X67714Y38262D1*
Y38310D1*
X67691Y38358D1*
X67667Y38382D1*
X67595Y38406D1*
X67379D1*
Y38166D2*
X67595D1*
X53905Y42725D2*
D12*
Y42811D1*
X53895Y42840D1*
X53886Y42850D1*
X53867Y42859D1*
X53847D1*
X53828Y42850D1*
X53819Y42840D1*
X53809Y42811D1*
Y42725D1*
X54010D1*
X53905Y42792D2*
X54010Y42859D1*
X53876Y42921D2*
X54010Y43026D1*
X53876D2*
X54010Y42921D1*
X54747Y42855D2*
X54948D1*
X54747Y42788D2*
Y42922D1*
X54814Y42983D2*
X54948Y43089D1*
X54814D2*
X54948Y42983D1*
X55775Y42826D2*
X55756Y42817D1*
X55736Y42798D1*
X55727Y42779D1*
Y42740D1*
X55736Y42721D1*
X55756Y42702D1*
X55775Y42692D1*
X55803Y42683D1*
X55851D1*
X55880Y42692D1*
X55899Y42702D1*
X55918Y42721D1*
X55928Y42740D1*
Y42779D1*
X55918Y42798D1*
X55899Y42817D1*
X55880Y42826D1*
X55851D1*
Y42779D1*
X55727Y43022D2*
X55928D1*
X55727Y42888D1*
X55928D1*
X55727Y43084D2*
X55928D1*
Y43151D1*
X55918Y43180D1*
X55899Y43199D1*
X55880Y43208D1*
X55851Y43218D1*
X55803D1*
X55775Y43208D1*
X55756Y43199D1*
X55736Y43180D1*
X55727Y43151D1*
Y43084D1*
X56739Y42671D2*
X56940Y42748D1*
X56739Y42824D1*
Y42886D2*
X56940D1*
Y42953D1*
X56930Y42982D1*
X56911Y43001D1*
X56892Y43010D1*
X56863Y43020D1*
X56815D1*
X56787Y43010D1*
X56768Y43001D1*
X56748Y42982D1*
X56739Y42953D1*
Y42886D1*
Y43082D2*
X56940D1*
Y43149D1*
X56930Y43177D1*
X56911Y43197D1*
X56892Y43206D1*
X56863Y43216D1*
X56815D1*
X56787Y43206D1*
X56768Y43197D1*
X56748Y43177D1*
X56739Y43149D1*
Y43082D1*
X57378Y10153D2*
D78*
X57570Y9650D1*
X57761Y10153D1*
X57915D2*
Y9650D1*
X58083D1*
X58155Y9675D1*
X58203Y9722D1*
X58226Y9770D1*
X58250Y9842D1*
Y9961D1*
X58226Y10033D1*
X58203Y10081D1*
X58155Y10129D1*
X58083Y10153D1*
X57915D1*
X58405D2*
Y9650D1*
X58572D1*
X58644Y9675D1*
X58692Y9722D1*
X58716Y9770D1*
X58739Y9842D1*
Y9961D1*
X58716Y10033D1*
X58692Y10081D1*
X58644Y10129D1*
X58572Y10153D1*
X58405D1*
X57136Y7837D2*
Y8340D1*
X56945Y7837D1*
X56753Y8340D1*
Y7837D1*
X57434Y8340D2*
X57386Y8316D1*
X57338Y8268D1*
X57314Y8220D1*
X57290Y8148D1*
Y8028D1*
X57314Y7957D1*
X57338Y7909D1*
X57386Y7862D1*
X57434Y7837D1*
X57529D1*
X57577Y7862D1*
X57625Y7909D1*
X57649Y7957D1*
X57673Y8028D1*
Y8148D1*
X57649Y8220D1*
X57625Y8268D1*
X57577Y8316D1*
X57529Y8340D1*
X57434D1*
X58162Y8268D2*
X58114Y8316D1*
X58043Y8340D1*
X57947D1*
X57875Y8316D1*
X57827Y8268D1*
Y8220D1*
X57851Y8172D1*
X57875Y8148D1*
X57923Y8125D1*
X58066Y8077D1*
X58114Y8053D1*
X58138Y8028D1*
X58162Y7981D1*
Y7909D1*
X58114Y7862D1*
X58043Y7837D1*
X57947D1*
X57875Y7862D1*
X57827Y7909D1*
X58316Y8340D2*
Y7837D1*
X57136Y8775D2*
Y9277D1*
X56945Y8775D1*
X56753Y9277D1*
Y8775D1*
X57290Y9277D2*
Y8775D1*
X57779Y9205D2*
X57732Y9253D1*
X57660Y9277D1*
X57564D1*
X57493Y9253D1*
X57445Y9205D1*
Y9158D1*
X57469Y9110D1*
X57493Y9086D1*
X57540Y9062D1*
X57684Y9014D1*
X57732Y8990D1*
X57756Y8966D1*
X57779Y8919D1*
Y8847D1*
X57732Y8799D1*
X57660Y8775D1*
X57564D1*
X57493Y8799D1*
X57445Y8847D1*
X58078Y9277D2*
X58029Y9253D1*
X57982Y9205D1*
X57958Y9158D1*
X57934Y9086D1*
Y8966D1*
X57958Y8895D1*
X57982Y8847D1*
X58029Y8799D1*
X58078Y8775D1*
X58173D1*
X58221Y8799D1*
X58269Y8847D1*
X58293Y8895D1*
X58316Y8966D1*
Y9086D1*
X58293Y9158D1*
X58269Y9205D1*
X58221Y9253D1*
X58173Y9277D1*
X58078D1*
X57026Y7205D2*
X56978Y7253D1*
X56906Y7277D1*
X56811D1*
X56739Y7253D1*
X56691Y7205D1*
Y7158D1*
X56715Y7110D1*
X56739Y7086D1*
X56786Y7062D1*
X56930Y7014D1*
X56978Y6990D1*
X57002Y6966D1*
X57026Y6918D1*
Y6847D1*
X56978Y6799D1*
X56906Y6775D1*
X56811D1*
X56739Y6799D1*
X56691Y6847D1*
X57539Y7158D2*
X57515Y7205D1*
X57467Y7253D1*
X57419Y7277D1*
X57324D1*
X57276Y7253D1*
X57228Y7205D1*
X57204Y7158D1*
X57180Y7086D1*
Y6966D1*
X57204Y6895D1*
X57228Y6847D1*
X57276Y6799D1*
X57324Y6775D1*
X57419D1*
X57467Y6799D1*
X57515Y6847D1*
X57539Y6895D1*
X57693Y7277D2*
Y6775D1*
X57980D1*
X58134Y7277D2*
Y6775D1*
X58469Y7277D2*
X58134Y6942D1*
X58254Y7062D2*
X58469Y6775D1*
X57088Y6268D2*
X57041Y6316D1*
X56969Y6339D1*
X56873D1*
X56801Y6316D1*
X56753Y6268D1*
Y6220D1*
X56778Y6172D1*
X56801Y6148D1*
X56849Y6124D1*
X56993Y6076D1*
X57041Y6053D1*
X57064Y6028D1*
X57088Y5981D1*
Y5909D1*
X57041Y5861D1*
X56969Y5837D1*
X56873D1*
X56801Y5861D1*
X56753Y5909D1*
X57578Y6268D2*
X57530Y6316D1*
X57458Y6339D1*
X57363D1*
X57291Y6316D1*
X57243Y6268D1*
Y6220D1*
X57267Y6172D1*
X57291Y6148D1*
X57338Y6124D1*
X57482Y6076D1*
X57530Y6053D1*
X57554Y6028D1*
X57578Y5981D1*
Y5909D1*
X57530Y5861D1*
X57458Y5837D1*
X57363D1*
X57291Y5861D1*
X57243Y5909D1*
X56753Y6470D2*
X57732D1*
X57049Y5220D2*
X57026Y5267D1*
X56978Y5316D1*
X56930Y5339D1*
X56834D1*
X56786Y5316D1*
X56739Y5267D1*
X56715Y5220D1*
X56691Y5148D1*
Y5028D1*
X56715Y4957D1*
X56739Y4909D1*
X56786Y4861D1*
X56834Y4837D1*
X56930D1*
X56978Y4861D1*
X57026Y4909D1*
X57049Y4957D1*
Y5028D1*
X56930D1*
X57539Y5339D2*
Y4837D1*
X57204Y5339D1*
Y4837D1*
X57693Y5339D2*
Y4837D1*
X57861D1*
X57933Y4861D1*
X57981Y4909D1*
X58004Y4957D1*
X58028Y5028D1*
Y5148D1*
X58004Y5220D1*
X57981Y5267D1*
X57933Y5316D1*
X57861Y5339D1*
X57693D1*
X52777Y36569D2*
X53279Y36760D1*
X52777Y36951D1*
Y37106D2*
X53279D1*
Y37273D1*
X53255Y37345D1*
X53208Y37393D1*
X53160Y37417D1*
X53088Y37440D1*
X52968D1*
X52896Y37417D1*
X52849Y37393D1*
X52801Y37345D1*
X52777Y37273D1*
Y37106D1*
Y37595D2*
X53279D1*
Y37762D1*
X53255Y37834D1*
X53208Y37882D1*
X53160Y37906D1*
X53088Y37930D1*
X52968D1*
X52896Y37906D1*
X52849Y37882D1*
X52801Y37834D1*
X52777Y37762D1*
Y37595D1*
X55256Y36787D2*
X54753D1*
X55256Y36596D1*
X54753Y36405D1*
X55256D1*
X54753Y37085D2*
X54777Y37037D1*
X54825Y36990D1*
X54873Y36966D1*
X54944Y36942D1*
X55064D1*
X55136Y36966D1*
X55184Y36990D1*
X55231Y37037D1*
X55256Y37085D1*
Y37181D1*
X55231Y37229D1*
X55184Y37277D1*
X55136Y37300D1*
X55064Y37324D1*
X54944D1*
X54873Y37300D1*
X54825Y37277D1*
X54777Y37229D1*
X54753Y37181D1*
Y37085D1*
X54825Y37814D2*
X54777Y37766D1*
X54753Y37694D1*
Y37599D1*
X54777Y37527D1*
X54825Y37479D1*
X54873D1*
X54921Y37503D1*
X54944Y37527D1*
X54968Y37574D1*
X55016Y37718D1*
X55040Y37766D1*
X55064Y37790D1*
X55112Y37814D1*
X55184D1*
X55231Y37766D1*
X55256Y37694D1*
Y37599D1*
X55231Y37527D1*
X55184Y37479D1*
X54753Y37968D2*
X55256D1*
X54318Y36787D2*
X53816D1*
X54318Y36596D1*
X53816Y36405D1*
X54318D1*
X53816Y36942D2*
X54318D1*
X53887Y37431D2*
X53839Y37384D1*
X53816Y37312D1*
Y37216D1*
X53839Y37144D1*
X53887Y37096D1*
X53935D1*
X53983Y37120D1*
X54007Y37144D1*
X54031Y37192D1*
X54079Y37335D1*
X54102Y37384D1*
X54127Y37407D1*
X54174Y37431D1*
X54246D1*
X54294Y37384D1*
X54318Y37312D1*
Y37216D1*
X54294Y37144D1*
X54246Y37096D1*
X53816Y37729D2*
X53839Y37681D1*
X53887Y37634D1*
X53935Y37609D1*
X54007Y37585D1*
X54127D1*
X54198Y37609D1*
X54246Y37634D1*
X54294Y37681D1*
X54318Y37729D1*
Y37825D1*
X54294Y37872D1*
X54246Y37920D1*
X54198Y37944D1*
X54127Y37968D1*
X54007D1*
X53935Y37944D1*
X53887Y37920D1*
X53839Y37872D1*
X53816Y37825D1*
Y37729D1*
X55870Y36445D2*
X55822Y36397D1*
X55799Y36325D1*
Y36230D1*
X55822Y36158D1*
X55870Y36110D1*
X55918D1*
X55966Y36134D1*
X55990Y36158D1*
X56014Y36205D1*
X56062Y36349D1*
X56085Y36397D1*
X56110Y36421D1*
X56157Y36445D1*
X56229D1*
X56277Y36397D1*
X56301Y36325D1*
Y36230D1*
X56277Y36158D1*
X56229Y36110D1*
X55918Y36958D2*
X55870Y36934D1*
X55822Y36886D1*
X55799Y36838D1*
Y36743D1*
X55822Y36695D1*
X55870Y36647D1*
X55918Y36623D1*
X55990Y36599D1*
X56110D1*
X56181Y36623D1*
X56229Y36647D1*
X56277Y36695D1*
X56301Y36743D1*
Y36838D1*
X56277Y36886D1*
X56229Y36934D1*
X56181Y36958D1*
X55799Y37112D2*
X56301D1*
Y37399D1*
X55799Y37553D2*
X56301D1*
X55799Y37888D2*
X56134Y37553D1*
X56014Y37673D2*
X56301Y37888D1*
X56956Y37359D2*
X56908Y37312D1*
X56884Y37240D1*
Y37144D1*
X56908Y37072D1*
X56956Y37024D1*
X57003D1*
X57052Y37049D1*
X57075Y37072D1*
X57099Y37120D1*
X57147Y37264D1*
X57171Y37312D1*
X57195Y37335D1*
X57243Y37359D1*
X57315D1*
X57362Y37312D1*
X57387Y37240D1*
Y37144D1*
X57362Y37072D1*
X57315Y37024D1*
X56956Y37849D2*
X56908Y37801D1*
X56884Y37729D1*
Y37634D1*
X56908Y37562D1*
X56956Y37514D1*
X57003D1*
X57052Y37538D1*
X57075Y37562D1*
X57099Y37609D1*
X57147Y37753D1*
X57171Y37801D1*
X57195Y37825D1*
X57243Y37849D1*
X57315D1*
X57362Y37801D1*
X57387Y37729D1*
Y37634D1*
X57362Y37562D1*
X57315Y37514D1*
X56753Y37024D2*
Y38003D1*
X57948Y36876D2*
X57900Y36853D1*
X57852Y36805D1*
X57828Y36757D1*
Y36661D1*
X57852Y36613D1*
X57900Y36566D1*
X57948Y36541D1*
X58019Y36518D1*
X58139D1*
X58211Y36541D1*
X58259Y36566D1*
X58306Y36613D1*
X58331Y36661D1*
Y36757D1*
X58306Y36805D1*
X58259Y36853D1*
X58211Y36876D1*
X58139D1*
Y36757D1*
X57828Y37366D2*
X58331D1*
X57828Y37031D1*
X58331D1*
X57828Y37520D2*
X58331D1*
Y37688D1*
X58306Y37759D1*
X58259Y37808D1*
X58211Y37831D1*
X58139Y37855D1*
X58019D1*
X57948Y37831D1*
X57900Y37808D1*
X57852Y37759D1*
X57828Y37688D1*
Y37520D1*
X14036Y6464D2*
X13797D1*
X13774Y6249D1*
X13797Y6273D1*
X13869Y6297D1*
X13941D1*
X14012Y6273D1*
X14061Y6225D1*
X14084Y6154D1*
Y6106D1*
X14061Y6034D1*
X14012Y5986D1*
X13941Y5962D1*
X13869D1*
X13797Y5986D1*
X13774Y6010D1*
X13749Y6058D1*
X14239Y6465D2*
X14430Y5962D1*
X14621Y6465D1*
X18662Y6589D2*
X18423D1*
X18399Y6374D1*
X18423Y6398D1*
X18495Y6422D1*
X18566D1*
X18638Y6398D1*
X18686Y6350D1*
X18710Y6279D1*
Y6231D1*
X18686Y6159D1*
X18638Y6111D1*
X18566Y6087D1*
X18495D1*
X18423Y6111D1*
X18399Y6135D1*
X18375Y6183D1*
X18864Y6590D2*
X19055Y6087D1*
X19247Y6590D1*
X20608Y6408D2*
X20584Y6455D1*
X20536Y6503D1*
X20489Y6527D1*
X20393D1*
X20345Y6503D1*
X20298Y6455D1*
X20273Y6408D1*
X20249Y6336D1*
Y6216D1*
X20273Y6145D1*
X20298Y6096D1*
X20345Y6049D1*
X20393Y6025D1*
X20489D1*
X20536Y6049D1*
X20584Y6096D1*
X20608Y6145D1*
Y6216D1*
X20489D1*
X21097Y6527D2*
Y6025D1*
X20763Y6527D1*
Y6025D1*
X21252Y6527D2*
Y6025D1*
X21419D1*
X21491Y6049D1*
X21539Y6096D1*
X21563Y6145D1*
X21587Y6216D1*
Y6336D1*
X21563Y6408D1*
X21539Y6455D1*
X21491Y6503D1*
X21419Y6527D1*
X21252D1*
X15858Y6345D2*
X15834Y6393D1*
X15786Y6441D1*
X15738Y6464D1*
X15643D1*
X15595Y6441D1*
X15547Y6393D1*
X15523Y6345D1*
X15499Y6273D1*
Y6153D1*
X15523Y6082D1*
X15547Y6034D1*
X15595Y5986D1*
X15643Y5962D1*
X15738D1*
X15786Y5986D1*
X15834Y6034D1*
X15858Y6082D1*
Y6153D1*
X15738D1*
X16347Y6464D2*
Y5962D1*
X16012Y6464D1*
Y5962D1*
X16501Y6464D2*
Y5962D1*
X16669D1*
X16741Y5986D1*
X16789Y6034D1*
X16813Y6082D1*
X16836Y6153D1*
Y6273D1*
X16813Y6345D1*
X16789Y6393D1*
X16741Y6441D1*
X16669Y6464D1*
X16501D1*
X11068Y14312D2*
X11020Y14288D1*
X10972Y14240D1*
X10948Y14192D1*
Y14097D1*
X10972Y14048D1*
X11020Y14001D1*
X11068Y13977D1*
X11140Y13953D1*
X11259D1*
X11331Y13977D1*
X11379Y14001D1*
X11426Y14048D1*
X11451Y14097D1*
Y14192D1*
X11426Y14240D1*
X11379Y14288D1*
X11331Y14312D1*
X11259D1*
Y14192D1*
X10948Y14801D2*
X11451D1*
X10948Y14466D1*
X11451D1*
X10948Y14955D2*
X11451D1*
Y15123D1*
X11426Y15195D1*
X11379Y15243D1*
X11331Y15266D1*
X11259Y15290D1*
X11140D1*
X11068Y15266D1*
X11020Y15243D1*
X10972Y15195D1*
X10948Y15123D1*
Y14955D1*
X11318Y21687D2*
X11270Y21664D1*
X11222Y21615D1*
X11198Y21568D1*
Y21472D1*
X11222Y21424D1*
X11270Y21377D1*
X11318Y21352D1*
X11390Y21329D1*
X11509D1*
X11581Y21352D1*
X11629Y21377D1*
X11676Y21424D1*
X11701Y21472D1*
Y21568D1*
X11676Y21615D1*
X11629Y21664D1*
X11581Y21687D1*
X11509D1*
Y21568D1*
X11198Y22177D2*
X11701D1*
X11198Y21842D1*
X11701D1*
X11198Y22331D2*
X11701D1*
Y22499D1*
X11676Y22570D1*
X11629Y22618D1*
X11581Y22642D1*
X11509Y22666D1*
X11390D1*
X11318Y22642D1*
X11270Y22618D1*
X11222Y22570D1*
X11198Y22499D1*
Y22331D1*
X11068Y29251D2*
X11020Y29227D1*
X10972Y29179D1*
X10948Y29131D1*
Y29036D1*
X10972Y28988D1*
X11020Y28940D1*
X11068Y28916D1*
X11140Y28892D1*
X11259D1*
X11331Y28916D1*
X11379Y28940D1*
X11426Y28988D1*
X11451Y29036D1*
Y29131D1*
X11426Y29179D1*
X11379Y29227D1*
X11331Y29251D1*
X11259D1*
Y29131D1*
X10948Y29740D2*
X11451D1*
X10948Y29405D1*
X11451D1*
X10948Y29894D2*
X11451D1*
Y30062D1*
X11426Y30134D1*
X11379Y30182D1*
X11331Y30206D1*
X11259Y30229D1*
X11140D1*
X11068Y30206D1*
X11020Y30182D1*
X10972Y30134D1*
X10948Y30062D1*
Y29894D1*
X11318Y36564D2*
X11270Y36540D1*
X11222Y36492D1*
X11198Y36445D1*
Y36349D1*
X11222Y36301D1*
X11270Y36253D1*
X11318Y36229D1*
X11390Y36205D1*
X11509D1*
X11581Y36229D1*
X11629Y36253D1*
X11676Y36301D1*
X11701Y36349D1*
Y36445D1*
X11676Y36492D1*
X11629Y36540D1*
X11581Y36564D1*
X11509D1*
Y36445D1*
X11198Y37053D2*
X11701D1*
X11198Y36718D1*
X11701D1*
X11198Y37208D2*
X11701D1*
Y37375D1*
X11676Y37447D1*
X11629Y37495D1*
X11581Y37519D1*
X11509Y37543D1*
X11390D1*
X11318Y37519D1*
X11270Y37495D1*
X11222Y37447D1*
X11198Y37375D1*
Y37208D1*
X17790Y35087D2*
X17814Y35039D1*
X17862Y34991D1*
X17910Y34967D1*
X18005D1*
X18053Y34991D1*
X18101Y35039D1*
X18125Y35087D1*
X18149Y35159D1*
Y35279D1*
X18125Y35350D1*
X18101Y35398D1*
X18053Y35445D1*
X18005Y35470D1*
X17910D1*
X17862Y35445D1*
X17814Y35398D1*
X17790Y35350D1*
Y35279D1*
X17910D1*
X17301Y34967D2*
Y35470D1*
X17636Y34967D1*
Y35470D1*
X17147Y34967D2*
Y35470D1*
X16979D1*
X16907Y35445D1*
X16859Y35398D1*
X16835Y35350D1*
X16812Y35279D1*
Y35159D1*
X16835Y35087D1*
X16859Y35039D1*
X16907Y34991D1*
X16979Y34967D1*
X17147D1*
X11255Y6561D2*
X11208Y6537D1*
X11160Y6489D1*
X11136Y6441D1*
Y6346D1*
X11160Y6298D1*
X11208Y6250D1*
X11255Y6226D1*
X11327Y6202D1*
X11447D1*
X11518Y6226D1*
X11566Y6250D1*
X11614Y6298D1*
X11638Y6346D1*
Y6441D1*
X11614Y6489D1*
X11566Y6537D1*
X11518Y6561D1*
X11447D1*
Y6441D1*
X11136Y7050D2*
X11638D1*
X11136Y6715D1*
X11638D1*
X11136Y7204D2*
X11638D1*
Y7372D1*
X11614Y7444D1*
X11566Y7492D1*
X11518Y7516D1*
X11447Y7539D1*
X11327D1*
X11255Y7516D1*
X11208Y7492D1*
X11160Y7444D1*
X11136Y7372D1*
Y7204D1*
X29854Y37650D2*
X29878Y37602D1*
X29926Y37554D1*
X29973Y37530D1*
X30069D1*
X30117Y37554D1*
X30165Y37602D1*
X30189Y37650D1*
X30213Y37721D1*
Y37841D1*
X30189Y37913D1*
X30165Y37961D1*
X30117Y38008D1*
X30069Y38033D1*
X29973D1*
X29926Y38008D1*
X29878Y37961D1*
X29854Y37913D1*
Y37841D1*
X29973D1*
X29365Y37530D2*
Y38033D1*
X29700Y37530D1*
Y38033D1*
X29210Y37530D2*
Y38033D1*
X29043D1*
X28971Y38008D1*
X28923Y37961D1*
X28899Y37913D1*
X28875Y37841D1*
Y37721D1*
X28899Y37650D1*
X28923Y37602D1*
X28971Y37554D1*
X29043Y37530D1*
X29210D1*
X35042Y37650D2*
X35066Y37602D1*
X35114Y37554D1*
X35161Y37530D1*
X35257D1*
X35305Y37554D1*
X35353Y37602D1*
X35377Y37650D1*
X35401Y37721D1*
Y37841D1*
X35377Y37913D1*
X35353Y37961D1*
X35305Y38008D1*
X35257Y38033D1*
X35161D1*
X35114Y38008D1*
X35066Y37961D1*
X35042Y37913D1*
Y37841D1*
X35161D1*
X34553Y37530D2*
Y38033D1*
X34888Y37530D1*
Y38033D1*
X34398Y37530D2*
Y38033D1*
X34231D1*
X34159Y38008D1*
X34111Y37961D1*
X34087Y37913D1*
X34063Y37841D1*
Y37721D1*
X34087Y37650D1*
X34111Y37602D1*
X34159Y37554D1*
X34231Y37530D1*
X34398D1*
X20022Y34968D2*
X20261D1*
X20285Y35183D1*
X20261Y35159D1*
X20189Y35135D1*
X20118D1*
X20046Y35159D1*
X19998Y35207D1*
X19974Y35279D1*
Y35326D1*
X19998Y35398D1*
X20046Y35446D1*
X20118Y35470D1*
X20189D1*
X20261Y35446D1*
X20285Y35422D1*
X20309Y35374D1*
X19820Y34968D2*
X19629Y35470D1*
X19437Y34968D1*
X31774Y37531D2*
X32012D1*
X32036Y37746D1*
X32012Y37722D1*
X31941Y37698D1*
X31869D1*
X31797Y37722D1*
X31749Y37770D1*
X31726Y37842D1*
Y37889D1*
X31749Y37961D1*
X31797Y38009D1*
X31869Y38033D1*
X31941D1*
X32012Y38009D1*
X32036Y37985D1*
X32060Y37937D1*
X31571Y37530D2*
X31380Y38033D1*
X31189Y37530D1*
X37024Y37469D2*
X37263D1*
X37287Y37684D1*
X37263Y37660D1*
X37191Y37635D1*
X37120D1*
X37048Y37660D1*
X37000Y37707D1*
X36976Y37779D1*
Y37827D1*
X37000Y37899D1*
X37048Y37947D1*
X37120Y37970D1*
X37191D1*
X37263Y37947D1*
X37287Y37922D1*
X37311Y37875D1*
X36822Y37468D2*
X36630Y37970D1*
X36439Y37468D1*
X13545Y14908D2*
X13521Y14956D1*
X13473Y15004D1*
X13426Y15028D1*
X13330D1*
X13282Y15004D1*
X13234Y14956D1*
X13210Y14908D1*
X13186Y14837D1*
Y14717D1*
X13210Y14645D1*
X13234Y14597D1*
X13282Y14550D1*
X13330Y14525D1*
X13426D1*
X13473Y14550D1*
X13521Y14597D1*
X13545Y14645D1*
Y14717D1*
X13426D1*
X14034Y15028D2*
Y14525D1*
X13699Y15028D1*
Y14525D1*
X14189Y15028D2*
Y14525D1*
X14356D1*
X14428Y14550D1*
X14476Y14597D1*
X14500Y14645D1*
X14524Y14717D1*
Y14837D1*
X14500Y14908D1*
X14476Y14956D1*
X14428Y15004D1*
X14356Y15028D1*
X14189D1*
X13521Y13894D2*
X13474Y13942D1*
X13402Y13965D1*
X13306D1*
X13234Y13942D1*
X13186Y13894D1*
Y13846D1*
X13211Y13798D1*
X13234Y13774D1*
X13282Y13750D1*
X13426Y13702D1*
X13474Y13679D1*
X13497Y13654D1*
X13521Y13607D1*
Y13535D1*
X13474Y13487D1*
X13402Y13463D1*
X13306D1*
X13234Y13487D1*
X13186Y13535D1*
X13676Y13965D2*
Y13463D1*
X13843D1*
X13915Y13487D1*
X13963Y13535D1*
X13987Y13583D1*
X14010Y13654D1*
Y13774D1*
X13987Y13846D1*
X13963Y13894D1*
X13915Y13942D1*
X13843Y13965D1*
X13676D1*
X14548Y13463D2*
X14356Y13965D1*
X14165Y13463D1*
X14237Y13630D2*
X14476D1*
X13521Y12894D2*
X13474Y12942D1*
X13402Y12965D1*
X13306D1*
X13234Y12942D1*
X13186Y12894D1*
Y12846D1*
X13211Y12798D1*
X13234Y12774D1*
X13282Y12750D1*
X13426Y12702D1*
X13474Y12679D1*
X13497Y12654D1*
X13521Y12607D1*
Y12535D1*
X13474Y12487D1*
X13402Y12463D1*
X13306D1*
X13234Y12487D1*
X13186Y12535D1*
X14034Y12846D2*
X14010Y12894D1*
X13962Y12942D1*
X13915Y12965D1*
X13819D1*
X13771Y12942D1*
X13724Y12894D1*
X13699Y12846D1*
X13676Y12774D1*
Y12654D1*
X13699Y12583D1*
X13724Y12535D1*
X13771Y12487D1*
X13819Y12463D1*
X13915D1*
X13962Y12487D1*
X14010Y12535D1*
X14034Y12583D1*
X14189Y12965D2*
Y12463D1*
X14475D1*
X13249Y11903D2*
X13440Y11400D1*
X13631Y11903D1*
X13786D2*
Y11400D1*
X13953D1*
X14025Y11425D1*
X14073Y11472D1*
X14097Y11520D1*
X14121Y11592D1*
Y11712D1*
X14097Y11783D1*
X14073Y11831D1*
X14025Y11879D1*
X13953Y11903D1*
X13786D1*
X14275D2*
Y11400D1*
X14442D1*
X14514Y11425D1*
X14562Y11472D1*
X14586Y11520D1*
X14610Y11592D1*
Y11712D1*
X14586Y11783D1*
X14562Y11831D1*
X14514Y11879D1*
X14442Y11903D1*
X14275D1*
X15108Y41349D2*
X15084Y41396D1*
X15036Y41444D1*
X14988Y41468D1*
X14893D1*
X14845Y41444D1*
X14797Y41396D1*
X14773Y41349D1*
X14749Y41277D1*
Y41157D1*
X14773Y41086D1*
X14797Y41038D1*
X14845Y40990D1*
X14893Y40966D1*
X14988D1*
X15036Y40990D1*
X15084Y41038D1*
X15108Y41086D1*
Y41157D1*
X14988D1*
X15597Y41468D2*
Y40966D1*
X15262Y41468D1*
Y40966D1*
X15751Y41468D2*
Y40966D1*
X15919D1*
X15991Y40990D1*
X16039Y41038D1*
X16062Y41086D1*
X16086Y41157D1*
Y41277D1*
X16062Y41349D1*
X16039Y41396D1*
X15991Y41444D1*
X15919Y41468D1*
X15751D1*
X15084Y40334D2*
X15036Y40382D1*
X14964Y40406D1*
X14869D1*
X14797Y40382D1*
X14749Y40334D1*
Y40286D1*
X14773Y40238D1*
X14797Y40214D1*
X14845Y40191D1*
X14988Y40143D1*
X15036Y40119D1*
X15060Y40094D1*
X15084Y40047D1*
Y39975D1*
X15036Y39928D1*
X14964Y39903D1*
X14869D1*
X14797Y39928D1*
X14749Y39975D1*
X15238Y40406D2*
Y39903D1*
X15406D1*
X15478Y39928D1*
X15526Y39975D1*
X15549Y40023D1*
X15573Y40094D1*
Y40214D1*
X15549Y40286D1*
X15526Y40334D1*
X15478Y40382D1*
X15406Y40406D1*
X15238D1*
X16111Y39903D2*
X15919Y40406D1*
X15728Y39903D1*
X15799Y40071D2*
X16039D1*
X15084Y39334D2*
X15036Y39382D1*
X14964Y39406D1*
X14869D1*
X14797Y39382D1*
X14749Y39334D1*
Y39286D1*
X14773Y39238D1*
X14797Y39214D1*
X14845Y39191D1*
X14988Y39143D1*
X15036Y39119D1*
X15060Y39094D1*
X15084Y39047D1*
Y38975D1*
X15036Y38928D1*
X14964Y38903D1*
X14869D1*
X14797Y38928D1*
X14749Y38975D1*
X15597Y39286D2*
X15573Y39334D1*
X15525Y39382D1*
X15478Y39406D1*
X15382D1*
X15334Y39382D1*
X15286Y39334D1*
X15262Y39286D1*
X15238Y39214D1*
Y39094D1*
X15262Y39023D1*
X15286Y38975D1*
X15334Y38928D1*
X15382Y38903D1*
X15478D1*
X15525Y38928D1*
X15573Y38975D1*
X15597Y39023D1*
X15751Y39406D2*
Y38903D1*
X16038D1*
X14811Y38343D2*
X15003Y37841D1*
X15194Y38343D1*
X15348D2*
Y37841D1*
X15516D1*
X15588Y37865D1*
X15636Y37913D1*
X15659Y37961D1*
X15683Y38032D1*
Y38152D1*
X15659Y38224D1*
X15636Y38271D1*
X15588Y38319D1*
X15516Y38343D1*
X15348D1*
X15838D2*
Y37841D1*
X16005D1*
X16077Y37865D1*
X16125Y37913D1*
X16149Y37961D1*
X16173Y38032D1*
Y38152D1*
X16149Y38224D1*
X16125Y38271D1*
X16077Y38319D1*
X16005Y38343D1*
X15838D1*
X65863Y21784D2*
X65839Y21832D1*
X65791Y21880D1*
X65744Y21904D1*
X65648D1*
X65600Y21880D1*
X65552Y21832D1*
X65528Y21784D1*
X65504Y21712D1*
Y21592D1*
X65528Y21521D1*
X65552Y21473D1*
X65600Y21426D1*
X65648Y21401D1*
X65744D1*
X65791Y21426D1*
X65839Y21473D1*
X65863Y21521D1*
Y21592D1*
X65744D1*
X66352Y21904D2*
Y21401D1*
X66017Y21904D1*
Y21401D1*
X66507Y21904D2*
Y21401D1*
X66674D1*
X66746Y21426D1*
X66794Y21473D1*
X66818Y21521D1*
X66842Y21592D1*
Y21712D1*
X66818Y21784D1*
X66794Y21832D1*
X66746Y21880D1*
X66674Y21904D1*
X66507D1*
X65964Y17831D2*
X65917Y17880D1*
X65845Y17903D1*
X65749D1*
X65677Y17880D1*
X65629Y17831D1*
Y17784D1*
X65654Y17736D1*
X65677Y17712D1*
X65725Y17688D1*
X65869Y17640D1*
X65917Y17616D1*
X65940Y17592D1*
X65964Y17545D1*
Y17473D1*
X65917Y17425D1*
X65845Y17401D1*
X65749D1*
X65677Y17425D1*
X65629Y17473D1*
X66119Y17903D2*
Y17401D1*
X66286D1*
X66358Y17425D1*
X66406Y17473D1*
X66430Y17521D1*
X66453Y17592D1*
Y17712D1*
X66430Y17784D1*
X66406Y17831D1*
X66358Y17880D1*
X66286Y17903D1*
X66119D1*
X66991Y17401D2*
X66799Y17903D1*
X66608Y17401D1*
X66680Y17568D2*
X66919D1*
X65964Y18769D2*
X65917Y18817D1*
X65845Y18841D1*
X65749D1*
X65677Y18817D1*
X65629Y18769D1*
Y18722D1*
X65654Y18674D1*
X65677Y18650D1*
X65725Y18626D1*
X65869Y18578D1*
X65917Y18554D1*
X65940Y18530D1*
X65964Y18482D1*
Y18410D1*
X65917Y18363D1*
X65845Y18339D1*
X65749D1*
X65677Y18363D1*
X65629Y18410D1*
X66477Y18722D2*
X66453Y18769D1*
X66405Y18817D1*
X66358Y18841D1*
X66262D1*
X66214Y18817D1*
X66167Y18769D1*
X66142Y18722D1*
X66119Y18650D1*
Y18530D1*
X66142Y18459D1*
X66167Y18410D1*
X66214Y18363D1*
X66262Y18339D1*
X66358D1*
X66405Y18363D1*
X66453Y18410D1*
X66477Y18459D1*
X66632Y18841D2*
Y18339D1*
X66918D1*
X65692Y16841D2*
X65883Y16338D1*
X66074Y16841D1*
X66229D2*
Y16338D1*
X66396D1*
X66468Y16363D1*
X66516Y16410D1*
X66540Y16458D1*
X66564Y16530D1*
Y16650D1*
X66540Y16722D1*
X66516Y16769D1*
X66468Y16817D1*
X66396Y16841D1*
X66229D1*
X66718D2*
Y16338D1*
X66885D1*
X66957Y16363D1*
X67005Y16410D1*
X67029Y16458D1*
X67053Y16530D1*
Y16650D1*
X67029Y16722D1*
X67005Y16769D1*
X66957Y16817D1*
X66885Y16841D1*
X66718D1*
X30600Y6277D2*
X30362D1*
X30338Y6062D1*
X30362Y6085D1*
X30434Y6110D1*
X30505D1*
X30577Y6085D1*
X30625Y6038D1*
X30649Y5966D1*
Y5919D1*
X30625Y5847D1*
X30577Y5799D1*
X30505Y5775D1*
X30434D1*
X30362Y5799D1*
X30338Y5823D1*
X30314Y5870D1*
X30803Y6277D2*
X30994Y5775D1*
X31185Y6277D1*
X32359Y6095D2*
X32336Y6143D1*
X32288Y6191D1*
X32240Y6214D1*
X32144D1*
X32096Y6191D1*
X32049Y6143D1*
X32024Y6095D1*
X32001Y6023D1*
Y5903D1*
X32024Y5832D1*
X32049Y5784D1*
X32096Y5736D1*
X32144Y5712D1*
X32240D1*
X32288Y5736D1*
X32336Y5784D1*
X32359Y5832D1*
Y5903D1*
X32240D1*
X32849Y6214D2*
Y5712D1*
X32514Y6214D1*
Y5712D1*
X33003Y6214D2*
Y5712D1*
X33171D1*
X33242Y5736D1*
X33291Y5784D1*
X33314Y5832D1*
X33338Y5903D1*
Y6023D1*
X33314Y6095D1*
X33291Y6143D1*
X33242Y6191D1*
X33171Y6214D1*
X33003D1*
X35288Y6277D2*
X35050D1*
X35026Y6062D1*
X35050Y6085D1*
X35122Y6110D1*
X35193D1*
X35265Y6085D1*
X35313Y6038D1*
X35337Y5966D1*
Y5919D1*
X35313Y5847D1*
X35265Y5799D1*
X35193Y5775D1*
X35122D1*
X35050Y5799D1*
X35026Y5823D1*
X35002Y5870D1*
X35491Y6277D2*
X35682Y5775D1*
X35873Y6277D1*
X37235Y6095D2*
X37211Y6143D1*
X37163Y6191D1*
X37116Y6214D1*
X37020D1*
X36972Y6191D1*
X36924Y6143D1*
X36900Y6095D1*
X36876Y6023D1*
Y5903D1*
X36900Y5832D1*
X36924Y5784D1*
X36972Y5736D1*
X37020Y5712D1*
X37116D1*
X37163Y5736D1*
X37211Y5784D1*
X37235Y5832D1*
Y5903D1*
X37116D1*
X37724Y6214D2*
Y5712D1*
X37389Y6214D1*
Y5712D1*
X37879Y6214D2*
Y5712D1*
X38046D1*
X38118Y5736D1*
X38166Y5784D1*
X38190Y5832D1*
X38214Y5903D1*
Y6023D1*
X38190Y6095D1*
X38166Y6143D1*
X38118Y6191D1*
X38046Y6214D1*
X37879D1*
X61698Y36314D2*
X61650Y36290D1*
X61602Y36242D1*
X61579Y36194D1*
Y36099D1*
X61602Y36051D1*
X61650Y36003D1*
X61698Y35979D1*
X61770Y35955D1*
X61890D1*
X61961Y35979D1*
X62009Y36003D1*
X62057Y36051D1*
X62081Y36099D1*
Y36194D1*
X62057Y36242D1*
X62009Y36290D1*
X61961Y36314D1*
X61890D1*
Y36194D1*
X61579Y36803D2*
X62081D1*
X61579Y36468D1*
X62081D1*
X61579Y36958D2*
X62081D1*
Y37125D1*
X62057Y37197D1*
X62009Y37245D1*
X61961Y37269D1*
X61890Y37293D1*
X61770D1*
X61698Y37269D1*
X61650Y37245D1*
X61602Y37197D1*
X61579Y37125D1*
Y36958D1*
X60403Y36131D2*
X60905Y36322D1*
X60403Y36514D1*
Y36668D2*
X60905D1*
X60403Y37157D2*
X60905D1*
X60403Y36822D1*
X60905D1*
X62948Y36189D2*
X62901Y36165D1*
X62853Y36117D1*
X62829Y36069D1*
Y35974D1*
X62853Y35926D1*
X62901Y35878D1*
X62948Y35854D1*
X63020Y35830D1*
X63140D1*
X63211Y35854D1*
X63259Y35878D1*
X63307Y35926D1*
X63331Y35974D1*
Y36069D1*
X63307Y36117D1*
X63259Y36165D1*
X63211Y36189D1*
X63140D1*
Y36069D1*
X62829Y36678D2*
X63331D1*
X62829Y36343D1*
X63331D1*
X62829Y36833D2*
X63331D1*
Y37000D1*
X63307Y37072D1*
X63259Y37120D1*
X63211Y37144D1*
X63140Y37168D1*
X63020D1*
X62948Y37144D1*
X62901Y37120D1*
X62853Y37072D1*
X62829Y37000D1*
Y36833D1*
X63966Y36069D2*
X64468Y36260D1*
X63966Y36451D1*
Y36605D2*
X64468D1*
X63966Y37095D2*
X64468D1*
X63966Y36760D1*
X64468D1*
X34289Y28940D2*
D77*
X34958Y29227D1*
X34289Y29514D1*
X34862Y29870D2*
X34911Y29822D1*
X34958Y29870D1*
X34911Y29919D1*
X34862Y29870D1*
X34193Y30276D2*
X34146D1*
X34050Y30324D1*
X34002Y30371D1*
X33955Y30467D1*
Y30659D1*
X34002Y30754D1*
X34050Y30801D1*
X34146Y30850D1*
X34241D1*
X34337Y30801D1*
X34480Y30706D1*
X34958Y30227D1*
Y30897D1*
X41985Y8917D2*
D79*
Y9046D1*
X41971Y9089D1*
X41957Y9104D1*
X41928Y9118D1*
X41899D1*
X41871Y9104D1*
X41856Y9089D1*
X41842Y9046D1*
Y8917D1*
X42143D1*
X41985Y9017D2*
X42143Y9118D1*
X41942Y9210D2*
X42143Y9368D1*
X41942D2*
X42143Y9210D1*
X42779Y9080D2*
X43081D1*
X42779Y8979D2*
Y9180D1*
X42880Y9273D2*
X43081Y9431D1*
X42880D2*
X43081Y9273D1*
X43773Y9073D2*
D12*
X43754Y9063D1*
X43735Y9044D1*
X43726Y9025D1*
Y8987D1*
X43735Y8968D1*
X43754Y8949D1*
X43773Y8939D1*
X43802Y8929D1*
X43850D1*
X43879Y8939D1*
X43898Y8949D1*
X43917Y8968D1*
X43927Y8987D1*
Y9025D1*
X43917Y9044D1*
X43898Y9063D1*
X43879Y9073D1*
X43850D1*
Y9025D1*
X43726Y9269D2*
X43927D1*
X43726Y9135D1*
X43927D1*
X43726Y9330D2*
X43927D1*
Y9397D1*
X43917Y9426D1*
X43898Y9445D1*
X43879Y9455D1*
X43850Y9464D1*
X43802D1*
X43773Y9455D1*
X43754Y9445D1*
X43735Y9426D1*
X43726Y9397D1*
Y9330D1*
X45050Y8918D2*
X45251Y8994D1*
X45050Y9071D1*
Y9132D2*
X45251D1*
Y9199D1*
X45241Y9228D1*
X45222Y9247D1*
X45203Y9257D1*
X45175Y9266D1*
X45127D1*
X45098Y9257D1*
X45079Y9247D1*
X45060Y9228D1*
X45050Y9199D1*
Y9132D1*
Y9328D2*
X45251D1*
Y9395D1*
X45241Y9424D1*
X45222Y9443D1*
X45203Y9453D1*
X45175Y9462D1*
X45127D1*
X45098Y9453D1*
X45079Y9443D1*
X45060Y9424D1*
X45050Y9395D1*
Y9328D1*
M02*
