G04 DipTrace 2.3.0.3*
%INTopSilk.gbr*%
%MOIN*%
%ADD10C,0.0098*%
%ADD21C,0.0067*%
%ADD22C,0.0079*%
%ADD24C,0.006*%
%ADD25C,0.03*%
%ADD29C,0.005*%
%ADD50C,0.0077*%
%ADD51C,0.0093*%
%ADD52C,0.0417*%
%ADD53C,0.0154*%
%ADD54C,0.0062*%
%ADD55C,0.0108*%
%FSLAX44Y44*%
G04*
G70*
G90*
G75*
G01*
%LNTopSilk*%
%LPD*%
X28437Y23782D2*
D10*
Y17592D1*
X55032Y32687D2*
X47842D1*
X53282Y29687D2*
X48842D1*
X10092Y28437D2*
X11782D1*
X19187Y24032D2*
Y18342D1*
X10234Y6955D2*
X14171D1*
Y10105D1*
X10234D1*
Y6955D1*
Y7643D2*
X14171D1*
X16516Y6955D2*
X20453D1*
Y10105D1*
X16516D1*
Y6955D1*
Y7643D2*
X20453D1*
X22734Y6955D2*
X26671D1*
Y10105D1*
X22734D1*
Y6955D1*
Y7643D2*
X26671D1*
X14140Y49512D2*
Y46362D1*
X10203D1*
Y49512D1*
X14140D1*
Y48824D2*
X10203D1*
X20390Y49512D2*
Y46362D1*
X16453D1*
Y49512D1*
X20390D1*
Y48824D2*
X16453D1*
X26608Y49512D2*
Y46362D1*
X22671D1*
Y49512D1*
X26608D1*
Y48824D2*
X22671D1*
X23687Y23937D2*
D24*
X23187D1*
X22937Y24187D1*
Y24687D1*
X23187Y24937D1*
X22937Y24187D2*
X22687Y23937D1*
X22187D1*
X21937Y24187D1*
Y24687D1*
X22187Y24937D1*
X22687D1*
X22937Y24687D1*
X24937Y24187D2*
X24687Y23937D1*
X24187D1*
X23937Y24187D1*
Y24687D1*
X24187Y24937D1*
X24687D1*
X24937Y24687D1*
X23687Y23937D2*
X23937Y24187D1*
Y24687D2*
X23687Y24937D1*
X23187D2*
X23687D1*
X26687Y23937D2*
X26187D1*
X25937Y24187D1*
Y24687D1*
X26187Y24937D1*
X25937Y24187D2*
X25687Y23937D1*
X25187D1*
X24937Y24187D1*
Y24687D1*
X25187Y24937D1*
X25687D1*
X25937Y24687D1*
X26937Y24187D2*
Y24687D1*
X26687Y23937D2*
X26937Y24187D1*
Y24687D2*
X26687Y24937D1*
X26187D2*
X26687D1*
X21687Y23937D2*
X21187D1*
X20937Y24187D1*
Y24687D1*
X21187Y24937D1*
X21687Y23937D2*
X21937Y24187D1*
Y24687D2*
X21687Y24937D1*
X21187D2*
X21687D1*
G36*
X31737Y14187D2*
X31538D1*
Y13187D1*
X31737D1*
Y14187D1*
G37*
G36*
X33737Y13837D2*
X32987D1*
Y13536D1*
X33737D1*
Y13837D1*
G37*
G36*
X31387D2*
X30637D1*
Y13536D1*
X31387D1*
Y13837D1*
G37*
X32987Y13187D2*
D24*
X31387D1*
X32987D2*
Y14187D1*
X31387D2*
X32987D1*
X31387D2*
Y13187D1*
X31937Y13687D2*
X32187D1*
X32587Y13937D2*
Y13437D1*
X32187Y13687D1*
X32787D1*
X32187D2*
X32587Y13937D1*
X32187D2*
Y13687D1*
Y13437D1*
G36*
X37237Y14187D2*
X37038D1*
Y13187D1*
X37237D1*
Y14187D1*
G37*
G36*
X39237Y13837D2*
X38487D1*
Y13536D1*
X39237D1*
Y13837D1*
G37*
G36*
X36887D2*
X36137D1*
Y13536D1*
X36887D1*
Y13837D1*
G37*
X38487Y13187D2*
D24*
X36887D1*
X38487D2*
Y14187D1*
X36887D2*
X38487D1*
X36887D2*
Y13187D1*
X37437Y13687D2*
X37687D1*
X38087Y13937D2*
Y13437D1*
X37687Y13687D1*
X38287D1*
X37687D2*
X38087Y13937D1*
X37687D2*
Y13687D1*
Y13437D1*
G36*
X37237Y21687D2*
X37038D1*
Y20687D1*
X37237D1*
Y21687D1*
G37*
G36*
X39237Y21337D2*
X38487D1*
Y21036D1*
X39237D1*
Y21337D1*
G37*
G36*
X36887D2*
X36137D1*
Y21036D1*
X36887D1*
Y21337D1*
G37*
X38487Y20687D2*
D24*
X36887D1*
X38487D2*
Y21687D1*
X36887D2*
X38487D1*
X36887D2*
Y20687D1*
X37437Y21187D2*
X37687D1*
X38087Y21437D2*
Y20937D1*
X37687Y21187D1*
X38287D1*
X37687D2*
X38087Y21437D1*
X37687D2*
Y21187D1*
Y20937D1*
G36*
X31737Y21687D2*
X31538D1*
Y20687D1*
X31737D1*
Y21687D1*
G37*
G36*
X33737Y21337D2*
X32987D1*
Y21036D1*
X33737D1*
Y21337D1*
G37*
G36*
X31387D2*
X30637D1*
Y21036D1*
X31387D1*
Y21337D1*
G37*
X32987Y20687D2*
D24*
X31387D1*
X32987D2*
Y21687D1*
X31387D2*
X32987D1*
X31387D2*
Y20687D1*
X31937Y21187D2*
X32187D1*
X32587Y21437D2*
Y20937D1*
X32187Y21187D1*
X32787D1*
X32187D2*
X32587Y21437D1*
X32187D2*
Y21187D1*
Y20937D1*
X5988Y22492D2*
D10*
X9137D1*
Y18555D1*
X5988D1*
Y22492D1*
X6675D2*
Y18555D1*
X5988Y37256D2*
X9137D1*
Y33319D1*
X5988D1*
Y37256D1*
X6675D2*
Y33319D1*
X31487Y17187D2*
D22*
G02X31487Y17187I700J0D01*
G01*
X33037Y18387D2*
X31337D1*
Y15987D2*
X33037D1*
X33387Y17580D2*
Y16787D1*
X30987Y17592D2*
Y16787D1*
X36987Y17187D2*
G02X36987Y17187I700J0D01*
G01*
X38537Y18387D2*
X36837D1*
Y15987D2*
X38537D1*
X38887Y17580D2*
Y16787D1*
X36487Y17592D2*
Y16787D1*
X17937Y30187D2*
D24*
X18437D1*
X18687Y29937D1*
Y29437D1*
X18437Y29187D1*
X16687Y29937D2*
X16937Y30187D1*
X17437D1*
X17687Y29937D1*
Y29437D1*
X17437Y29187D1*
X16937D1*
X16687Y29437D1*
X17937Y30187D2*
X17687Y29937D1*
Y29437D2*
X17937Y29187D1*
X18437D2*
X17937D1*
X14937Y30187D2*
X15437D1*
X15687Y29937D1*
Y29437D1*
X15437Y29187D1*
X15687Y29937D2*
X15937Y30187D1*
X16437D1*
X16687Y29937D1*
Y29437D1*
X16437Y29187D1*
X15937D1*
X15687Y29437D1*
X13687Y29937D2*
X13937Y30187D1*
X14437D1*
X14687Y29937D1*
Y29437D1*
X14437Y29187D1*
X13937D1*
X13687Y29437D1*
X14937Y30187D2*
X14687Y29937D1*
Y29437D2*
X14937Y29187D1*
X15437D2*
X14937D1*
X11937Y30187D2*
X12437D1*
X12687Y29937D1*
Y29437D1*
X12437Y29187D1*
X12687Y29937D2*
X12937Y30187D1*
X13437D1*
X13687Y29937D1*
Y29437D1*
X13437Y29187D1*
X12937D1*
X12687Y29437D1*
X11687Y29937D2*
Y29437D1*
X11937Y30187D2*
X11687Y29937D1*
Y29437D2*
X11937Y29187D1*
X12437D2*
X11937D1*
X18937Y30187D2*
X19437D1*
X19687Y29937D1*
Y29437D1*
X19437Y29187D1*
X18937Y30187D2*
X18687Y29937D1*
Y29437D2*
X18937Y29187D1*
X19437D2*
X18937D1*
X26937Y30187D2*
X27437D1*
X27687Y29937D1*
Y29437D1*
X27437Y29187D1*
X25687Y29937D2*
X25937Y30187D1*
X26437D1*
X26687Y29937D1*
Y29437D1*
X26437Y29187D1*
X25937D1*
X25687Y29437D1*
X26937Y30187D2*
X26687Y29937D1*
Y29437D2*
X26937Y29187D1*
X27437D2*
X26937D1*
X23937Y30187D2*
X24437D1*
X24687Y29937D1*
Y29437D1*
X24437Y29187D1*
X24687Y29937D2*
X24937Y30187D1*
X25437D1*
X25687Y29937D1*
Y29437D1*
X25437Y29187D1*
X24937D1*
X24687Y29437D1*
X22687Y29937D2*
X22937Y30187D1*
X23437D1*
X23687Y29937D1*
Y29437D1*
X23437Y29187D1*
X22937D1*
X22687Y29437D1*
X23937Y30187D2*
X23687Y29937D1*
Y29437D2*
X23937Y29187D1*
X24437D2*
X23937D1*
X20937Y30187D2*
X21437D1*
X21687Y29937D1*
Y29437D1*
X21437Y29187D1*
X21687Y29937D2*
X21937Y30187D1*
X22437D1*
X22687Y29937D1*
Y29437D1*
X22437Y29187D1*
X21937D1*
X21687Y29437D1*
X20687Y29937D2*
Y29437D1*
X20937Y30187D2*
X20687Y29937D1*
Y29437D2*
X20937Y29187D1*
X21437D2*
X20937D1*
X27937Y30187D2*
X28437D1*
X28687Y29937D1*
Y29437D1*
X28437Y29187D1*
X27937Y30187D2*
X27687Y29937D1*
Y29437D2*
X27937Y29187D1*
X28437D2*
X27937D1*
G36*
X46637Y26287D2*
X46437D1*
Y26587D1*
X46637D1*
Y26287D1*
G37*
G36*
Y25287D2*
X46437D1*
Y25587D1*
X46637D1*
Y25287D1*
G37*
G36*
Y24287D2*
X46437D1*
Y24587D1*
X46637D1*
Y24287D1*
G37*
G36*
Y23287D2*
X46437D1*
Y23587D1*
X46637D1*
Y23287D1*
G37*
G36*
Y22287D2*
X46437D1*
Y22587D1*
X46637D1*
Y22287D1*
G37*
G36*
Y21287D2*
X46437D1*
Y21587D1*
X46637D1*
Y21287D1*
G37*
G36*
X45437Y26287D2*
X45037D1*
Y26587D1*
X45437D1*
Y26287D1*
G37*
G36*
Y25286D2*
X45037D1*
Y25587D1*
X45437D1*
Y25286D1*
G37*
G36*
Y24287D2*
X45037D1*
Y24587D1*
X45437D1*
Y24287D1*
G37*
G36*
Y23287D2*
X45037D1*
Y23587D1*
X45437D1*
Y23287D1*
G37*
G36*
Y22286D2*
X45037D1*
Y22587D1*
X45437D1*
Y22286D1*
G37*
G36*
Y21287D2*
X45037D1*
Y21587D1*
X45437D1*
Y21287D1*
G37*
Y26937D2*
D24*
Y25937D1*
X46437D1*
Y26937D1*
X45437D1*
X48937Y26437D2*
D25*
X46687D1*
X45437Y25937D2*
D24*
Y24937D1*
X46437D1*
Y25937D1*
X48937Y25437D2*
D25*
X46687D1*
X45437Y24937D2*
D24*
Y23937D1*
X46437D1*
Y24937D1*
X48937Y24437D2*
D25*
X46687D1*
X45437Y23937D2*
D24*
Y22937D1*
X46437D1*
Y23937D1*
X48937Y23437D2*
D25*
X46687D1*
X45437Y22937D2*
D24*
Y21937D1*
X46437D1*
Y22937D1*
X48937Y22437D2*
D25*
X46687D1*
X45437Y21937D2*
D24*
Y20937D1*
X46437D1*
Y21937D1*
X48937Y21437D2*
D25*
X46687D1*
X47287Y18687D2*
D24*
Y9687D1*
X49587D2*
Y18687D1*
X47287D2*
X49587D1*
X47287Y9687D2*
X48037D1*
X49587D2*
X48837D1*
X48037D2*
G02X48837Y9687I400J0D01*
G01*
X5988Y32335D2*
D10*
X9137D1*
Y28398D1*
X5988D1*
Y32335D1*
X6675D2*
Y28398D1*
X5988Y27413D2*
X9137D1*
Y23476D1*
X5988D1*
Y27413D1*
X6675D2*
Y23476D1*
X6937Y10187D2*
D24*
X6687Y10437D1*
Y10937D1*
X6937Y11187D1*
X7437D1*
X7687Y10937D1*
Y10437D1*
X7437Y10187D1*
X6687Y8437D2*
Y8937D1*
X6937Y9187D1*
X7437D1*
X7687Y8937D1*
X6937Y9187D2*
X6687Y9437D1*
Y9937D1*
X6937Y10187D1*
X7437D1*
X7687Y9937D1*
Y9437D1*
X7437Y9187D1*
X6937Y8187D2*
X7437D1*
X6687Y8437D2*
X6937Y8187D1*
X7437D2*
X7687Y8437D1*
Y8937D2*
Y8437D1*
X6687Y11437D2*
Y11937D1*
X6937Y12187D1*
X7437D1*
X7687Y11937D1*
X6687Y11437D2*
X6937Y11187D1*
X7437D2*
X7687Y11437D1*
Y11937D2*
Y11437D1*
X6437Y42937D2*
X6187Y43187D1*
Y43687D1*
X6437Y43937D1*
X6937D1*
X7187Y43687D1*
Y43187D1*
X6937Y42937D1*
X6187Y41187D2*
Y41687D1*
X6437Y41937D1*
X6937D1*
X7187Y41687D1*
X6437Y41937D2*
X6187Y42187D1*
Y42687D1*
X6437Y42937D1*
X6937D1*
X7187Y42687D1*
Y42187D1*
X6937Y41937D1*
X6437Y40937D2*
X6937D1*
X6187Y41187D2*
X6437Y40937D1*
X6937D2*
X7187Y41187D1*
Y41687D2*
Y41187D1*
X6187Y44187D2*
Y44687D1*
X6437Y44937D1*
X6937D1*
X7187Y44687D1*
X6187Y44187D2*
X6437Y43937D1*
X6937D2*
X7187Y44187D1*
Y44687D2*
Y44187D1*
X31487Y9687D2*
D22*
G02X31487Y9687I700J0D01*
G01*
X33037Y10887D2*
X31337D1*
Y8487D2*
X33037D1*
X33387Y10080D2*
Y9287D1*
X30987Y10092D2*
Y9287D1*
X36987Y9687D2*
G02X36987Y9687I700J0D01*
G01*
X38537Y10887D2*
X36837D1*
Y8487D2*
X38537D1*
X38887Y10080D2*
Y9287D1*
X36487Y10092D2*
Y9287D1*
X30937Y12537D2*
D24*
G02X31037Y12637I100J0D01*
G01*
X30937Y11837D2*
G03X31037Y11737I100J0D01*
G01*
X33337D2*
G03X33437Y11837I0J100D01*
G01*
X33337Y12637D2*
G02X33437Y12537I0J-101D01*
G01*
X31037Y12637D2*
X31187D1*
X31237Y12587D2*
X31187Y12637D1*
X31037Y11737D2*
X31187D1*
X31237Y11787D2*
X31187Y11737D1*
X33137Y12587D2*
X33187Y12637D1*
X33137Y12587D2*
X31237D1*
X33137Y11787D2*
X33187Y11737D1*
X33137Y11787D2*
X31237D1*
X33337Y12637D2*
X33187D1*
X33337Y11737D2*
X33187D1*
X36437Y12537D2*
G02X36537Y12637I100J0D01*
G01*
X36437Y11837D2*
G03X36537Y11737I100J0D01*
G01*
X38837D2*
G03X38937Y11837I0J100D01*
G01*
X38837Y12637D2*
G02X38937Y12537I0J-101D01*
G01*
X36537Y12637D2*
X36687D1*
X36737Y12587D2*
X36687Y12637D1*
X36537Y11737D2*
X36687D1*
X36737Y11787D2*
X36687Y11737D1*
X38637Y12587D2*
X38687Y12637D1*
X38637Y12587D2*
X36737D1*
X38637Y11787D2*
X38687Y11737D1*
X38637Y11787D2*
X36737D1*
X38837Y12637D2*
X38687D1*
X38837Y11737D2*
X38687D1*
X36437Y20037D2*
G02X36537Y20137I100J0D01*
G01*
X36437Y19337D2*
G03X36537Y19237I100J0D01*
G01*
X38837D2*
G03X38937Y19337I0J100D01*
G01*
X38837Y20137D2*
G02X38937Y20037I0J-101D01*
G01*
X36537Y20137D2*
X36687D1*
X36737Y20087D2*
X36687Y20137D1*
X36537Y19237D2*
X36687D1*
X36737Y19287D2*
X36687Y19237D1*
X38637Y20087D2*
X38687Y20137D1*
X38637Y20087D2*
X36737D1*
X38637Y19287D2*
X38687Y19237D1*
X38637Y19287D2*
X36737D1*
X38837Y20137D2*
X38687D1*
X38837Y19237D2*
X38687D1*
X30937Y20037D2*
G02X31037Y20137I100J0D01*
G01*
X30937Y19337D2*
G03X31037Y19237I100J0D01*
G01*
X33337D2*
G03X33437Y19337I0J100D01*
G01*
X33337Y20137D2*
G02X33437Y20037I0J-101D01*
G01*
X31037Y20137D2*
X31187D1*
X31237Y20087D2*
X31187Y20137D1*
X31037Y19237D2*
X31187D1*
X31237Y19287D2*
X31187Y19237D1*
X33137Y20087D2*
X33187Y20137D1*
X33137Y20087D2*
X31237D1*
X33137Y19287D2*
X33187Y19237D1*
X33137Y19287D2*
X31237D1*
X33337Y20137D2*
X33187D1*
X33337Y19237D2*
X33187D1*
X52587Y10437D2*
G02X52487Y10537I0J100D01*
G01*
X53287Y10437D2*
G03X53387Y10537I0J100D01*
G01*
Y12837D2*
G03X53287Y12937I-100J0D01*
G01*
X52487Y12837D2*
G02X52587Y12937I100J0D01*
G01*
X52487Y10537D2*
Y10687D1*
X52537Y10737D2*
X52487Y10687D1*
X53387Y10537D2*
Y10687D1*
X53337Y10737D2*
X53387Y10687D1*
X52537Y12637D2*
X52487Y12687D1*
X52537Y12637D2*
Y10737D1*
X53337Y12637D2*
X53387Y12687D1*
X53337Y12637D2*
Y10737D1*
X52487Y12837D2*
Y12687D1*
X53387Y12837D2*
Y12687D1*
X55087Y10437D2*
G02X54987Y10537I0J100D01*
G01*
X55787Y10437D2*
G03X55887Y10537I0J100D01*
G01*
Y12837D2*
G03X55787Y12937I-100J0D01*
G01*
X54987Y12837D2*
G02X55087Y12937I100J0D01*
G01*
X54987Y10537D2*
Y10687D1*
X55037Y10737D2*
X54987Y10687D1*
X55887Y10537D2*
Y10687D1*
X55837Y10737D2*
X55887Y10687D1*
X55037Y12637D2*
X54987Y12687D1*
X55037Y12637D2*
Y10737D1*
X55837Y12637D2*
X55887Y12687D1*
X55837Y12637D2*
Y10737D1*
X54987Y12837D2*
Y12687D1*
X55887Y12837D2*
Y12687D1*
X54000Y15671D2*
G02X54000Y17671I-1050J1000D01*
G01*
Y15671D1*
X53000Y15171D2*
G02X53000Y18171I0J1500D01*
G01*
X56000D1*
Y15171D1*
X53000D2*
X56000D1*
X55187Y19337D2*
G02X55087Y19237I-100J0D01*
G01*
X55187Y20037D2*
G03X55087Y20137I-101J-1D01*
G01*
X52787D2*
G03X52687Y20037I0J-100D01*
G01*
X52787Y19237D2*
G02X52687Y19337I0J100D01*
G01*
X55087Y19237D2*
X54937D1*
X54887Y19287D2*
X54937Y19237D1*
X55087Y20137D2*
X54937D1*
X54887Y20087D2*
X54937Y20137D1*
X52987Y19287D2*
X52937Y19237D1*
X52987Y19287D2*
X54887D1*
X52987Y20087D2*
X52937Y20137D1*
X52987Y20087D2*
X54887D1*
X52787Y19237D2*
X52937D1*
X52787Y20137D2*
X52937D1*
X11287Y16737D2*
D29*
Y12137D1*
X28087D1*
Y16737D1*
X11287D1*
X40697Y25577D2*
D24*
Y27277D1*
X39694Y25579D2*
Y27279D1*
X40544Y27429D2*
X40694Y27279D1*
Y25579D2*
X40544Y25429D1*
X39694Y27279D2*
X39844Y27429D1*
X40544D1*
X39694Y25579D2*
X39844Y25429D1*
X40544D1*
X11287Y45737D2*
D29*
Y41137D1*
X28087D1*
Y45737D1*
X11287D1*
X13166Y31180D2*
D21*
Y31561D1*
X12105Y31344D2*
Y31844D1*
X11937Y33187D2*
D22*
X28687D1*
X21090Y28054D2*
X26848D1*
X11159Y6785D2*
D50*
X10920D1*
X10896Y6570D1*
X10920Y6594D1*
X10992Y6618D1*
X11063D1*
X11135Y6594D1*
X11183Y6546D1*
X11207Y6474D1*
Y6427D1*
X11183Y6355D1*
X11135Y6307D1*
X11063Y6283D1*
X10992D1*
X10920Y6307D1*
X10896Y6331D1*
X10872Y6379D1*
X11361Y6786D2*
X11553Y6283D1*
X11744Y6786D1*
X12042D2*
X11994Y6762D1*
X11946Y6714D1*
X11922Y6666D1*
X11898Y6594D1*
Y6474D1*
X11922Y6403D1*
X11946Y6355D1*
X11994Y6308D1*
X12042Y6283D1*
X12137D1*
X12185Y6308D1*
X12233Y6355D1*
X12257Y6403D1*
X12281Y6474D1*
Y6594D1*
X12257Y6666D1*
X12233Y6714D1*
X12185Y6762D1*
X12137Y6786D1*
X12042D1*
X12435D2*
Y6427D1*
X12459Y6355D1*
X12507Y6308D1*
X12579Y6283D1*
X12626D1*
X12698Y6308D1*
X12746Y6355D1*
X12770Y6427D1*
Y6786D1*
X13092D2*
Y6283D1*
X12924Y6786D2*
X13259D1*
X13414Y6689D2*
X13462Y6714D1*
X13534Y6785D1*
Y6283D1*
X17333Y6785D2*
X17094D1*
X17070Y6570D1*
X17094Y6594D1*
X17166Y6618D1*
X17237D1*
X17309Y6594D1*
X17357Y6546D1*
X17381Y6474D1*
Y6427D1*
X17357Y6355D1*
X17309Y6307D1*
X17237Y6283D1*
X17166D1*
X17094Y6307D1*
X17070Y6331D1*
X17046Y6379D1*
X17535Y6786D2*
X17726Y6283D1*
X17918Y6786D1*
X18216D2*
X18168Y6762D1*
X18120Y6714D1*
X18096Y6666D1*
X18072Y6594D1*
Y6474D1*
X18096Y6403D1*
X18120Y6355D1*
X18168Y6308D1*
X18216Y6283D1*
X18311D1*
X18359Y6308D1*
X18407Y6355D1*
X18431Y6403D1*
X18455Y6474D1*
Y6594D1*
X18431Y6666D1*
X18407Y6714D1*
X18359Y6762D1*
X18311Y6786D1*
X18216D1*
X18609D2*
Y6427D1*
X18633Y6355D1*
X18681Y6308D1*
X18753Y6283D1*
X18800D1*
X18872Y6308D1*
X18920Y6355D1*
X18944Y6427D1*
Y6786D1*
X19266D2*
Y6283D1*
X19098Y6786D2*
X19433D1*
X19612Y6666D2*
Y6689D1*
X19636Y6738D1*
X19659Y6761D1*
X19708Y6785D1*
X19803D1*
X19851Y6761D1*
X19874Y6738D1*
X19899Y6689D1*
Y6642D1*
X19874Y6594D1*
X19827Y6523D1*
X19588Y6283D1*
X19923D1*
X23551Y6785D2*
X23313D1*
X23289Y6570D1*
X23313Y6594D1*
X23384Y6618D1*
X23456D1*
X23528Y6594D1*
X23576Y6546D1*
X23599Y6474D1*
Y6427D1*
X23576Y6355D1*
X23528Y6307D1*
X23456Y6283D1*
X23384D1*
X23313Y6307D1*
X23289Y6331D1*
X23264Y6379D1*
X23754Y6786D2*
X23945Y6283D1*
X24136Y6786D1*
X24434D2*
X24386Y6762D1*
X24339Y6714D1*
X24314Y6666D1*
X24291Y6594D1*
Y6474D1*
X24314Y6403D1*
X24339Y6355D1*
X24386Y6308D1*
X24434Y6283D1*
X24530D1*
X24577Y6308D1*
X24626Y6355D1*
X24649Y6403D1*
X24673Y6474D1*
Y6594D1*
X24649Y6666D1*
X24626Y6714D1*
X24577Y6762D1*
X24530Y6786D1*
X24434D1*
X24827D2*
Y6427D1*
X24851Y6355D1*
X24899Y6308D1*
X24971Y6283D1*
X25019D1*
X25091Y6308D1*
X25139Y6355D1*
X25162Y6427D1*
Y6786D1*
X25484D2*
Y6283D1*
X25317Y6786D2*
X25652D1*
X25854Y6785D2*
X26117D1*
X25974Y6594D1*
X26045D1*
X26093Y6570D1*
X26117Y6546D1*
X26141Y6474D1*
Y6427D1*
X26117Y6355D1*
X26069Y6307D1*
X25997Y6283D1*
X25926D1*
X25854Y6307D1*
X25830Y6331D1*
X25806Y6379D1*
X11008Y49993D2*
X10769D1*
X10745Y49778D1*
X10769Y49802D1*
X10841Y49827D1*
X10912D1*
X10984Y49802D1*
X11032Y49755D1*
X11056Y49683D1*
Y49635D1*
X11032Y49563D1*
X10984Y49515D1*
X10912Y49492D1*
X10841D1*
X10769Y49515D1*
X10745Y49540D1*
X10721Y49587D1*
X11210Y49994D2*
X11402Y49492D1*
X11593Y49994D1*
X11891D2*
X11843Y49970D1*
X11795Y49922D1*
X11771Y49875D1*
X11747Y49803D1*
Y49683D1*
X11771Y49612D1*
X11795Y49563D1*
X11843Y49516D1*
X11891Y49492D1*
X11987D1*
X12034Y49516D1*
X12082Y49563D1*
X12106Y49612D1*
X12130Y49683D1*
Y49803D1*
X12106Y49875D1*
X12082Y49922D1*
X12034Y49970D1*
X11987Y49994D1*
X11891D1*
X12284D2*
Y49635D1*
X12308Y49563D1*
X12356Y49516D1*
X12428Y49492D1*
X12475D1*
X12547Y49516D1*
X12595Y49563D1*
X12619Y49635D1*
Y49994D1*
X12941D2*
Y49492D1*
X12773Y49994D2*
X13108D1*
X13502Y49492D2*
Y49993D1*
X13263Y49659D1*
X13621D1*
X17270Y49993D2*
X17031D1*
X17007Y49778D1*
X17031Y49802D1*
X17103Y49826D1*
X17174D1*
X17246Y49802D1*
X17294Y49755D1*
X17318Y49683D1*
Y49635D1*
X17294Y49563D1*
X17246Y49515D1*
X17174Y49492D1*
X17103D1*
X17031Y49515D1*
X17007Y49540D1*
X16983Y49587D1*
X17472Y49994D2*
X17664Y49492D1*
X17855Y49994D1*
X18153D2*
X18105Y49970D1*
X18057Y49922D1*
X18033Y49875D1*
X18009Y49803D1*
Y49683D1*
X18033Y49611D1*
X18057Y49563D1*
X18105Y49516D1*
X18153Y49492D1*
X18248D1*
X18296Y49516D1*
X18344Y49563D1*
X18368Y49611D1*
X18392Y49683D1*
Y49803D1*
X18368Y49875D1*
X18344Y49922D1*
X18296Y49970D1*
X18248Y49994D1*
X18153D1*
X18546D2*
Y49635D1*
X18570Y49563D1*
X18618Y49516D1*
X18690Y49492D1*
X18737D1*
X18809Y49516D1*
X18857Y49563D1*
X18881Y49635D1*
Y49994D1*
X19203D2*
Y49492D1*
X19035Y49994D2*
X19370D1*
X19811Y49993D2*
X19573D1*
X19549Y49778D1*
X19573Y49802D1*
X19645Y49826D1*
X19716D1*
X19788Y49802D1*
X19836Y49755D1*
X19860Y49683D1*
Y49635D1*
X19836Y49563D1*
X19788Y49515D1*
X19716Y49492D1*
X19645D1*
X19573Y49515D1*
X19549Y49540D1*
X19525Y49587D1*
X23500Y49993D2*
X23262D1*
X23238Y49778D1*
X23262Y49802D1*
X23334Y49826D1*
X23405D1*
X23477Y49802D1*
X23525Y49755D1*
X23549Y49683D1*
Y49635D1*
X23525Y49563D1*
X23477Y49515D1*
X23405Y49492D1*
X23334D1*
X23262Y49515D1*
X23238Y49540D1*
X23214Y49587D1*
X23703Y49994D2*
X23894Y49492D1*
X24085Y49994D1*
X24383D2*
X24335Y49970D1*
X24288Y49922D1*
X24264Y49875D1*
X24240Y49803D1*
Y49683D1*
X24264Y49611D1*
X24288Y49563D1*
X24335Y49516D1*
X24383Y49492D1*
X24479D1*
X24527Y49516D1*
X24575Y49563D1*
X24598Y49611D1*
X24622Y49683D1*
Y49803D1*
X24598Y49875D1*
X24575Y49922D1*
X24527Y49970D1*
X24479Y49994D1*
X24383D1*
X24777D2*
Y49635D1*
X24800Y49563D1*
X24849Y49516D1*
X24920Y49492D1*
X24968D1*
X25040Y49516D1*
X25088Y49563D1*
X25112Y49635D1*
Y49994D1*
X25433D2*
Y49492D1*
X25266Y49994D2*
X25601D1*
X26042Y49922D2*
X26018Y49970D1*
X25947Y49993D1*
X25899D1*
X25827Y49970D1*
X25779Y49898D1*
X25755Y49778D1*
Y49659D1*
X25779Y49563D1*
X25827Y49515D1*
X25899Y49492D1*
X25923D1*
X25994Y49515D1*
X26042Y49563D1*
X26066Y49635D1*
Y49659D1*
X26042Y49731D1*
X25994Y49778D1*
X25923Y49802D1*
X25899D1*
X25827Y49778D1*
X25779Y49731D1*
X25755Y49659D1*
X30132Y14669D2*
Y14167D1*
X30300D1*
X30372Y14191D1*
X30420Y14239D1*
X30444Y14287D1*
X30467Y14358D1*
Y14478D1*
X30444Y14550D1*
X30420Y14597D1*
X30372Y14645D1*
X30300Y14669D1*
X30132D1*
X30622Y14573D2*
X30670Y14597D1*
X30742Y14669D1*
Y14167D1*
X35525Y14669D2*
Y14167D1*
X35692D1*
X35764Y14191D1*
X35812Y14239D1*
X35836Y14287D1*
X35860Y14358D1*
Y14478D1*
X35836Y14550D1*
X35812Y14597D1*
X35764Y14645D1*
X35692Y14669D1*
X35525D1*
X36039Y14549D2*
Y14573D1*
X36062Y14621D1*
X36086Y14645D1*
X36134Y14669D1*
X36230D1*
X36277Y14645D1*
X36301Y14621D1*
X36325Y14573D1*
Y14525D1*
X36301Y14477D1*
X36254Y14406D1*
X36014Y14167D1*
X36349D1*
X35775Y22218D2*
Y21716D1*
X35942D1*
X36014Y21740D1*
X36062Y21788D1*
X36086Y21836D1*
X36110Y21907D1*
Y22027D1*
X36086Y22099D1*
X36062Y22146D1*
X36014Y22194D1*
X35942Y22218D1*
X35775D1*
X36312D2*
X36575D1*
X36432Y22026D1*
X36504D1*
X36551Y22003D1*
X36575Y21979D1*
X36599Y21907D1*
Y21860D1*
X36575Y21788D1*
X36527Y21740D1*
X36455Y21716D1*
X36384D1*
X36312Y21740D1*
X36289Y21764D1*
X36264Y21811D1*
X30263Y22218D2*
Y21716D1*
X30430D1*
X30502Y21740D1*
X30550Y21788D1*
X30574Y21836D1*
X30598Y21907D1*
Y22027D1*
X30574Y22099D1*
X30550Y22146D1*
X30502Y22194D1*
X30430Y22218D1*
X30263D1*
X30992Y21716D2*
Y22218D1*
X30752Y21883D1*
X31111D1*
X9614Y21006D2*
Y20503D1*
X9781D1*
X9853Y20528D1*
X9901Y20575D1*
X9925Y20623D1*
X9949Y20695D1*
Y20815D1*
X9925Y20886D1*
X9901Y20934D1*
X9853Y20982D1*
X9781Y21006D1*
X9614D1*
X10103D2*
X10127Y20982D1*
X10151Y21006D1*
X10127Y21030D1*
X10103Y21006D1*
X10127Y20838D2*
Y20503D1*
X10593Y20815D2*
Y20432D1*
X10569Y20360D1*
X10545Y20336D1*
X10497Y20312D1*
X10425D1*
X10378Y20336D1*
X10593Y20743D2*
X10545Y20790D1*
X10497Y20815D1*
X10425D1*
X10378Y20790D1*
X10330Y20743D1*
X10306Y20671D1*
Y20623D1*
X10330Y20552D1*
X10378Y20503D1*
X10425Y20480D1*
X10497D1*
X10545Y20503D1*
X10593Y20552D1*
X10747Y21006D2*
X10771Y20982D1*
X10795Y21006D1*
X10771Y21030D1*
X10747Y21006D1*
X10771Y20838D2*
Y20503D1*
X11021Y21006D2*
Y20599D1*
X11045Y20528D1*
X11093Y20503D1*
X11141D1*
X10949Y20838D2*
X11117D1*
X11582D2*
Y20503D1*
Y20767D2*
X11534Y20815D1*
X11486Y20838D1*
X11415D1*
X11367Y20815D1*
X11319Y20767D1*
X11295Y20695D1*
Y20647D1*
X11319Y20575D1*
X11367Y20528D1*
X11415Y20503D1*
X11486D1*
X11534Y20528D1*
X11582Y20575D1*
X11736Y21006D2*
Y20503D1*
X11891Y20910D2*
X11939Y20934D1*
X12011Y21005D1*
Y20503D1*
X6649Y20756D2*
Y20253D1*
X6865D1*
X6936Y20278D1*
X6960Y20302D1*
X6984Y20349D1*
Y20421D1*
X6960Y20469D1*
X6936Y20493D1*
X6865Y20517D1*
X6936Y20541D1*
X6960Y20565D1*
X6984Y20612D1*
Y20660D1*
X6960Y20708D1*
X6936Y20732D1*
X6865Y20756D1*
X6649D1*
Y20517D2*
X6865D1*
X7138D2*
X7353D1*
X7425Y20541D1*
X7449Y20565D1*
X7473Y20612D1*
Y20660D1*
X7449Y20708D1*
X7425Y20732D1*
X7353Y20756D1*
X7138D1*
Y20253D1*
X7306Y20517D2*
X7473Y20253D1*
X7963Y20756D2*
Y20253D1*
X7628Y20756D1*
Y20253D1*
X8356D2*
Y20755D1*
X8117Y20421D1*
X8476D1*
X9256Y35770D2*
Y35267D1*
X9424D1*
X9496Y35292D1*
X9544Y35339D1*
X9568Y35387D1*
X9591Y35458D1*
Y35578D1*
X9568Y35650D1*
X9544Y35698D1*
X9496Y35746D1*
X9424Y35770D1*
X9256D1*
X9746D2*
X9770Y35746D1*
X9794Y35770D1*
X9770Y35794D1*
X9746Y35770D1*
X9770Y35602D2*
Y35267D1*
X10235Y35578D2*
Y35195D1*
X10211Y35124D1*
X10188Y35100D1*
X10139Y35076D1*
X10068D1*
X10020Y35100D1*
X10235Y35507D2*
X10188Y35554D1*
X10139Y35578D1*
X10068D1*
X10020Y35554D1*
X9972Y35507D1*
X9948Y35435D1*
Y35387D1*
X9972Y35315D1*
X10020Y35267D1*
X10068Y35243D1*
X10139D1*
X10188Y35267D1*
X10235Y35315D1*
X10389Y35770D2*
X10413Y35746D1*
X10438Y35770D1*
X10413Y35794D1*
X10389Y35770D1*
X10413Y35602D2*
Y35267D1*
X10664Y35770D2*
Y35363D1*
X10688Y35292D1*
X10736Y35267D1*
X10783D1*
X10592Y35602D2*
X10759D1*
X11224D2*
Y35267D1*
Y35530D2*
X11177Y35578D1*
X11129Y35602D1*
X11058D1*
X11009Y35578D1*
X10962Y35530D1*
X10938Y35458D1*
Y35411D1*
X10962Y35339D1*
X11009Y35292D1*
X11058Y35267D1*
X11129D1*
X11177Y35292D1*
X11224Y35339D1*
X11379Y35770D2*
Y35267D1*
X11558Y35650D2*
Y35673D1*
X11581Y35722D1*
X11605Y35745D1*
X11653Y35769D1*
X11749D1*
X11796Y35745D1*
X11820Y35722D1*
X11844Y35673D1*
Y35626D1*
X11820Y35578D1*
X11773Y35507D1*
X11533Y35267D1*
X11868D1*
X7018Y35770D2*
Y35267D1*
X7234D1*
X7306Y35292D1*
X7330Y35315D1*
X7353Y35363D1*
Y35435D1*
X7330Y35483D1*
X7306Y35507D1*
X7234Y35530D1*
X7306Y35555D1*
X7330Y35578D1*
X7353Y35626D1*
Y35674D1*
X7330Y35722D1*
X7306Y35746D1*
X7234Y35770D1*
X7018D1*
Y35530D2*
X7234D1*
X7508D2*
X7723D1*
X7795Y35555D1*
X7819Y35578D1*
X7843Y35626D1*
Y35674D1*
X7819Y35722D1*
X7795Y35746D1*
X7723Y35770D1*
X7508D1*
Y35267D1*
X7675Y35530D2*
X7843Y35267D1*
X8332Y35770D2*
Y35267D1*
X7997Y35770D1*
Y35267D1*
X8486Y35673D2*
X8534Y35698D1*
X8606Y35769D1*
Y35267D1*
X29388Y17205D2*
X29603D1*
X29675Y17229D1*
X29699Y17253D1*
X29723Y17301D1*
Y17373D1*
X29699Y17420D1*
X29675Y17445D1*
X29603Y17468D1*
X29388D1*
Y16966D1*
X29877Y17468D2*
Y16966D1*
X30093D1*
X30164Y16990D1*
X30188Y17014D1*
X30212Y17062D1*
Y17134D1*
X30188Y17182D1*
X30164Y17205D1*
X30093Y17229D1*
X30164Y17253D1*
X30188Y17277D1*
X30212Y17325D1*
Y17373D1*
X30188Y17420D1*
X30164Y17445D1*
X30093Y17468D1*
X29877D1*
Y17229D2*
X30093D1*
X30366Y17372D2*
X30414Y17397D1*
X30486Y17468D1*
Y16966D1*
X30839Y15669D2*
Y15167D1*
X31006D1*
X31078Y15191D1*
X31126Y15239D1*
X31150Y15287D1*
X31174Y15358D1*
Y15478D1*
X31150Y15550D1*
X31126Y15598D1*
X31078Y15646D1*
X31006Y15669D1*
X30839D1*
X31328D2*
X31352Y15646D1*
X31376Y15669D1*
X31352Y15694D1*
X31328Y15669D1*
X31352Y15502D2*
Y15167D1*
X31817Y15478D2*
Y15095D1*
X31794Y15024D1*
X31770Y15000D1*
X31722Y14976D1*
X31650D1*
X31602Y15000D1*
X31817Y15406D2*
X31770Y15454D1*
X31722Y15478D1*
X31650D1*
X31602Y15454D1*
X31554Y15406D1*
X31530Y15334D1*
Y15286D1*
X31554Y15215D1*
X31602Y15167D1*
X31650Y15143D1*
X31722D1*
X31770Y15167D1*
X31817Y15215D1*
X31972Y15669D2*
X31995Y15646D1*
X32020Y15669D1*
X31995Y15694D1*
X31972Y15669D1*
X31995Y15502D2*
Y15167D1*
X32246Y15669D2*
Y15263D1*
X32270Y15191D1*
X32318Y15167D1*
X32365D1*
X32174Y15502D2*
X32342D1*
X32807D2*
Y15167D1*
Y15430D2*
X32759Y15478D1*
X32711Y15502D1*
X32640D1*
X32592Y15478D1*
X32544Y15430D1*
X32520Y15358D1*
Y15311D1*
X32544Y15239D1*
X32592Y15191D1*
X32640Y15167D1*
X32711D1*
X32759Y15191D1*
X32807Y15239D1*
X32961Y15669D2*
Y15167D1*
X33115Y15573D2*
X33164Y15598D1*
X33235Y15669D1*
Y15167D1*
X35030Y17205D2*
X35246D1*
X35317Y17229D1*
X35341Y17253D1*
X35365Y17301D1*
Y17373D1*
X35341Y17420D1*
X35317Y17445D1*
X35246Y17468D1*
X35030D1*
Y16966D1*
X35520Y17468D2*
Y16966D1*
X35735D1*
X35807Y16990D1*
X35831Y17014D1*
X35854Y17062D1*
Y17134D1*
X35831Y17182D1*
X35807Y17205D1*
X35735Y17229D1*
X35807Y17253D1*
X35831Y17277D1*
X35854Y17325D1*
Y17373D1*
X35831Y17420D1*
X35807Y17445D1*
X35735Y17468D1*
X35520D1*
Y17229D2*
X35735D1*
X36033Y17349D2*
Y17372D1*
X36057Y17420D1*
X36081Y17444D1*
X36129Y17468D1*
X36224D1*
X36272Y17444D1*
X36296Y17420D1*
X36320Y17372D1*
Y17325D1*
X36296Y17277D1*
X36248Y17205D1*
X36009Y16966D1*
X36344D1*
X36731Y15670D2*
Y15167D1*
X36899D1*
X36970Y15191D1*
X37019Y15239D1*
X37042Y15287D1*
X37066Y15358D1*
Y15478D1*
X37042Y15550D1*
X37019Y15598D1*
X36970Y15646D1*
X36899Y15670D1*
X36731D1*
X37220D2*
X37244Y15646D1*
X37269Y15670D1*
X37244Y15694D1*
X37220Y15670D1*
X37244Y15502D2*
Y15167D1*
X37710Y15478D2*
Y15095D1*
X37686Y15024D1*
X37662Y15000D1*
X37614Y14976D1*
X37542D1*
X37495Y15000D1*
X37710Y15406D2*
X37662Y15454D1*
X37614Y15478D1*
X37542D1*
X37495Y15454D1*
X37447Y15406D1*
X37423Y15335D1*
Y15287D1*
X37447Y15215D1*
X37495Y15167D1*
X37542Y15143D1*
X37614D1*
X37662Y15167D1*
X37710Y15215D1*
X37864Y15670D2*
X37888Y15646D1*
X37912Y15670D1*
X37888Y15694D1*
X37864Y15670D1*
X37888Y15502D2*
Y15167D1*
X38139Y15670D2*
Y15263D1*
X38162Y15191D1*
X38210Y15167D1*
X38258D1*
X38067Y15502D2*
X38234D1*
X38699D2*
Y15167D1*
Y15430D2*
X38652Y15478D1*
X38604Y15502D1*
X38532D1*
X38484Y15478D1*
X38437Y15430D1*
X38412Y15358D1*
Y15311D1*
X38437Y15239D1*
X38484Y15191D1*
X38532Y15167D1*
X38604D1*
X38652Y15191D1*
X38699Y15239D1*
X38854Y15670D2*
Y15167D1*
X39032Y15550D2*
Y15573D1*
X39056Y15621D1*
X39080Y15645D1*
X39128Y15669D1*
X39223D1*
X39271Y15645D1*
X39295Y15621D1*
X39319Y15573D1*
Y15526D1*
X39295Y15478D1*
X39247Y15406D1*
X39008Y15167D1*
X39343D1*
X48156Y12659D2*
X48658D1*
Y12946D1*
Y13483D2*
X48156D1*
X48658Y13292D1*
X48156Y13100D1*
X48658D1*
X48156Y13685D2*
Y13948D1*
X48347Y13805D1*
Y13877D1*
X48371Y13924D1*
X48395Y13948D1*
X48467Y13972D1*
X48514D1*
X48586Y13948D1*
X48634Y13900D1*
X48658Y13829D1*
Y13757D1*
X48634Y13685D1*
X48610Y13662D1*
X48562Y13637D1*
X48323Y14438D2*
X48395Y14413D1*
X48443Y14366D1*
X48467Y14294D1*
Y14270D1*
X48443Y14198D1*
X48395Y14151D1*
X48323Y14127D1*
X48299D1*
X48228Y14151D1*
X48180Y14198D1*
X48156Y14270D1*
Y14294D1*
X48180Y14366D1*
X48228Y14413D1*
X48323Y14438D1*
X48443D1*
X48562Y14413D1*
X48634Y14366D1*
X48658Y14294D1*
Y14247D1*
X48634Y14175D1*
X48586Y14151D1*
X48252Y14592D2*
X48228Y14640D1*
X48156Y14712D1*
X48658D1*
Y15106D2*
X48156D1*
X48491Y14866D1*
Y15225D1*
X48156Y15715D2*
X48658D1*
X48156Y15380D1*
X48658D1*
X9805Y30846D2*
Y31348D1*
X9614Y30846D1*
X9422Y31348D1*
Y30846D1*
X10079Y31181D2*
X10031Y31157D1*
X9983Y31109D1*
X9959Y31037D1*
Y30990D1*
X9983Y30918D1*
X10031Y30870D1*
X10079Y30846D1*
X10151D1*
X10199Y30870D1*
X10246Y30918D1*
X10270Y30990D1*
Y31037D1*
X10246Y31109D1*
X10199Y31157D1*
X10151Y31181D1*
X10079D1*
X10497Y31348D2*
Y30942D1*
X10520Y30870D1*
X10569Y30846D1*
X10616D1*
X10425Y31181D2*
X10592D1*
X10890D2*
X10842Y31157D1*
X10794Y31109D1*
X10770Y31037D1*
Y30990D1*
X10794Y30918D1*
X10842Y30870D1*
X10890Y30846D1*
X10962D1*
X11010Y30870D1*
X11057Y30918D1*
X11082Y30990D1*
Y31037D1*
X11057Y31109D1*
X11010Y31157D1*
X10962Y31181D1*
X10890D1*
X11236D2*
Y30846D1*
Y31037D2*
X11260Y31109D1*
X11308Y31157D1*
X11356Y31181D1*
X11428D1*
X11582Y31252D2*
X11630Y31277D1*
X11702Y31348D1*
Y30846D1*
X6911Y30598D2*
Y30096D1*
X7126D1*
X7198Y30120D1*
X7222Y30144D1*
X7246Y30192D1*
Y30263D1*
X7222Y30312D1*
X7198Y30335D1*
X7126Y30359D1*
X7198Y30383D1*
X7222Y30407D1*
X7246Y30455D1*
Y30503D1*
X7222Y30550D1*
X7198Y30575D1*
X7126Y30598D1*
X6911D1*
Y30359D2*
X7126D1*
X7400D2*
X7615D1*
X7687Y30383D1*
X7711Y30407D1*
X7735Y30455D1*
Y30503D1*
X7711Y30550D1*
X7687Y30575D1*
X7615Y30598D1*
X7400D1*
Y30096D1*
X7568Y30359D2*
X7735Y30096D1*
X8224Y30598D2*
Y30096D1*
X7890Y30598D1*
Y30096D1*
X8403Y30478D2*
Y30502D1*
X8427Y30550D1*
X8451Y30574D1*
X8499Y30598D1*
X8594D1*
X8642Y30574D1*
X8666Y30550D1*
X8690Y30502D1*
Y30455D1*
X8666Y30407D1*
X8618Y30335D1*
X8379Y30096D1*
X8714D1*
X9947Y25425D2*
Y25927D1*
X9756Y25425D1*
X9565Y25927D1*
Y25425D1*
X10221Y25760D2*
X10174Y25736D1*
X10126Y25688D1*
X10102Y25616D1*
Y25568D1*
X10126Y25497D1*
X10174Y25449D1*
X10221Y25425D1*
X10293D1*
X10341Y25449D1*
X10389Y25497D1*
X10413Y25568D1*
Y25616D1*
X10389Y25688D1*
X10341Y25736D1*
X10293Y25760D1*
X10221D1*
X10639Y25927D2*
Y25520D1*
X10663Y25449D1*
X10711Y25425D1*
X10759D1*
X10567Y25760D2*
X10735D1*
X11032D2*
X10985Y25736D1*
X10937Y25688D1*
X10913Y25616D1*
Y25568D1*
X10937Y25497D1*
X10985Y25449D1*
X11032Y25425D1*
X11104D1*
X11152Y25449D1*
X11200Y25497D1*
X11224Y25568D1*
Y25616D1*
X11200Y25688D1*
X11152Y25736D1*
X11104Y25760D1*
X11032D1*
X11379D2*
Y25425D1*
Y25616D2*
X11403Y25688D1*
X11450Y25736D1*
X11498Y25760D1*
X11570D1*
X11749Y25807D2*
Y25831D1*
X11773Y25879D1*
X11797Y25903D1*
X11845Y25927D1*
X11940D1*
X11988Y25903D1*
X12012Y25879D1*
X12036Y25831D1*
Y25783D1*
X12012Y25735D1*
X11964Y25664D1*
X11725Y25425D1*
X12060D1*
X6911Y25677D2*
Y25175D1*
X7126D1*
X7198Y25199D1*
X7222Y25223D1*
X7246Y25270D1*
Y25342D1*
X7222Y25390D1*
X7198Y25414D1*
X7126Y25438D1*
X7198Y25462D1*
X7222Y25486D1*
X7246Y25533D1*
Y25581D1*
X7222Y25629D1*
X7198Y25653D1*
X7126Y25677D1*
X6911D1*
Y25438D2*
X7126D1*
X7400D2*
X7615D1*
X7687Y25462D1*
X7711Y25486D1*
X7735Y25533D1*
Y25581D1*
X7711Y25629D1*
X7687Y25653D1*
X7615Y25677D1*
X7400D1*
Y25175D1*
X7568Y25438D2*
X7735Y25175D1*
X8224Y25677D2*
Y25175D1*
X7890Y25677D1*
Y25175D1*
X8427Y25677D2*
X8689D1*
X8546Y25485D1*
X8618D1*
X8666Y25462D1*
X8689Y25438D1*
X8714Y25366D1*
Y25318D1*
X8689Y25247D1*
X8642Y25198D1*
X8570Y25175D1*
X8498D1*
X8427Y25198D1*
X8403Y25223D1*
X8379Y25270D1*
X29280Y9455D2*
X29496D1*
X29567Y9479D1*
X29591Y9503D1*
X29615Y9551D1*
Y9623D1*
X29591Y9670D1*
X29567Y9695D1*
X29496Y9718D1*
X29280D1*
Y9216D1*
X29770Y9718D2*
Y9216D1*
X29985D1*
X30057Y9240D1*
X30081Y9264D1*
X30104Y9312D1*
Y9384D1*
X30081Y9432D1*
X30057Y9455D1*
X29985Y9479D1*
X30057Y9503D1*
X30081Y9527D1*
X30104Y9575D1*
Y9623D1*
X30081Y9670D1*
X30057Y9695D1*
X29985Y9718D1*
X29770D1*
Y9479D2*
X29985D1*
X30307Y9718D2*
X30569D1*
X30426Y9527D1*
X30498D1*
X30546Y9503D1*
X30569Y9479D1*
X30594Y9407D1*
Y9360D1*
X30569Y9288D1*
X30522Y9240D1*
X30450Y9216D1*
X30378D1*
X30307Y9240D1*
X30283Y9264D1*
X30259Y9312D1*
X31280Y7667D2*
Y8169D1*
X31088Y7667D1*
X30897Y8169D1*
Y7667D1*
X31553Y8002D2*
X31506Y7978D1*
X31458Y7930D1*
X31434Y7858D1*
Y7811D1*
X31458Y7739D1*
X31506Y7691D1*
X31553Y7667D1*
X31625D1*
X31673Y7691D1*
X31721Y7739D1*
X31745Y7811D1*
Y7858D1*
X31721Y7930D1*
X31673Y7978D1*
X31625Y8002D1*
X31553D1*
X31971Y8169D2*
Y7763D1*
X31995Y7691D1*
X32043Y7667D1*
X32091D1*
X31900Y8002D2*
X32067D1*
X32365D2*
X32317Y7978D1*
X32269Y7930D1*
X32245Y7858D1*
Y7811D1*
X32269Y7739D1*
X32317Y7691D1*
X32365Y7667D1*
X32436D1*
X32485Y7691D1*
X32532Y7739D1*
X32556Y7811D1*
Y7858D1*
X32532Y7930D1*
X32485Y7978D1*
X32436Y8002D1*
X32365D1*
X32711D2*
Y7667D1*
Y7858D2*
X32735Y7930D1*
X32783Y7978D1*
X32831Y8002D1*
X32903D1*
X33057Y8073D2*
X33105Y8098D1*
X33177Y8169D1*
Y7667D1*
X34768Y9705D2*
X34984D1*
X35055Y9729D1*
X35079Y9753D1*
X35103Y9801D1*
Y9873D1*
X35079Y9920D1*
X35055Y9945D1*
X34984Y9968D1*
X34768D1*
Y9466D1*
X35258Y9968D2*
Y9466D1*
X35473D1*
X35545Y9490D1*
X35569Y9514D1*
X35593Y9562D1*
Y9634D1*
X35569Y9682D1*
X35545Y9705D1*
X35473Y9729D1*
X35545Y9753D1*
X35569Y9777D1*
X35593Y9825D1*
Y9873D1*
X35569Y9920D1*
X35545Y9945D1*
X35473Y9968D1*
X35258D1*
Y9729D2*
X35473D1*
X35986Y9466D2*
Y9968D1*
X35747Y9634D1*
X36106D1*
X36672Y7417D2*
Y7919D1*
X36481Y7417D1*
X36290Y7919D1*
Y7417D1*
X36946Y7752D2*
X36898Y7728D1*
X36850Y7680D1*
X36827Y7608D1*
Y7561D1*
X36850Y7489D1*
X36898Y7441D1*
X36946Y7417D1*
X37018D1*
X37066Y7441D1*
X37113Y7489D1*
X37138Y7561D1*
Y7608D1*
X37113Y7680D1*
X37066Y7728D1*
X37018Y7752D1*
X36946D1*
X37364Y7919D2*
Y7513D1*
X37388Y7441D1*
X37436Y7417D1*
X37483D1*
X37292Y7752D2*
X37460D1*
X37757D2*
X37710Y7728D1*
X37661Y7680D1*
X37638Y7608D1*
Y7561D1*
X37661Y7489D1*
X37710Y7441D1*
X37757Y7417D1*
X37829D1*
X37877Y7441D1*
X37925Y7489D1*
X37949Y7561D1*
Y7608D1*
X37925Y7680D1*
X37877Y7728D1*
X37829Y7752D1*
X37757D1*
X38103D2*
Y7417D1*
Y7608D2*
X38128Y7680D1*
X38175Y7728D1*
X38223Y7752D1*
X38295D1*
X38474Y7799D2*
Y7823D1*
X38498Y7871D1*
X38521Y7895D1*
X38569Y7919D1*
X38665D1*
X38713Y7895D1*
X38736Y7871D1*
X38761Y7823D1*
Y7776D1*
X38736Y7728D1*
X38689Y7656D1*
X38449Y7417D1*
X38784D1*
X31590Y12348D2*
Y12372D1*
X31614Y12420D1*
X31638Y12444D1*
X31686Y12468D1*
X31782D1*
X31829Y12444D1*
X31853Y12420D1*
X31877Y12372D1*
Y12325D1*
X31853Y12277D1*
X31805Y12205D1*
X31566Y11966D1*
X31901D1*
X32199Y12468D2*
X32127Y12444D1*
X32079Y12372D1*
X32055Y12253D1*
Y12181D1*
X32079Y12062D1*
X32127Y11990D1*
X32199Y11966D1*
X32247D1*
X32319Y11990D1*
X32366Y12062D1*
X32390Y12181D1*
Y12253D1*
X32366Y12372D1*
X32319Y12444D1*
X32247Y12468D1*
X32199D1*
X32366Y12372D2*
X32079Y12062D1*
X32545Y12468D2*
Y11966D1*
X32784Y12301D2*
X32545Y12062D1*
X32640Y12157D2*
X32808Y11966D1*
X29642Y12180D2*
X29857D1*
X29929Y12204D1*
X29953Y12228D1*
X29977Y12276D1*
Y12324D1*
X29953Y12371D1*
X29929Y12395D1*
X29857Y12419D1*
X29642D1*
Y11917D1*
X29810Y12180D2*
X29977Y11917D1*
X30131Y12323D2*
X30180Y12347D1*
X30251Y12419D1*
Y11917D1*
X37090Y12349D2*
Y12372D1*
X37114Y12420D1*
X37138Y12444D1*
X37186Y12468D1*
X37282D1*
X37329Y12444D1*
X37353Y12420D1*
X37377Y12372D1*
Y12325D1*
X37353Y12277D1*
X37305Y12205D1*
X37066Y11966D1*
X37401D1*
X37699Y12468D2*
X37627Y12444D1*
X37579Y12372D1*
X37555Y12253D1*
Y12181D1*
X37579Y12062D1*
X37627Y11990D1*
X37699Y11966D1*
X37747D1*
X37819Y11990D1*
X37866Y12062D1*
X37890Y12181D1*
Y12253D1*
X37866Y12372D1*
X37819Y12444D1*
X37747Y12468D1*
X37699D1*
X37866Y12372D2*
X37579Y12062D1*
X38045Y12469D2*
Y11966D1*
X38284Y12301D2*
X38045Y12062D1*
X38140Y12157D2*
X38308Y11966D1*
X35035Y12180D2*
X35250D1*
X35322Y12204D1*
X35346Y12228D1*
X35370Y12276D1*
Y12324D1*
X35346Y12371D1*
X35322Y12396D1*
X35250Y12419D1*
X35035D1*
Y11917D1*
X35202Y12180D2*
X35370Y11917D1*
X35548Y12299D2*
Y12323D1*
X35572Y12371D1*
X35596Y12395D1*
X35644Y12419D1*
X35740D1*
X35787Y12395D1*
X35811Y12371D1*
X35835Y12323D1*
Y12276D1*
X35811Y12228D1*
X35763Y12156D1*
X35524Y11917D1*
X35859D1*
X37090Y19848D2*
Y19872D1*
X37114Y19920D1*
X37138Y19944D1*
X37186Y19968D1*
X37282D1*
X37329Y19944D1*
X37353Y19920D1*
X37377Y19872D1*
Y19825D1*
X37353Y19777D1*
X37305Y19705D1*
X37066Y19466D1*
X37401D1*
X37699Y19968D2*
X37627Y19944D1*
X37579Y19872D1*
X37555Y19753D1*
Y19681D1*
X37579Y19562D1*
X37627Y19490D1*
X37699Y19466D1*
X37747D1*
X37819Y19490D1*
X37866Y19562D1*
X37890Y19681D1*
Y19753D1*
X37866Y19872D1*
X37819Y19944D1*
X37747Y19968D1*
X37699D1*
X37866Y19872D2*
X37579Y19562D1*
X38045Y19968D2*
Y19466D1*
X38284Y19801D2*
X38045Y19562D1*
X38140Y19657D2*
X38308Y19466D1*
X35035Y19680D2*
X35250D1*
X35322Y19704D1*
X35346Y19728D1*
X35370Y19776D1*
Y19824D1*
X35346Y19871D1*
X35322Y19895D1*
X35250Y19919D1*
X35035D1*
Y19417D1*
X35202Y19680D2*
X35370Y19417D1*
X35572Y19919D2*
X35835D1*
X35691Y19727D1*
X35763D1*
X35811Y19704D1*
X35835Y19680D1*
X35859Y19608D1*
Y19561D1*
X35835Y19489D1*
X35787Y19441D1*
X35715Y19417D1*
X35643D1*
X35572Y19441D1*
X35548Y19465D1*
X35524Y19512D1*
X31590Y19848D2*
Y19872D1*
X31614Y19920D1*
X31638Y19944D1*
X31686Y19968D1*
X31782D1*
X31829Y19944D1*
X31853Y19920D1*
X31877Y19872D1*
Y19825D1*
X31853Y19777D1*
X31805Y19705D1*
X31566Y19466D1*
X31901D1*
X32199Y19968D2*
X32127Y19944D1*
X32079Y19872D1*
X32055Y19753D1*
Y19681D1*
X32079Y19562D1*
X32127Y19490D1*
X32199Y19466D1*
X32247D1*
X32319Y19490D1*
X32366Y19562D1*
X32390Y19681D1*
Y19753D1*
X32366Y19872D1*
X32319Y19944D1*
X32247Y19968D1*
X32199D1*
X32366Y19872D2*
X32079Y19562D1*
X32545Y19968D2*
Y19466D1*
X32784Y19801D2*
X32545Y19562D1*
X32640Y19657D2*
X32808Y19466D1*
X29523Y19680D2*
X29738D1*
X29810Y19704D1*
X29834Y19728D1*
X29858Y19776D1*
Y19824D1*
X29834Y19871D1*
X29810Y19895D1*
X29738Y19919D1*
X29523D1*
Y19417D1*
X29690Y19680D2*
X29858Y19417D1*
X30251D2*
Y19919D1*
X30012Y19584D1*
X30371D1*
X53725Y11680D2*
X53940D1*
X54012Y11704D1*
X54036Y11728D1*
X54060Y11776D1*
Y11824D1*
X54036Y11871D1*
X54012Y11895D1*
X53940Y11919D1*
X53725D1*
Y11417D1*
X53892Y11680D2*
X54060Y11417D1*
X54501Y11919D2*
X54262D1*
X54239Y11704D1*
X54262Y11727D1*
X54334Y11752D1*
X54405D1*
X54477Y11727D1*
X54525Y11680D1*
X54549Y11608D1*
Y11561D1*
X54525Y11489D1*
X54477Y11441D1*
X54405Y11417D1*
X54334D1*
X54262Y11441D1*
X54239Y11465D1*
X54214Y11512D1*
X52752Y11174D2*
X52728Y11222D1*
X52656Y11294D1*
X53158D1*
X52656Y11568D2*
X52680Y11496D1*
X52728Y11472D1*
X52776D1*
X52823Y11496D1*
X52847Y11544D1*
X52871Y11639D1*
X52895Y11711D1*
X52943Y11759D1*
X52991Y11783D1*
X53062D1*
X53110Y11759D1*
X53134Y11735D1*
X53158Y11663D1*
Y11568D1*
X53134Y11496D1*
X53110Y11472D1*
X53062Y11448D1*
X52991D1*
X52943Y11472D1*
X52895Y11520D1*
X52871Y11591D1*
X52847Y11687D1*
X52823Y11735D1*
X52776Y11759D1*
X52728D1*
X52680Y11735D1*
X52656Y11663D1*
Y11568D1*
Y11937D2*
X53158D1*
X52823Y12176D2*
X53062Y11937D1*
X52967Y12033D2*
X53158Y12200D1*
X56237Y11680D2*
X56452D1*
X56524Y11704D1*
X56548Y11728D1*
X56572Y11776D1*
Y11824D1*
X56548Y11871D1*
X56524Y11895D1*
X56452Y11919D1*
X56237D1*
Y11417D1*
X56405Y11680D2*
X56572Y11417D1*
X57013Y11847D2*
X56989Y11895D1*
X56918Y11919D1*
X56870D1*
X56798Y11895D1*
X56750Y11823D1*
X56726Y11704D1*
Y11584D1*
X56750Y11489D1*
X56798Y11441D1*
X56870Y11417D1*
X56894D1*
X56965Y11441D1*
X57013Y11489D1*
X57037Y11561D1*
Y11584D1*
X57013Y11656D1*
X56965Y11704D1*
X56894Y11727D1*
X56870D1*
X56798Y11704D1*
X56750Y11656D1*
X56726Y11584D1*
X55156Y11025D2*
Y11287D1*
X55347Y11144D1*
Y11216D1*
X55371Y11264D1*
X55395Y11287D1*
X55467Y11312D1*
X55514D1*
X55586Y11287D1*
X55634Y11240D1*
X55658Y11168D1*
Y11096D1*
X55634Y11025D1*
X55610Y11001D1*
X55562Y10977D1*
X55610Y11490D2*
X55634Y11466D1*
X55658Y11490D1*
X55634Y11514D1*
X55610Y11490D1*
X55323Y11980D2*
X55395Y11955D1*
X55443Y11908D1*
X55467Y11836D1*
Y11812D1*
X55443Y11740D1*
X55395Y11693D1*
X55323Y11669D1*
X55299D1*
X55228Y11693D1*
X55180Y11740D1*
X55156Y11812D1*
Y11836D1*
X55180Y11908D1*
X55228Y11955D1*
X55323Y11980D1*
X55443D1*
X55562Y11955D1*
X55634Y11908D1*
X55658Y11836D1*
Y11789D1*
X55634Y11717D1*
X55586Y11693D1*
X55156Y12134D2*
X55658D1*
X55323Y12373D2*
X55562Y12134D1*
X55467Y12230D2*
X55658Y12397D1*
X56338Y16664D2*
X56553D1*
X56625Y16688D1*
X56649Y16712D1*
X56673Y16760D1*
Y16808D1*
X56649Y16855D1*
X56625Y16880D1*
X56553Y16903D1*
X56338D1*
Y16401D1*
X56505Y16664D2*
X56673Y16401D1*
X56923D2*
X57162Y16903D1*
X56827D1*
X52714Y16158D2*
X52690Y16206D1*
X52618Y16278D1*
X53120D1*
X52618Y16576D2*
X52642Y16504D1*
X52714Y16456D1*
X52833Y16432D1*
X52905D1*
X53025Y16456D1*
X53096Y16504D1*
X53120Y16576D1*
Y16623D1*
X53096Y16695D1*
X53025Y16743D1*
X52905Y16767D1*
X52833D1*
X52714Y16743D1*
X52642Y16695D1*
X52618Y16623D1*
Y16576D1*
X52714Y16743D2*
X53025Y16456D1*
X52618Y16922D2*
X53120D1*
X52785Y17161D2*
X53025Y16922D1*
X52929Y17017D2*
X53120Y17185D1*
X53765Y20680D2*
X53980D1*
X54052Y20704D1*
X54077Y20728D1*
X54100Y20775D1*
Y20823D1*
X54077Y20871D1*
X54052Y20895D1*
X53980Y20919D1*
X53765D1*
Y20417D1*
X53933Y20680D2*
X54100Y20417D1*
X54374Y20919D2*
X54303Y20895D1*
X54278Y20847D1*
Y20799D1*
X54303Y20752D1*
X54350Y20727D1*
X54446Y20704D1*
X54518Y20680D1*
X54565Y20632D1*
X54589Y20584D1*
Y20512D1*
X54565Y20465D1*
X54542Y20440D1*
X54470Y20417D1*
X54374D1*
X54303Y20440D1*
X54278Y20465D1*
X54255Y20512D1*
Y20584D1*
X54278Y20632D1*
X54327Y20680D1*
X54398Y20704D1*
X54493Y20727D1*
X54542Y20752D1*
X54565Y20799D1*
Y20847D1*
X54542Y20895D1*
X54470Y20919D1*
X54374D1*
X53615Y19968D2*
X53376D1*
X53353Y19753D1*
X53376Y19776D1*
X53448Y19801D1*
X53520D1*
X53591Y19776D1*
X53639Y19729D1*
X53663Y19657D1*
Y19609D1*
X53639Y19538D1*
X53591Y19490D1*
X53520Y19466D1*
X53448D1*
X53376Y19490D1*
X53353Y19514D1*
X53328Y19561D1*
X54104Y19896D2*
X54081Y19944D1*
X54009Y19968D1*
X53961D1*
X53889Y19944D1*
X53841Y19872D1*
X53818Y19753D1*
Y19633D1*
X53841Y19538D1*
X53889Y19490D1*
X53961Y19466D1*
X53985D1*
X54056Y19490D1*
X54104Y19538D1*
X54128Y19609D1*
Y19633D1*
X54104Y19705D1*
X54056Y19753D1*
X53985Y19776D1*
X53961D1*
X53889Y19753D1*
X53841Y19705D1*
X53818Y19633D1*
X54283Y19968D2*
Y19466D1*
X54522Y19801D2*
X54283Y19561D1*
X54378Y19657D2*
X54546Y19466D1*
X18893Y17230D2*
X19108D1*
X19180Y17254D1*
X19204Y17278D1*
X19228Y17326D1*
Y17374D1*
X19204Y17421D1*
X19180Y17445D1*
X19108Y17469D1*
X18893D1*
Y16967D1*
X19061Y17230D2*
X19228Y16967D1*
X19693Y17469D2*
X19383D1*
Y16967D1*
X19693D1*
X19383Y17230D2*
X19574D1*
X20206Y17350D2*
X20183Y17397D1*
X20135Y17445D1*
X20087Y17469D1*
X19991D1*
X19943Y17445D1*
X19896Y17397D1*
X19871Y17350D1*
X19848Y17278D1*
Y17158D1*
X19871Y17087D1*
X19896Y17039D1*
X19943Y16991D1*
X19991Y16967D1*
X20087D1*
X20135Y16991D1*
X20183Y17039D1*
X20206Y17087D1*
Y17158D1*
X20087D1*
X20361Y17373D2*
X20409Y17397D1*
X20481Y17469D1*
Y16967D1*
X15638Y14455D2*
X15854D1*
X15925Y14479D1*
X15950Y14503D1*
X15973Y14551D1*
Y14623D1*
X15950Y14670D1*
X15925Y14695D1*
X15854Y14718D1*
X15638D1*
Y14216D1*
X16247Y14551D2*
X16200Y14527D1*
X16152Y14479D1*
X16128Y14407D1*
Y14360D1*
X16152Y14288D1*
X16200Y14240D1*
X16247Y14216D1*
X16319D1*
X16367Y14240D1*
X16415Y14288D1*
X16439Y14360D1*
Y14407D1*
X16415Y14479D1*
X16367Y14527D1*
X16319Y14551D1*
X16247D1*
X16593Y14718D2*
Y14216D1*
X16867Y14551D2*
X16820Y14527D1*
X16772Y14479D1*
X16748Y14407D1*
Y14360D1*
X16772Y14288D1*
X16820Y14240D1*
X16867Y14216D1*
X16939D1*
X16987Y14240D1*
X17035Y14288D1*
X17059Y14360D1*
Y14407D1*
X17035Y14479D1*
X16987Y14527D1*
X16939Y14551D1*
X16867D1*
X17213Y14718D2*
Y14216D1*
X17368Y14551D2*
Y14312D1*
X17391Y14240D1*
X17440Y14216D1*
X17511D1*
X17559Y14240D1*
X17631Y14312D1*
Y14551D2*
Y14216D1*
X18271Y14467D2*
X18548D1*
X19188Y14718D2*
Y14216D1*
X19355D1*
X19427Y14240D1*
X19475Y14288D1*
X19499Y14336D1*
X19523Y14407D1*
Y14527D1*
X19499Y14599D1*
X19475Y14646D1*
X19427Y14695D1*
X19355Y14718D1*
X19188D1*
X19677Y14622D2*
X19725Y14646D1*
X19797Y14718D1*
Y14216D1*
X20238Y14718D2*
X20000D1*
X19976Y14503D1*
X20000Y14527D1*
X20072Y14551D1*
X20143D1*
X20215Y14527D1*
X20263Y14479D1*
X20287Y14407D1*
Y14360D1*
X20263Y14288D1*
X20215Y14240D1*
X20143Y14216D1*
X20072D1*
X20000Y14240D1*
X19976Y14264D1*
X19952Y14312D1*
X20441Y14718D2*
X20632Y14216D1*
X20823Y14718D1*
X21026D2*
X21288D1*
X21145Y14527D1*
X21217D1*
X21265Y14503D1*
X21288Y14479D1*
X21313Y14407D1*
Y14360D1*
X21288Y14288D1*
X21241Y14240D1*
X21169Y14216D1*
X21097D1*
X21026Y14240D1*
X21002Y14264D1*
X20978Y14312D1*
X21754Y14718D2*
X21515D1*
X21491Y14503D1*
X21515Y14527D1*
X21587Y14551D1*
X21658D1*
X21730Y14527D1*
X21778Y14479D1*
X21802Y14407D1*
Y14360D1*
X21778Y14288D1*
X21730Y14240D1*
X21658Y14216D1*
X21587D1*
X21515Y14240D1*
X21491Y14264D1*
X21467Y14312D1*
X22268Y14718D2*
X21956D1*
Y14216D1*
Y14479D2*
X22148D1*
X22709Y14718D2*
X22470D1*
X22446Y14503D1*
X22470Y14527D1*
X22542Y14551D1*
X22613D1*
X22685Y14527D1*
X22733Y14479D1*
X22757Y14407D1*
Y14360D1*
X22733Y14288D1*
X22685Y14240D1*
X22613Y14216D1*
X22542D1*
X22470Y14240D1*
X22446Y14264D1*
X22422Y14312D1*
X23246Y14646D2*
X23199Y14695D1*
X23127Y14718D1*
X23031D1*
X22959Y14695D1*
X22911Y14646D1*
Y14599D1*
X22936Y14551D1*
X22959Y14527D1*
X23007Y14503D1*
X23151Y14455D1*
X23199Y14431D1*
X23222Y14407D1*
X23246Y14360D1*
Y14288D1*
X23199Y14240D1*
X23127Y14216D1*
X23031D1*
X22959Y14240D1*
X22911Y14288D1*
X23449Y14718D2*
X23711D1*
X23568Y14527D1*
X23640D1*
X23687Y14503D1*
X23711Y14479D1*
X23736Y14407D1*
Y14360D1*
X23711Y14288D1*
X23664Y14240D1*
X23592Y14216D1*
X23520D1*
X23449Y14240D1*
X23425Y14264D1*
X23401Y14312D1*
X39068Y27659D2*
X38876Y28161D1*
X38685Y27659D1*
X38757Y27826D2*
X38996D1*
X39222Y27922D2*
X39437D1*
X39509Y27946D1*
X39533Y27970D1*
X39557Y28017D1*
Y28065D1*
X39533Y28113D1*
X39509Y28137D1*
X39437Y28161D1*
X39222D1*
Y27659D1*
X39390Y27922D2*
X39557Y27659D1*
X39712Y28161D2*
Y27659D1*
X39879D1*
X39951Y27683D1*
X39999Y27730D1*
X40023Y27778D1*
X40047Y27850D1*
Y27970D1*
X40023Y28042D1*
X39999Y28089D1*
X39951Y28137D1*
X39879Y28161D1*
X39712D1*
X40201Y27898D2*
X40416D1*
X40488Y27922D1*
X40512Y27946D1*
X40536Y27993D1*
Y28065D1*
X40512Y28113D1*
X40488Y28137D1*
X40416Y28161D1*
X40201D1*
Y27659D1*
X40834Y28161D2*
X40786Y28137D1*
X40738Y28089D1*
X40714Y28042D1*
X40690Y27970D1*
Y27850D1*
X40714Y27778D1*
X40738Y27730D1*
X40786Y27683D1*
X40834Y27659D1*
X40930D1*
X40977Y27683D1*
X41025Y27730D1*
X41049Y27778D1*
X41073Y27850D1*
Y27970D1*
X41049Y28042D1*
X41025Y28089D1*
X40977Y28137D1*
X40930Y28161D1*
X40834D1*
X41227D2*
X41347Y27659D1*
X41466Y28161D1*
X41586Y27659D1*
X41706Y28161D1*
X18786Y40728D2*
X19001D1*
X19073Y40752D1*
X19097Y40776D1*
X19121Y40824D1*
Y40872D1*
X19097Y40919D1*
X19073Y40944D1*
X19001Y40967D1*
X18786D1*
Y40465D1*
X18953Y40728D2*
X19121Y40465D1*
X19586Y40967D2*
X19275D1*
Y40465D1*
X19586D1*
X19275Y40728D2*
X19466D1*
X20099Y40848D2*
X20075Y40896D1*
X20027Y40944D1*
X19979Y40967D1*
X19884D1*
X19836Y40944D1*
X19788Y40896D1*
X19764Y40848D1*
X19740Y40776D1*
Y40656D1*
X19764Y40585D1*
X19788Y40537D1*
X19836Y40489D1*
X19884Y40465D1*
X19979D1*
X20027Y40489D1*
X20075Y40537D1*
X20099Y40585D1*
Y40656D1*
X19979D1*
X20278Y40847D2*
Y40871D1*
X20301Y40919D1*
X20325Y40943D1*
X20373Y40967D1*
X20469D1*
X20516Y40943D1*
X20540Y40919D1*
X20564Y40871D1*
Y40824D1*
X20540Y40776D1*
X20493Y40704D1*
X20253Y40465D1*
X20588D1*
X15638Y43455D2*
X15854D1*
X15925Y43479D1*
X15950Y43503D1*
X15973Y43551D1*
Y43623D1*
X15950Y43670D1*
X15925Y43695D1*
X15854Y43718D1*
X15638D1*
Y43216D1*
X16247Y43551D2*
X16200Y43527D1*
X16152Y43479D1*
X16128Y43407D1*
Y43360D1*
X16152Y43288D1*
X16200Y43240D1*
X16247Y43216D1*
X16319D1*
X16367Y43240D1*
X16415Y43288D1*
X16439Y43360D1*
Y43407D1*
X16415Y43479D1*
X16367Y43527D1*
X16319Y43551D1*
X16247D1*
X16593Y43718D2*
Y43216D1*
X16867Y43551D2*
X16820Y43527D1*
X16772Y43479D1*
X16748Y43407D1*
Y43360D1*
X16772Y43288D1*
X16820Y43240D1*
X16867Y43216D1*
X16939D1*
X16987Y43240D1*
X17035Y43288D1*
X17059Y43360D1*
Y43407D1*
X17035Y43479D1*
X16987Y43527D1*
X16939Y43551D1*
X16867D1*
X17213Y43718D2*
Y43216D1*
X17368Y43551D2*
Y43312D1*
X17391Y43240D1*
X17440Y43216D1*
X17511D1*
X17559Y43240D1*
X17631Y43312D1*
Y43551D2*
Y43216D1*
X18271Y43467D2*
X18548D1*
X19188Y43718D2*
Y43216D1*
X19355D1*
X19427Y43240D1*
X19475Y43288D1*
X19499Y43336D1*
X19523Y43407D1*
Y43527D1*
X19499Y43599D1*
X19475Y43646D1*
X19427Y43695D1*
X19355Y43718D1*
X19188D1*
X19677Y43622D2*
X19725Y43646D1*
X19797Y43718D1*
Y43216D1*
X20238Y43718D2*
X20000D1*
X19976Y43503D1*
X20000Y43527D1*
X20072Y43551D1*
X20143D1*
X20215Y43527D1*
X20263Y43479D1*
X20287Y43407D1*
Y43360D1*
X20263Y43288D1*
X20215Y43240D1*
X20143Y43216D1*
X20072D1*
X20000Y43240D1*
X19976Y43264D1*
X19952Y43312D1*
X20441Y43718D2*
X20632Y43216D1*
X20823Y43718D1*
X21026D2*
X21288D1*
X21145Y43527D1*
X21217D1*
X21265Y43503D1*
X21288Y43479D1*
X21313Y43407D1*
Y43360D1*
X21288Y43288D1*
X21241Y43240D1*
X21169Y43216D1*
X21097D1*
X21026Y43240D1*
X21002Y43264D1*
X20978Y43312D1*
X21754Y43718D2*
X21515D1*
X21491Y43503D1*
X21515Y43527D1*
X21587Y43551D1*
X21658D1*
X21730Y43527D1*
X21778Y43479D1*
X21802Y43407D1*
Y43360D1*
X21778Y43288D1*
X21730Y43240D1*
X21658Y43216D1*
X21587D1*
X21515Y43240D1*
X21491Y43264D1*
X21467Y43312D1*
X22268Y43718D2*
X21956D1*
Y43216D1*
Y43479D2*
X22148D1*
X22709Y43718D2*
X22470D1*
X22446Y43503D1*
X22470Y43527D1*
X22542Y43551D1*
X22613D1*
X22685Y43527D1*
X22733Y43479D1*
X22757Y43407D1*
Y43360D1*
X22733Y43288D1*
X22685Y43240D1*
X22613Y43216D1*
X22542D1*
X22470Y43240D1*
X22446Y43264D1*
X22422Y43312D1*
X23246Y43646D2*
X23199Y43695D1*
X23127Y43718D1*
X23031D1*
X22959Y43695D1*
X22911Y43646D1*
Y43599D1*
X22936Y43551D1*
X22959Y43527D1*
X23007Y43503D1*
X23151Y43455D1*
X23199Y43431D1*
X23222Y43407D1*
X23246Y43360D1*
Y43288D1*
X23199Y43240D1*
X23127Y43216D1*
X23031D1*
X22959Y43240D1*
X22911Y43288D1*
X23449Y43718D2*
X23711D1*
X23568Y43527D1*
X23640D1*
X23687Y43503D1*
X23711Y43479D1*
X23736Y43407D1*
Y43360D1*
X23711Y43288D1*
X23664Y43240D1*
X23592Y43216D1*
X23520D1*
X23449Y43240D1*
X23425Y43264D1*
X23401Y43312D1*
X8087Y44590D2*
D51*
X8058Y44647D1*
X8000Y44705D1*
X7943Y44734D1*
X7829D1*
X7771Y44705D1*
X7714Y44647D1*
X7685Y44590D1*
X7656Y44504D1*
Y44360D1*
X7685Y44275D1*
X7714Y44217D1*
X7771Y44160D1*
X7829Y44131D1*
X7943D1*
X8000Y44160D1*
X8058Y44217D1*
X8087Y44275D1*
Y44360D1*
X7943D1*
X8674Y44734D2*
Y44131D1*
X8272Y44734D1*
Y44131D1*
X8859Y44734D2*
Y44131D1*
X9060D1*
X9146Y44160D1*
X9204Y44217D1*
X9232Y44275D1*
X9261Y44360D1*
Y44504D1*
X9232Y44590D1*
X9204Y44647D1*
X9146Y44705D1*
X9060Y44734D1*
X8859D1*
X8058Y43647D2*
X8001Y43705D1*
X7915Y43734D1*
X7800D1*
X7714Y43705D1*
X7656Y43647D1*
Y43590D1*
X7685Y43533D1*
X7714Y43504D1*
X7771Y43476D1*
X7943Y43418D1*
X8001Y43389D1*
X8030Y43360D1*
X8058Y43303D1*
Y43217D1*
X8001Y43160D1*
X7915Y43131D1*
X7800D1*
X7714Y43160D1*
X7656Y43217D1*
X8674Y43590D2*
X8645Y43647D1*
X8588Y43705D1*
X8531Y43734D1*
X8416D1*
X8358Y43705D1*
X8301Y43647D1*
X8272Y43590D1*
X8243Y43504D1*
Y43360D1*
X8272Y43275D1*
X8301Y43217D1*
X8358Y43160D1*
X8416Y43131D1*
X8531D1*
X8588Y43160D1*
X8645Y43217D1*
X8674Y43275D1*
X8859Y43734D2*
Y43131D1*
X9203D1*
X8135Y42647D2*
X8078Y42705D1*
X7992Y42734D1*
X7877D1*
X7791Y42705D1*
X7733Y42647D1*
Y42590D1*
X7763Y42533D1*
X7791Y42504D1*
X7848Y42476D1*
X8021Y42418D1*
X8078Y42389D1*
X8107Y42360D1*
X8135Y42303D1*
Y42217D1*
X8078Y42160D1*
X7992Y42131D1*
X7877D1*
X7791Y42160D1*
X7733Y42217D1*
X8321Y42734D2*
Y42131D1*
X8521D1*
X8608Y42160D1*
X8665Y42217D1*
X8694Y42275D1*
X8722Y42360D1*
Y42504D1*
X8694Y42590D1*
X8665Y42647D1*
X8608Y42705D1*
X8521Y42734D1*
X8321D1*
X9367Y42131D2*
X9137Y42734D1*
X8908Y42131D1*
X8994Y42332D2*
X9281D1*
X8078Y41733D2*
X7791D1*
X7763Y41475D1*
X7791Y41503D1*
X7877Y41533D1*
X7963D1*
X8049Y41503D1*
X8107Y41446D1*
X8135Y41360D1*
Y41303D1*
X8107Y41217D1*
X8049Y41159D1*
X7963Y41131D1*
X7877D1*
X7791Y41159D1*
X7763Y41188D1*
X7733Y41245D1*
X8321Y41734D2*
X8550Y41131D1*
X8779Y41734D1*
X8587Y11840D2*
X8558Y11897D1*
X8500Y11955D1*
X8443Y11984D1*
X8329D1*
X8271Y11955D1*
X8214Y11897D1*
X8185Y11840D1*
X8156Y11754D1*
Y11610D1*
X8185Y11525D1*
X8214Y11467D1*
X8271Y11410D1*
X8329Y11381D1*
X8443D1*
X8500Y11410D1*
X8558Y11467D1*
X8587Y11525D1*
Y11610D1*
X8443D1*
X9174Y11984D2*
Y11381D1*
X8772Y11984D1*
Y11381D1*
X9359Y11984D2*
Y11381D1*
X9560D1*
X9646Y11410D1*
X9704Y11467D1*
X9732Y11525D1*
X9761Y11610D1*
Y11754D1*
X9732Y11840D1*
X9704Y11897D1*
X9646Y11955D1*
X9560Y11984D1*
X9359D1*
X8558Y10897D2*
X8501Y10955D1*
X8415Y10984D1*
X8300D1*
X8214Y10955D1*
X8156Y10897D1*
Y10840D1*
X8185Y10783D1*
X8214Y10754D1*
X8271Y10726D1*
X8443Y10668D1*
X8501Y10639D1*
X8530Y10610D1*
X8558Y10553D1*
Y10467D1*
X8501Y10410D1*
X8415Y10381D1*
X8300D1*
X8214Y10410D1*
X8156Y10467D1*
X9174Y10840D2*
X9145Y10897D1*
X9088Y10955D1*
X9031Y10984D1*
X8916D1*
X8858Y10955D1*
X8801Y10897D1*
X8772Y10840D1*
X8743Y10754D1*
Y10610D1*
X8772Y10525D1*
X8801Y10467D1*
X8858Y10410D1*
X8916Y10381D1*
X9031D1*
X9088Y10410D1*
X9145Y10467D1*
X9174Y10525D1*
X9359Y10984D2*
Y10381D1*
X9703D1*
X8635Y9897D2*
X8578Y9955D1*
X8492Y9984D1*
X8377D1*
X8291Y9955D1*
X8233Y9897D1*
Y9840D1*
X8263Y9783D1*
X8291Y9754D1*
X8348Y9726D1*
X8521Y9668D1*
X8578Y9639D1*
X8607Y9610D1*
X8635Y9553D1*
Y9467D1*
X8578Y9410D1*
X8492Y9381D1*
X8377D1*
X8291Y9410D1*
X8233Y9467D1*
X8821Y9984D2*
Y9381D1*
X9021D1*
X9108Y9410D1*
X9165Y9467D1*
X9194Y9525D1*
X9222Y9610D1*
Y9754D1*
X9194Y9840D1*
X9165Y9897D1*
X9108Y9955D1*
X9021Y9984D1*
X8821D1*
X9867Y9381D2*
X9637Y9984D1*
X9408Y9381D1*
X9494Y9582D2*
X9781D1*
X8578Y8983D2*
X8291D1*
X8263Y8725D1*
X8291Y8753D1*
X8377Y8783D1*
X8463D1*
X8549Y8753D1*
X8607Y8696D1*
X8635Y8610D1*
Y8553D1*
X8607Y8467D1*
X8549Y8409D1*
X8463Y8381D1*
X8377D1*
X8291Y8409D1*
X8263Y8438D1*
X8233Y8495D1*
X8821Y8984D2*
X9050Y8381D1*
X9279Y8984D1*
X43337Y26590D2*
X43308Y26647D1*
X43250Y26705D1*
X43193Y26734D1*
X43079D1*
X43021Y26705D1*
X42964Y26647D1*
X42935Y26590D1*
X42906Y26504D1*
Y26360D1*
X42935Y26275D1*
X42964Y26217D1*
X43021Y26160D1*
X43079Y26131D1*
X43193D1*
X43250Y26160D1*
X43308Y26217D1*
X43337Y26275D1*
Y26360D1*
X43193D1*
X43924Y26734D2*
Y26131D1*
X43522Y26734D1*
Y26131D1*
X44109Y26734D2*
Y26131D1*
X44310D1*
X44396Y26160D1*
X44454Y26217D1*
X44482Y26275D1*
X44511Y26360D1*
Y26504D1*
X44482Y26590D1*
X44454Y26647D1*
X44396Y26705D1*
X44310Y26734D1*
X44109D1*
X43308Y22647D2*
X43251Y22705D1*
X43165Y22734D1*
X43050D1*
X42964Y22705D1*
X42906Y22647D1*
Y22590D1*
X42935Y22533D1*
X42964Y22504D1*
X43021Y22476D1*
X43193Y22418D1*
X43251Y22389D1*
X43280Y22360D1*
X43308Y22303D1*
Y22217D1*
X43251Y22160D1*
X43165Y22131D1*
X43050D1*
X42964Y22160D1*
X42906Y22217D1*
X43924Y22590D2*
X43895Y22647D1*
X43838Y22705D1*
X43781Y22734D1*
X43666D1*
X43608Y22705D1*
X43551Y22647D1*
X43522Y22590D1*
X43493Y22504D1*
Y22360D1*
X43522Y22275D1*
X43551Y22217D1*
X43608Y22160D1*
X43666Y22131D1*
X43781D1*
X43838Y22160D1*
X43895Y22217D1*
X43924Y22275D1*
X44109Y22734D2*
Y22131D1*
X44453D1*
X43135Y23647D2*
X43078Y23705D1*
X42992Y23734D1*
X42877D1*
X42791Y23705D1*
X42733Y23647D1*
Y23590D1*
X42763Y23533D1*
X42791Y23504D1*
X42848Y23476D1*
X43021Y23418D1*
X43078Y23389D1*
X43107Y23360D1*
X43135Y23303D1*
Y23217D1*
X43078Y23160D1*
X42992Y23131D1*
X42877D1*
X42791Y23160D1*
X42733Y23217D1*
X43321Y23734D2*
Y23131D1*
X43521D1*
X43608Y23160D1*
X43665Y23217D1*
X43694Y23275D1*
X43722Y23360D1*
Y23504D1*
X43694Y23590D1*
X43665Y23647D1*
X43608Y23705D1*
X43521Y23734D1*
X43321D1*
X44367Y23131D2*
X44137Y23734D1*
X43908Y23131D1*
X43994Y23332D2*
X44281D1*
X43578Y21733D2*
X43291D1*
X43263Y21475D1*
X43291Y21503D1*
X43377Y21533D1*
X43463D1*
X43549Y21503D1*
X43607Y21446D1*
X43635Y21360D1*
Y21303D1*
X43607Y21217D1*
X43549Y21159D1*
X43463Y21131D1*
X43377D1*
X43291Y21159D1*
X43263Y21188D1*
X43233Y21245D1*
X43821Y21734D2*
X44050Y21131D1*
X44279Y21734D1*
X15095Y38693D2*
D52*
Y35980D1*
X16903Y38693D2*
X15095Y36884D1*
X15739Y37532D2*
X16903Y35980D1*
X19805D2*
X18770Y38693D1*
X17737Y35980D1*
X18125Y36884D2*
X19417D1*
X20639Y38693D2*
Y36756D1*
X20767Y36368D1*
X21027Y36111D1*
X21415Y35980D1*
X21672D1*
X22060Y36111D1*
X22319Y36368D1*
X22448Y36756D1*
Y38693D1*
X23281D2*
Y35980D1*
X24115Y38693D2*
Y35980D1*
X25664D1*
X26568Y36540D2*
D53*
X26856Y35871D1*
X27142Y36540D1*
X27498Y35967D2*
X27451Y35918D1*
X27498Y35871D1*
X27547Y35918D1*
X27498Y35967D1*
X27856Y36683D2*
X27952Y36732D1*
X28096Y36874D1*
Y35871D1*
X41378Y7920D2*
X41857Y8924D1*
X41187D1*
X42213Y8016D2*
X42166Y7968D1*
X42213Y7920D1*
X42262Y7968D1*
X42213Y8016D1*
X43144Y8924D2*
X42667D1*
X42619Y8494D1*
X42667Y8541D1*
X42810Y8590D1*
X42953D1*
X43097Y8541D1*
X43193Y8446D1*
X43240Y8303D1*
Y8208D1*
X43193Y8064D1*
X43097Y7968D1*
X42953Y7920D1*
X42810D1*
X42667Y7968D1*
X42619Y8016D1*
X42571Y8111D1*
X43549Y8590D2*
X43837Y7920D1*
X44123Y8590D1*
X40937Y20405D2*
X41033Y20454D1*
X41177Y20597D1*
Y19593D1*
X41486Y20405D2*
X41582Y20454D1*
X41726Y20597D1*
Y19593D1*
X42082Y19689D2*
X42034Y19641D1*
X42082Y19593D1*
X42130Y19641D1*
X42082Y19689D1*
X42918Y19593D2*
Y20597D1*
X42439Y19928D1*
X43157D1*
X43465Y20263D2*
X43753Y19593D1*
X44039Y20263D1*
X28068Y31941D2*
D50*
X28570Y32133D1*
X28068Y32324D1*
X28235Y32252D2*
Y32013D1*
X28331Y31786D2*
Y31571D1*
X28355Y31500D1*
X28379Y31475D1*
X28427Y31451D1*
X28475D1*
X28522Y31475D1*
X28547Y31500D1*
X28570Y31571D1*
Y31786D1*
X28068D1*
X28331Y31619D2*
X28068Y31451D1*
X28570Y30986D2*
Y31297D1*
X28068D1*
Y30986D1*
X28331Y31297D2*
Y31106D1*
X28570Y30521D2*
Y30832D1*
X28068D1*
X28331D2*
Y30641D1*
X27398Y31540D2*
X27446Y31563D1*
X27494Y31612D1*
X27517Y31659D1*
Y31755D1*
X27494Y31803D1*
X27446Y31850D1*
X27398Y31875D1*
X27326Y31898D1*
X27206D1*
X27135Y31875D1*
X27087Y31850D1*
X27039Y31803D1*
X27015Y31755D1*
Y31659D1*
X27039Y31612D1*
X27087Y31563D1*
X27135Y31540D1*
X27206D1*
Y31659D1*
X27517Y31050D2*
X27015D1*
X27517Y31385D1*
X27015D1*
X27517Y30896D2*
X27015D1*
Y30729D1*
X27039Y30657D1*
X27087Y30609D1*
X27135Y30585D1*
X27206Y30561D1*
X27326D1*
X27398Y30585D1*
X27446Y30609D1*
X27494Y30657D1*
X27517Y30729D1*
Y30896D1*
X26368Y31391D2*
D51*
X26397Y31333D1*
X26483Y31247D1*
X25881D1*
X26483Y31004D2*
Y30689D1*
X26253Y30861D1*
Y30774D1*
X26225Y30717D1*
X26196Y30689D1*
X26110Y30660D1*
X26053D1*
X25967Y30689D1*
X25909Y30746D1*
X25881Y30832D1*
Y30918D1*
X25909Y31004D1*
X25938Y31032D1*
X25995Y31061D1*
X25368Y31391D2*
X25397Y31333D1*
X25483Y31247D1*
X24881D1*
X25340Y31032D2*
X25368D1*
X25426Y31004D1*
X25454Y30975D1*
X25483Y30918D1*
Y30803D1*
X25454Y30746D1*
X25426Y30717D1*
X25368Y30688D1*
X25311D1*
X25253Y30717D1*
X25168Y30774D1*
X24881Y31061D1*
Y30660D1*
X44687Y24422D2*
D53*
X45240D1*
X44687D2*
X45240D1*
X44687D2*
X45240D1*
X44687D2*
X45240D1*
X44687D2*
X45240D1*
X24182Y31641D2*
D51*
Y31309D1*
X24368Y31124D2*
X24397Y31066D1*
X24483Y30980D1*
X23881D1*
X24368Y30795D2*
X24397Y30737D1*
X24483Y30651D1*
X23881D1*
X23266Y31648D2*
D50*
Y31372D1*
X23421Y31218D2*
X23446Y31170D1*
X23517Y31098D1*
X23015D1*
X23517Y30800D2*
X23493Y30871D1*
X23421Y30920D1*
X23302Y30943D1*
X23230D1*
X23111Y30920D1*
X23039Y30871D1*
X23015Y30800D1*
Y30752D1*
X23039Y30680D1*
X23111Y30633D1*
X23230Y30608D1*
X23302D1*
X23421Y30633D1*
X23493Y30680D1*
X23517Y30752D1*
Y30800D1*
X23421Y30633D2*
X23111Y30920D1*
X22266Y31398D2*
Y31122D1*
X22350Y30657D2*
X22278Y30681D1*
X22230Y30728D1*
X22206Y30800D1*
Y30824D1*
X22230Y30896D1*
X22278Y30943D1*
X22350Y30968D1*
X22374D1*
X22446Y30943D1*
X22493Y30896D1*
X22517Y30824D1*
Y30800D1*
X22493Y30728D1*
X22446Y30681D1*
X22350Y30657D1*
X22230D1*
X22111Y30681D1*
X22039Y30728D1*
X22015Y30800D1*
Y30848D1*
X22039Y30920D1*
X22087Y30943D1*
X21483Y30997D2*
D51*
X21454Y31083D1*
X21397Y31112D1*
X21340D1*
X21283Y31083D1*
X21253Y31026D1*
X21225Y30911D1*
X21196Y30825D1*
X21139Y30768D1*
X21082Y30739D1*
X20995D1*
X20938Y30768D1*
X20909Y30796D1*
X20881Y30883D1*
Y30997D1*
X20909Y31083D1*
X20938Y31112D1*
X20995Y31141D1*
X21082D1*
X21139Y31112D1*
X21196Y31054D1*
X21225Y30969D1*
X21253Y30854D1*
X21283Y30796D1*
X21340Y30768D1*
X21397D1*
X21454Y30796D1*
X21483Y30883D1*
Y30997D1*
X18988Y31105D2*
D50*
X19490Y30865D1*
Y31200D1*
X18299Y31607D2*
Y31330D1*
X18479Y30889D2*
X18526Y30913D1*
X18550Y30985D1*
Y31032D1*
X18526Y31104D1*
X18454Y31152D1*
X18335Y31176D1*
X18215D1*
X18120Y31152D1*
X18072Y31104D1*
X18048Y31032D1*
Y31009D1*
X18072Y30937D1*
X18120Y30889D1*
X18192Y30865D1*
X18215D1*
X18287Y30889D1*
X18335Y30937D1*
X18359Y31009D1*
Y31032D1*
X18335Y31104D1*
X18287Y31152D1*
X18215Y31176D1*
X17311Y31619D2*
Y31343D1*
X17562Y30901D2*
Y31140D1*
X17347Y31164D1*
X17371Y31140D1*
X17395Y31068D1*
Y30997D1*
X17371Y30925D1*
X17323Y30877D1*
X17251Y30853D1*
X17204D1*
X17132Y30877D1*
X17084Y30925D1*
X17060Y30997D1*
Y31068D1*
X17084Y31140D1*
X17108Y31164D1*
X17156Y31188D1*
X16028Y31013D2*
X16530D1*
X16195Y31252D1*
Y30893D1*
X15236Y31648D2*
Y31372D1*
X15486Y31170D2*
Y30907D1*
X15295Y31050D1*
Y30978D1*
X15271Y30931D1*
X15248Y30907D1*
X15176Y30883D1*
X15128D1*
X15056Y30907D1*
X15008Y30955D1*
X14985Y31026D1*
Y31098D1*
X15008Y31170D1*
X15033Y31193D1*
X15080Y31218D1*
X14373Y31176D2*
X14397D1*
X14445Y31152D1*
X14469Y31128D1*
X14493Y31080D1*
Y30985D1*
X14469Y30937D1*
X14445Y30913D1*
X14397Y30889D1*
X14350D1*
X14302Y30913D1*
X14230Y30961D1*
X13991Y31200D1*
Y30865D1*
X13369Y32434D2*
D54*
X12967D1*
X13369Y32568D2*
Y32300D1*
Y32177D2*
X12967Y31909D1*
X13369D2*
X12967Y32177D1*
X13168Y31785D2*
Y31564D1*
X13340Y31440D2*
X13167Y31134D1*
X12995Y31440D1*
X13292Y31011D2*
X13311Y30972D1*
X13368Y30915D1*
X12967D1*
X12110Y32656D2*
Y32484D1*
X12129Y32427D1*
X12148Y32407D1*
X12186Y32388D1*
X12225D1*
X12263Y32407D1*
X12282Y32427D1*
X12301Y32484D1*
Y32656D1*
X11899D1*
X12110Y32522D2*
X11899Y32388D1*
X12301Y32265D2*
X11899Y31997D1*
X12301D2*
X11899Y32265D1*
X12272Y31567D2*
X12100Y31873D1*
X11928Y31567D1*
X12100Y31444D2*
Y31223D1*
X12301Y30984D2*
X12282Y31042D1*
X12224Y31080D1*
X12129Y31099D1*
X12071D1*
X11976Y31080D1*
X11918Y31042D1*
X11899Y30984D1*
Y30946D1*
X11918Y30889D1*
X11976Y30851D1*
X12071Y30831D1*
X12129D1*
X12224Y30851D1*
X12282Y30889D1*
X12301Y30946D1*
Y30984D1*
X12224Y30851D2*
X11976Y31080D1*
X17476Y32595D2*
D50*
Y32092D1*
X17643D1*
X17715Y32117D1*
X17763Y32164D1*
X17787Y32212D1*
X17811Y32283D1*
Y32403D1*
X17787Y32475D1*
X17763Y32523D1*
X17715Y32571D1*
X17643Y32595D1*
X17476D1*
X17965D2*
Y32092D1*
X18478Y32475D2*
X18454Y32523D1*
X18406Y32571D1*
X18359Y32595D1*
X18263D1*
X18215Y32571D1*
X18167Y32523D1*
X18143Y32475D1*
X18119Y32403D1*
Y32283D1*
X18143Y32212D1*
X18167Y32164D1*
X18215Y32117D1*
X18263Y32092D1*
X18359D1*
X18406Y32117D1*
X18454Y32164D1*
X18478Y32212D1*
Y32283D1*
X18359D1*
X18632Y32595D2*
Y32092D1*
X18954Y32595D2*
Y32092D1*
X18787Y32595D2*
X19122D1*
X19659Y32092D2*
X19467Y32595D1*
X19276Y32092D1*
X19348Y32260D2*
X19587D1*
X19814Y32595D2*
Y32092D1*
X20100D1*
X20908Y32726D2*
X20860Y32678D1*
X20813Y32606D1*
X20765Y32511D1*
X20741Y32391D1*
Y32295D1*
X20765Y32176D1*
X20813Y32080D1*
X20860Y32008D1*
X20908Y31961D1*
X21063Y32332D2*
X21278D1*
X21350Y32355D1*
X21374Y32380D1*
X21398Y32427D1*
Y32499D1*
X21374Y32547D1*
X21350Y32571D1*
X21278Y32595D1*
X21063D1*
Y32092D1*
X21552Y32595D2*
X21672Y32092D1*
X21791Y32595D1*
X21911Y32092D1*
X22031Y32595D1*
X22567Y32092D2*
Y32595D1*
X22376Y32092D1*
X22185Y32595D1*
Y32092D1*
X22722Y32343D2*
X22998D1*
X23153Y32726D2*
X23201Y32678D1*
X23248Y32606D1*
X23296Y32511D1*
X23320Y32391D1*
Y32295D1*
X23296Y32176D1*
X23248Y32080D1*
X23201Y32008D1*
X23153Y31961D1*
X26168Y25905D2*
D55*
X26871Y26174D1*
X26168Y26441D1*
X26402Y26341D2*
Y26006D1*
X26870Y25488D2*
X26837Y25588D1*
X26736Y25656D1*
X26569Y25689D1*
X26469D1*
X26302Y25656D1*
X26201Y25588D1*
X26168Y25488D1*
Y25421D1*
X26201Y25321D1*
X26302Y25254D1*
X26469Y25220D1*
X26569D1*
X26736Y25254D1*
X26837Y25321D1*
X26870Y25421D1*
Y25488D1*
X26736Y25254D2*
X26302Y25656D1*
X25159Y25862D2*
X25863Y26131D1*
X25159Y26398D1*
X25394Y26298D2*
Y25963D1*
X25728Y25646D2*
X25762Y25579D1*
X25862Y25478D1*
X25159D1*
X24180Y25878D2*
X24883Y26147D1*
X24180Y26415D1*
X24414Y26314D2*
Y25979D1*
X24715Y25628D2*
X24749D1*
X24816Y25595D1*
X24849Y25562D1*
X24882Y25494D1*
Y25360D1*
X24849Y25294D1*
X24816Y25261D1*
X24749Y25227D1*
X24682D1*
X24615Y25261D1*
X24515Y25327D1*
X24180Y25662D1*
Y25193D1*
X23229Y25866D2*
X23932Y26134D1*
X23229Y26402D1*
X23463Y26301D2*
Y25966D1*
X23931Y25582D2*
Y25215D1*
X23663Y25415D1*
Y25315D1*
X23630Y25248D1*
X23597Y25215D1*
X23496Y25181D1*
X23430D1*
X23329Y25215D1*
X23262Y25281D1*
X23229Y25382D1*
Y25483D1*
X23262Y25582D1*
X23296Y25616D1*
X23362Y25650D1*
X22253Y25936D2*
D51*
X22856Y26166D1*
X22253Y26396D1*
X22454Y26309D2*
Y26022D1*
X22253Y25464D2*
X22855D1*
X22454Y25751D1*
Y25320D1*
X21111Y25887D2*
D55*
X21814Y26155D1*
X21111Y26423D1*
X21345Y26322D2*
Y25987D1*
X21813Y25269D2*
Y25603D1*
X21512Y25637D1*
X21546Y25603D1*
X21580Y25503D1*
Y25403D1*
X21546Y25302D1*
X21479Y25235D1*
X21379Y25202D1*
X21312D1*
X21211Y25235D1*
X21144Y25302D1*
X21111Y25403D1*
Y25503D1*
X21144Y25603D1*
X21178Y25637D1*
X21245Y25671D1*
X22032Y26863D2*
D51*
X21802Y27466D1*
X21573Y26863D1*
X21659Y27064D2*
X21946D1*
X22620Y27466D2*
Y26863D1*
X22218Y27466D1*
Y26863D1*
X23264D2*
X23034Y27466D1*
X22805Y26863D1*
X22891Y27064D2*
X23178D1*
X23450Y27466D2*
Y26863D1*
X23794D1*
X24152Y27466D2*
X24094Y27438D1*
X24037Y27380D1*
X24008Y27323D1*
X23979Y27237D1*
Y27093D1*
X24008Y27007D1*
X24037Y26950D1*
X24094Y26892D1*
X24152Y26863D1*
X24266D1*
X24323Y26892D1*
X24381Y26950D1*
X24410Y27007D1*
X24438Y27093D1*
Y27237D1*
X24410Y27323D1*
X24381Y27380D1*
X24323Y27438D1*
X24266Y27466D1*
X24152D1*
X25054Y27323D2*
X25025Y27380D1*
X24968Y27438D1*
X24911Y27466D1*
X24796D1*
X24738Y27438D1*
X24681Y27380D1*
X24652Y27323D1*
X24623Y27237D1*
Y27093D1*
X24652Y27007D1*
X24681Y26950D1*
X24738Y26892D1*
X24796Y26863D1*
X24911D1*
X24968Y26892D1*
X25025Y26950D1*
X25054Y27007D1*
Y27093D1*
X24911D1*
X25822Y27466D2*
Y26863D1*
X26410Y27466D2*
Y26863D1*
X26008Y27466D1*
Y26863D1*
X13796Y50568D2*
D50*
X13820Y50520D1*
X13868Y50472D1*
X13915Y50448D1*
X14011D1*
X14059Y50472D1*
X14107Y50520D1*
X14131Y50568D1*
X14155Y50640D1*
Y50760D1*
X14131Y50831D1*
X14107Y50879D1*
X14059Y50927D1*
X14011Y50951D1*
X13915D1*
X13868Y50927D1*
X13820Y50879D1*
X13796Y50831D1*
Y50760D1*
X13915D1*
X13307Y50448D2*
Y50951D1*
X13642Y50448D1*
Y50951D1*
X13152Y50448D2*
Y50951D1*
X12985D1*
X12913Y50927D1*
X12865Y50879D1*
X12841Y50831D1*
X12817Y50760D1*
Y50640D1*
X12841Y50568D1*
X12865Y50520D1*
X12913Y50472D1*
X12985Y50448D1*
X13152D1*
X20046Y50568D2*
X20070Y50520D1*
X20118Y50472D1*
X20165Y50448D1*
X20261D1*
X20309Y50472D1*
X20357Y50520D1*
X20381Y50568D1*
X20405Y50640D1*
Y50760D1*
X20381Y50831D1*
X20357Y50879D1*
X20309Y50927D1*
X20261Y50951D1*
X20165D1*
X20118Y50927D1*
X20070Y50879D1*
X20046Y50831D1*
Y50760D1*
X20165D1*
X19557Y50448D2*
Y50951D1*
X19892Y50448D1*
Y50951D1*
X19402Y50448D2*
Y50951D1*
X19235D1*
X19163Y50927D1*
X19115Y50879D1*
X19091Y50831D1*
X19067Y50760D1*
Y50640D1*
X19091Y50568D1*
X19115Y50520D1*
X19163Y50472D1*
X19235Y50448D1*
X19402D1*
X26296Y50568D2*
X26320Y50520D1*
X26368Y50472D1*
X26415Y50448D1*
X26511D1*
X26559Y50472D1*
X26607Y50520D1*
X26631Y50568D1*
X26655Y50640D1*
Y50760D1*
X26631Y50831D1*
X26607Y50879D1*
X26559Y50927D1*
X26511Y50951D1*
X26415D1*
X26368Y50927D1*
X26320Y50879D1*
X26296Y50831D1*
Y50760D1*
X26415D1*
X25807Y50448D2*
Y50951D1*
X26142Y50448D1*
Y50951D1*
X25652Y50448D2*
Y50951D1*
X25485D1*
X25413Y50927D1*
X25365Y50879D1*
X25341Y50831D1*
X25317Y50760D1*
Y50640D1*
X25341Y50568D1*
X25365Y50520D1*
X25413Y50472D1*
X25485Y50448D1*
X25652D1*
X11656Y40484D2*
D51*
X11886Y39881D1*
X12115Y40484D1*
X12300D2*
X12329Y40455D1*
X12358Y40484D1*
X12329Y40513D1*
X12300Y40484D1*
X12329Y40283D2*
Y39881D1*
X12543Y40283D2*
Y39881D1*
Y40168D2*
X12630Y40254D1*
X12687Y40283D1*
X12773D1*
X12831Y40254D1*
X12859Y40168D1*
Y39881D1*
X11656Y17984D2*
X11886Y17381D1*
X12115Y17984D1*
X12300D2*
X12329Y17955D1*
X12358Y17984D1*
X12329Y18013D1*
X12300Y17984D1*
X12329Y17783D2*
Y17381D1*
X12543Y17783D2*
Y17381D1*
Y17668D2*
X12630Y17754D1*
X12687Y17783D1*
X12773D1*
X12831Y17754D1*
X12859Y17668D1*
Y17381D1*
X26164Y40450D2*
D55*
X26432Y39746D1*
X26699Y40450D1*
X27083Y40215D2*
X27016Y40182D1*
X26949Y40115D1*
X26915Y40014D1*
Y39947D1*
X26949Y39847D1*
X27016Y39780D1*
X27083Y39746D1*
X27183D1*
X27250Y39780D1*
X27317Y39847D1*
X27351Y39947D1*
Y40014D1*
X27317Y40115D1*
X27250Y40182D1*
X27183Y40215D1*
X27083D1*
X27567D2*
Y39880D1*
X27601Y39780D1*
X27668Y39746D1*
X27768D1*
X27835Y39780D1*
X27936Y39880D1*
Y40215D2*
Y39746D1*
X28252Y40450D2*
Y39880D1*
X28286Y39780D1*
X28353Y39746D1*
X28419D1*
X28152Y40215D2*
X28386D1*
X25664Y18450D2*
X25932Y17746D1*
X26199Y18450D1*
X26583Y18215D2*
X26516Y18182D1*
X26449Y18115D1*
X26415Y18014D1*
Y17947D1*
X26449Y17847D1*
X26516Y17780D1*
X26583Y17746D1*
X26683D1*
X26750Y17780D1*
X26817Y17847D1*
X26851Y17947D1*
Y18014D1*
X26817Y18115D1*
X26750Y18182D1*
X26683Y18215D1*
X26583D1*
X27067D2*
Y17880D1*
X27101Y17780D1*
X27168Y17746D1*
X27268D1*
X27335Y17780D1*
X27436Y17880D1*
Y18215D2*
Y17746D1*
X27752Y18450D2*
Y17880D1*
X27786Y17780D1*
X27853Y17746D1*
X27919D1*
X27652Y18215D2*
X27886D1*
X10676Y5642D2*
D50*
X10652Y5689D1*
X10604Y5737D1*
X10557Y5761D1*
X10461D1*
X10413Y5737D1*
X10366Y5689D1*
X10341Y5642D1*
X10317Y5570D1*
Y5450D1*
X10341Y5379D1*
X10366Y5331D1*
X10413Y5283D1*
X10461Y5259D1*
X10557D1*
X10604Y5283D1*
X10652Y5331D1*
X10676Y5379D1*
Y5450D1*
X10557D1*
X11165Y5761D2*
Y5259D1*
X10831Y5761D1*
Y5259D1*
X11320Y5761D2*
Y5259D1*
X11487D1*
X11559Y5283D1*
X11607Y5331D1*
X11631Y5379D1*
X11655Y5450D1*
Y5570D1*
X11631Y5642D1*
X11607Y5689D1*
X11559Y5737D1*
X11487Y5761D1*
X11320D1*
X17176Y5642D2*
X17152Y5689D1*
X17104Y5737D1*
X17057Y5761D1*
X16961D1*
X16913Y5737D1*
X16866Y5689D1*
X16841Y5642D1*
X16817Y5570D1*
Y5450D1*
X16841Y5379D1*
X16866Y5331D1*
X16913Y5283D1*
X16961Y5259D1*
X17057D1*
X17104Y5283D1*
X17152Y5331D1*
X17176Y5379D1*
Y5450D1*
X17057D1*
X17665Y5761D2*
Y5259D1*
X17331Y5761D1*
Y5259D1*
X17820Y5761D2*
Y5259D1*
X17987D1*
X18059Y5283D1*
X18107Y5331D1*
X18131Y5379D1*
X18155Y5450D1*
Y5570D1*
X18131Y5642D1*
X18107Y5689D1*
X18059Y5737D1*
X17987Y5761D1*
X17820D1*
X23176Y5642D2*
X23152Y5689D1*
X23104Y5737D1*
X23057Y5761D1*
X22961D1*
X22913Y5737D1*
X22866Y5689D1*
X22841Y5642D1*
X22817Y5570D1*
Y5450D1*
X22841Y5379D1*
X22866Y5331D1*
X22913Y5283D1*
X22961Y5259D1*
X23057D1*
X23104Y5283D1*
X23152Y5331D1*
X23176Y5379D1*
Y5450D1*
X23057D1*
X23665Y5761D2*
Y5259D1*
X23331Y5761D1*
Y5259D1*
X23820Y5761D2*
Y5259D1*
X23987D1*
X24059Y5283D1*
X24107Y5331D1*
X24131Y5379D1*
X24155Y5450D1*
Y5570D1*
X24131Y5642D1*
X24107Y5689D1*
X24059Y5737D1*
X23987Y5761D1*
X23820D1*
X5398Y34540D2*
X5446Y34563D1*
X5494Y34612D1*
X5517Y34659D1*
Y34755D1*
X5494Y34803D1*
X5446Y34850D1*
X5398Y34875D1*
X5326Y34898D1*
X5206D1*
X5135Y34875D1*
X5087Y34850D1*
X5039Y34803D1*
X5015Y34755D1*
Y34659D1*
X5039Y34612D1*
X5087Y34563D1*
X5135Y34540D1*
X5206D1*
Y34659D1*
X5517Y34050D2*
X5015D1*
X5517Y34385D1*
X5015D1*
X5517Y33896D2*
X5015D1*
Y33729D1*
X5039Y33657D1*
X5087Y33609D1*
X5135Y33585D1*
X5206Y33561D1*
X5326D1*
X5398Y33585D1*
X5446Y33609D1*
X5494Y33657D1*
X5517Y33729D1*
Y33896D1*
X5398Y29540D2*
X5446Y29563D1*
X5494Y29612D1*
X5517Y29659D1*
Y29755D1*
X5494Y29803D1*
X5446Y29850D1*
X5398Y29875D1*
X5326Y29898D1*
X5206D1*
X5135Y29875D1*
X5087Y29850D1*
X5039Y29803D1*
X5015Y29755D1*
Y29659D1*
X5039Y29612D1*
X5087Y29563D1*
X5135Y29540D1*
X5206D1*
Y29659D1*
X5517Y29050D2*
X5015D1*
X5517Y29385D1*
X5015D1*
X5517Y28896D2*
X5015D1*
Y28729D1*
X5039Y28657D1*
X5087Y28609D1*
X5135Y28585D1*
X5206Y28561D1*
X5326D1*
X5398Y28585D1*
X5446Y28609D1*
X5494Y28657D1*
X5517Y28729D1*
Y28896D1*
X5398Y24540D2*
X5446Y24563D1*
X5494Y24612D1*
X5517Y24659D1*
Y24755D1*
X5494Y24803D1*
X5446Y24850D1*
X5398Y24875D1*
X5326Y24898D1*
X5206D1*
X5135Y24875D1*
X5087Y24850D1*
X5039Y24803D1*
X5015Y24755D1*
Y24659D1*
X5039Y24612D1*
X5087Y24563D1*
X5135Y24540D1*
X5206D1*
Y24659D1*
X5517Y24050D2*
X5015D1*
X5517Y24385D1*
X5015D1*
X5517Y23896D2*
X5015D1*
Y23729D1*
X5039Y23657D1*
X5087Y23609D1*
X5135Y23585D1*
X5206Y23561D1*
X5326D1*
X5398Y23585D1*
X5446Y23609D1*
X5494Y23657D1*
X5517Y23729D1*
Y23896D1*
X5398Y19790D2*
X5446Y19813D1*
X5494Y19862D1*
X5517Y19909D1*
Y20005D1*
X5494Y20053D1*
X5446Y20100D1*
X5398Y20125D1*
X5326Y20148D1*
X5206D1*
X5135Y20125D1*
X5087Y20100D1*
X5039Y20053D1*
X5015Y20005D1*
Y19909D1*
X5039Y19862D1*
X5087Y19813D1*
X5135Y19790D1*
X5206D1*
Y19909D1*
X5517Y19300D2*
X5015D1*
X5517Y19635D1*
X5015D1*
X5517Y19146D2*
X5015D1*
Y18979D1*
X5039Y18907D1*
X5087Y18859D1*
X5135Y18835D1*
X5206Y18811D1*
X5326D1*
X5398Y18835D1*
X5446Y18859D1*
X5494Y18907D1*
X5517Y18979D1*
Y19146D1*
X14426Y15392D2*
X14402Y15439D1*
X14354Y15487D1*
X14307Y15511D1*
X14211D1*
X14163Y15487D1*
X14116Y15439D1*
X14091Y15392D1*
X14067Y15320D1*
Y15200D1*
X14091Y15129D1*
X14116Y15081D1*
X14163Y15033D1*
X14211Y15009D1*
X14307D1*
X14354Y15033D1*
X14402Y15081D1*
X14426Y15129D1*
Y15200D1*
X14307D1*
X14915Y15511D2*
Y15009D1*
X14581Y15511D1*
Y15009D1*
X15070Y15511D2*
Y15009D1*
X15237D1*
X15309Y15033D1*
X15357Y15081D1*
X15381Y15129D1*
X15405Y15200D1*
Y15320D1*
X15381Y15392D1*
X15357Y15439D1*
X15309Y15487D1*
X15237Y15511D1*
X15070D1*
X14426Y44642D2*
X14402Y44689D1*
X14354Y44737D1*
X14307Y44761D1*
X14211D1*
X14163Y44737D1*
X14116Y44689D1*
X14091Y44642D1*
X14067Y44570D1*
Y44450D1*
X14091Y44379D1*
X14116Y44331D1*
X14163Y44283D1*
X14211Y44259D1*
X14307D1*
X14354Y44283D1*
X14402Y44331D1*
X14426Y44379D1*
Y44450D1*
X14307D1*
X14915Y44761D2*
Y44259D1*
X14581Y44761D1*
Y44259D1*
X15070Y44761D2*
Y44259D1*
X15237D1*
X15309Y44283D1*
X15357Y44331D1*
X15381Y44379D1*
X15405Y44450D1*
Y44570D1*
X15381Y44642D1*
X15357Y44689D1*
X15309Y44737D1*
X15237Y44761D1*
X15070D1*
M02*
